%TF.GenerationSoftware,KiCad,Pcbnew,(6.0.0)*%
%TF.CreationDate,2022-01-14T09:14:34+00:00*%
%TF.ProjectId,ampli1,616d706c-6931-42e6-9b69-6361645f7063,rev?*%
%TF.SameCoordinates,Original*%
%TF.FileFunction,Soldermask,Top*%
%TF.FilePolarity,Negative*%
%FSLAX46Y46*%
G04 Gerber Fmt 4.6, Leading zero omitted, Abs format (unit mm)*
G04 Created by KiCad (PCBNEW (6.0.0)) date 2022-01-14 09:14:34*
%MOMM*%
%LPD*%
G01*
G04 APERTURE LIST*
%ADD10R,1.700000X1.700000*%
%ADD11O,1.700000X1.700000*%
%ADD12R,1.500000X1.050000*%
%ADD13O,1.500000X1.050000*%
%ADD14R,2.000000X2.000000*%
%ADD15C,2.000000*%
%ADD16C,1.600000*%
%ADD17O,1.600000X1.600000*%
%ADD18R,1.050000X1.500000*%
%ADD19O,1.050000X1.500000*%
%ADD20C,1.620000*%
%ADD21R,2.400000X2.400000*%
%ADD22C,2.400000*%
G04 APERTURE END LIST*
D10*
%TO.C,V1*%
X126590000Y-74415000D03*
D11*
X124050000Y-74415000D03*
%TD*%
D12*
%TO.C,Q2*%
X132540000Y-85490000D03*
D13*
X132540000Y-86760000D03*
X132540000Y-88030000D03*
%TD*%
D14*
%TO.C,C1*%
X119457677Y-102430000D03*
D15*
X114457677Y-102430000D03*
%TD*%
D16*
%TO.C,R4*%
X130030000Y-96080000D03*
D17*
X130030000Y-106240000D03*
%TD*%
D16*
%TO.C,R5*%
X125340000Y-106240000D03*
D17*
X125340000Y-96080000D03*
%TD*%
D16*
%TO.C,R1*%
X109710000Y-94450000D03*
D17*
X119870000Y-94450000D03*
%TD*%
D14*
%TO.C,C3*%
X124020000Y-85880000D03*
D15*
X124020000Y-80880000D03*
%TD*%
D16*
%TO.C,R3*%
X115810000Y-90950000D03*
D17*
X125970000Y-90950000D03*
%TD*%
D18*
%TO.C,Q1*%
X113670000Y-86950000D03*
D19*
X114940000Y-86950000D03*
X116210000Y-86950000D03*
%TD*%
D14*
%TO.C,C5*%
X140982323Y-89620000D03*
D15*
X145982323Y-89620000D03*
%TD*%
D16*
%TO.C,R2*%
X106080000Y-95260000D03*
D17*
X106080000Y-85100000D03*
%TD*%
D10*
%TO.C,J1*%
X99330000Y-88600000D03*
D11*
X99330000Y-86060000D03*
%TD*%
D16*
%TO.C,R7*%
X142590000Y-81720000D03*
D17*
X132430000Y-81720000D03*
%TD*%
D10*
%TO.C,J2*%
X139330000Y-72965000D03*
D11*
X136790000Y-72965000D03*
%TD*%
D20*
%TO.C,RV1*%
X133275000Y-93460000D03*
X135775000Y-95960000D03*
X133275000Y-98460000D03*
%TD*%
D21*
%TO.C,C4*%
X106029794Y-74530000D03*
D22*
X113529794Y-74530000D03*
%TD*%
D16*
%TO.C,R6*%
X139550000Y-95960000D03*
D17*
X139550000Y-106120000D03*
%TD*%
D16*
%TO.C,R8*%
X132430000Y-78150000D03*
D17*
X142590000Y-78150000D03*
%TD*%
D14*
%TO.C,C2*%
X103390000Y-104037677D03*
D15*
X103390000Y-99037677D03*
%TD*%
M02*
