%TF.GenerationSoftware,KiCad,Pcbnew,(6.0.0)*%
%TF.CreationDate,2022-01-14T09:14:34+00:00*%
%TF.ProjectId,ampli1,616d706c-6931-42e6-9b69-6361645f7063,rev?*%
%TF.SameCoordinates,Original*%
%TF.FileFunction,Legend,Top*%
%TF.FilePolarity,Positive*%
%FSLAX46Y46*%
G04 Gerber Fmt 4.6, Leading zero omitted, Abs format (unit mm)*
G04 Created by KiCad (PCBNEW (6.0.0)) date 2022-01-14 09:14:34*
%MOMM*%
%LPD*%
G01*
G04 APERTURE LIST*
%ADD10C,0.150000*%
%ADD11C,0.120000*%
G04 APERTURE END LIST*
D10*
%TO.C,V1*%
X128812380Y-75224523D02*
X129812380Y-74891190D01*
X128812380Y-74557857D01*
X129812380Y-73700714D02*
X129812380Y-74272142D01*
X129812380Y-73986428D02*
X128812380Y-73986428D01*
X128955238Y-74081666D01*
X129050476Y-74176904D01*
X129098095Y-74272142D01*
%TO.C,Q2*%
X136647619Y-86855238D02*
X136600000Y-86950476D01*
X136504761Y-87045714D01*
X136361904Y-87188571D01*
X136314285Y-87283809D01*
X136314285Y-87379047D01*
X136552380Y-87331428D02*
X136504761Y-87426666D01*
X136409523Y-87521904D01*
X136219047Y-87569523D01*
X135885714Y-87569523D01*
X135695238Y-87521904D01*
X135600000Y-87426666D01*
X135552380Y-87331428D01*
X135552380Y-87140952D01*
X135600000Y-87045714D01*
X135695238Y-86950476D01*
X135885714Y-86902857D01*
X136219047Y-86902857D01*
X136409523Y-86950476D01*
X136504761Y-87045714D01*
X136552380Y-87140952D01*
X136552380Y-87331428D01*
X135647619Y-86521904D02*
X135600000Y-86474285D01*
X135552380Y-86379047D01*
X135552380Y-86140952D01*
X135600000Y-86045714D01*
X135647619Y-85998095D01*
X135742857Y-85950476D01*
X135838095Y-85950476D01*
X135980952Y-85998095D01*
X136552380Y-86569523D01*
X136552380Y-85950476D01*
%TO.C,C1*%
X116791010Y-109037142D02*
X116743391Y-109084761D01*
X116600534Y-109132380D01*
X116505296Y-109132380D01*
X116362438Y-109084761D01*
X116267200Y-108989523D01*
X116219581Y-108894285D01*
X116171962Y-108703809D01*
X116171962Y-108560952D01*
X116219581Y-108370476D01*
X116267200Y-108275238D01*
X116362438Y-108180000D01*
X116505296Y-108132380D01*
X116600534Y-108132380D01*
X116743391Y-108180000D01*
X116791010Y-108227619D01*
X117743391Y-109132380D02*
X117171962Y-109132380D01*
X117457677Y-109132380D02*
X117457677Y-108132380D01*
X117362438Y-108275238D01*
X117267200Y-108370476D01*
X117171962Y-108418095D01*
%TO.C,R4*%
X132852380Y-101326666D02*
X132376190Y-101660000D01*
X132852380Y-101898095D02*
X131852380Y-101898095D01*
X131852380Y-101517142D01*
X131900000Y-101421904D01*
X131947619Y-101374285D01*
X132042857Y-101326666D01*
X132185714Y-101326666D01*
X132280952Y-101374285D01*
X132328571Y-101421904D01*
X132376190Y-101517142D01*
X132376190Y-101898095D01*
X132185714Y-100469523D02*
X132852380Y-100469523D01*
X131804761Y-100707619D02*
X132519047Y-100945714D01*
X132519047Y-100326666D01*
%TO.C,R5*%
X123422380Y-101326666D02*
X122946190Y-101660000D01*
X123422380Y-101898095D02*
X122422380Y-101898095D01*
X122422380Y-101517142D01*
X122470000Y-101421904D01*
X122517619Y-101374285D01*
X122612857Y-101326666D01*
X122755714Y-101326666D01*
X122850952Y-101374285D01*
X122898571Y-101421904D01*
X122946190Y-101517142D01*
X122946190Y-101898095D01*
X122422380Y-100421904D02*
X122422380Y-100898095D01*
X122898571Y-100945714D01*
X122850952Y-100898095D01*
X122803333Y-100802857D01*
X122803333Y-100564761D01*
X122850952Y-100469523D01*
X122898571Y-100421904D01*
X122993809Y-100374285D01*
X123231904Y-100374285D01*
X123327142Y-100421904D01*
X123374761Y-100469523D01*
X123422380Y-100564761D01*
X123422380Y-100802857D01*
X123374761Y-100898095D01*
X123327142Y-100945714D01*
%TO.C,R1*%
X114623333Y-92532380D02*
X114290000Y-92056190D01*
X114051904Y-92532380D02*
X114051904Y-91532380D01*
X114432857Y-91532380D01*
X114528095Y-91580000D01*
X114575714Y-91627619D01*
X114623333Y-91722857D01*
X114623333Y-91865714D01*
X114575714Y-91960952D01*
X114528095Y-92008571D01*
X114432857Y-92056190D01*
X114051904Y-92056190D01*
X115575714Y-92532380D02*
X115004285Y-92532380D01*
X115290000Y-92532380D02*
X115290000Y-91532380D01*
X115194761Y-91675238D01*
X115099523Y-91770476D01*
X115004285Y-91818095D01*
%TO.C,C3*%
X118127142Y-83546666D02*
X118174761Y-83594285D01*
X118222380Y-83737142D01*
X118222380Y-83832380D01*
X118174761Y-83975238D01*
X118079523Y-84070476D01*
X117984285Y-84118095D01*
X117793809Y-84165714D01*
X117650952Y-84165714D01*
X117460476Y-84118095D01*
X117365238Y-84070476D01*
X117270000Y-83975238D01*
X117222380Y-83832380D01*
X117222380Y-83737142D01*
X117270000Y-83594285D01*
X117317619Y-83546666D01*
X117222380Y-83213333D02*
X117222380Y-82594285D01*
X117603333Y-82927619D01*
X117603333Y-82784761D01*
X117650952Y-82689523D01*
X117698571Y-82641904D01*
X117793809Y-82594285D01*
X118031904Y-82594285D01*
X118127142Y-82641904D01*
X118174761Y-82689523D01*
X118222380Y-82784761D01*
X118222380Y-83070476D01*
X118174761Y-83165714D01*
X118127142Y-83213333D01*
%TO.C,R3*%
X120723333Y-89032380D02*
X120390000Y-88556190D01*
X120151904Y-89032380D02*
X120151904Y-88032380D01*
X120532857Y-88032380D01*
X120628095Y-88080000D01*
X120675714Y-88127619D01*
X120723333Y-88222857D01*
X120723333Y-88365714D01*
X120675714Y-88460952D01*
X120628095Y-88508571D01*
X120532857Y-88556190D01*
X120151904Y-88556190D01*
X121056666Y-88032380D02*
X121675714Y-88032380D01*
X121342380Y-88413333D01*
X121485238Y-88413333D01*
X121580476Y-88460952D01*
X121628095Y-88508571D01*
X121675714Y-88603809D01*
X121675714Y-88841904D01*
X121628095Y-88937142D01*
X121580476Y-88984761D01*
X121485238Y-89032380D01*
X121199523Y-89032380D01*
X121104285Y-88984761D01*
X121056666Y-88937142D01*
%TO.C,Q1*%
X114844761Y-83937619D02*
X114749523Y-83890000D01*
X114654285Y-83794761D01*
X114511428Y-83651904D01*
X114416190Y-83604285D01*
X114320952Y-83604285D01*
X114368571Y-83842380D02*
X114273333Y-83794761D01*
X114178095Y-83699523D01*
X114130476Y-83509047D01*
X114130476Y-83175714D01*
X114178095Y-82985238D01*
X114273333Y-82890000D01*
X114368571Y-82842380D01*
X114559047Y-82842380D01*
X114654285Y-82890000D01*
X114749523Y-82985238D01*
X114797142Y-83175714D01*
X114797142Y-83509047D01*
X114749523Y-83699523D01*
X114654285Y-83794761D01*
X114559047Y-83842380D01*
X114368571Y-83842380D01*
X115749523Y-83842380D02*
X115178095Y-83842380D01*
X115463809Y-83842380D02*
X115463809Y-82842380D01*
X115368571Y-82985238D01*
X115273333Y-83080476D01*
X115178095Y-83128095D01*
%TO.C,C5*%
X143315656Y-83727142D02*
X143268037Y-83774761D01*
X143125180Y-83822380D01*
X143029942Y-83822380D01*
X142887084Y-83774761D01*
X142791846Y-83679523D01*
X142744227Y-83584285D01*
X142696608Y-83393809D01*
X142696608Y-83250952D01*
X142744227Y-83060476D01*
X142791846Y-82965238D01*
X142887084Y-82870000D01*
X143029942Y-82822380D01*
X143125180Y-82822380D01*
X143268037Y-82870000D01*
X143315656Y-82917619D01*
X144220418Y-82822380D02*
X143744227Y-82822380D01*
X143696608Y-83298571D01*
X143744227Y-83250952D01*
X143839465Y-83203333D01*
X144077561Y-83203333D01*
X144172799Y-83250952D01*
X144220418Y-83298571D01*
X144268037Y-83393809D01*
X144268037Y-83631904D01*
X144220418Y-83727142D01*
X144172799Y-83774761D01*
X144077561Y-83822380D01*
X143839465Y-83822380D01*
X143744227Y-83774761D01*
X143696608Y-83727142D01*
%TO.C,R2*%
X104162380Y-90346666D02*
X103686190Y-90680000D01*
X104162380Y-90918095D02*
X103162380Y-90918095D01*
X103162380Y-90537142D01*
X103210000Y-90441904D01*
X103257619Y-90394285D01*
X103352857Y-90346666D01*
X103495714Y-90346666D01*
X103590952Y-90394285D01*
X103638571Y-90441904D01*
X103686190Y-90537142D01*
X103686190Y-90918095D01*
X103257619Y-89965714D02*
X103210000Y-89918095D01*
X103162380Y-89822857D01*
X103162380Y-89584761D01*
X103210000Y-89489523D01*
X103257619Y-89441904D01*
X103352857Y-89394285D01*
X103448095Y-89394285D01*
X103590952Y-89441904D01*
X104162380Y-90013333D01*
X104162380Y-89394285D01*
%TO.C,J1*%
X98996666Y-90822380D02*
X98996666Y-91536666D01*
X98949047Y-91679523D01*
X98853809Y-91774761D01*
X98710952Y-91822380D01*
X98615714Y-91822380D01*
X99996666Y-91822380D02*
X99425238Y-91822380D01*
X99710952Y-91822380D02*
X99710952Y-90822380D01*
X99615714Y-90965238D01*
X99520476Y-91060476D01*
X99425238Y-91108095D01*
%TO.C,R7*%
X137343333Y-84542380D02*
X137010000Y-84066190D01*
X136771904Y-84542380D02*
X136771904Y-83542380D01*
X137152857Y-83542380D01*
X137248095Y-83590000D01*
X137295714Y-83637619D01*
X137343333Y-83732857D01*
X137343333Y-83875714D01*
X137295714Y-83970952D01*
X137248095Y-84018571D01*
X137152857Y-84066190D01*
X136771904Y-84066190D01*
X137676666Y-83542380D02*
X138343333Y-83542380D01*
X137914761Y-84542380D01*
%TO.C,J2*%
X141552380Y-73298333D02*
X142266666Y-73298333D01*
X142409523Y-73345952D01*
X142504761Y-73441190D01*
X142552380Y-73584047D01*
X142552380Y-73679285D01*
X141647619Y-72869761D02*
X141600000Y-72822142D01*
X141552380Y-72726904D01*
X141552380Y-72488809D01*
X141600000Y-72393571D01*
X141647619Y-72345952D01*
X141742857Y-72298333D01*
X141838095Y-72298333D01*
X141980952Y-72345952D01*
X142552380Y-72917380D01*
X142552380Y-72298333D01*
%TO.C,RV1*%
X132679761Y-91852380D02*
X132346428Y-91376190D01*
X132108333Y-91852380D02*
X132108333Y-90852380D01*
X132489285Y-90852380D01*
X132584523Y-90900000D01*
X132632142Y-90947619D01*
X132679761Y-91042857D01*
X132679761Y-91185714D01*
X132632142Y-91280952D01*
X132584523Y-91328571D01*
X132489285Y-91376190D01*
X132108333Y-91376190D01*
X132965476Y-90852380D02*
X133298809Y-91852380D01*
X133632142Y-90852380D01*
X134489285Y-91852380D02*
X133917857Y-91852380D01*
X134203571Y-91852380D02*
X134203571Y-90852380D01*
X134108333Y-90995238D01*
X134013095Y-91090476D01*
X133917857Y-91138095D01*
%TO.C,C4*%
X109613127Y-64637142D02*
X109565508Y-64684761D01*
X109422651Y-64732380D01*
X109327413Y-64732380D01*
X109184555Y-64684761D01*
X109089317Y-64589523D01*
X109041698Y-64494285D01*
X108994079Y-64303809D01*
X108994079Y-64160952D01*
X109041698Y-63970476D01*
X109089317Y-63875238D01*
X109184555Y-63780000D01*
X109327413Y-63732380D01*
X109422651Y-63732380D01*
X109565508Y-63780000D01*
X109613127Y-63827619D01*
X110470270Y-64065714D02*
X110470270Y-64732380D01*
X110232174Y-63684761D02*
X109994079Y-64399047D01*
X110613127Y-64399047D01*
%TO.C,R6*%
X142372380Y-101206666D02*
X141896190Y-101540000D01*
X142372380Y-101778095D02*
X141372380Y-101778095D01*
X141372380Y-101397142D01*
X141420000Y-101301904D01*
X141467619Y-101254285D01*
X141562857Y-101206666D01*
X141705714Y-101206666D01*
X141800952Y-101254285D01*
X141848571Y-101301904D01*
X141896190Y-101397142D01*
X141896190Y-101778095D01*
X141372380Y-100349523D02*
X141372380Y-100540000D01*
X141420000Y-100635238D01*
X141467619Y-100682857D01*
X141610476Y-100778095D01*
X141800952Y-100825714D01*
X142181904Y-100825714D01*
X142277142Y-100778095D01*
X142324761Y-100730476D01*
X142372380Y-100635238D01*
X142372380Y-100444761D01*
X142324761Y-100349523D01*
X142277142Y-100301904D01*
X142181904Y-100254285D01*
X141943809Y-100254285D01*
X141848571Y-100301904D01*
X141800952Y-100349523D01*
X141753333Y-100444761D01*
X141753333Y-100635238D01*
X141800952Y-100730476D01*
X141848571Y-100778095D01*
X141943809Y-100825714D01*
%TO.C,R8*%
X137343333Y-76232380D02*
X137010000Y-75756190D01*
X136771904Y-76232380D02*
X136771904Y-75232380D01*
X137152857Y-75232380D01*
X137248095Y-75280000D01*
X137295714Y-75327619D01*
X137343333Y-75422857D01*
X137343333Y-75565714D01*
X137295714Y-75660952D01*
X137248095Y-75708571D01*
X137152857Y-75756190D01*
X136771904Y-75756190D01*
X137914761Y-75660952D02*
X137819523Y-75613333D01*
X137771904Y-75565714D01*
X137724285Y-75470476D01*
X137724285Y-75422857D01*
X137771904Y-75327619D01*
X137819523Y-75280000D01*
X137914761Y-75232380D01*
X138105238Y-75232380D01*
X138200476Y-75280000D01*
X138248095Y-75327619D01*
X138295714Y-75422857D01*
X138295714Y-75470476D01*
X138248095Y-75565714D01*
X138200476Y-75613333D01*
X138105238Y-75660952D01*
X137914761Y-75660952D01*
X137819523Y-75708571D01*
X137771904Y-75756190D01*
X137724285Y-75851428D01*
X137724285Y-76041904D01*
X137771904Y-76137142D01*
X137819523Y-76184761D01*
X137914761Y-76232380D01*
X138105238Y-76232380D01*
X138200476Y-76184761D01*
X138248095Y-76137142D01*
X138295714Y-76041904D01*
X138295714Y-75851428D01*
X138248095Y-75756190D01*
X138200476Y-75708571D01*
X138105238Y-75660952D01*
%TO.C,C2*%
X97497142Y-101704343D02*
X97544761Y-101751962D01*
X97592380Y-101894819D01*
X97592380Y-101990057D01*
X97544761Y-102132915D01*
X97449523Y-102228153D01*
X97354285Y-102275772D01*
X97163809Y-102323391D01*
X97020952Y-102323391D01*
X96830476Y-102275772D01*
X96735238Y-102228153D01*
X96640000Y-102132915D01*
X96592380Y-101990057D01*
X96592380Y-101894819D01*
X96640000Y-101751962D01*
X96687619Y-101704343D01*
X96687619Y-101323391D02*
X96640000Y-101275772D01*
X96592380Y-101180534D01*
X96592380Y-100942438D01*
X96640000Y-100847200D01*
X96687619Y-100799581D01*
X96782857Y-100751962D01*
X96878095Y-100751962D01*
X97020952Y-100799581D01*
X97592380Y-101371010D01*
X97592380Y-100751962D01*
D11*
%TO.C,V1*%
X125320000Y-75745000D02*
X122720000Y-75745000D01*
X125320000Y-73085000D02*
X122720000Y-73085000D01*
X122720000Y-73085000D02*
X122720000Y-75745000D01*
X127920000Y-74415000D02*
X127920000Y-75745000D01*
X125320000Y-73085000D02*
X125320000Y-75745000D01*
X127920000Y-75745000D02*
X126590000Y-75745000D01*
%TO.C,Q2*%
X130690000Y-84960000D02*
X130690000Y-88560000D01*
X130701522Y-88598478D02*
G75*
G03*
X135140000Y-86760000I1838478J1838478D01*
G01*
X135140001Y-86760000D02*
G75*
G03*
X130701522Y-84921522I-2600001J0D01*
G01*
%TO.C,C1*%
X112996677Y-105636000D02*
X112996677Y-99224000D01*
X116397677Y-107480000D02*
X116397677Y-97380000D01*
X113996677Y-101189000D02*
X113996677Y-98292000D01*
X115476677Y-107292000D02*
X115476677Y-103671000D01*
X114796677Y-107033000D02*
X114796677Y-103671000D01*
X114316677Y-106777000D02*
X114316677Y-103671000D01*
X112036677Y-103808000D02*
X112036677Y-101052000D01*
X114716677Y-106994000D02*
X114716677Y-103671000D01*
X113476677Y-106146000D02*
X113476677Y-103671000D01*
X113756677Y-106387000D02*
X113756677Y-103671000D01*
X114116677Y-101189000D02*
X114116677Y-98209000D01*
X115036677Y-101189000D02*
X115036677Y-97723000D01*
X114996677Y-107120000D02*
X114996677Y-103671000D01*
X113076677Y-105731000D02*
X113076677Y-99129000D01*
X113956677Y-106540000D02*
X113956677Y-103671000D01*
X115436677Y-107280000D02*
X115436677Y-103671000D01*
X112396677Y-104719000D02*
X112396677Y-100141000D01*
X114796677Y-101189000D02*
X114796677Y-97827000D01*
X114556677Y-101189000D02*
X114556677Y-97947000D01*
X112596677Y-105075000D02*
X112596677Y-99785000D01*
X113516677Y-101189000D02*
X113516677Y-98677000D01*
X114756677Y-107014000D02*
X114756677Y-103671000D01*
X112516677Y-104940000D02*
X112516677Y-99920000D01*
X115876677Y-107395000D02*
X115876677Y-97465000D01*
X116677677Y-107503000D02*
X116677677Y-97357000D01*
X112956677Y-105586000D02*
X112956677Y-99274000D01*
X114196677Y-106703000D02*
X114196677Y-103671000D01*
X115676677Y-107348000D02*
X115676677Y-103671000D01*
X115716677Y-107358000D02*
X115716677Y-97502000D01*
X113276677Y-105950000D02*
X113276677Y-103671000D01*
X115996677Y-107420000D02*
X115996677Y-97440000D01*
X114636677Y-101189000D02*
X114636677Y-97905000D01*
X114156677Y-106677000D02*
X114156677Y-103671000D01*
X112796677Y-105375000D02*
X112796677Y-99485000D01*
X116957677Y-107510000D02*
X116957677Y-97350000D01*
X111876677Y-103029000D02*
X111876677Y-101831000D01*
X113236677Y-101189000D02*
X113236677Y-98952000D01*
X114276677Y-101189000D02*
X114276677Y-98107000D01*
X114196677Y-101189000D02*
X114196677Y-98157000D01*
X115156677Y-101189000D02*
X115156677Y-97676000D01*
X114236677Y-106728000D02*
X114236677Y-103671000D01*
X113436677Y-101189000D02*
X113436677Y-98751000D01*
X114316677Y-101189000D02*
X114316677Y-98083000D01*
X112636677Y-105139000D02*
X112636677Y-99721000D01*
X113316677Y-105991000D02*
X113316677Y-103671000D01*
X115116677Y-101189000D02*
X115116677Y-97692000D01*
X115516677Y-107304000D02*
X115516677Y-103671000D01*
X113116677Y-105777000D02*
X113116677Y-99083000D01*
X115756677Y-107368000D02*
X115756677Y-97492000D01*
X115836677Y-107386000D02*
X115836677Y-97474000D01*
X116557677Y-107495000D02*
X116557677Y-97365000D01*
X112676677Y-105200000D02*
X112676677Y-99660000D01*
X116196677Y-107454000D02*
X116196677Y-97406000D01*
X114916677Y-101189000D02*
X114916677Y-97773000D01*
X111916677Y-103292000D02*
X111916677Y-101568000D01*
X116116677Y-107441000D02*
X116116677Y-97419000D01*
X113236677Y-105908000D02*
X113236677Y-103671000D01*
X115556677Y-101189000D02*
X115556677Y-97545000D01*
X115316677Y-101189000D02*
X115316677Y-97619000D01*
X114076677Y-106624000D02*
X114076677Y-103671000D01*
X115396677Y-101189000D02*
X115396677Y-97593000D01*
X112836677Y-105430000D02*
X112836677Y-99430000D01*
X114676677Y-101189000D02*
X114676677Y-97885000D01*
X116717677Y-107505000D02*
X116717677Y-97355000D01*
X116797677Y-107508000D02*
X116797677Y-97352000D01*
X111956677Y-103492000D02*
X111956677Y-101368000D01*
X113676677Y-101189000D02*
X113676677Y-98538000D01*
X112276677Y-104467000D02*
X112276677Y-100393000D01*
X114436677Y-106847000D02*
X114436677Y-103671000D01*
X116597677Y-107498000D02*
X116597677Y-97362000D01*
X113196677Y-105866000D02*
X113196677Y-98994000D01*
X116437677Y-107484000D02*
X116437677Y-97376000D01*
X115076677Y-101189000D02*
X115076677Y-97707000D01*
X115636677Y-107337000D02*
X115636677Y-103671000D01*
X116036677Y-107427000D02*
X116036677Y-97433000D01*
X116317677Y-107470000D02*
X116317677Y-97390000D01*
X114676677Y-106975000D02*
X114676677Y-103671000D01*
X113876677Y-101189000D02*
X113876677Y-98380000D01*
X113636677Y-106288000D02*
X113636677Y-103671000D01*
X112876677Y-105484000D02*
X112876677Y-99376000D01*
X113796677Y-101189000D02*
X113796677Y-98441000D01*
X113356677Y-106031000D02*
X113356677Y-103671000D01*
X116357677Y-107475000D02*
X116357677Y-97385000D01*
X113436677Y-106109000D02*
X113436677Y-103671000D01*
X113556677Y-106219000D02*
X113556677Y-103671000D01*
X113596677Y-106254000D02*
X113596677Y-103671000D01*
X114356677Y-101189000D02*
X114356677Y-98059000D01*
X115196677Y-107198000D02*
X115196677Y-103671000D01*
X115796677Y-107377000D02*
X115796677Y-97483000D01*
X114356677Y-106801000D02*
X114356677Y-103671000D01*
X115396677Y-107267000D02*
X115396677Y-103671000D01*
X114516677Y-101189000D02*
X114516677Y-97968000D01*
X114236677Y-101189000D02*
X114236677Y-98132000D01*
X114636677Y-106955000D02*
X114636677Y-103671000D01*
X115596677Y-101189000D02*
X115596677Y-97533000D01*
X112156677Y-104172000D02*
X112156677Y-100688000D01*
X115516677Y-101189000D02*
X115516677Y-97556000D01*
X116517677Y-107492000D02*
X116517677Y-97368000D01*
X114076677Y-101189000D02*
X114076677Y-98236000D01*
X114836677Y-101189000D02*
X114836677Y-97809000D01*
X114556677Y-106913000D02*
X114556677Y-103671000D01*
X114276677Y-106753000D02*
X114276677Y-103671000D01*
X113716677Y-106355000D02*
X113716677Y-103671000D01*
X113916677Y-106510000D02*
X113916677Y-103671000D01*
X114476677Y-106870000D02*
X114476677Y-103671000D01*
X111996677Y-103660000D02*
X111996677Y-101200000D01*
X121937323Y-105805000D02*
X121937323Y-104805000D01*
X113476677Y-101189000D02*
X113476677Y-98714000D01*
X116757677Y-107507000D02*
X116757677Y-97353000D01*
X114036677Y-106596000D02*
X114036677Y-103671000D01*
X113756677Y-101189000D02*
X113756677Y-98473000D01*
X113916677Y-101189000D02*
X113916677Y-98350000D01*
X112316677Y-104555000D02*
X112316677Y-100305000D01*
X115636677Y-101189000D02*
X115636677Y-97523000D01*
X112556677Y-105009000D02*
X112556677Y-99851000D01*
X116917677Y-107510000D02*
X116917677Y-97350000D01*
X112916677Y-105536000D02*
X112916677Y-99324000D01*
X115276677Y-101189000D02*
X115276677Y-97633000D01*
X115116677Y-107168000D02*
X115116677Y-103671000D01*
X112236677Y-104374000D02*
X112236677Y-100486000D01*
X112756677Y-105319000D02*
X112756677Y-99541000D01*
X114596677Y-106934000D02*
X114596677Y-103671000D01*
X114996677Y-101189000D02*
X114996677Y-97740000D01*
X113676677Y-106322000D02*
X113676677Y-103671000D01*
X113036677Y-105684000D02*
X113036677Y-99176000D01*
X112196677Y-104276000D02*
X112196677Y-100584000D01*
X113156677Y-105822000D02*
X113156677Y-99038000D01*
X114116677Y-106651000D02*
X114116677Y-103671000D01*
X112076677Y-103940000D02*
X112076677Y-100920000D01*
X114836677Y-107051000D02*
X114836677Y-103671000D01*
X112716677Y-105260000D02*
X112716677Y-99600000D01*
X114396677Y-101189000D02*
X114396677Y-98035000D01*
X115436677Y-101189000D02*
X115436677Y-97580000D01*
X116236677Y-107460000D02*
X116236677Y-97400000D01*
X115076677Y-107153000D02*
X115076677Y-103671000D01*
X115556677Y-107315000D02*
X115556677Y-103671000D01*
X113396677Y-106070000D02*
X113396677Y-103671000D01*
X113596677Y-101189000D02*
X113596677Y-98606000D01*
X114036677Y-101189000D02*
X114036677Y-98264000D01*
X116637677Y-107500000D02*
X116637677Y-97360000D01*
X116837677Y-107509000D02*
X116837677Y-97351000D01*
X116277677Y-107465000D02*
X116277677Y-97395000D01*
X114476677Y-101189000D02*
X114476677Y-97990000D01*
X114876677Y-107069000D02*
X114876677Y-103671000D01*
X112476677Y-104869000D02*
X112476677Y-99991000D01*
X113316677Y-101189000D02*
X113316677Y-98869000D01*
X114596677Y-101189000D02*
X114596677Y-97926000D01*
X115196677Y-101189000D02*
X115196677Y-97662000D01*
X114156677Y-101189000D02*
X114156677Y-98183000D01*
X114916677Y-107087000D02*
X114916677Y-103671000D01*
X115676677Y-101189000D02*
X115676677Y-97512000D01*
X113716677Y-101189000D02*
X113716677Y-98505000D01*
X113516677Y-106183000D02*
X113516677Y-103671000D01*
X113836677Y-106450000D02*
X113836677Y-103671000D01*
X112356677Y-104639000D02*
X112356677Y-100221000D01*
X114876677Y-101189000D02*
X114876677Y-97791000D01*
X113356677Y-101189000D02*
X113356677Y-98829000D01*
X113956677Y-101189000D02*
X113956677Y-98320000D01*
X116477677Y-107488000D02*
X116477677Y-97372000D01*
X116076677Y-107434000D02*
X116076677Y-97426000D01*
X116156677Y-107448000D02*
X116156677Y-97412000D01*
X115156677Y-107184000D02*
X115156677Y-103671000D01*
X114956677Y-107104000D02*
X114956677Y-103671000D01*
X114436677Y-101189000D02*
X114436677Y-98013000D01*
X113276677Y-101189000D02*
X113276677Y-98910000D01*
X114716677Y-101189000D02*
X114716677Y-97866000D01*
X112116677Y-104060000D02*
X112116677Y-100800000D01*
X114756677Y-101189000D02*
X114756677Y-97846000D01*
X112436677Y-104795000D02*
X112436677Y-100065000D01*
X113396677Y-101189000D02*
X113396677Y-98790000D01*
X114396677Y-106825000D02*
X114396677Y-103671000D01*
X115236677Y-101189000D02*
X115236677Y-97647000D01*
X115036677Y-107137000D02*
X115036677Y-103671000D01*
X115316677Y-107241000D02*
X115316677Y-103671000D01*
X113636677Y-101189000D02*
X113636677Y-98572000D01*
X113876677Y-106480000D02*
X113876677Y-103671000D01*
X115356677Y-107254000D02*
X115356677Y-103671000D01*
X122437323Y-105305000D02*
X121437323Y-105305000D01*
X116877677Y-107510000D02*
X116877677Y-97350000D01*
X115476677Y-101189000D02*
X115476677Y-97568000D01*
X115356677Y-101189000D02*
X115356677Y-97606000D01*
X115916677Y-107404000D02*
X115916677Y-97456000D01*
X114956677Y-101189000D02*
X114956677Y-97756000D01*
X115596677Y-107327000D02*
X115596677Y-103671000D01*
X115276677Y-107227000D02*
X115276677Y-103671000D01*
X113996677Y-106568000D02*
X113996677Y-103671000D01*
X115956677Y-107412000D02*
X115956677Y-97448000D01*
X113836677Y-101189000D02*
X113836677Y-98410000D01*
X115236677Y-107213000D02*
X115236677Y-103671000D01*
X114516677Y-106892000D02*
X114516677Y-103671000D01*
X113556677Y-101189000D02*
X113556677Y-98641000D01*
X113796677Y-106419000D02*
X113796677Y-103671000D01*
X122077677Y-102430000D02*
G75*
G03*
X122077677Y-102430000I-5120000J0D01*
G01*
%TO.C,R4*%
X131400000Y-104430000D02*
X131400000Y-97890000D01*
X130030000Y-105200000D02*
X130030000Y-104430000D01*
X128660000Y-104430000D02*
X131400000Y-104430000D01*
X131400000Y-97890000D02*
X128660000Y-97890000D01*
X128660000Y-97890000D02*
X128660000Y-104430000D01*
X130030000Y-97120000D02*
X130030000Y-97890000D01*
%TO.C,R5*%
X125340000Y-105200000D02*
X125340000Y-104430000D01*
X125340000Y-97120000D02*
X125340000Y-97890000D01*
X123970000Y-104430000D02*
X126710000Y-104430000D01*
X123970000Y-97890000D02*
X123970000Y-104430000D01*
X126710000Y-104430000D02*
X126710000Y-97890000D01*
X126710000Y-97890000D02*
X123970000Y-97890000D01*
%TO.C,R1*%
X118060000Y-93080000D02*
X111520000Y-93080000D01*
X110750000Y-94450000D02*
X111520000Y-94450000D01*
X118830000Y-94450000D02*
X118060000Y-94450000D01*
X111520000Y-95820000D02*
X118060000Y-95820000D01*
X111520000Y-93080000D02*
X111520000Y-95820000D01*
X118060000Y-95820000D02*
X118060000Y-93080000D01*
%TO.C,C3*%
X119313000Y-81459000D02*
X122779000Y-81459000D01*
X119237000Y-81659000D02*
X122779000Y-81659000D01*
X125261000Y-79859000D02*
X127699000Y-79859000D01*
X119854000Y-80459000D02*
X122779000Y-80459000D01*
X125261000Y-81859000D02*
X128870000Y-81859000D01*
X120584000Y-79619000D02*
X127456000Y-79619000D01*
X125261000Y-80179000D02*
X127977000Y-80179000D01*
X120063000Y-80179000D02*
X122779000Y-80179000D01*
X119009000Y-82539000D02*
X129031000Y-82539000D01*
X118980000Y-82740000D02*
X129060000Y-82740000D01*
X120419000Y-79779000D02*
X122779000Y-79779000D01*
X125261000Y-81579000D02*
X128774000Y-81579000D01*
X119055000Y-82299000D02*
X128985000Y-82299000D01*
X125261000Y-81059000D02*
X128545000Y-81059000D01*
X125261000Y-80939000D02*
X128482000Y-80939000D01*
X121020000Y-79259000D02*
X127020000Y-79259000D01*
X119082000Y-82179000D02*
X128958000Y-82179000D01*
X125261000Y-81939000D02*
X128894000Y-81939000D01*
X119516000Y-81019000D02*
X122779000Y-81019000D01*
X119330000Y-81419000D02*
X122779000Y-81419000D01*
X120231000Y-79979000D02*
X122779000Y-79979000D01*
X125261000Y-81779000D02*
X128844000Y-81779000D01*
X118990000Y-82659000D02*
X129050000Y-82659000D01*
X121983000Y-78699000D02*
X126057000Y-78699000D01*
X119580000Y-80899000D02*
X122779000Y-80899000D01*
X125261000Y-79979000D02*
X127809000Y-79979000D01*
X125261000Y-81419000D02*
X128710000Y-81419000D01*
X119799000Y-80539000D02*
X122779000Y-80539000D01*
X125261000Y-80699000D02*
X128343000Y-80699000D01*
X121375000Y-79019000D02*
X126665000Y-79019000D01*
X125261000Y-81139000D02*
X128584000Y-81139000D01*
X125261000Y-79699000D02*
X127540000Y-79699000D01*
X121895000Y-78739000D02*
X126145000Y-78739000D01*
X125261000Y-81699000D02*
X128817000Y-81699000D01*
X119135000Y-81979000D02*
X122779000Y-81979000D01*
X120500000Y-79699000D02*
X122779000Y-79699000D01*
X119170000Y-81859000D02*
X122779000Y-81859000D01*
X125261000Y-80859000D02*
X128437000Y-80859000D01*
X118985000Y-82700000D02*
X129055000Y-82700000D01*
X118947000Y-83100000D02*
X129093000Y-83100000D01*
X120000000Y-80259000D02*
X122779000Y-80259000D01*
X119209000Y-81739000D02*
X122779000Y-81739000D01*
X118952000Y-83020000D02*
X129088000Y-83020000D01*
X125261000Y-80539000D02*
X128241000Y-80539000D01*
X125261000Y-81979000D02*
X128905000Y-81979000D01*
X120719000Y-79499000D02*
X127321000Y-79499000D01*
X125261000Y-81099000D02*
X128565000Y-81099000D01*
X119436000Y-81179000D02*
X122779000Y-81179000D01*
X125261000Y-80019000D02*
X127844000Y-80019000D01*
X123421000Y-78299000D02*
X124619000Y-78299000D01*
X119023000Y-82459000D02*
X129017000Y-82459000D01*
X121510000Y-78939000D02*
X126530000Y-78939000D01*
X118940000Y-83300000D02*
X129100000Y-83300000D01*
X123158000Y-78339000D02*
X124882000Y-78339000D01*
X119016000Y-82499000D02*
X129024000Y-82499000D01*
X119146000Y-81939000D02*
X122779000Y-81939000D01*
X120542000Y-79659000D02*
X122779000Y-79659000D01*
X119002000Y-82579000D02*
X129038000Y-82579000D01*
X119102000Y-82099000D02*
X122779000Y-82099000D01*
X121250000Y-79099000D02*
X126790000Y-79099000D01*
X125261000Y-80299000D02*
X128070000Y-80299000D01*
X121145000Y-88859646D02*
X121145000Y-87859646D01*
X125261000Y-81259000D02*
X128641000Y-81259000D01*
X119030000Y-82419000D02*
X129010000Y-82419000D01*
X120645000Y-88359646D02*
X121645000Y-88359646D01*
X119910000Y-80379000D02*
X122779000Y-80379000D01*
X125261000Y-81819000D02*
X128857000Y-81819000D01*
X125261000Y-80979000D02*
X128503000Y-80979000D01*
X125261000Y-80819000D02*
X128415000Y-80819000D01*
X119123000Y-82019000D02*
X122779000Y-82019000D01*
X125261000Y-80739000D02*
X128367000Y-80739000D01*
X125261000Y-81339000D02*
X128677000Y-81339000D01*
X125261000Y-80219000D02*
X128009000Y-80219000D01*
X120628000Y-79579000D02*
X127412000Y-79579000D01*
X119346000Y-81379000D02*
X122779000Y-81379000D01*
X121311000Y-79059000D02*
X126729000Y-79059000D01*
X125261000Y-80659000D02*
X128318000Y-80659000D01*
X125261000Y-81659000D02*
X128803000Y-81659000D01*
X118941000Y-83260000D02*
X129099000Y-83260000D01*
X118940000Y-83340000D02*
X129100000Y-83340000D01*
X125261000Y-79939000D02*
X127773000Y-79939000D01*
X125261000Y-79739000D02*
X127581000Y-79739000D01*
X122958000Y-78379000D02*
X125082000Y-78379000D01*
X119399000Y-81259000D02*
X122779000Y-81259000D01*
X122390000Y-78539000D02*
X125650000Y-78539000D01*
X119773000Y-80579000D02*
X122779000Y-80579000D01*
X120814000Y-79419000D02*
X127226000Y-79419000D01*
X120162000Y-80059000D02*
X122779000Y-80059000D01*
X125261000Y-80459000D02*
X128186000Y-80459000D01*
X119363000Y-81339000D02*
X122779000Y-81339000D01*
X119475000Y-81099000D02*
X122779000Y-81099000D01*
X125261000Y-79779000D02*
X127621000Y-79779000D01*
X120864000Y-79379000D02*
X127176000Y-79379000D01*
X120304000Y-79899000D02*
X122779000Y-79899000D01*
X122174000Y-78619000D02*
X125866000Y-78619000D01*
X119495000Y-81059000D02*
X122779000Y-81059000D01*
X119297000Y-81499000D02*
X122779000Y-81499000D01*
X120380000Y-79819000D02*
X122779000Y-79819000D01*
X119940000Y-80339000D02*
X122779000Y-80339000D01*
X121655000Y-78859000D02*
X126385000Y-78859000D01*
X119113000Y-82059000D02*
X122779000Y-82059000D01*
X119282000Y-81539000D02*
X122779000Y-81539000D01*
X118942000Y-83220000D02*
X129098000Y-83220000D01*
X119747000Y-80619000D02*
X122779000Y-80619000D01*
X121811000Y-78779000D02*
X126229000Y-78779000D01*
X125261000Y-79819000D02*
X127660000Y-79819000D01*
X120095000Y-80139000D02*
X122779000Y-80139000D01*
X118945000Y-83140000D02*
X129095000Y-83140000D01*
X121441000Y-78979000D02*
X126599000Y-78979000D01*
X125261000Y-79659000D02*
X127498000Y-79659000D01*
X118962000Y-82900000D02*
X129078000Y-82900000D01*
X121075000Y-79219000D02*
X126965000Y-79219000D01*
X122278000Y-78579000D02*
X125762000Y-78579000D01*
X118940000Y-83380000D02*
X129100000Y-83380000D01*
X119882000Y-80419000D02*
X122779000Y-80419000D01*
X125261000Y-80619000D02*
X128293000Y-80619000D01*
X119697000Y-80699000D02*
X122779000Y-80699000D01*
X119158000Y-81899000D02*
X122779000Y-81899000D01*
X119046000Y-82339000D02*
X128994000Y-82339000D01*
X119826000Y-80499000D02*
X122779000Y-80499000D01*
X119456000Y-81139000D02*
X122779000Y-81139000D01*
X119092000Y-82139000D02*
X128948000Y-82139000D01*
X125261000Y-79899000D02*
X127736000Y-79899000D01*
X119252000Y-81619000D02*
X122779000Y-81619000D01*
X125261000Y-80499000D02*
X128214000Y-80499000D01*
X125261000Y-81499000D02*
X128743000Y-81499000D01*
X119223000Y-81699000D02*
X122779000Y-81699000D01*
X125261000Y-80259000D02*
X128040000Y-80259000D01*
X125261000Y-82099000D02*
X128938000Y-82099000D01*
X119196000Y-81779000D02*
X122779000Y-81779000D01*
X120267000Y-79939000D02*
X122779000Y-79939000D01*
X120196000Y-80019000D02*
X122779000Y-80019000D01*
X120673000Y-79539000D02*
X127367000Y-79539000D01*
X122790000Y-78419000D02*
X125250000Y-78419000D01*
X118958000Y-82940000D02*
X129082000Y-82940000D01*
X125261000Y-80139000D02*
X127945000Y-80139000D01*
X119038000Y-82379000D02*
X129002000Y-82379000D01*
X121581000Y-78899000D02*
X126459000Y-78899000D01*
X120914000Y-79339000D02*
X127126000Y-79339000D01*
X119417000Y-81219000D02*
X122779000Y-81219000D01*
X119673000Y-80739000D02*
X122779000Y-80739000D01*
X125261000Y-81619000D02*
X128788000Y-81619000D01*
X125261000Y-80779000D02*
X128391000Y-80779000D01*
X125261000Y-81539000D02*
X128758000Y-81539000D01*
X118975000Y-82780000D02*
X129065000Y-82780000D01*
X125261000Y-81739000D02*
X128831000Y-81739000D01*
X122076000Y-78659000D02*
X125964000Y-78659000D01*
X120766000Y-79459000D02*
X127274000Y-79459000D01*
X125261000Y-80339000D02*
X128100000Y-80339000D01*
X125261000Y-82019000D02*
X128917000Y-82019000D01*
X122642000Y-78459000D02*
X125398000Y-78459000D01*
X119266000Y-81579000D02*
X122779000Y-81579000D01*
X119603000Y-80859000D02*
X122779000Y-80859000D01*
X121190000Y-79139000D02*
X126850000Y-79139000D01*
X119381000Y-81299000D02*
X122779000Y-81299000D01*
X125261000Y-81379000D02*
X128694000Y-81379000D01*
X125261000Y-82059000D02*
X128927000Y-82059000D01*
X125261000Y-81899000D02*
X128882000Y-81899000D01*
X120966000Y-79299000D02*
X127074000Y-79299000D01*
X122510000Y-78499000D02*
X125530000Y-78499000D01*
X118955000Y-82980000D02*
X129085000Y-82980000D01*
X125261000Y-80899000D02*
X128460000Y-80899000D01*
X125261000Y-81179000D02*
X128604000Y-81179000D01*
X119064000Y-82259000D02*
X128976000Y-82259000D01*
X121731000Y-78819000D02*
X126309000Y-78819000D01*
X118966000Y-82860000D02*
X129074000Y-82860000D01*
X125261000Y-80059000D02*
X127878000Y-80059000D01*
X119073000Y-82219000D02*
X128967000Y-82219000D01*
X120031000Y-80219000D02*
X122779000Y-80219000D01*
X119558000Y-80939000D02*
X122779000Y-80939000D01*
X119183000Y-81819000D02*
X122779000Y-81819000D01*
X125261000Y-80099000D02*
X127912000Y-80099000D01*
X120459000Y-79739000D02*
X122779000Y-79739000D01*
X120128000Y-80099000D02*
X122779000Y-80099000D01*
X125261000Y-80419000D02*
X128158000Y-80419000D01*
X125261000Y-81299000D02*
X128659000Y-81299000D01*
X119649000Y-80779000D02*
X122779000Y-80779000D01*
X125261000Y-81219000D02*
X128623000Y-81219000D01*
X125261000Y-81019000D02*
X128524000Y-81019000D01*
X118943000Y-83180000D02*
X129097000Y-83180000D01*
X118970000Y-82820000D02*
X129070000Y-82820000D01*
X121131000Y-79179000D02*
X126909000Y-79179000D01*
X119722000Y-80659000D02*
X122779000Y-80659000D01*
X120341000Y-79859000D02*
X122779000Y-79859000D01*
X118950000Y-83060000D02*
X129090000Y-83060000D01*
X119625000Y-80819000D02*
X122779000Y-80819000D01*
X125261000Y-81459000D02*
X128727000Y-81459000D01*
X125261000Y-80579000D02*
X128267000Y-80579000D01*
X119970000Y-80299000D02*
X122779000Y-80299000D01*
X119537000Y-80979000D02*
X122779000Y-80979000D01*
X125261000Y-80379000D02*
X128130000Y-80379000D01*
X118996000Y-82619000D02*
X129044000Y-82619000D01*
X129140000Y-83380000D02*
G75*
G03*
X129140000Y-83380000I-5120000J0D01*
G01*
%TO.C,R3*%
X117620000Y-92320000D02*
X124160000Y-92320000D01*
X124160000Y-89580000D02*
X117620000Y-89580000D01*
X117620000Y-89580000D02*
X117620000Y-92320000D01*
X116850000Y-90950000D02*
X117620000Y-90950000D01*
X124930000Y-90950000D02*
X124160000Y-90950000D01*
X124160000Y-92320000D02*
X124160000Y-89580000D01*
%TO.C,Q1*%
X113140000Y-88800000D02*
X116740000Y-88800000D01*
X116778478Y-88788478D02*
G75*
G03*
X114940000Y-84350000I-1838478J1838478D01*
G01*
X114940000Y-84349999D02*
G75*
G03*
X113101522Y-88788478I0J-2600001D01*
G01*
%TO.C,C5*%
X146403323Y-85454000D02*
X146403323Y-88379000D01*
X145083323Y-90861000D02*
X145083323Y-94444000D01*
X145443323Y-90861000D02*
X145443323Y-94310000D01*
X145883323Y-90861000D02*
X145883323Y-94103000D01*
X145283323Y-84866000D02*
X145283323Y-88379000D01*
X147043323Y-90861000D02*
X147043323Y-93260000D01*
X144002323Y-84566000D02*
X144002323Y-94674000D01*
X146323323Y-85399000D02*
X146323323Y-88379000D01*
X144843323Y-84723000D02*
X144843323Y-88379000D01*
X146443323Y-90861000D02*
X146443323Y-93758000D01*
X148243323Y-87774000D02*
X148243323Y-91466000D01*
X145843323Y-85116000D02*
X145843323Y-88379000D01*
X143842323Y-84552000D02*
X143842323Y-94688000D01*
X146803323Y-85762000D02*
X146803323Y-88379000D01*
X148003323Y-87255000D02*
X148003323Y-91985000D01*
X147003323Y-85941000D02*
X147003323Y-88379000D01*
X146283323Y-85373000D02*
X146283323Y-88379000D01*
X147123323Y-86059000D02*
X147123323Y-88379000D01*
X144122323Y-84580000D02*
X144122323Y-94660000D01*
X143682323Y-84543000D02*
X143682323Y-94697000D01*
X148043323Y-87331000D02*
X148043323Y-91909000D01*
X146763323Y-85728000D02*
X146763323Y-88379000D01*
X146523323Y-85540000D02*
X146523323Y-88379000D01*
X144763323Y-84702000D02*
X144763323Y-88379000D01*
X143562323Y-84540000D02*
X143562323Y-94700000D01*
X144162323Y-84585000D02*
X144162323Y-94655000D01*
X145763323Y-90861000D02*
X145763323Y-94165000D01*
X145683323Y-90861000D02*
X145683323Y-94204000D01*
X145603323Y-84999000D02*
X145603323Y-88379000D01*
X143762323Y-84547000D02*
X143762323Y-94693000D01*
X147883323Y-87041000D02*
X147883323Y-92199000D01*
X138502677Y-86245000D02*
X138502677Y-87245000D01*
X147643323Y-86675000D02*
X147643323Y-92565000D01*
X146643323Y-90861000D02*
X146643323Y-93609000D01*
X145203323Y-90861000D02*
X145203323Y-94403000D01*
X145123323Y-84809000D02*
X145123323Y-88379000D01*
X143602323Y-84541000D02*
X143602323Y-94699000D01*
X148323323Y-87990000D02*
X148323323Y-91250000D01*
X144042323Y-84570000D02*
X144042323Y-94670000D01*
X143722323Y-84545000D02*
X143722323Y-94695000D01*
X147163323Y-86100000D02*
X147163323Y-88379000D01*
X145803323Y-85095000D02*
X145803323Y-88379000D01*
X144203323Y-84590000D02*
X144203323Y-94650000D01*
X138002677Y-86745000D02*
X139002677Y-86745000D01*
X147683323Y-86731000D02*
X147683323Y-92509000D01*
X145643323Y-85017000D02*
X145643323Y-88379000D01*
X144803323Y-84713000D02*
X144803323Y-88379000D01*
X145363323Y-84897000D02*
X145363323Y-88379000D01*
X145523323Y-84963000D02*
X145523323Y-88379000D01*
X145603323Y-90861000D02*
X145603323Y-94241000D01*
X146083323Y-90861000D02*
X146083323Y-93991000D01*
X146723323Y-85695000D02*
X146723323Y-88379000D01*
X146043323Y-90861000D02*
X146043323Y-94015000D01*
X145203323Y-84837000D02*
X145203323Y-88379000D01*
X147203323Y-90861000D02*
X147203323Y-93098000D01*
X147083323Y-90861000D02*
X147083323Y-93221000D01*
X144683323Y-84682000D02*
X144683323Y-94558000D01*
X145003323Y-90861000D02*
X145003323Y-94470000D01*
X146003323Y-85203000D02*
X146003323Y-88379000D01*
X144483323Y-84638000D02*
X144483323Y-94602000D01*
X145723323Y-90861000D02*
X145723323Y-94184000D01*
X146203323Y-85322000D02*
X146203323Y-88379000D01*
X147083323Y-86019000D02*
X147083323Y-88379000D01*
X144563323Y-84655000D02*
X144563323Y-94585000D01*
X144643323Y-84673000D02*
X144643323Y-94567000D01*
X143882323Y-84555000D02*
X143882323Y-94685000D01*
X146043323Y-85225000D02*
X146043323Y-88379000D01*
X146003323Y-90861000D02*
X146003323Y-94037000D01*
X145923323Y-90861000D02*
X145923323Y-94082000D01*
X145523323Y-90861000D02*
X145523323Y-94277000D01*
X146963323Y-85904000D02*
X146963323Y-88379000D01*
X148163323Y-87583000D02*
X148163323Y-91657000D01*
X146883323Y-85831000D02*
X146883323Y-88379000D01*
X148483323Y-88558000D02*
X148483323Y-90682000D01*
X144883323Y-90861000D02*
X144883323Y-94505000D01*
X146243323Y-85347000D02*
X146243323Y-88379000D01*
X146163323Y-90861000D02*
X146163323Y-93943000D01*
X145163323Y-84823000D02*
X145163323Y-88379000D01*
X148083323Y-87411000D02*
X148083323Y-91829000D01*
X144763323Y-90861000D02*
X144763323Y-94538000D01*
X145283323Y-90861000D02*
X145283323Y-94374000D01*
X146843323Y-85796000D02*
X146843323Y-88379000D01*
X144723323Y-84692000D02*
X144723323Y-94548000D01*
X146563323Y-90861000D02*
X146563323Y-93670000D01*
X146603323Y-90861000D02*
X146603323Y-93640000D01*
X144363323Y-84616000D02*
X144363323Y-94624000D01*
X145723323Y-85056000D02*
X145723323Y-88379000D01*
X147563323Y-86566000D02*
X147563323Y-92674000D01*
X145683323Y-85036000D02*
X145683323Y-88379000D01*
X146443323Y-85482000D02*
X146443323Y-88379000D01*
X145923323Y-85158000D02*
X145923323Y-88379000D01*
X147843323Y-86975000D02*
X147843323Y-92265000D01*
X146683323Y-90861000D02*
X146683323Y-93577000D01*
X146483323Y-85510000D02*
X146483323Y-88379000D01*
X145563323Y-84981000D02*
X145563323Y-88379000D01*
X144923323Y-84746000D02*
X144923323Y-88379000D01*
X146243323Y-90861000D02*
X146243323Y-93893000D01*
X145363323Y-90861000D02*
X145363323Y-94343000D01*
X146763323Y-90861000D02*
X146763323Y-93512000D01*
X147523323Y-86514000D02*
X147523323Y-92726000D01*
X144443323Y-84630000D02*
X144443323Y-94610000D01*
X147043323Y-85980000D02*
X147043323Y-88379000D01*
X144923323Y-90861000D02*
X144923323Y-94494000D01*
X147403323Y-86366000D02*
X147403323Y-92874000D01*
X144082323Y-84575000D02*
X144082323Y-94665000D01*
X147203323Y-86142000D02*
X147203323Y-88379000D01*
X143642323Y-84542000D02*
X143642323Y-94698000D01*
X145003323Y-84770000D02*
X145003323Y-88379000D01*
X145643323Y-90861000D02*
X145643323Y-94223000D01*
X145883323Y-85137000D02*
X145883323Y-88379000D01*
X144963323Y-84758000D02*
X144963323Y-88379000D01*
X145123323Y-90861000D02*
X145123323Y-94431000D01*
X146923323Y-85867000D02*
X146923323Y-88379000D01*
X145083323Y-84796000D02*
X145083323Y-88379000D01*
X146523323Y-90861000D02*
X146523323Y-93700000D01*
X145323323Y-90861000D02*
X145323323Y-94358000D01*
X147323323Y-86273000D02*
X147323323Y-92967000D01*
X145243323Y-90861000D02*
X145243323Y-94388000D01*
X147283323Y-86228000D02*
X147283323Y-93012000D01*
X146843323Y-90861000D02*
X146843323Y-93444000D01*
X147763323Y-86850000D02*
X147763323Y-92390000D01*
X143522323Y-84540000D02*
X143522323Y-94700000D01*
X145803323Y-90861000D02*
X145803323Y-94145000D01*
X146643323Y-85631000D02*
X146643323Y-88379000D01*
X145483323Y-90861000D02*
X145483323Y-94294000D01*
X146483323Y-90861000D02*
X146483323Y-93730000D01*
X146123323Y-90861000D02*
X146123323Y-93967000D01*
X145403323Y-90861000D02*
X145403323Y-94327000D01*
X146203323Y-90861000D02*
X146203323Y-93918000D01*
X147723323Y-86790000D02*
X147723323Y-92450000D01*
X146923323Y-90861000D02*
X146923323Y-93373000D01*
X146323323Y-90861000D02*
X146323323Y-93841000D01*
X146723323Y-90861000D02*
X146723323Y-93545000D01*
X146963323Y-90861000D02*
X146963323Y-93336000D01*
X145963323Y-90861000D02*
X145963323Y-94060000D01*
X145563323Y-90861000D02*
X145563323Y-94259000D01*
X146123323Y-85273000D02*
X146123323Y-88379000D01*
X146083323Y-85249000D02*
X146083323Y-88379000D01*
X144243323Y-84596000D02*
X144243323Y-94644000D01*
X146883323Y-90861000D02*
X146883323Y-93409000D01*
X146683323Y-85663000D02*
X146683323Y-88379000D01*
X146163323Y-85297000D02*
X146163323Y-88379000D01*
X148123323Y-87495000D02*
X148123323Y-91745000D01*
X145843323Y-90861000D02*
X145843323Y-94124000D01*
X146283323Y-90861000D02*
X146283323Y-93867000D01*
X145443323Y-84930000D02*
X145443323Y-88379000D01*
X144963323Y-90861000D02*
X144963323Y-94482000D01*
X144803323Y-90861000D02*
X144803323Y-94527000D01*
X146563323Y-85570000D02*
X146563323Y-88379000D01*
X143962323Y-84562000D02*
X143962323Y-94678000D01*
X144323323Y-84609000D02*
X144323323Y-94631000D01*
X147483323Y-86464000D02*
X147483323Y-92776000D01*
X148363323Y-88110000D02*
X148363323Y-91130000D01*
X147923323Y-87110000D02*
X147923323Y-92130000D01*
X144523323Y-84646000D02*
X144523323Y-94594000D01*
X147603323Y-86620000D02*
X147603323Y-92620000D01*
X147243323Y-86184000D02*
X147243323Y-93056000D01*
X144403323Y-84623000D02*
X144403323Y-94617000D01*
X147803323Y-86911000D02*
X147803323Y-92329000D01*
X147963323Y-87181000D02*
X147963323Y-92059000D01*
X148523323Y-88758000D02*
X148523323Y-90482000D01*
X148203323Y-87676000D02*
X148203323Y-91564000D01*
X144283323Y-84602000D02*
X144283323Y-94638000D01*
X146363323Y-85426000D02*
X146363323Y-88379000D01*
X145043323Y-90861000D02*
X145043323Y-94457000D01*
X147363323Y-86319000D02*
X147363323Y-92921000D01*
X147163323Y-90861000D02*
X147163323Y-93140000D01*
X144883323Y-84735000D02*
X144883323Y-88379000D01*
X145403323Y-84913000D02*
X145403323Y-88379000D01*
X144843323Y-90861000D02*
X144843323Y-94517000D01*
X145763323Y-85075000D02*
X145763323Y-88379000D01*
X147123323Y-90861000D02*
X147123323Y-93181000D01*
X148443323Y-88390000D02*
X148443323Y-90850000D01*
X146803323Y-90861000D02*
X146803323Y-93478000D01*
X145243323Y-84852000D02*
X145243323Y-88379000D01*
X145163323Y-90861000D02*
X145163323Y-94417000D01*
X148283323Y-87878000D02*
X148283323Y-91362000D01*
X145963323Y-85180000D02*
X145963323Y-88379000D01*
X145483323Y-84946000D02*
X145483323Y-88379000D01*
X144603323Y-84664000D02*
X144603323Y-94576000D01*
X143482323Y-84540000D02*
X143482323Y-94700000D01*
X145323323Y-84882000D02*
X145323323Y-88379000D01*
X147003323Y-90861000D02*
X147003323Y-93299000D01*
X147443323Y-86414000D02*
X147443323Y-92826000D01*
X145043323Y-84783000D02*
X145043323Y-88379000D01*
X143922323Y-84558000D02*
X143922323Y-94682000D01*
X146403323Y-90861000D02*
X146403323Y-93786000D01*
X143802323Y-84550000D02*
X143802323Y-94690000D01*
X148403323Y-88242000D02*
X148403323Y-90998000D01*
X148563323Y-89021000D02*
X148563323Y-90219000D01*
X146363323Y-90861000D02*
X146363323Y-93814000D01*
X146603323Y-85600000D02*
X146603323Y-88379000D01*
X148602323Y-89620000D02*
G75*
G03*
X148602323Y-89620000I-5120000J0D01*
G01*
%TO.C,R2*%
X106080000Y-94220000D02*
X106080000Y-93450000D01*
X107450000Y-86910000D02*
X104710000Y-86910000D01*
X104710000Y-93450000D02*
X107450000Y-93450000D01*
X106080000Y-86140000D02*
X106080000Y-86910000D01*
X104710000Y-86910000D02*
X104710000Y-93450000D01*
X107450000Y-93450000D02*
X107450000Y-86910000D01*
%TO.C,J1*%
X99330000Y-89930000D02*
X98000000Y-89930000D01*
X98000000Y-89930000D02*
X98000000Y-88600000D01*
X98000000Y-87330000D02*
X98000000Y-84730000D01*
X100660000Y-87330000D02*
X98000000Y-87330000D01*
X100660000Y-87330000D02*
X100660000Y-84730000D01*
X100660000Y-84730000D02*
X98000000Y-84730000D01*
%TO.C,R7*%
X133470000Y-81720000D02*
X134240000Y-81720000D01*
X134240000Y-80350000D02*
X134240000Y-83090000D01*
X140780000Y-83090000D02*
X140780000Y-80350000D01*
X141550000Y-81720000D02*
X140780000Y-81720000D01*
X134240000Y-83090000D02*
X140780000Y-83090000D01*
X140780000Y-80350000D02*
X134240000Y-80350000D01*
%TO.C,J2*%
X138060000Y-74295000D02*
X135460000Y-74295000D01*
X135460000Y-71635000D02*
X135460000Y-74295000D01*
X138060000Y-71635000D02*
X138060000Y-74295000D01*
X140660000Y-72965000D02*
X140660000Y-74295000D01*
X140660000Y-74295000D02*
X139330000Y-74295000D01*
X138060000Y-71635000D02*
X135460000Y-71635000D01*
%TO.C,RV1*%
X133154000Y-94840000D02*
X133154000Y-97080000D01*
X133154000Y-97080000D02*
X136895000Y-97080000D01*
X134200000Y-92690000D02*
X136895000Y-92690000D01*
X136895000Y-92690000D02*
X136895000Y-99230000D01*
X134200000Y-99230000D02*
X136895000Y-99230000D01*
X133154000Y-94840000D02*
X136895000Y-94840000D01*
X136895000Y-94840000D02*
X136895000Y-97080000D01*
X133154000Y-94526000D02*
X133154000Y-97395000D01*
%TO.C,C4*%
X112060794Y-65739000D02*
X112060794Y-83321000D01*
X115340794Y-67340000D02*
X115340794Y-81720000D01*
X113900794Y-75970000D02*
X113900794Y-82627000D01*
X113340794Y-66173000D02*
X113340794Y-73090000D01*
X115380794Y-67371000D02*
X115380794Y-81689000D01*
X116900794Y-68870000D02*
X116900794Y-80190000D01*
X118179794Y-71018000D02*
X118179794Y-78042000D01*
X111940794Y-65709000D02*
X111940794Y-83351000D01*
X118539794Y-72032000D02*
X118539794Y-77028000D01*
X112260794Y-75970000D02*
X112260794Y-83267000D01*
X112340794Y-65816000D02*
X112340794Y-73090000D01*
X114500794Y-66766000D02*
X114500794Y-73090000D01*
X112140794Y-65760000D02*
X112140794Y-73090000D01*
X112500794Y-65865000D02*
X112500794Y-73090000D01*
X115180794Y-67220000D02*
X115180794Y-81840000D01*
X115060794Y-67133000D02*
X115060794Y-81927000D01*
X113100794Y-66075000D02*
X113100794Y-73090000D01*
X111740794Y-65663000D02*
X111740794Y-83397000D01*
X114580794Y-75970000D02*
X114580794Y-82245000D01*
X114140794Y-66559000D02*
X114140794Y-73090000D01*
X117180794Y-69239000D02*
X117180794Y-79821000D01*
X116100794Y-67994000D02*
X116100794Y-81066000D01*
X112300794Y-65805000D02*
X112300794Y-73090000D01*
X112540794Y-75970000D02*
X112540794Y-83183000D01*
X118299794Y-71316000D02*
X118299794Y-77744000D01*
X112340794Y-75970000D02*
X112340794Y-83244000D01*
X112660794Y-65916000D02*
X112660794Y-73090000D01*
X112540794Y-65877000D02*
X112540794Y-73090000D01*
X117700794Y-70048000D02*
X117700794Y-79012000D01*
X113380794Y-75970000D02*
X113380794Y-82870000D01*
X114060794Y-75970000D02*
X114060794Y-82544000D01*
X117380794Y-69528000D02*
X117380794Y-79532000D01*
X110219794Y-65460000D02*
X110219794Y-83600000D01*
X112700794Y-75970000D02*
X112700794Y-83130000D01*
X118699794Y-72670000D02*
X118699794Y-76390000D01*
X114460794Y-75970000D02*
X114460794Y-82318000D01*
X117620794Y-69910000D02*
X117620794Y-79150000D01*
X113540794Y-66261000D02*
X113540794Y-73090000D01*
X113860794Y-75970000D02*
X113860794Y-82647000D01*
X113060794Y-66060000D02*
X113060794Y-73090000D01*
X113220794Y-75970000D02*
X113220794Y-82937000D01*
X114980794Y-67077000D02*
X114980794Y-81983000D01*
X110459794Y-65475000D02*
X110459794Y-83585000D01*
X117900794Y-70417000D02*
X117900794Y-78643000D01*
X118259794Y-71213000D02*
X118259794Y-77847000D01*
X113540794Y-75970000D02*
X113540794Y-82799000D01*
X114220794Y-75970000D02*
X114220794Y-82457000D01*
X117580794Y-69844000D02*
X117580794Y-79216000D01*
X115420794Y-67403000D02*
X115420794Y-81657000D01*
X117420794Y-69589000D02*
X117420794Y-79471000D01*
X112140794Y-75970000D02*
X112140794Y-83300000D01*
X111900794Y-65699000D02*
X111900794Y-83361000D01*
X113940794Y-75970000D02*
X113940794Y-82606000D01*
X118339794Y-71423000D02*
X118339794Y-77637000D01*
X114020794Y-66495000D02*
X114020794Y-73090000D01*
X115260794Y-67280000D02*
X115260794Y-81780000D01*
X113620794Y-66297000D02*
X113620794Y-73090000D01*
X110700794Y-65496000D02*
X110700794Y-83564000D01*
X115500794Y-67466000D02*
X115500794Y-81594000D01*
X110580794Y-65485000D02*
X110580794Y-83575000D01*
X111540794Y-65621000D02*
X111540794Y-83439000D01*
X114820794Y-75970000D02*
X114820794Y-82091000D01*
X118659794Y-72491000D02*
X118659794Y-76569000D01*
X113580794Y-66279000D02*
X113580794Y-73090000D01*
X116940794Y-68921000D02*
X116940794Y-80139000D01*
X113460794Y-75970000D02*
X113460794Y-82835000D01*
X116580794Y-68492000D02*
X116580794Y-80568000D01*
X110019794Y-65453000D02*
X110019794Y-83607000D01*
X113900794Y-66433000D02*
X113900794Y-73090000D01*
X112220794Y-75970000D02*
X112220794Y-83278000D01*
X118059794Y-70746000D02*
X118059794Y-78314000D01*
X113020794Y-75970000D02*
X113020794Y-83016000D01*
X113020794Y-66044000D02*
X113020794Y-73090000D01*
X112180794Y-65771000D02*
X112180794Y-73090000D01*
X114420794Y-75970000D02*
X114420794Y-82342000D01*
X116220794Y-68112000D02*
X116220794Y-80948000D01*
X110900794Y-65519000D02*
X110900794Y-83541000D01*
X113420794Y-75970000D02*
X113420794Y-82853000D01*
X112420794Y-65840000D02*
X112420794Y-73090000D01*
X114180794Y-75970000D02*
X114180794Y-82479000D01*
X114420794Y-66718000D02*
X114420794Y-73090000D01*
X110620794Y-65488000D02*
X110620794Y-83572000D01*
X118379794Y-71534000D02*
X118379794Y-77526000D01*
X117140794Y-69184000D02*
X117140794Y-79876000D01*
X117780794Y-70191000D02*
X117780794Y-78869000D01*
X111140794Y-65551000D02*
X111140794Y-83509000D01*
X111620794Y-65637000D02*
X111620794Y-83423000D01*
X113100794Y-75970000D02*
X113100794Y-82985000D01*
X116500794Y-68404000D02*
X116500794Y-80656000D01*
X112780794Y-65957000D02*
X112780794Y-73090000D01*
X115780794Y-67701000D02*
X115780794Y-81359000D01*
X112300794Y-75970000D02*
X112300794Y-83255000D01*
X111420794Y-65598000D02*
X111420794Y-83462000D01*
X109899794Y-65450000D02*
X109899794Y-83610000D01*
X115580794Y-67531000D02*
X115580794Y-81529000D01*
X109939794Y-65451000D02*
X109939794Y-83609000D01*
X113500794Y-75970000D02*
X113500794Y-82817000D01*
X115540794Y-67499000D02*
X115540794Y-81561000D01*
X110940794Y-65524000D02*
X110940794Y-83536000D01*
X112820794Y-65971000D02*
X112820794Y-73090000D01*
X117260794Y-69352000D02*
X117260794Y-79708000D01*
X116260794Y-68152000D02*
X116260794Y-80908000D01*
X111660794Y-65645000D02*
X111660794Y-83415000D01*
X112420794Y-75970000D02*
X112420794Y-83220000D01*
X112180794Y-75970000D02*
X112180794Y-83289000D01*
X116180794Y-68072000D02*
X116180794Y-80988000D01*
X111780794Y-65672000D02*
X111780794Y-83388000D01*
X112660794Y-75970000D02*
X112660794Y-83144000D01*
X111700794Y-65654000D02*
X111700794Y-83406000D01*
X110860794Y-65514000D02*
X110860794Y-83546000D01*
X118739794Y-72869000D02*
X118739794Y-76191000D01*
X113700794Y-66335000D02*
X113700794Y-73090000D01*
X110339794Y-65467000D02*
X110339794Y-83593000D01*
X111980794Y-65719000D02*
X111980794Y-83341000D01*
X118859794Y-73716000D02*
X118859794Y-75344000D01*
X113300794Y-66156000D02*
X113300794Y-73090000D01*
X114380794Y-75970000D02*
X114380794Y-82365000D01*
X112900794Y-75970000D02*
X112900794Y-83060000D01*
X110379794Y-65469000D02*
X110379794Y-83591000D01*
X118899794Y-74490000D02*
X118899794Y-74570000D01*
X111820794Y-65681000D02*
X111820794Y-83379000D01*
X112740794Y-75970000D02*
X112740794Y-83117000D01*
X117300794Y-69410000D02*
X117300794Y-79650000D01*
X111260794Y-65570000D02*
X111260794Y-83490000D01*
X113180794Y-75970000D02*
X113180794Y-82953000D01*
X112100794Y-75970000D02*
X112100794Y-83310000D01*
X115300794Y-67310000D02*
X115300794Y-81750000D01*
X110500794Y-65478000D02*
X110500794Y-83582000D01*
X116660794Y-68583000D02*
X116660794Y-80477000D01*
X113460794Y-66225000D02*
X113460794Y-73090000D01*
X114300794Y-75970000D02*
X114300794Y-82412000D01*
X114180794Y-66581000D02*
X114180794Y-73090000D01*
X114620794Y-66840000D02*
X114620794Y-73090000D01*
X112580794Y-65890000D02*
X112580794Y-73090000D01*
X113340794Y-75970000D02*
X113340794Y-82887000D01*
X116620794Y-68537000D02*
X116620794Y-80523000D01*
X114540794Y-75970000D02*
X114540794Y-82270000D01*
X116820794Y-68772000D02*
X116820794Y-80288000D01*
X117940794Y-70497000D02*
X117940794Y-78563000D01*
X116020794Y-67918000D02*
X116020794Y-81142000D01*
X115020794Y-67105000D02*
X115020794Y-81955000D01*
X114740794Y-75970000D02*
X114740794Y-82144000D01*
X109979794Y-65452000D02*
X109979794Y-83608000D01*
X114620794Y-75970000D02*
X114620794Y-82220000D01*
X110820794Y-65509000D02*
X110820794Y-83551000D01*
X114540794Y-66790000D02*
X114540794Y-73090000D01*
X118139794Y-70925000D02*
X118139794Y-78135000D01*
X117460794Y-69651000D02*
X117460794Y-79409000D01*
X113820794Y-75970000D02*
X113820794Y-82667000D01*
X114940794Y-75970000D02*
X114940794Y-82010000D01*
X112980794Y-66029000D02*
X112980794Y-73090000D01*
X114740794Y-66916000D02*
X114740794Y-73090000D01*
X115100794Y-67162000D02*
X115100794Y-81898000D01*
X114500794Y-75970000D02*
X114500794Y-82294000D01*
X114220794Y-66603000D02*
X114220794Y-73090000D01*
X112860794Y-65985000D02*
X112860794Y-73090000D01*
X110419794Y-65472000D02*
X110419794Y-83588000D01*
X112900794Y-66000000D02*
X112900794Y-73090000D01*
X113260794Y-66140000D02*
X113260794Y-73090000D01*
X114660794Y-66865000D02*
X114660794Y-73090000D01*
X111580794Y-65629000D02*
X111580794Y-83431000D01*
X113500794Y-66243000D02*
X113500794Y-73090000D01*
X113740794Y-66354000D02*
X113740794Y-73090000D01*
X115900794Y-67808000D02*
X115900794Y-81252000D01*
X114060794Y-66516000D02*
X114060794Y-73090000D01*
X112260794Y-65793000D02*
X112260794Y-73090000D01*
X100920354Y-68515000D02*
X100920354Y-70315000D01*
X115700794Y-67632000D02*
X115700794Y-81428000D01*
X118499794Y-71898000D02*
X118499794Y-77162000D01*
X113780794Y-75970000D02*
X113780794Y-82686000D01*
X114340794Y-75970000D02*
X114340794Y-82389000D01*
X113420794Y-66207000D02*
X113420794Y-73090000D01*
X113220794Y-66123000D02*
X113220794Y-73090000D01*
X116780794Y-68724000D02*
X116780794Y-80336000D01*
X115980794Y-67881000D02*
X115980794Y-81179000D01*
X115460794Y-67434000D02*
X115460794Y-81626000D01*
X118099794Y-70834000D02*
X118099794Y-78226000D01*
X117020794Y-69024000D02*
X117020794Y-80036000D01*
X111860794Y-65690000D02*
X111860794Y-83370000D01*
X113940794Y-66454000D02*
X113940794Y-73090000D01*
X118579794Y-72175000D02*
X118579794Y-76885000D01*
X116980794Y-68972000D02*
X116980794Y-80088000D01*
X112700794Y-65930000D02*
X112700794Y-73090000D01*
X112020794Y-65729000D02*
X112020794Y-83331000D01*
X118779794Y-73095000D02*
X118779794Y-75965000D01*
X115940794Y-67844000D02*
X115940794Y-81216000D01*
X113980794Y-66474000D02*
X113980794Y-73090000D01*
X110980794Y-65529000D02*
X110980794Y-83531000D01*
X117660794Y-69978000D02*
X117660794Y-79082000D01*
X113700794Y-75970000D02*
X113700794Y-82725000D01*
X113620794Y-75970000D02*
X113620794Y-82763000D01*
X111100794Y-65546000D02*
X111100794Y-83514000D01*
X118219794Y-71114000D02*
X118219794Y-77946000D01*
X114340794Y-66671000D02*
X114340794Y-73090000D01*
X114660794Y-75970000D02*
X114660794Y-82195000D01*
X115620794Y-67565000D02*
X115620794Y-81495000D01*
X113740794Y-75970000D02*
X113740794Y-82706000D01*
X115820794Y-67736000D02*
X115820794Y-81324000D01*
X117979794Y-70578000D02*
X117979794Y-78482000D01*
X116140794Y-68033000D02*
X116140794Y-81027000D01*
X113980794Y-75970000D02*
X113980794Y-82586000D01*
X116740794Y-68676000D02*
X116740794Y-80384000D01*
X109859794Y-65450000D02*
X109859794Y-83610000D01*
X111380794Y-65591000D02*
X111380794Y-83469000D01*
X113180794Y-66107000D02*
X113180794Y-73090000D01*
X114780794Y-75970000D02*
X114780794Y-82118000D01*
X116060794Y-67956000D02*
X116060794Y-81104000D01*
X112940794Y-75970000D02*
X112940794Y-83046000D01*
X113140794Y-66091000D02*
X113140794Y-73090000D01*
X114780794Y-66942000D02*
X114780794Y-73090000D01*
X111340794Y-65584000D02*
X111340794Y-83476000D01*
X112380794Y-75970000D02*
X112380794Y-83232000D01*
X117220794Y-69295000D02*
X117220794Y-79765000D01*
X116700794Y-68629000D02*
X116700794Y-80431000D01*
X114900794Y-67022000D02*
X114900794Y-73090000D01*
X109819794Y-65450000D02*
X109819794Y-83610000D01*
X114100794Y-66538000D02*
X114100794Y-73090000D01*
X112940794Y-66014000D02*
X112940794Y-73090000D01*
X116380794Y-68276000D02*
X116380794Y-80784000D01*
X112620794Y-65903000D02*
X112620794Y-73090000D01*
X118019794Y-70661000D02*
X118019794Y-78399000D01*
X115660794Y-67598000D02*
X115660794Y-81462000D01*
X112380794Y-65828000D02*
X112380794Y-73090000D01*
X118459794Y-71771000D02*
X118459794Y-77289000D01*
X114900794Y-75970000D02*
X114900794Y-82038000D01*
X112100794Y-65750000D02*
X112100794Y-73090000D01*
X113660794Y-66316000D02*
X113660794Y-73090000D01*
X112460794Y-65852000D02*
X112460794Y-73090000D01*
X116340794Y-68234000D02*
X116340794Y-80826000D01*
X112580794Y-75970000D02*
X112580794Y-83170000D01*
X117340794Y-69468000D02*
X117340794Y-79592000D01*
X114100794Y-75970000D02*
X114100794Y-82522000D01*
X117540794Y-69778000D02*
X117540794Y-79282000D01*
X114700794Y-75970000D02*
X114700794Y-82170000D01*
X118419794Y-71650000D02*
X118419794Y-77410000D01*
X114020794Y-75970000D02*
X114020794Y-82565000D01*
X113140794Y-75970000D02*
X113140794Y-82969000D01*
X117740794Y-70118000D02*
X117740794Y-78942000D01*
X114700794Y-66890000D02*
X114700794Y-73090000D01*
X114860794Y-75970000D02*
X114860794Y-82065000D01*
X112500794Y-75970000D02*
X112500794Y-83195000D01*
X116300794Y-68193000D02*
X116300794Y-80867000D01*
X114260794Y-66626000D02*
X114260794Y-73090000D01*
X113860794Y-66413000D02*
X113860794Y-73090000D01*
X113300794Y-75970000D02*
X113300794Y-82904000D01*
X115740794Y-67666000D02*
X115740794Y-81394000D01*
X114300794Y-66648000D02*
X114300794Y-73090000D01*
X112860794Y-75970000D02*
X112860794Y-83075000D01*
X112820794Y-75970000D02*
X112820794Y-83089000D01*
X113260794Y-75970000D02*
X113260794Y-82920000D01*
X117860794Y-70340000D02*
X117860794Y-78720000D01*
X111020794Y-65534000D02*
X111020794Y-83526000D01*
X113780794Y-66374000D02*
X113780794Y-73090000D01*
X110139794Y-65457000D02*
X110139794Y-83603000D01*
X117820794Y-70265000D02*
X117820794Y-78795000D01*
X112780794Y-75970000D02*
X112780794Y-83103000D01*
X112740794Y-65943000D02*
X112740794Y-73090000D01*
X115140794Y-67191000D02*
X115140794Y-81869000D01*
X113380794Y-66190000D02*
X113380794Y-73090000D01*
X100020354Y-69415000D02*
X101820354Y-69415000D01*
X118619794Y-72327000D02*
X118619794Y-76733000D01*
X109779794Y-65449000D02*
X109779794Y-83611000D01*
X113580794Y-75970000D02*
X113580794Y-82781000D01*
X110099794Y-65455000D02*
X110099794Y-83605000D01*
X114140794Y-75970000D02*
X114140794Y-82501000D01*
X111060794Y-65540000D02*
X111060794Y-83520000D01*
X117060794Y-69076000D02*
X117060794Y-79984000D01*
X116420794Y-68318000D02*
X116420794Y-80742000D01*
X112220794Y-65782000D02*
X112220794Y-73090000D01*
X112980794Y-75970000D02*
X112980794Y-83031000D01*
X114580794Y-66815000D02*
X114580794Y-73090000D01*
X110740794Y-65500000D02*
X110740794Y-83560000D01*
X113060794Y-75970000D02*
X113060794Y-83000000D01*
X116460794Y-68360000D02*
X116460794Y-80700000D01*
X111300794Y-65577000D02*
X111300794Y-83483000D01*
X110299794Y-65464000D02*
X110299794Y-83596000D01*
X111460794Y-65606000D02*
X111460794Y-83454000D01*
X110259794Y-65462000D02*
X110259794Y-83598000D01*
X117500794Y-69714000D02*
X117500794Y-79346000D01*
X116860794Y-68821000D02*
X116860794Y-80239000D01*
X110660794Y-65492000D02*
X110660794Y-83568000D01*
X114940794Y-67050000D02*
X114940794Y-73090000D01*
X114860794Y-66995000D02*
X114860794Y-73090000D01*
X116540794Y-68448000D02*
X116540794Y-80612000D01*
X114380794Y-66695000D02*
X114380794Y-73090000D01*
X113820794Y-66393000D02*
X113820794Y-73090000D01*
X117100794Y-69130000D02*
X117100794Y-79930000D01*
X115220794Y-67250000D02*
X115220794Y-81810000D01*
X111220794Y-65564000D02*
X111220794Y-83496000D01*
X112460794Y-75970000D02*
X112460794Y-83208000D01*
X112620794Y-75970000D02*
X112620794Y-83157000D01*
X114260794Y-75970000D02*
X114260794Y-82434000D01*
X110179794Y-65458000D02*
X110179794Y-83602000D01*
X111500794Y-65613000D02*
X111500794Y-83447000D01*
X110059794Y-65454000D02*
X110059794Y-83606000D01*
X115860794Y-67772000D02*
X115860794Y-81288000D01*
X110780794Y-65504000D02*
X110780794Y-83556000D01*
X114820794Y-66969000D02*
X114820794Y-73090000D01*
X111180794Y-65558000D02*
X111180794Y-83502000D01*
X113660794Y-75970000D02*
X113660794Y-82744000D01*
X118819794Y-73364000D02*
X118819794Y-75696000D01*
X114460794Y-66742000D02*
X114460794Y-73090000D01*
X110540794Y-65481000D02*
X110540794Y-83579000D01*
X118899794Y-74530000D02*
G75*
G03*
X118899794Y-74530000I-9120000J0D01*
G01*
%TO.C,R6*%
X138180000Y-104310000D02*
X140920000Y-104310000D01*
X139550000Y-97000000D02*
X139550000Y-97770000D01*
X139550000Y-105080000D02*
X139550000Y-104310000D01*
X140920000Y-104310000D02*
X140920000Y-97770000D01*
X140920000Y-97770000D02*
X138180000Y-97770000D01*
X138180000Y-97770000D02*
X138180000Y-104310000D01*
%TO.C,R8*%
X134240000Y-76780000D02*
X134240000Y-79520000D01*
X140780000Y-76780000D02*
X134240000Y-76780000D01*
X133470000Y-78150000D02*
X134240000Y-78150000D01*
X140780000Y-79520000D02*
X140780000Y-76780000D01*
X134240000Y-79520000D02*
X140780000Y-79520000D01*
X141550000Y-78150000D02*
X140780000Y-78150000D01*
%TO.C,C2*%
X104631000Y-99376677D02*
X107993000Y-99376677D01*
X100184000Y-97576677D02*
X106596000Y-97576677D01*
X98434000Y-100416677D02*
X108346000Y-100416677D01*
X98360000Y-100816677D02*
X108420000Y-100816677D01*
X104631000Y-98976677D02*
X107785000Y-98976677D01*
X104631000Y-98096677D02*
X107143000Y-98096677D01*
X100620000Y-97256677D02*
X106160000Y-97256677D01*
X104631000Y-99776677D02*
X108158000Y-99776677D01*
X104631000Y-98616677D02*
X107556000Y-98616677D01*
X99498000Y-98256677D02*
X102149000Y-98256677D01*
X104631000Y-99136677D02*
X107873000Y-99136677D01*
X101880000Y-96656677D02*
X104900000Y-96656677D01*
X99092000Y-98816677D02*
X102149000Y-98816677D01*
X104631000Y-100136677D02*
X108275000Y-100136677D01*
X99912000Y-97816677D02*
X102149000Y-97816677D01*
X100136000Y-97616677D02*
X106644000Y-97616677D01*
X100811000Y-97136677D02*
X105969000Y-97136677D01*
X104631000Y-98656677D02*
X107584000Y-98656677D01*
X101760000Y-96696677D02*
X105020000Y-96696677D01*
X104631000Y-99016677D02*
X107807000Y-99016677D01*
X99143000Y-98736677D02*
X102149000Y-98736677D01*
X104631000Y-99976677D02*
X108227000Y-99976677D01*
X99043000Y-98896677D02*
X102149000Y-98896677D01*
X99169000Y-98696677D02*
X102149000Y-98696677D01*
X101544000Y-96776677D02*
X105236000Y-96776677D01*
X104631000Y-99896677D02*
X108201000Y-99896677D01*
X98622000Y-99776677D02*
X102149000Y-99776677D01*
X104631000Y-97976677D02*
X107030000Y-97976677D01*
X98593000Y-99856677D02*
X102149000Y-99856677D01*
X98372000Y-100736677D02*
X108408000Y-100736677D01*
X99711000Y-98016677D02*
X102149000Y-98016677D01*
X104631000Y-98296677D02*
X107315000Y-98296677D01*
X98950000Y-99056677D02*
X102149000Y-99056677D01*
X98320000Y-101217677D02*
X108460000Y-101217677D01*
X98886000Y-99176677D02*
X102149000Y-99176677D01*
X104631000Y-99736677D02*
X108144000Y-99736677D01*
X98607000Y-99816677D02*
X102149000Y-99816677D01*
X98310000Y-101537677D02*
X108470000Y-101537677D01*
X100560000Y-97296677D02*
X106220000Y-97296677D01*
X100089000Y-97656677D02*
X106691000Y-97656677D01*
X101446000Y-96816677D02*
X105334000Y-96816677D01*
X104631000Y-99656677D02*
X108113000Y-99656677D01*
X99532000Y-98216677D02*
X102149000Y-98216677D01*
X104631000Y-100056677D02*
X108252000Y-100056677D01*
X99465000Y-98296677D02*
X102149000Y-98296677D01*
X99280000Y-98536677D02*
X102149000Y-98536677D01*
X104631000Y-98856677D02*
X107713000Y-98856677D01*
X98516000Y-100096677D02*
X102149000Y-100096677D01*
X104631000Y-97816677D02*
X106868000Y-97816677D01*
X98540000Y-100016677D02*
X102149000Y-100016677D01*
X102328000Y-96536677D02*
X104452000Y-96536677D01*
X98636000Y-99736677D02*
X102149000Y-99736677D01*
X104631000Y-99456677D02*
X108029000Y-99456677D01*
X98355000Y-100857677D02*
X108425000Y-100857677D01*
X98443000Y-100376677D02*
X108337000Y-100376677D01*
X104631000Y-98216677D02*
X107248000Y-98216677D01*
X98483000Y-100216677D02*
X102149000Y-100216677D01*
X98340000Y-100977677D02*
X108440000Y-100977677D01*
X104631000Y-98496677D02*
X107470000Y-98496677D01*
X99750000Y-97976677D02*
X102149000Y-97976677D01*
X104631000Y-99856677D02*
X108187000Y-99856677D01*
X104631000Y-98696677D02*
X107611000Y-98696677D01*
X99566000Y-98176677D02*
X102149000Y-98176677D01*
X104631000Y-98776677D02*
X107663000Y-98776677D01*
X98452000Y-100336677D02*
X108328000Y-100336677D01*
X98787000Y-99376677D02*
X102149000Y-99376677D01*
X98310000Y-101457677D02*
X108470000Y-101457677D01*
X98826000Y-99296677D02*
X102149000Y-99296677D01*
X102160000Y-96576677D02*
X104620000Y-96576677D01*
X98716000Y-99536677D02*
X102149000Y-99536677D01*
X98350000Y-100897677D02*
X108430000Y-100897677D01*
X99433000Y-98336677D02*
X102149000Y-98336677D01*
X104631000Y-98136677D02*
X107179000Y-98136677D01*
X98579000Y-99896677D02*
X102149000Y-99896677D01*
X99789000Y-97936677D02*
X102149000Y-97936677D01*
X98379000Y-100696677D02*
X108401000Y-100696677D01*
X100015000Y-106517323D02*
X101015000Y-106517323D01*
X98416000Y-100496677D02*
X108364000Y-100496677D01*
X104631000Y-98936677D02*
X107761000Y-98936677D01*
X98328000Y-101097677D02*
X108452000Y-101097677D01*
X104631000Y-100096677D02*
X108264000Y-100096677D01*
X104631000Y-97896677D02*
X106951000Y-97896677D01*
X104631000Y-99296677D02*
X107954000Y-99296677D01*
X99310000Y-98496677D02*
X102149000Y-98496677D01*
X100284000Y-97496677D02*
X106496000Y-97496677D01*
X98667000Y-99656677D02*
X102149000Y-99656677D01*
X98907000Y-99136677D02*
X102149000Y-99136677D01*
X98313000Y-101337677D02*
X108467000Y-101337677D01*
X98393000Y-100616677D02*
X108387000Y-100616677D01*
X101101000Y-96976677D02*
X105679000Y-96976677D01*
X104631000Y-100256677D02*
X108308000Y-100256677D01*
X98310000Y-101497677D02*
X108470000Y-101497677D01*
X98345000Y-100937677D02*
X108435000Y-100937677D01*
X98386000Y-100656677D02*
X108394000Y-100656677D01*
X98366000Y-100776677D02*
X108414000Y-100776677D01*
X99117000Y-98776677D02*
X102149000Y-98776677D01*
X104631000Y-97856677D02*
X106910000Y-97856677D01*
X100043000Y-97696677D02*
X106737000Y-97696677D01*
X99998000Y-97736677D02*
X106782000Y-97736677D01*
X101025000Y-97016677D02*
X105755000Y-97016677D01*
X99637000Y-98096677D02*
X102149000Y-98096677D01*
X104631000Y-98536677D02*
X107500000Y-98536677D01*
X98652000Y-99696677D02*
X102149000Y-99696677D01*
X100880000Y-97096677D02*
X105900000Y-97096677D01*
X100681000Y-97216677D02*
X106099000Y-97216677D01*
X102528000Y-96496677D02*
X104252000Y-96496677D01*
X104631000Y-99336677D02*
X107974000Y-99336677D01*
X98733000Y-99496677D02*
X102149000Y-99496677D01*
X104631000Y-98416677D02*
X107410000Y-98416677D01*
X99674000Y-98056677D02*
X102149000Y-98056677D01*
X98528000Y-100056677D02*
X102149000Y-100056677D01*
X104631000Y-99256677D02*
X107935000Y-99256677D01*
X104631000Y-99576677D02*
X108080000Y-99576677D01*
X98553000Y-99976677D02*
X102149000Y-99976677D01*
X98400000Y-100576677D02*
X108380000Y-100576677D01*
X98472000Y-100256677D02*
X102149000Y-100256677D01*
X104631000Y-99416677D02*
X108011000Y-99416677D01*
X104631000Y-99216677D02*
X107915000Y-99216677D01*
X99954000Y-97776677D02*
X106826000Y-97776677D01*
X100515000Y-107017323D02*
X100515000Y-106017323D01*
X98700000Y-99576677D02*
X102149000Y-99576677D01*
X104631000Y-100016677D02*
X108240000Y-100016677D01*
X104631000Y-99616677D02*
X108097000Y-99616677D01*
X100234000Y-97536677D02*
X106546000Y-97536677D01*
X104631000Y-99056677D02*
X107830000Y-99056677D01*
X100745000Y-97176677D02*
X106035000Y-97176677D01*
X99601000Y-98136677D02*
X102149000Y-98136677D01*
X98683000Y-99616677D02*
X102149000Y-99616677D01*
X101265000Y-96896677D02*
X105515000Y-96896677D01*
X104631000Y-98256677D02*
X107282000Y-98256677D01*
X104631000Y-99936677D02*
X108214000Y-99936677D01*
X98317000Y-101257677D02*
X108463000Y-101257677D01*
X104631000Y-99096677D02*
X107852000Y-99096677D01*
X98845000Y-99256677D02*
X102149000Y-99256677D01*
X98315000Y-101297677D02*
X108465000Y-101297677D01*
X104631000Y-97936677D02*
X106991000Y-97936677D01*
X99019000Y-98936677D02*
X102149000Y-98936677D01*
X98806000Y-99336677D02*
X102149000Y-99336677D01*
X98408000Y-100536677D02*
X108372000Y-100536677D01*
X102791000Y-96456677D02*
X103989000Y-96456677D01*
X104631000Y-100216677D02*
X108297000Y-100216677D01*
X100951000Y-97056677D02*
X105829000Y-97056677D01*
X104631000Y-98376677D02*
X107379000Y-98376677D01*
X98325000Y-101137677D02*
X108455000Y-101137677D01*
X104631000Y-99496677D02*
X108047000Y-99496677D01*
X100501000Y-97336677D02*
X106279000Y-97336677D01*
X104631000Y-99176677D02*
X107894000Y-99176677D01*
X104631000Y-98456677D02*
X107440000Y-98456677D01*
X104631000Y-98056677D02*
X107106000Y-98056677D01*
X99196000Y-98656677D02*
X102149000Y-98656677D01*
X98425000Y-100456677D02*
X108355000Y-100456677D01*
X104631000Y-100176677D02*
X108287000Y-100176677D01*
X98566000Y-99936677D02*
X102149000Y-99936677D01*
X99224000Y-98616677D02*
X102149000Y-98616677D01*
X100390000Y-97416677D02*
X106390000Y-97416677D01*
X98769000Y-99416677D02*
X102149000Y-99416677D01*
X104631000Y-99536677D02*
X108064000Y-99536677D01*
X101353000Y-96856677D02*
X105427000Y-96856677D01*
X98751000Y-99456677D02*
X102149000Y-99456677D01*
X98973000Y-99016677D02*
X102149000Y-99016677D01*
X102012000Y-96616677D02*
X104768000Y-96616677D01*
X98336000Y-101017677D02*
X108444000Y-101017677D01*
X104631000Y-98576677D02*
X107528000Y-98576677D01*
X104631000Y-99816677D02*
X108173000Y-99816677D01*
X100336000Y-97456677D02*
X106444000Y-97456677D01*
X104631000Y-99696677D02*
X108128000Y-99696677D01*
X101648000Y-96736677D02*
X105132000Y-96736677D01*
X99252000Y-98576677D02*
X102149000Y-98576677D01*
X104631000Y-98016677D02*
X107069000Y-98016677D01*
X98322000Y-101177677D02*
X108458000Y-101177677D01*
X104631000Y-98736677D02*
X107637000Y-98736677D01*
X101181000Y-96936677D02*
X105599000Y-96936677D01*
X98312000Y-101377677D02*
X108468000Y-101377677D01*
X99370000Y-98416677D02*
X102149000Y-98416677D01*
X104631000Y-98896677D02*
X107737000Y-98896677D01*
X99067000Y-98856677D02*
X102149000Y-98856677D01*
X98505000Y-100136677D02*
X102149000Y-100136677D01*
X98995000Y-98976677D02*
X102149000Y-98976677D01*
X99401000Y-98376677D02*
X102149000Y-98376677D01*
X98311000Y-101417677D02*
X108469000Y-101417677D01*
X104631000Y-98176677D02*
X107214000Y-98176677D01*
X98462000Y-100296677D02*
X108318000Y-100296677D01*
X99340000Y-98456677D02*
X102149000Y-98456677D01*
X98865000Y-99216677D02*
X102149000Y-99216677D01*
X99829000Y-97896677D02*
X102149000Y-97896677D01*
X104631000Y-98816677D02*
X107688000Y-98816677D01*
X104631000Y-98336677D02*
X107347000Y-98336677D01*
X99870000Y-97856677D02*
X102149000Y-97856677D01*
X98493000Y-100176677D02*
X102149000Y-100176677D01*
X98928000Y-99096677D02*
X102149000Y-99096677D01*
X100445000Y-97376677D02*
X106335000Y-97376677D01*
X98332000Y-101057677D02*
X108448000Y-101057677D01*
X108510000Y-101537677D02*
G75*
G03*
X108510000Y-101537677I-5120000J0D01*
G01*
%TD*%
M02*
