%TF.GenerationSoftware,KiCad,Pcbnew,(6.0.0)*%
%TF.CreationDate,2022-01-14T09:14:34+00:00*%
%TF.ProjectId,ampli1,616d706c-6931-42e6-9b69-6361645f7063,rev?*%
%TF.SameCoordinates,Original*%
%TF.FileFunction,Copper,L1,Top*%
%TF.FilePolarity,Positive*%
%FSLAX46Y46*%
G04 Gerber Fmt 4.6, Leading zero omitted, Abs format (unit mm)*
G04 Created by KiCad (PCBNEW (6.0.0)) date 2022-01-14 09:14:34*
%MOMM*%
%LPD*%
G01*
G04 APERTURE LIST*
%TA.AperFunction,ComponentPad*%
%ADD10R,1.700000X1.700000*%
%TD*%
%TA.AperFunction,ComponentPad*%
%ADD11O,1.700000X1.700000*%
%TD*%
%TA.AperFunction,ComponentPad*%
%ADD12R,1.500000X1.050000*%
%TD*%
%TA.AperFunction,ComponentPad*%
%ADD13O,1.500000X1.050000*%
%TD*%
%TA.AperFunction,ComponentPad*%
%ADD14R,2.000000X2.000000*%
%TD*%
%TA.AperFunction,ComponentPad*%
%ADD15C,2.000000*%
%TD*%
%TA.AperFunction,ComponentPad*%
%ADD16C,1.600000*%
%TD*%
%TA.AperFunction,ComponentPad*%
%ADD17O,1.600000X1.600000*%
%TD*%
%TA.AperFunction,ComponentPad*%
%ADD18R,1.050000X1.500000*%
%TD*%
%TA.AperFunction,ComponentPad*%
%ADD19O,1.050000X1.500000*%
%TD*%
%TA.AperFunction,ComponentPad*%
%ADD20C,1.620000*%
%TD*%
%TA.AperFunction,ComponentPad*%
%ADD21R,2.400000X2.400000*%
%TD*%
%TA.AperFunction,ComponentPad*%
%ADD22C,2.400000*%
%TD*%
%TA.AperFunction,Conductor*%
%ADD23C,0.250000*%
%TD*%
G04 APERTURE END LIST*
D10*
%TO.P,V1,1,E1*%
%TO.N,VCC*%
X126590000Y-74415000D03*
D11*
%TO.P,V1,2,E2*%
%TO.N,GND*%
X124050000Y-74415000D03*
%TD*%
D12*
%TO.P,Q2,1,C*%
%TO.N,Net-(C5-Pad1)*%
X132540000Y-85490000D03*
D13*
%TO.P,Q2,2,B*%
%TO.N,Net-(Q1-Pad1)*%
X132540000Y-86760000D03*
%TO.P,Q2,3,E*%
%TO.N,Net-(C4-Pad1)*%
X132540000Y-88030000D03*
%TD*%
D14*
%TO.P,C1,1*%
%TO.N,Net-(C1-Pad1)*%
X119457677Y-102430000D03*
D15*
%TO.P,C1,2*%
%TO.N,Net-(C1-Pad2)*%
X114457677Y-102430000D03*
%TD*%
D16*
%TO.P,R4,1*%
%TO.N,Net-(C4-Pad1)*%
X130030000Y-96080000D03*
D17*
%TO.P,R4,2*%
%TO.N,Net-(R1-Pad2)*%
X130030000Y-106240000D03*
%TD*%
D16*
%TO.P,R5,1*%
%TO.N,Net-(R1-Pad2)*%
X125340000Y-106240000D03*
D17*
%TO.P,R5,2*%
%TO.N,GND*%
X125340000Y-96080000D03*
%TD*%
D16*
%TO.P,R1,1*%
%TO.N,Net-(C1-Pad1)*%
X109710000Y-94450000D03*
D17*
%TO.P,R1,2*%
%TO.N,Net-(R1-Pad2)*%
X119870000Y-94450000D03*
%TD*%
D14*
%TO.P,C3,1*%
%TO.N,Net-(C3-Pad1)*%
X124020000Y-85880000D03*
D15*
%TO.P,C3,2*%
%TO.N,Net-(C3-Pad2)*%
X124020000Y-80880000D03*
%TD*%
D16*
%TO.P,R3,1*%
%TO.N,Net-(C3-Pad2)*%
X115810000Y-90950000D03*
D17*
%TO.P,R3,2*%
%TO.N,GND*%
X125970000Y-90950000D03*
%TD*%
D18*
%TO.P,Q1,1,C*%
%TO.N,Net-(Q1-Pad1)*%
X113670000Y-86950000D03*
D19*
%TO.P,Q1,2,B*%
%TO.N,Net-(C1-Pad1)*%
X114940000Y-86950000D03*
%TO.P,Q1,3,E*%
%TO.N,Net-(C3-Pad2)*%
X116210000Y-86950000D03*
%TD*%
D14*
%TO.P,C5,1*%
%TO.N,Net-(C5-Pad1)*%
X140982323Y-89620000D03*
D15*
%TO.P,C5,2*%
%TO.N,Net-(C5-Pad2)*%
X145982323Y-89620000D03*
%TD*%
D16*
%TO.P,R2,1*%
%TO.N,Net-(C2-Pad1)*%
X106080000Y-95260000D03*
D17*
%TO.P,R2,2*%
%TO.N,Net-(Q1-Pad1)*%
X106080000Y-85100000D03*
%TD*%
D10*
%TO.P,J1,1,Pin_1*%
%TO.N,GND*%
X99330000Y-88600000D03*
D11*
%TO.P,J1,2,Pin_2*%
%TO.N,Net-(C1-Pad2)*%
X99330000Y-86060000D03*
%TD*%
D16*
%TO.P,R7,1*%
%TO.N,Net-(C2-Pad1)*%
X142590000Y-81720000D03*
D17*
%TO.P,R7,2*%
%TO.N,Net-(C5-Pad1)*%
X132430000Y-81720000D03*
%TD*%
D10*
%TO.P,J2,1,Pin_1*%
%TO.N,Net-(C5-Pad2)*%
X139330000Y-72965000D03*
D11*
%TO.P,J2,2,Pin_2*%
%TO.N,GND*%
X136790000Y-72965000D03*
%TD*%
D20*
%TO.P,RV1,1,1*%
%TO.N,Net-(C3-Pad1)*%
X133275000Y-93460000D03*
%TO.P,RV1,2,2*%
X135775000Y-95960000D03*
%TO.P,RV1,3,3*%
%TO.N,Net-(R6-Pad1)*%
X133275000Y-98460000D03*
%TD*%
D21*
%TO.P,C4,1*%
%TO.N,Net-(C4-Pad1)*%
X106029794Y-74530000D03*
D22*
%TO.P,C4,2*%
%TO.N,GND*%
X113529794Y-74530000D03*
%TD*%
D16*
%TO.P,R6,1*%
%TO.N,Net-(R6-Pad1)*%
X139550000Y-95960000D03*
D17*
%TO.P,R6,2*%
%TO.N,Net-(C5-Pad1)*%
X139550000Y-106120000D03*
%TD*%
D16*
%TO.P,R8,1*%
%TO.N,VCC*%
X132430000Y-78150000D03*
D17*
%TO.P,R8,2*%
%TO.N,Net-(C2-Pad1)*%
X142590000Y-78150000D03*
%TD*%
D14*
%TO.P,C2,1*%
%TO.N,Net-(C2-Pad1)*%
X103390000Y-104037677D03*
D15*
%TO.P,C2,2*%
%TO.N,GND*%
X103390000Y-99037677D03*
%TD*%
D23*
%TO.N,Net-(C2-Pad1)*%
X106080000Y-95260000D02*
X108014511Y-93325489D01*
X108014511Y-93325489D02*
X130984511Y-93325489D01*
X130984511Y-93325489D02*
X142590000Y-81720000D01*
%TO.N,GND*%
X127270000Y-90950000D02*
X125970000Y-90950000D01*
X99330000Y-88600000D02*
X99459794Y-88600000D01*
X124050000Y-76730000D02*
X127790000Y-80470000D01*
X127790000Y-80470000D02*
X127790000Y-90430000D01*
X127790000Y-90430000D02*
X127270000Y-90950000D01*
X99459794Y-88600000D02*
X113529794Y-74530000D01*
X124050000Y-74415000D02*
X124050000Y-76730000D01*
%TO.N,Net-(C3-Pad2)*%
X116210000Y-86950000D02*
X117950000Y-86950000D01*
X117950000Y-86950000D02*
X124020000Y-80880000D01*
%TD*%
%TA.AperFunction,Conductor*%
%TO.N,GND*%
G36*
X148001994Y-66060024D02*
G01*
X148048506Y-66113662D01*
X148059912Y-66166135D01*
X148055265Y-72820467D01*
X148030170Y-108756088D01*
X148010120Y-108824195D01*
X147956432Y-108870650D01*
X147904170Y-108882000D01*
X110339487Y-108882000D01*
X110339093Y-108881999D01*
X110165088Y-108881454D01*
X93856106Y-108830395D01*
X93788049Y-108810180D01*
X93741724Y-108756379D01*
X93730502Y-108703895D01*
X93740304Y-106240000D01*
X124026502Y-106240000D01*
X124046457Y-106468087D01*
X124105716Y-106689243D01*
X124108039Y-106694224D01*
X124108039Y-106694225D01*
X124200151Y-106891762D01*
X124200154Y-106891767D01*
X124202477Y-106896749D01*
X124333802Y-107084300D01*
X124495700Y-107246198D01*
X124500208Y-107249355D01*
X124500211Y-107249357D01*
X124578389Y-107304098D01*
X124683251Y-107377523D01*
X124688233Y-107379846D01*
X124688238Y-107379849D01*
X124885775Y-107471961D01*
X124890757Y-107474284D01*
X124896065Y-107475706D01*
X124896067Y-107475707D01*
X125106598Y-107532119D01*
X125106600Y-107532119D01*
X125111913Y-107533543D01*
X125340000Y-107553498D01*
X125568087Y-107533543D01*
X125573400Y-107532119D01*
X125573402Y-107532119D01*
X125783933Y-107475707D01*
X125783935Y-107475706D01*
X125789243Y-107474284D01*
X125794225Y-107471961D01*
X125991762Y-107379849D01*
X125991767Y-107379846D01*
X125996749Y-107377523D01*
X126101611Y-107304098D01*
X126179789Y-107249357D01*
X126179792Y-107249355D01*
X126184300Y-107246198D01*
X126346198Y-107084300D01*
X126477523Y-106896749D01*
X126479846Y-106891767D01*
X126479849Y-106891762D01*
X126571961Y-106694225D01*
X126571961Y-106694224D01*
X126574284Y-106689243D01*
X126633543Y-106468087D01*
X126653498Y-106240000D01*
X128716502Y-106240000D01*
X128736457Y-106468087D01*
X128795716Y-106689243D01*
X128798039Y-106694224D01*
X128798039Y-106694225D01*
X128890151Y-106891762D01*
X128890154Y-106891767D01*
X128892477Y-106896749D01*
X129023802Y-107084300D01*
X129185700Y-107246198D01*
X129190208Y-107249355D01*
X129190211Y-107249357D01*
X129268389Y-107304098D01*
X129373251Y-107377523D01*
X129378233Y-107379846D01*
X129378238Y-107379849D01*
X129575775Y-107471961D01*
X129580757Y-107474284D01*
X129586065Y-107475706D01*
X129586067Y-107475707D01*
X129796598Y-107532119D01*
X129796600Y-107532119D01*
X129801913Y-107533543D01*
X130030000Y-107553498D01*
X130258087Y-107533543D01*
X130263400Y-107532119D01*
X130263402Y-107532119D01*
X130473933Y-107475707D01*
X130473935Y-107475706D01*
X130479243Y-107474284D01*
X130484225Y-107471961D01*
X130681762Y-107379849D01*
X130681767Y-107379846D01*
X130686749Y-107377523D01*
X130791611Y-107304098D01*
X130869789Y-107249357D01*
X130869792Y-107249355D01*
X130874300Y-107246198D01*
X131036198Y-107084300D01*
X131167523Y-106896749D01*
X131169846Y-106891767D01*
X131169849Y-106891762D01*
X131261961Y-106694225D01*
X131261961Y-106694224D01*
X131264284Y-106689243D01*
X131323543Y-106468087D01*
X131343498Y-106240000D01*
X131332999Y-106120000D01*
X138236502Y-106120000D01*
X138256457Y-106348087D01*
X138315716Y-106569243D01*
X138318039Y-106574224D01*
X138318039Y-106574225D01*
X138410151Y-106771762D01*
X138410154Y-106771767D01*
X138412477Y-106776749D01*
X138543802Y-106964300D01*
X138705700Y-107126198D01*
X138710208Y-107129355D01*
X138710211Y-107129357D01*
X138788389Y-107184098D01*
X138893251Y-107257523D01*
X138898233Y-107259846D01*
X138898238Y-107259849D01*
X139095775Y-107351961D01*
X139100757Y-107354284D01*
X139106065Y-107355706D01*
X139106067Y-107355707D01*
X139316598Y-107412119D01*
X139316600Y-107412119D01*
X139321913Y-107413543D01*
X139550000Y-107433498D01*
X139778087Y-107413543D01*
X139783400Y-107412119D01*
X139783402Y-107412119D01*
X139993933Y-107355707D01*
X139993935Y-107355706D01*
X139999243Y-107354284D01*
X140004225Y-107351961D01*
X140201762Y-107259849D01*
X140201767Y-107259846D01*
X140206749Y-107257523D01*
X140311611Y-107184098D01*
X140389789Y-107129357D01*
X140389792Y-107129355D01*
X140394300Y-107126198D01*
X140556198Y-106964300D01*
X140687523Y-106776749D01*
X140689846Y-106771767D01*
X140689849Y-106771762D01*
X140781961Y-106574225D01*
X140781961Y-106574224D01*
X140784284Y-106569243D01*
X140843543Y-106348087D01*
X140863498Y-106120000D01*
X140843543Y-105891913D01*
X140784284Y-105670757D01*
X140743480Y-105583251D01*
X140689849Y-105468238D01*
X140689846Y-105468233D01*
X140687523Y-105463251D01*
X140567309Y-105291568D01*
X140559357Y-105280211D01*
X140559355Y-105280208D01*
X140556198Y-105275700D01*
X140394300Y-105113802D01*
X140389792Y-105110645D01*
X140389789Y-105110643D01*
X140243255Y-105008039D01*
X140206749Y-104982477D01*
X140201767Y-104980154D01*
X140201762Y-104980151D01*
X140004225Y-104888039D01*
X140004224Y-104888039D01*
X139999243Y-104885716D01*
X139993935Y-104884294D01*
X139993933Y-104884293D01*
X139783402Y-104827881D01*
X139783400Y-104827881D01*
X139778087Y-104826457D01*
X139550000Y-104806502D01*
X139321913Y-104826457D01*
X139316600Y-104827881D01*
X139316598Y-104827881D01*
X139106067Y-104884293D01*
X139106065Y-104884294D01*
X139100757Y-104885716D01*
X139095776Y-104888039D01*
X139095775Y-104888039D01*
X138898238Y-104980151D01*
X138898233Y-104980154D01*
X138893251Y-104982477D01*
X138856745Y-105008039D01*
X138710211Y-105110643D01*
X138710208Y-105110645D01*
X138705700Y-105113802D01*
X138543802Y-105275700D01*
X138540645Y-105280208D01*
X138540643Y-105280211D01*
X138532691Y-105291568D01*
X138412477Y-105463251D01*
X138410154Y-105468233D01*
X138410151Y-105468238D01*
X138356520Y-105583251D01*
X138315716Y-105670757D01*
X138256457Y-105891913D01*
X138236502Y-106120000D01*
X131332999Y-106120000D01*
X131323543Y-106011913D01*
X131264284Y-105790757D01*
X131210804Y-105676067D01*
X131169849Y-105588238D01*
X131169846Y-105588233D01*
X131167523Y-105583251D01*
X131036198Y-105395700D01*
X130874300Y-105233802D01*
X130869792Y-105230645D01*
X130869789Y-105230643D01*
X130708488Y-105117699D01*
X130686749Y-105102477D01*
X130681767Y-105100154D01*
X130681762Y-105100151D01*
X130484225Y-105008039D01*
X130484224Y-105008039D01*
X130479243Y-105005716D01*
X130473935Y-105004294D01*
X130473933Y-105004293D01*
X130263402Y-104947881D01*
X130263400Y-104947881D01*
X130258087Y-104946457D01*
X130030000Y-104926502D01*
X129801913Y-104946457D01*
X129796600Y-104947881D01*
X129796598Y-104947881D01*
X129586067Y-105004293D01*
X129586065Y-105004294D01*
X129580757Y-105005716D01*
X129575776Y-105008039D01*
X129575775Y-105008039D01*
X129378238Y-105100151D01*
X129378233Y-105100154D01*
X129373251Y-105102477D01*
X129351512Y-105117699D01*
X129190211Y-105230643D01*
X129190208Y-105230645D01*
X129185700Y-105233802D01*
X129023802Y-105395700D01*
X128892477Y-105583251D01*
X128890154Y-105588233D01*
X128890151Y-105588238D01*
X128849196Y-105676067D01*
X128795716Y-105790757D01*
X128736457Y-106011913D01*
X128716502Y-106240000D01*
X126653498Y-106240000D01*
X126633543Y-106011913D01*
X126574284Y-105790757D01*
X126520804Y-105676067D01*
X126479849Y-105588238D01*
X126479846Y-105588233D01*
X126477523Y-105583251D01*
X126346198Y-105395700D01*
X126184300Y-105233802D01*
X126179792Y-105230645D01*
X126179789Y-105230643D01*
X126018488Y-105117699D01*
X125996749Y-105102477D01*
X125991767Y-105100154D01*
X125991762Y-105100151D01*
X125794225Y-105008039D01*
X125794224Y-105008039D01*
X125789243Y-105005716D01*
X125783935Y-105004294D01*
X125783933Y-105004293D01*
X125573402Y-104947881D01*
X125573400Y-104947881D01*
X125568087Y-104946457D01*
X125340000Y-104926502D01*
X125111913Y-104946457D01*
X125106600Y-104947881D01*
X125106598Y-104947881D01*
X124896067Y-105004293D01*
X124896065Y-105004294D01*
X124890757Y-105005716D01*
X124885776Y-105008039D01*
X124885775Y-105008039D01*
X124688238Y-105100151D01*
X124688233Y-105100154D01*
X124683251Y-105102477D01*
X124661512Y-105117699D01*
X124500211Y-105230643D01*
X124500208Y-105230645D01*
X124495700Y-105233802D01*
X124333802Y-105395700D01*
X124202477Y-105583251D01*
X124200154Y-105588233D01*
X124200151Y-105588238D01*
X124159196Y-105676067D01*
X124105716Y-105790757D01*
X124046457Y-106011913D01*
X124026502Y-106240000D01*
X93740304Y-106240000D01*
X93744896Y-105085811D01*
X101881500Y-105085811D01*
X101888255Y-105147993D01*
X101939385Y-105284382D01*
X102026739Y-105400938D01*
X102143295Y-105488292D01*
X102279684Y-105539422D01*
X102341866Y-105546177D01*
X104438134Y-105546177D01*
X104500316Y-105539422D01*
X104636705Y-105488292D01*
X104753261Y-105400938D01*
X104840615Y-105284382D01*
X104891745Y-105147993D01*
X104898500Y-105085811D01*
X104898500Y-102989543D01*
X104891745Y-102927361D01*
X104840615Y-102790972D01*
X104753261Y-102674416D01*
X104636705Y-102587062D01*
X104500316Y-102535932D01*
X104438134Y-102529177D01*
X102341866Y-102529177D01*
X102279684Y-102535932D01*
X102143295Y-102587062D01*
X102026739Y-102674416D01*
X101939385Y-102790972D01*
X101888255Y-102927361D01*
X101881500Y-102989543D01*
X101881500Y-105085811D01*
X93744896Y-105085811D01*
X93755462Y-102430000D01*
X112944512Y-102430000D01*
X112963142Y-102666711D01*
X112964296Y-102671518D01*
X112964297Y-102671524D01*
X112991249Y-102783786D01*
X113018572Y-102897594D01*
X113020465Y-102902165D01*
X113020466Y-102902167D01*
X113058074Y-102992960D01*
X113109437Y-103116963D01*
X113112023Y-103121183D01*
X113230918Y-103315202D01*
X113230922Y-103315208D01*
X113233501Y-103319416D01*
X113387708Y-103499969D01*
X113568261Y-103654176D01*
X113572469Y-103656755D01*
X113572475Y-103656759D01*
X113766494Y-103775654D01*
X113770714Y-103778240D01*
X113775284Y-103780133D01*
X113775288Y-103780135D01*
X113985510Y-103867211D01*
X113990083Y-103869105D01*
X114038026Y-103880615D01*
X114216153Y-103923380D01*
X114216159Y-103923381D01*
X114220966Y-103924535D01*
X114457677Y-103943165D01*
X114694388Y-103924535D01*
X114699195Y-103923381D01*
X114699201Y-103923380D01*
X114877328Y-103880615D01*
X114925271Y-103869105D01*
X114929844Y-103867211D01*
X115140066Y-103780135D01*
X115140070Y-103780133D01*
X115144640Y-103778240D01*
X115148860Y-103775654D01*
X115342879Y-103656759D01*
X115342885Y-103656755D01*
X115347093Y-103654176D01*
X115527646Y-103499969D01*
X115546295Y-103478134D01*
X117949177Y-103478134D01*
X117955932Y-103540316D01*
X118007062Y-103676705D01*
X118094416Y-103793261D01*
X118210972Y-103880615D01*
X118347361Y-103931745D01*
X118409543Y-103938500D01*
X120505811Y-103938500D01*
X120567993Y-103931745D01*
X120704382Y-103880615D01*
X120820938Y-103793261D01*
X120908292Y-103676705D01*
X120959422Y-103540316D01*
X120966177Y-103478134D01*
X120966177Y-101381866D01*
X120959422Y-101319684D01*
X120908292Y-101183295D01*
X120820938Y-101066739D01*
X120704382Y-100979385D01*
X120567993Y-100928255D01*
X120505811Y-100921500D01*
X118409543Y-100921500D01*
X118347361Y-100928255D01*
X118210972Y-100979385D01*
X118094416Y-101066739D01*
X118007062Y-101183295D01*
X117955932Y-101319684D01*
X117949177Y-101381866D01*
X117949177Y-103478134D01*
X115546295Y-103478134D01*
X115681853Y-103319416D01*
X115684432Y-103315208D01*
X115684436Y-103315202D01*
X115803331Y-103121183D01*
X115805917Y-103116963D01*
X115857281Y-102992960D01*
X115894888Y-102902167D01*
X115894889Y-102902165D01*
X115896782Y-102897594D01*
X115924105Y-102783786D01*
X115951057Y-102671524D01*
X115951058Y-102671518D01*
X115952212Y-102666711D01*
X115970842Y-102430000D01*
X115952212Y-102193289D01*
X115896782Y-101962406D01*
X115805917Y-101743037D01*
X115803331Y-101738817D01*
X115684436Y-101544798D01*
X115684432Y-101544792D01*
X115681853Y-101540584D01*
X115527646Y-101360031D01*
X115347093Y-101205824D01*
X115342885Y-101203245D01*
X115342879Y-101203241D01*
X115148860Y-101084346D01*
X115144640Y-101081760D01*
X115140070Y-101079867D01*
X115140066Y-101079865D01*
X114929844Y-100992789D01*
X114929842Y-100992788D01*
X114925271Y-100990895D01*
X114845068Y-100971640D01*
X114699201Y-100936620D01*
X114699195Y-100936619D01*
X114694388Y-100935465D01*
X114457677Y-100916835D01*
X114220966Y-100935465D01*
X114216159Y-100936619D01*
X114216153Y-100936620D01*
X114070286Y-100971640D01*
X113990083Y-100990895D01*
X113985512Y-100992788D01*
X113985510Y-100992789D01*
X113775288Y-101079865D01*
X113775284Y-101079867D01*
X113770714Y-101081760D01*
X113766494Y-101084346D01*
X113572475Y-101203241D01*
X113572469Y-101203245D01*
X113568261Y-101205824D01*
X113387708Y-101360031D01*
X113233501Y-101540584D01*
X113230922Y-101544792D01*
X113230918Y-101544798D01*
X113112023Y-101738817D01*
X113109437Y-101743037D01*
X113018572Y-101962406D01*
X112963142Y-102193289D01*
X112944512Y-102430000D01*
X93755462Y-102430000D01*
X93764054Y-100270347D01*
X102522160Y-100270347D01*
X102527887Y-100277997D01*
X102699042Y-100382882D01*
X102707837Y-100387364D01*
X102917988Y-100474411D01*
X102927373Y-100477460D01*
X103148554Y-100530562D01*
X103158301Y-100532105D01*
X103385070Y-100549952D01*
X103394930Y-100549952D01*
X103621699Y-100532105D01*
X103631446Y-100530562D01*
X103852627Y-100477460D01*
X103862012Y-100474411D01*
X104072163Y-100387364D01*
X104080958Y-100382882D01*
X104248445Y-100280245D01*
X104257907Y-100269787D01*
X104254124Y-100261011D01*
X103402812Y-99409699D01*
X103388868Y-99402085D01*
X103387035Y-99402216D01*
X103380420Y-99406467D01*
X102528920Y-100257967D01*
X102522160Y-100270347D01*
X93764054Y-100270347D01*
X93768939Y-99042607D01*
X101877725Y-99042607D01*
X101895572Y-99269376D01*
X101897115Y-99279123D01*
X101950217Y-99500304D01*
X101953266Y-99509689D01*
X102040313Y-99719840D01*
X102044795Y-99728635D01*
X102147432Y-99896122D01*
X102157890Y-99905584D01*
X102166666Y-99901801D01*
X103017978Y-99050489D01*
X103024356Y-99038809D01*
X103754408Y-99038809D01*
X103754539Y-99040642D01*
X103758790Y-99047257D01*
X104610290Y-99898757D01*
X104622670Y-99905517D01*
X104630320Y-99899790D01*
X104735205Y-99728635D01*
X104739687Y-99719840D01*
X104826734Y-99509689D01*
X104829783Y-99500304D01*
X104882885Y-99279123D01*
X104884428Y-99269376D01*
X104902275Y-99042607D01*
X104902275Y-99032747D01*
X104884428Y-98805978D01*
X104882885Y-98796231D01*
X104829783Y-98575050D01*
X104826734Y-98565665D01*
X104782966Y-98460000D01*
X131951464Y-98460000D01*
X131971571Y-98689830D01*
X132031283Y-98912676D01*
X132033608Y-98917661D01*
X132126458Y-99116781D01*
X132126461Y-99116786D01*
X132128784Y-99121768D01*
X132261113Y-99310753D01*
X132424247Y-99473887D01*
X132428755Y-99477044D01*
X132428758Y-99477046D01*
X132461974Y-99500304D01*
X132613232Y-99606216D01*
X132618214Y-99608539D01*
X132618219Y-99608542D01*
X132724558Y-99658128D01*
X132822324Y-99703717D01*
X133045170Y-99763429D01*
X133275000Y-99783536D01*
X133504830Y-99763429D01*
X133727676Y-99703717D01*
X133825442Y-99658128D01*
X133931781Y-99608542D01*
X133931786Y-99608539D01*
X133936768Y-99606216D01*
X134088026Y-99500304D01*
X134121242Y-99477046D01*
X134121245Y-99477044D01*
X134125753Y-99473887D01*
X134288887Y-99310753D01*
X134421216Y-99121768D01*
X134423539Y-99116786D01*
X134423542Y-99116781D01*
X134516392Y-98917661D01*
X134518717Y-98912676D01*
X134578429Y-98689830D01*
X134598536Y-98460000D01*
X134578429Y-98230170D01*
X134518717Y-98007324D01*
X134473128Y-97909558D01*
X134423542Y-97803219D01*
X134423539Y-97803214D01*
X134421216Y-97798232D01*
X134288887Y-97609247D01*
X134125753Y-97446113D01*
X134121245Y-97442956D01*
X134121242Y-97442954D01*
X134042370Y-97387728D01*
X133936768Y-97313784D01*
X133931786Y-97311461D01*
X133931781Y-97311458D01*
X133807580Y-97253543D01*
X133727676Y-97216283D01*
X133504830Y-97156571D01*
X133275000Y-97136464D01*
X133045170Y-97156571D01*
X132822324Y-97216283D01*
X132742420Y-97253543D01*
X132618219Y-97311458D01*
X132618214Y-97311461D01*
X132613232Y-97313784D01*
X132507630Y-97387728D01*
X132428758Y-97442954D01*
X132428755Y-97442956D01*
X132424247Y-97446113D01*
X132261113Y-97609247D01*
X132128784Y-97798232D01*
X132126461Y-97803214D01*
X132126458Y-97803219D01*
X132076872Y-97909558D01*
X132031283Y-98007324D01*
X131971571Y-98230170D01*
X131951464Y-98460000D01*
X104782966Y-98460000D01*
X104739687Y-98355514D01*
X104735205Y-98346719D01*
X104632568Y-98179232D01*
X104622110Y-98169770D01*
X104613334Y-98173553D01*
X103762022Y-99024865D01*
X103754408Y-99038809D01*
X103024356Y-99038809D01*
X103025592Y-99036545D01*
X103025461Y-99034712D01*
X103021210Y-99028097D01*
X102169710Y-98176597D01*
X102157330Y-98169837D01*
X102149680Y-98175564D01*
X102044795Y-98346719D01*
X102040313Y-98355514D01*
X101953266Y-98565665D01*
X101950217Y-98575050D01*
X101897115Y-98796231D01*
X101895572Y-98805978D01*
X101877725Y-99032747D01*
X101877725Y-99042607D01*
X93768939Y-99042607D01*
X93773861Y-97805567D01*
X102522093Y-97805567D01*
X102525876Y-97814343D01*
X103377188Y-98665655D01*
X103391132Y-98673269D01*
X103392965Y-98673138D01*
X103399580Y-98668887D01*
X104251080Y-97817387D01*
X104257840Y-97805007D01*
X104252113Y-97797357D01*
X104080958Y-97692472D01*
X104072163Y-97687990D01*
X103862012Y-97600943D01*
X103852627Y-97597894D01*
X103631446Y-97544792D01*
X103621699Y-97543249D01*
X103394930Y-97525402D01*
X103385070Y-97525402D01*
X103158301Y-97543249D01*
X103148554Y-97544792D01*
X102927373Y-97597894D01*
X102917988Y-97600943D01*
X102707837Y-97687990D01*
X102699042Y-97692472D01*
X102531555Y-97795109D01*
X102522093Y-97805567D01*
X93773861Y-97805567D01*
X93783988Y-95260000D01*
X104766502Y-95260000D01*
X104786457Y-95488087D01*
X104787881Y-95493400D01*
X104787881Y-95493402D01*
X104839410Y-95685707D01*
X104845716Y-95709243D01*
X104848039Y-95714224D01*
X104848039Y-95714225D01*
X104940151Y-95911762D01*
X104940154Y-95911767D01*
X104942477Y-95916749D01*
X105015902Y-96021611D01*
X105060621Y-96085475D01*
X105073802Y-96104300D01*
X105235700Y-96266198D01*
X105240208Y-96269355D01*
X105240211Y-96269357D01*
X105303114Y-96313402D01*
X105423251Y-96397523D01*
X105428233Y-96399846D01*
X105428238Y-96399849D01*
X105625775Y-96491961D01*
X105630757Y-96494284D01*
X105636065Y-96495706D01*
X105636067Y-96495707D01*
X105846598Y-96552119D01*
X105846600Y-96552119D01*
X105851913Y-96553543D01*
X106080000Y-96573498D01*
X106308087Y-96553543D01*
X106313400Y-96552119D01*
X106313402Y-96552119D01*
X106523933Y-96495707D01*
X106523935Y-96495706D01*
X106529243Y-96494284D01*
X106534225Y-96491961D01*
X106731762Y-96399849D01*
X106731767Y-96399846D01*
X106736749Y-96397523D01*
X106809586Y-96346522D01*
X124057273Y-96346522D01*
X124104764Y-96523761D01*
X124108510Y-96534053D01*
X124200586Y-96731511D01*
X124206069Y-96741007D01*
X124331028Y-96919467D01*
X124338084Y-96927875D01*
X124492125Y-97081916D01*
X124500533Y-97088972D01*
X124678993Y-97213931D01*
X124688489Y-97219414D01*
X124885947Y-97311490D01*
X124896239Y-97315236D01*
X125068503Y-97361394D01*
X125082599Y-97361058D01*
X125086000Y-97353116D01*
X125086000Y-97347967D01*
X125594000Y-97347967D01*
X125597973Y-97361498D01*
X125606522Y-97362727D01*
X125783761Y-97315236D01*
X125794053Y-97311490D01*
X125991511Y-97219414D01*
X126001007Y-97213931D01*
X126179467Y-97088972D01*
X126187875Y-97081916D01*
X126341916Y-96927875D01*
X126348972Y-96919467D01*
X126473931Y-96741007D01*
X126479414Y-96731511D01*
X126571490Y-96534053D01*
X126575236Y-96523761D01*
X126621394Y-96351497D01*
X126621058Y-96337401D01*
X126613116Y-96334000D01*
X125612115Y-96334000D01*
X125596876Y-96338475D01*
X125595671Y-96339865D01*
X125594000Y-96347548D01*
X125594000Y-97347967D01*
X125086000Y-97347967D01*
X125086000Y-96352115D01*
X125081525Y-96336876D01*
X125080135Y-96335671D01*
X125072452Y-96334000D01*
X124072033Y-96334000D01*
X124058502Y-96337973D01*
X124057273Y-96346522D01*
X106809586Y-96346522D01*
X106856886Y-96313402D01*
X106919789Y-96269357D01*
X106919792Y-96269355D01*
X106924300Y-96266198D01*
X107086198Y-96104300D01*
X107099380Y-96085475D01*
X107103214Y-96080000D01*
X128716502Y-96080000D01*
X128736457Y-96308087D01*
X128737881Y-96313400D01*
X128737881Y-96313402D01*
X128763059Y-96407365D01*
X128795716Y-96529243D01*
X128798039Y-96534224D01*
X128798039Y-96534225D01*
X128890151Y-96731762D01*
X128890154Y-96731767D01*
X128892477Y-96736749D01*
X129023802Y-96924300D01*
X129185700Y-97086198D01*
X129190208Y-97089355D01*
X129190211Y-97089357D01*
X129217610Y-97108542D01*
X129373251Y-97217523D01*
X129378233Y-97219846D01*
X129378238Y-97219849D01*
X129574765Y-97311490D01*
X129580757Y-97314284D01*
X129586065Y-97315706D01*
X129586067Y-97315707D01*
X129796598Y-97372119D01*
X129796600Y-97372119D01*
X129801913Y-97373543D01*
X130030000Y-97393498D01*
X130258087Y-97373543D01*
X130263400Y-97372119D01*
X130263402Y-97372119D01*
X130473933Y-97315707D01*
X130473935Y-97315706D01*
X130479243Y-97314284D01*
X130485235Y-97311490D01*
X130681762Y-97219849D01*
X130681767Y-97219846D01*
X130686749Y-97217523D01*
X130842390Y-97108542D01*
X130869789Y-97089357D01*
X130869792Y-97089355D01*
X130874300Y-97086198D01*
X131036198Y-96924300D01*
X131167523Y-96736749D01*
X131169846Y-96731767D01*
X131169849Y-96731762D01*
X131261961Y-96534225D01*
X131261961Y-96534224D01*
X131264284Y-96529243D01*
X131296942Y-96407365D01*
X131322119Y-96313402D01*
X131322119Y-96313400D01*
X131323543Y-96308087D01*
X131343498Y-96080000D01*
X131332999Y-95960000D01*
X134451464Y-95960000D01*
X134471571Y-96189830D01*
X134531283Y-96412676D01*
X134533608Y-96417661D01*
X134626458Y-96616781D01*
X134626461Y-96616786D01*
X134628784Y-96621768D01*
X134631941Y-96626276D01*
X134756595Y-96804300D01*
X134761113Y-96810753D01*
X134924247Y-96973887D01*
X134928755Y-96977044D01*
X134928758Y-96977046D01*
X135007630Y-97032272D01*
X135113232Y-97106216D01*
X135118214Y-97108539D01*
X135118219Y-97108542D01*
X135178099Y-97136464D01*
X135322324Y-97203717D01*
X135545170Y-97263429D01*
X135775000Y-97283536D01*
X136004830Y-97263429D01*
X136227676Y-97203717D01*
X136371901Y-97136464D01*
X136431781Y-97108542D01*
X136431786Y-97108539D01*
X136436768Y-97106216D01*
X136542370Y-97032272D01*
X136621242Y-96977046D01*
X136621245Y-96977044D01*
X136625753Y-96973887D01*
X136788887Y-96810753D01*
X136793406Y-96804300D01*
X136918059Y-96626276D01*
X136921216Y-96621768D01*
X136923539Y-96616786D01*
X136923542Y-96616781D01*
X137016392Y-96417661D01*
X137018717Y-96412676D01*
X137078429Y-96189830D01*
X137098536Y-95960000D01*
X138236502Y-95960000D01*
X138256457Y-96188087D01*
X138257881Y-96193400D01*
X138257881Y-96193402D01*
X138312576Y-96397523D01*
X138315716Y-96409243D01*
X138318039Y-96414224D01*
X138318039Y-96414225D01*
X138410151Y-96611762D01*
X138410154Y-96611767D01*
X138412477Y-96616749D01*
X138543802Y-96804300D01*
X138705700Y-96966198D01*
X138710208Y-96969355D01*
X138710211Y-96969357D01*
X138788389Y-97024098D01*
X138893251Y-97097523D01*
X138898233Y-97099846D01*
X138898238Y-97099849D01*
X139022932Y-97157994D01*
X139100757Y-97194284D01*
X139106065Y-97195706D01*
X139106067Y-97195707D01*
X139316598Y-97252119D01*
X139316600Y-97252119D01*
X139321913Y-97253543D01*
X139550000Y-97273498D01*
X139778087Y-97253543D01*
X139783400Y-97252119D01*
X139783402Y-97252119D01*
X139993933Y-97195707D01*
X139993935Y-97195706D01*
X139999243Y-97194284D01*
X140077068Y-97157994D01*
X140201762Y-97099849D01*
X140201767Y-97099846D01*
X140206749Y-97097523D01*
X140311611Y-97024098D01*
X140389789Y-96969357D01*
X140389792Y-96969355D01*
X140394300Y-96966198D01*
X140556198Y-96804300D01*
X140687523Y-96616749D01*
X140689846Y-96611767D01*
X140689849Y-96611762D01*
X140781961Y-96414225D01*
X140781961Y-96414224D01*
X140784284Y-96409243D01*
X140787425Y-96397523D01*
X140842119Y-96193402D01*
X140842119Y-96193400D01*
X140843543Y-96188087D01*
X140863498Y-95960000D01*
X140843543Y-95731913D01*
X140841653Y-95724860D01*
X140785707Y-95516067D01*
X140785706Y-95516065D01*
X140784284Y-95510757D01*
X140741494Y-95418993D01*
X140689849Y-95308238D01*
X140689846Y-95308233D01*
X140687523Y-95303251D01*
X140556198Y-95115700D01*
X140394300Y-94953802D01*
X140389792Y-94950645D01*
X140389789Y-94950643D01*
X140308798Y-94893933D01*
X140206749Y-94822477D01*
X140201767Y-94820154D01*
X140201762Y-94820151D01*
X140004225Y-94728039D01*
X140004224Y-94728039D01*
X139999243Y-94725716D01*
X139993935Y-94724294D01*
X139993933Y-94724293D01*
X139783402Y-94667881D01*
X139783400Y-94667881D01*
X139778087Y-94666457D01*
X139550000Y-94646502D01*
X139321913Y-94666457D01*
X139316600Y-94667881D01*
X139316598Y-94667881D01*
X139106067Y-94724293D01*
X139106065Y-94724294D01*
X139100757Y-94725716D01*
X139095776Y-94728039D01*
X139095775Y-94728039D01*
X138898238Y-94820151D01*
X138898233Y-94820154D01*
X138893251Y-94822477D01*
X138791202Y-94893933D01*
X138710211Y-94950643D01*
X138710208Y-94950645D01*
X138705700Y-94953802D01*
X138543802Y-95115700D01*
X138412477Y-95303251D01*
X138410154Y-95308233D01*
X138410151Y-95308238D01*
X138358506Y-95418993D01*
X138315716Y-95510757D01*
X138314294Y-95516065D01*
X138314293Y-95516067D01*
X138258347Y-95724860D01*
X138256457Y-95731913D01*
X138236502Y-95960000D01*
X137098536Y-95960000D01*
X137078429Y-95730170D01*
X137018717Y-95507324D01*
X136925882Y-95308238D01*
X136923542Y-95303219D01*
X136923539Y-95303214D01*
X136921216Y-95298232D01*
X136796564Y-95120211D01*
X136792046Y-95113758D01*
X136792044Y-95113755D01*
X136788887Y-95109247D01*
X136625753Y-94946113D01*
X136621245Y-94942956D01*
X136621242Y-94942954D01*
X136542370Y-94887728D01*
X136436768Y-94813784D01*
X136431786Y-94811461D01*
X136431781Y-94811458D01*
X136325442Y-94761872D01*
X136227676Y-94716283D01*
X136004830Y-94656571D01*
X135775000Y-94636464D01*
X135545170Y-94656571D01*
X135322324Y-94716283D01*
X135224558Y-94761872D01*
X135118219Y-94811458D01*
X135118214Y-94811461D01*
X135113232Y-94813784D01*
X135007630Y-94887728D01*
X134928758Y-94942954D01*
X134928755Y-94942956D01*
X134924247Y-94946113D01*
X134761113Y-95109247D01*
X134757956Y-95113755D01*
X134757954Y-95113758D01*
X134753436Y-95120211D01*
X134628784Y-95298232D01*
X134626461Y-95303214D01*
X134626458Y-95303219D01*
X134624118Y-95308238D01*
X134531283Y-95507324D01*
X134471571Y-95730170D01*
X134451464Y-95960000D01*
X131332999Y-95960000D01*
X131323543Y-95851913D01*
X131313244Y-95813478D01*
X131265707Y-95636067D01*
X131265706Y-95636065D01*
X131264284Y-95630757D01*
X131261961Y-95625775D01*
X131169849Y-95428238D01*
X131169846Y-95428233D01*
X131167523Y-95423251D01*
X131083498Y-95303251D01*
X131039357Y-95240211D01*
X131039355Y-95240208D01*
X131036198Y-95235700D01*
X130874300Y-95073802D01*
X130869792Y-95070645D01*
X130869789Y-95070643D01*
X130708488Y-94957699D01*
X130686749Y-94942477D01*
X130681767Y-94940154D01*
X130681762Y-94940151D01*
X130484225Y-94848039D01*
X130484224Y-94848039D01*
X130479243Y-94845716D01*
X130473935Y-94844294D01*
X130473933Y-94844293D01*
X130263402Y-94787881D01*
X130263400Y-94787881D01*
X130258087Y-94786457D01*
X130030000Y-94766502D01*
X129801913Y-94786457D01*
X129796600Y-94787881D01*
X129796598Y-94787881D01*
X129586067Y-94844293D01*
X129586065Y-94844294D01*
X129580757Y-94845716D01*
X129575776Y-94848039D01*
X129575775Y-94848039D01*
X129378238Y-94940151D01*
X129378233Y-94940154D01*
X129373251Y-94942477D01*
X129351512Y-94957699D01*
X129190211Y-95070643D01*
X129190208Y-95070645D01*
X129185700Y-95073802D01*
X129023802Y-95235700D01*
X129020645Y-95240208D01*
X129020643Y-95240211D01*
X128976502Y-95303251D01*
X128892477Y-95423251D01*
X128890154Y-95428233D01*
X128890151Y-95428238D01*
X128798039Y-95625775D01*
X128795716Y-95630757D01*
X128794294Y-95636065D01*
X128794293Y-95636067D01*
X128746756Y-95813478D01*
X128736457Y-95851913D01*
X128716502Y-96080000D01*
X107103214Y-96080000D01*
X107144098Y-96021611D01*
X107217523Y-95916749D01*
X107219846Y-95911767D01*
X107219849Y-95911762D01*
X107267999Y-95808503D01*
X124058606Y-95808503D01*
X124058942Y-95822599D01*
X124066884Y-95826000D01*
X125067885Y-95826000D01*
X125083124Y-95821525D01*
X125084329Y-95820135D01*
X125086000Y-95812452D01*
X125086000Y-95807885D01*
X125594000Y-95807885D01*
X125598475Y-95823124D01*
X125599865Y-95824329D01*
X125607548Y-95826000D01*
X126607967Y-95826000D01*
X126621498Y-95822027D01*
X126622727Y-95813478D01*
X126575236Y-95636239D01*
X126571490Y-95625947D01*
X126479414Y-95428489D01*
X126473931Y-95418993D01*
X126348972Y-95240533D01*
X126341916Y-95232125D01*
X126187875Y-95078084D01*
X126179467Y-95071028D01*
X126001007Y-94946069D01*
X125991511Y-94940586D01*
X125794053Y-94848510D01*
X125783761Y-94844764D01*
X125611497Y-94798606D01*
X125597401Y-94798942D01*
X125594000Y-94806884D01*
X125594000Y-95807885D01*
X125086000Y-95807885D01*
X125086000Y-94812033D01*
X125082027Y-94798502D01*
X125073478Y-94797273D01*
X124896239Y-94844764D01*
X124885947Y-94848510D01*
X124688489Y-94940586D01*
X124678993Y-94946069D01*
X124500533Y-95071028D01*
X124492125Y-95078084D01*
X124338084Y-95232125D01*
X124331028Y-95240533D01*
X124206069Y-95418993D01*
X124200586Y-95428489D01*
X124108510Y-95625947D01*
X124104764Y-95636239D01*
X124058606Y-95808503D01*
X107267999Y-95808503D01*
X107311961Y-95714225D01*
X107311961Y-95714224D01*
X107314284Y-95709243D01*
X107320591Y-95685707D01*
X107372119Y-95493402D01*
X107372119Y-95493400D01*
X107373543Y-95488087D01*
X107393498Y-95260000D01*
X107373543Y-95031913D01*
X107372119Y-95026598D01*
X107372118Y-95026591D01*
X107356541Y-94968459D01*
X107358230Y-94897483D01*
X107389152Y-94846752D01*
X108231262Y-94004642D01*
X108293574Y-93970616D01*
X108364389Y-93975681D01*
X108421225Y-94018228D01*
X108446036Y-94084748D01*
X108442064Y-94126346D01*
X108416457Y-94221913D01*
X108396502Y-94450000D01*
X108416457Y-94678087D01*
X108417881Y-94683400D01*
X108417881Y-94683402D01*
X108445367Y-94785978D01*
X108475716Y-94899243D01*
X108478039Y-94904224D01*
X108478039Y-94904225D01*
X108570151Y-95101762D01*
X108570154Y-95101767D01*
X108572477Y-95106749D01*
X108703802Y-95294300D01*
X108865700Y-95456198D01*
X108870208Y-95459355D01*
X108870211Y-95459357D01*
X108931596Y-95502339D01*
X109053251Y-95587523D01*
X109058233Y-95589846D01*
X109058238Y-95589849D01*
X109157723Y-95636239D01*
X109260757Y-95684284D01*
X109266065Y-95685706D01*
X109266067Y-95685707D01*
X109476598Y-95742119D01*
X109476600Y-95742119D01*
X109481913Y-95743543D01*
X109710000Y-95763498D01*
X109938087Y-95743543D01*
X109943400Y-95742119D01*
X109943402Y-95742119D01*
X110153933Y-95685707D01*
X110153935Y-95685706D01*
X110159243Y-95684284D01*
X110262277Y-95636239D01*
X110361762Y-95589849D01*
X110361767Y-95589846D01*
X110366749Y-95587523D01*
X110488404Y-95502339D01*
X110549789Y-95459357D01*
X110549792Y-95459355D01*
X110554300Y-95456198D01*
X110716198Y-95294300D01*
X110847523Y-95106749D01*
X110849846Y-95101767D01*
X110849849Y-95101762D01*
X110941961Y-94904225D01*
X110941961Y-94904224D01*
X110944284Y-94899243D01*
X110974634Y-94785978D01*
X111002119Y-94683402D01*
X111002119Y-94683400D01*
X111003543Y-94678087D01*
X111023498Y-94450000D01*
X111003543Y-94221913D01*
X110975592Y-94117599D01*
X110977282Y-94046624D01*
X111017076Y-93987828D01*
X111082340Y-93959880D01*
X111097299Y-93958989D01*
X118482701Y-93958989D01*
X118550822Y-93978991D01*
X118597315Y-94032647D01*
X118607419Y-94102921D01*
X118604410Y-94117593D01*
X118576457Y-94221913D01*
X118556502Y-94450000D01*
X118576457Y-94678087D01*
X118577881Y-94683400D01*
X118577881Y-94683402D01*
X118605367Y-94785978D01*
X118635716Y-94899243D01*
X118638039Y-94904224D01*
X118638039Y-94904225D01*
X118730151Y-95101762D01*
X118730154Y-95101767D01*
X118732477Y-95106749D01*
X118863802Y-95294300D01*
X119025700Y-95456198D01*
X119030208Y-95459355D01*
X119030211Y-95459357D01*
X119091596Y-95502339D01*
X119213251Y-95587523D01*
X119218233Y-95589846D01*
X119218238Y-95589849D01*
X119317723Y-95636239D01*
X119420757Y-95684284D01*
X119426065Y-95685706D01*
X119426067Y-95685707D01*
X119636598Y-95742119D01*
X119636600Y-95742119D01*
X119641913Y-95743543D01*
X119870000Y-95763498D01*
X120098087Y-95743543D01*
X120103400Y-95742119D01*
X120103402Y-95742119D01*
X120313933Y-95685707D01*
X120313935Y-95685706D01*
X120319243Y-95684284D01*
X120422277Y-95636239D01*
X120521762Y-95589849D01*
X120521767Y-95589846D01*
X120526749Y-95587523D01*
X120648404Y-95502339D01*
X120709789Y-95459357D01*
X120709792Y-95459355D01*
X120714300Y-95456198D01*
X120876198Y-95294300D01*
X121007523Y-95106749D01*
X121009846Y-95101767D01*
X121009849Y-95101762D01*
X121101961Y-94904225D01*
X121101961Y-94904224D01*
X121104284Y-94899243D01*
X121134634Y-94785978D01*
X121162119Y-94683402D01*
X121162119Y-94683400D01*
X121163543Y-94678087D01*
X121183498Y-94450000D01*
X121163543Y-94221913D01*
X121135592Y-94117599D01*
X121137282Y-94046624D01*
X121177076Y-93987828D01*
X121242340Y-93959880D01*
X121257299Y-93958989D01*
X130905744Y-93958989D01*
X130916927Y-93959516D01*
X130924420Y-93961191D01*
X130932346Y-93960942D01*
X130932347Y-93960942D01*
X130992497Y-93959051D01*
X130996456Y-93958989D01*
X131024367Y-93958989D01*
X131028302Y-93958492D01*
X131028367Y-93958484D01*
X131040204Y-93957551D01*
X131072462Y-93956537D01*
X131076481Y-93956411D01*
X131084400Y-93956162D01*
X131103854Y-93950510D01*
X131123211Y-93946502D01*
X131135441Y-93944957D01*
X131135442Y-93944957D01*
X131143308Y-93943963D01*
X131150679Y-93941044D01*
X131150681Y-93941044D01*
X131184423Y-93927685D01*
X131195653Y-93923840D01*
X131230494Y-93913718D01*
X131230495Y-93913718D01*
X131238104Y-93911507D01*
X131244923Y-93907474D01*
X131244928Y-93907472D01*
X131255539Y-93901196D01*
X131273287Y-93892501D01*
X131292128Y-93885041D01*
X131327898Y-93859053D01*
X131337818Y-93852537D01*
X131369046Y-93834069D01*
X131369049Y-93834067D01*
X131375873Y-93830031D01*
X131390194Y-93815710D01*
X131405228Y-93802869D01*
X131415205Y-93795620D01*
X131421618Y-93790961D01*
X131449809Y-93756884D01*
X131457799Y-93748105D01*
X131743861Y-93462043D01*
X131806173Y-93428017D01*
X131876988Y-93433082D01*
X131933824Y-93475629D01*
X131958477Y-93540156D01*
X131971571Y-93689830D01*
X132031283Y-93912676D01*
X132066327Y-93987828D01*
X132126458Y-94116781D01*
X132126461Y-94116786D01*
X132128784Y-94121768D01*
X132261113Y-94310753D01*
X132424247Y-94473887D01*
X132428755Y-94477044D01*
X132428758Y-94477046D01*
X132507630Y-94532272D01*
X132613232Y-94606216D01*
X132618214Y-94608539D01*
X132618219Y-94608542D01*
X132678099Y-94636464D01*
X132822324Y-94703717D01*
X133045170Y-94763429D01*
X133275000Y-94783536D01*
X133504830Y-94763429D01*
X133727676Y-94703717D01*
X133871901Y-94636464D01*
X133931781Y-94608542D01*
X133931786Y-94608539D01*
X133936768Y-94606216D01*
X134042370Y-94532272D01*
X134121242Y-94477046D01*
X134121245Y-94477044D01*
X134125753Y-94473887D01*
X134288887Y-94310753D01*
X134421216Y-94121768D01*
X134423539Y-94116786D01*
X134423542Y-94116781D01*
X134483673Y-93987828D01*
X134518717Y-93912676D01*
X134578429Y-93689830D01*
X134598536Y-93460000D01*
X134578429Y-93230170D01*
X134518717Y-93007324D01*
X134450027Y-92860017D01*
X134423542Y-92803219D01*
X134423539Y-92803214D01*
X134421216Y-92798232D01*
X134344808Y-92689110D01*
X134292046Y-92613758D01*
X134292044Y-92613755D01*
X134288887Y-92609247D01*
X134125753Y-92446113D01*
X134121245Y-92442956D01*
X134121242Y-92442954D01*
X134042370Y-92387728D01*
X133936768Y-92313784D01*
X133931786Y-92311461D01*
X133931781Y-92311458D01*
X133825442Y-92261872D01*
X133727676Y-92216283D01*
X133504830Y-92156571D01*
X133355156Y-92143477D01*
X133289039Y-92117614D01*
X133247399Y-92060110D01*
X133243458Y-91989223D01*
X133277043Y-91928861D01*
X134537770Y-90668134D01*
X139473823Y-90668134D01*
X139480578Y-90730316D01*
X139531708Y-90866705D01*
X139619062Y-90983261D01*
X139735618Y-91070615D01*
X139872007Y-91121745D01*
X139934189Y-91128500D01*
X142030457Y-91128500D01*
X142092639Y-91121745D01*
X142229028Y-91070615D01*
X142345584Y-90983261D01*
X142432938Y-90866705D01*
X142484068Y-90730316D01*
X142490823Y-90668134D01*
X142490823Y-89620000D01*
X144469158Y-89620000D01*
X144487788Y-89856711D01*
X144488942Y-89861518D01*
X144488943Y-89861524D01*
X144511704Y-89956328D01*
X144543218Y-90087594D01*
X144545111Y-90092165D01*
X144545112Y-90092167D01*
X144626640Y-90288993D01*
X144634083Y-90306963D01*
X144636669Y-90311183D01*
X144755564Y-90505202D01*
X144755568Y-90505208D01*
X144758147Y-90509416D01*
X144912354Y-90689969D01*
X145092907Y-90844176D01*
X145097115Y-90846755D01*
X145097121Y-90846759D01*
X145291140Y-90965654D01*
X145295360Y-90968240D01*
X145299930Y-90970133D01*
X145299934Y-90970135D01*
X145510156Y-91057211D01*
X145514729Y-91059105D01*
X145562672Y-91070615D01*
X145740799Y-91113380D01*
X145740805Y-91113381D01*
X145745612Y-91114535D01*
X145982323Y-91133165D01*
X146219034Y-91114535D01*
X146223841Y-91113381D01*
X146223847Y-91113380D01*
X146401974Y-91070615D01*
X146449917Y-91059105D01*
X146454490Y-91057211D01*
X146664712Y-90970135D01*
X146664716Y-90970133D01*
X146669286Y-90968240D01*
X146673506Y-90965654D01*
X146867525Y-90846759D01*
X146867531Y-90846755D01*
X146871739Y-90844176D01*
X147052292Y-90689969D01*
X147206499Y-90509416D01*
X147209078Y-90505208D01*
X147209082Y-90505202D01*
X147327977Y-90311183D01*
X147330563Y-90306963D01*
X147338007Y-90288993D01*
X147419534Y-90092167D01*
X147419535Y-90092165D01*
X147421428Y-90087594D01*
X147452942Y-89956328D01*
X147475703Y-89861524D01*
X147475704Y-89861518D01*
X147476858Y-89856711D01*
X147495488Y-89620000D01*
X147476858Y-89383289D01*
X147421428Y-89152406D01*
X147384478Y-89063199D01*
X147332458Y-88937611D01*
X147332456Y-88937607D01*
X147330563Y-88933037D01*
X147327977Y-88928817D01*
X147209082Y-88734798D01*
X147209078Y-88734792D01*
X147206499Y-88730584D01*
X147052292Y-88550031D01*
X146871739Y-88395824D01*
X146867531Y-88393245D01*
X146867525Y-88393241D01*
X146673506Y-88274346D01*
X146669286Y-88271760D01*
X146664716Y-88269867D01*
X146664712Y-88269865D01*
X146454490Y-88182789D01*
X146454488Y-88182788D01*
X146449917Y-88180895D01*
X146336921Y-88153767D01*
X146223847Y-88126620D01*
X146223841Y-88126619D01*
X146219034Y-88125465D01*
X145982323Y-88106835D01*
X145745612Y-88125465D01*
X145740805Y-88126619D01*
X145740799Y-88126620D01*
X145627725Y-88153767D01*
X145514729Y-88180895D01*
X145510158Y-88182788D01*
X145510156Y-88182789D01*
X145299934Y-88269865D01*
X145299930Y-88269867D01*
X145295360Y-88271760D01*
X145291140Y-88274346D01*
X145097121Y-88393241D01*
X145097115Y-88393245D01*
X145092907Y-88395824D01*
X144912354Y-88550031D01*
X144758147Y-88730584D01*
X144755568Y-88734792D01*
X144755564Y-88734798D01*
X144636669Y-88928817D01*
X144634083Y-88933037D01*
X144632190Y-88937607D01*
X144632188Y-88937611D01*
X144580168Y-89063199D01*
X144543218Y-89152406D01*
X144487788Y-89383289D01*
X144469158Y-89620000D01*
X142490823Y-89620000D01*
X142490823Y-88571866D01*
X142484068Y-88509684D01*
X142432938Y-88373295D01*
X142345584Y-88256739D01*
X142229028Y-88169385D01*
X142092639Y-88118255D01*
X142030457Y-88111500D01*
X139934189Y-88111500D01*
X139872007Y-88118255D01*
X139735618Y-88169385D01*
X139619062Y-88256739D01*
X139531708Y-88373295D01*
X139480578Y-88509684D01*
X139473823Y-88571866D01*
X139473823Y-90668134D01*
X134537770Y-90668134D01*
X142176752Y-83029152D01*
X142239064Y-82995126D01*
X142298459Y-82996541D01*
X142356591Y-83012118D01*
X142356602Y-83012120D01*
X142361913Y-83013543D01*
X142590000Y-83033498D01*
X142818087Y-83013543D01*
X142823400Y-83012119D01*
X142823402Y-83012119D01*
X143033933Y-82955707D01*
X143033935Y-82955706D01*
X143039243Y-82954284D01*
X143044225Y-82951961D01*
X143241762Y-82859849D01*
X143241767Y-82859846D01*
X143246749Y-82857523D01*
X143351611Y-82784098D01*
X143429789Y-82729357D01*
X143429792Y-82729355D01*
X143434300Y-82726198D01*
X143596198Y-82564300D01*
X143727523Y-82376749D01*
X143729846Y-82371767D01*
X143729849Y-82371762D01*
X143821961Y-82174225D01*
X143821961Y-82174224D01*
X143824284Y-82169243D01*
X143847523Y-82082517D01*
X143882119Y-81953402D01*
X143882119Y-81953400D01*
X143883543Y-81948087D01*
X143903498Y-81720000D01*
X143883543Y-81491913D01*
X143843583Y-81342782D01*
X143825707Y-81276067D01*
X143825706Y-81276065D01*
X143824284Y-81270757D01*
X143750151Y-81111777D01*
X143729849Y-81068238D01*
X143729846Y-81068233D01*
X143727523Y-81063251D01*
X143596198Y-80875700D01*
X143434300Y-80713802D01*
X143429792Y-80710645D01*
X143429789Y-80710643D01*
X143333597Y-80643289D01*
X143246749Y-80582477D01*
X143241767Y-80580154D01*
X143241762Y-80580151D01*
X143044225Y-80488039D01*
X143044224Y-80488039D01*
X143039243Y-80485716D01*
X143033935Y-80484294D01*
X143033933Y-80484293D01*
X142823402Y-80427881D01*
X142823400Y-80427881D01*
X142818087Y-80426457D01*
X142590000Y-80406502D01*
X142361913Y-80426457D01*
X142356600Y-80427881D01*
X142356598Y-80427881D01*
X142146067Y-80484293D01*
X142146065Y-80484294D01*
X142140757Y-80485716D01*
X142135776Y-80488039D01*
X142135775Y-80488039D01*
X141938238Y-80580151D01*
X141938233Y-80580154D01*
X141933251Y-80582477D01*
X141846403Y-80643289D01*
X141750211Y-80710643D01*
X141750208Y-80710645D01*
X141745700Y-80713802D01*
X141583802Y-80875700D01*
X141452477Y-81063251D01*
X141450154Y-81068233D01*
X141450151Y-81068238D01*
X141429849Y-81111777D01*
X141355716Y-81270757D01*
X141354294Y-81276065D01*
X141354293Y-81276067D01*
X141336417Y-81342782D01*
X141296457Y-81491913D01*
X141276502Y-81720000D01*
X141296457Y-81948087D01*
X141297880Y-81953398D01*
X141297882Y-81953409D01*
X141313459Y-82011541D01*
X141311770Y-82082517D01*
X141280848Y-82133248D01*
X136019819Y-87394276D01*
X130759011Y-92655084D01*
X130696699Y-92689110D01*
X130669916Y-92691989D01*
X108093279Y-92691989D01*
X108082096Y-92691462D01*
X108074603Y-92689787D01*
X108066677Y-92690036D01*
X108066676Y-92690036D01*
X108006513Y-92691927D01*
X108002555Y-92691989D01*
X107974655Y-92691989D01*
X107970665Y-92692493D01*
X107958831Y-92693425D01*
X107914622Y-92694815D01*
X107907008Y-92697027D01*
X107907003Y-92697028D01*
X107895170Y-92700466D01*
X107875807Y-92704477D01*
X107855714Y-92707015D01*
X107848347Y-92709932D01*
X107848342Y-92709933D01*
X107814603Y-92723291D01*
X107803376Y-92727135D01*
X107760918Y-92739471D01*
X107754092Y-92743508D01*
X107743483Y-92749782D01*
X107725735Y-92758477D01*
X107706894Y-92765937D01*
X107700478Y-92770599D01*
X107700477Y-92770599D01*
X107671124Y-92791925D01*
X107661204Y-92798441D01*
X107629976Y-92816909D01*
X107629973Y-92816911D01*
X107623149Y-92820947D01*
X107608828Y-92835268D01*
X107593795Y-92848108D01*
X107577404Y-92860017D01*
X107572353Y-92866123D01*
X107549213Y-92894094D01*
X107541223Y-92902873D01*
X106493248Y-93950848D01*
X106430936Y-93984874D01*
X106371541Y-93983459D01*
X106313409Y-93967882D01*
X106313398Y-93967880D01*
X106308087Y-93966457D01*
X106080000Y-93946502D01*
X105851913Y-93966457D01*
X105846600Y-93967881D01*
X105846598Y-93967881D01*
X105636067Y-94024293D01*
X105636065Y-94024294D01*
X105630757Y-94025716D01*
X105625776Y-94028039D01*
X105625775Y-94028039D01*
X105428238Y-94120151D01*
X105428233Y-94120154D01*
X105423251Y-94122477D01*
X105318389Y-94195902D01*
X105240211Y-94250643D01*
X105240208Y-94250645D01*
X105235700Y-94253802D01*
X105073802Y-94415700D01*
X105070645Y-94420208D01*
X105070643Y-94420211D01*
X105033059Y-94473887D01*
X104942477Y-94603251D01*
X104940154Y-94608233D01*
X104940151Y-94608238D01*
X104851382Y-94798606D01*
X104845716Y-94810757D01*
X104844294Y-94816065D01*
X104844293Y-94816067D01*
X104787883Y-95026591D01*
X104786457Y-95031913D01*
X104766502Y-95260000D01*
X93783988Y-95260000D01*
X93801135Y-90950000D01*
X114496502Y-90950000D01*
X114516457Y-91178087D01*
X114517881Y-91183400D01*
X114517881Y-91183402D01*
X114527031Y-91217548D01*
X114575716Y-91399243D01*
X114578039Y-91404224D01*
X114578039Y-91404225D01*
X114670151Y-91601762D01*
X114670154Y-91601767D01*
X114672477Y-91606749D01*
X114803802Y-91794300D01*
X114965700Y-91956198D01*
X114970208Y-91959355D01*
X114970211Y-91959357D01*
X115012864Y-91989223D01*
X115153251Y-92087523D01*
X115158233Y-92089846D01*
X115158238Y-92089849D01*
X115354765Y-92181490D01*
X115360757Y-92184284D01*
X115366065Y-92185706D01*
X115366067Y-92185707D01*
X115576598Y-92242119D01*
X115576600Y-92242119D01*
X115581913Y-92243543D01*
X115810000Y-92263498D01*
X116038087Y-92243543D01*
X116043400Y-92242119D01*
X116043402Y-92242119D01*
X116253933Y-92185707D01*
X116253935Y-92185706D01*
X116259243Y-92184284D01*
X116265235Y-92181490D01*
X116461762Y-92089849D01*
X116461767Y-92089846D01*
X116466749Y-92087523D01*
X116607136Y-91989223D01*
X116649789Y-91959357D01*
X116649792Y-91959355D01*
X116654300Y-91956198D01*
X116816198Y-91794300D01*
X116947523Y-91606749D01*
X116949846Y-91601767D01*
X116949849Y-91601762D01*
X117041961Y-91404225D01*
X117041961Y-91404224D01*
X117044284Y-91399243D01*
X117092970Y-91217548D01*
X117093245Y-91216522D01*
X124687273Y-91216522D01*
X124734764Y-91393761D01*
X124738510Y-91404053D01*
X124830586Y-91601511D01*
X124836069Y-91611007D01*
X124961028Y-91789467D01*
X124968084Y-91797875D01*
X125122125Y-91951916D01*
X125130533Y-91958972D01*
X125308993Y-92083931D01*
X125318489Y-92089414D01*
X125515947Y-92181490D01*
X125526239Y-92185236D01*
X125698503Y-92231394D01*
X125712599Y-92231058D01*
X125716000Y-92223116D01*
X125716000Y-92217967D01*
X126224000Y-92217967D01*
X126227973Y-92231498D01*
X126236522Y-92232727D01*
X126413761Y-92185236D01*
X126424053Y-92181490D01*
X126621511Y-92089414D01*
X126631007Y-92083931D01*
X126809467Y-91958972D01*
X126817875Y-91951916D01*
X126971916Y-91797875D01*
X126978972Y-91789467D01*
X127103931Y-91611007D01*
X127109414Y-91601511D01*
X127201490Y-91404053D01*
X127205236Y-91393761D01*
X127251394Y-91221497D01*
X127251058Y-91207401D01*
X127243116Y-91204000D01*
X126242115Y-91204000D01*
X126226876Y-91208475D01*
X126225671Y-91209865D01*
X126224000Y-91217548D01*
X126224000Y-92217967D01*
X125716000Y-92217967D01*
X125716000Y-91222115D01*
X125711525Y-91206876D01*
X125710135Y-91205671D01*
X125702452Y-91204000D01*
X124702033Y-91204000D01*
X124688502Y-91207973D01*
X124687273Y-91216522D01*
X117093245Y-91216522D01*
X117102119Y-91183402D01*
X117102119Y-91183400D01*
X117103543Y-91178087D01*
X117123498Y-90950000D01*
X117103543Y-90721913D01*
X117093244Y-90683478D01*
X117091911Y-90678503D01*
X124688606Y-90678503D01*
X124688942Y-90692599D01*
X124696884Y-90696000D01*
X125697885Y-90696000D01*
X125713124Y-90691525D01*
X125714329Y-90690135D01*
X125716000Y-90682452D01*
X125716000Y-90677885D01*
X126224000Y-90677885D01*
X126228475Y-90693124D01*
X126229865Y-90694329D01*
X126237548Y-90696000D01*
X127237967Y-90696000D01*
X127251498Y-90692027D01*
X127252727Y-90683478D01*
X127205236Y-90506239D01*
X127201490Y-90495947D01*
X127109414Y-90298489D01*
X127103931Y-90288993D01*
X126978972Y-90110533D01*
X126971916Y-90102125D01*
X126817875Y-89948084D01*
X126809467Y-89941028D01*
X126631007Y-89816069D01*
X126621511Y-89810586D01*
X126424053Y-89718510D01*
X126413761Y-89714764D01*
X126241497Y-89668606D01*
X126227401Y-89668942D01*
X126224000Y-89676884D01*
X126224000Y-90677885D01*
X125716000Y-90677885D01*
X125716000Y-89682033D01*
X125712027Y-89668502D01*
X125703478Y-89667273D01*
X125526239Y-89714764D01*
X125515947Y-89718510D01*
X125318489Y-89810586D01*
X125308993Y-89816069D01*
X125130533Y-89941028D01*
X125122125Y-89948084D01*
X124968084Y-90102125D01*
X124961028Y-90110533D01*
X124836069Y-90288993D01*
X124830586Y-90298489D01*
X124738510Y-90495947D01*
X124734764Y-90506239D01*
X124688606Y-90678503D01*
X117091911Y-90678503D01*
X117045707Y-90506067D01*
X117045706Y-90506065D01*
X117044284Y-90500757D01*
X116953917Y-90306963D01*
X116949849Y-90298238D01*
X116949846Y-90298233D01*
X116947523Y-90293251D01*
X116816198Y-90105700D01*
X116654300Y-89943802D01*
X116649792Y-89940645D01*
X116649789Y-89940643D01*
X116536795Y-89861524D01*
X116466749Y-89812477D01*
X116461767Y-89810154D01*
X116461762Y-89810151D01*
X116264225Y-89718039D01*
X116264224Y-89718039D01*
X116259243Y-89715716D01*
X116253935Y-89714294D01*
X116253933Y-89714293D01*
X116043402Y-89657881D01*
X116043400Y-89657881D01*
X116038087Y-89656457D01*
X115810000Y-89636502D01*
X115581913Y-89656457D01*
X115576600Y-89657881D01*
X115576598Y-89657881D01*
X115366067Y-89714293D01*
X115366065Y-89714294D01*
X115360757Y-89715716D01*
X115355776Y-89718039D01*
X115355775Y-89718039D01*
X115158238Y-89810151D01*
X115158233Y-89810154D01*
X115153251Y-89812477D01*
X115083205Y-89861524D01*
X114970211Y-89940643D01*
X114970208Y-89940645D01*
X114965700Y-89943802D01*
X114803802Y-90105700D01*
X114672477Y-90293251D01*
X114670154Y-90298233D01*
X114670151Y-90298238D01*
X114666083Y-90306963D01*
X114575716Y-90500757D01*
X114574294Y-90506065D01*
X114574293Y-90506067D01*
X114526756Y-90683478D01*
X114516457Y-90721913D01*
X114496502Y-90950000D01*
X93801135Y-90950000D01*
X93806925Y-89494669D01*
X97972001Y-89494669D01*
X97972371Y-89501490D01*
X97977895Y-89552352D01*
X97981521Y-89567604D01*
X98026676Y-89688054D01*
X98035214Y-89703649D01*
X98111715Y-89805724D01*
X98124276Y-89818285D01*
X98226351Y-89894786D01*
X98241946Y-89903324D01*
X98362394Y-89948478D01*
X98377649Y-89952105D01*
X98428514Y-89957631D01*
X98435328Y-89958000D01*
X99057885Y-89958000D01*
X99073124Y-89953525D01*
X99074329Y-89952135D01*
X99076000Y-89944452D01*
X99076000Y-89939884D01*
X99584000Y-89939884D01*
X99588475Y-89955123D01*
X99589865Y-89956328D01*
X99597548Y-89957999D01*
X100224669Y-89957999D01*
X100231490Y-89957629D01*
X100282352Y-89952105D01*
X100297604Y-89948479D01*
X100418054Y-89903324D01*
X100433649Y-89894786D01*
X100535724Y-89818285D01*
X100548285Y-89805724D01*
X100624786Y-89703649D01*
X100633324Y-89688054D01*
X100678478Y-89567606D01*
X100682105Y-89552351D01*
X100687631Y-89501486D01*
X100688000Y-89494672D01*
X100688000Y-88872115D01*
X100683525Y-88856876D01*
X100682135Y-88855671D01*
X100674452Y-88854000D01*
X99602115Y-88854000D01*
X99586876Y-88858475D01*
X99585671Y-88859865D01*
X99584000Y-88867548D01*
X99584000Y-89939884D01*
X99076000Y-89939884D01*
X99076000Y-88872115D01*
X99071525Y-88856876D01*
X99070135Y-88855671D01*
X99062452Y-88854000D01*
X97990116Y-88854000D01*
X97974877Y-88858475D01*
X97973672Y-88859865D01*
X97972001Y-88867548D01*
X97972001Y-89494669D01*
X93806925Y-89494669D01*
X93820722Y-86026695D01*
X97967251Y-86026695D01*
X97967548Y-86031848D01*
X97967548Y-86031851D01*
X97974272Y-86148469D01*
X97980110Y-86249715D01*
X97981247Y-86254761D01*
X97981248Y-86254767D01*
X97990653Y-86296498D01*
X98029222Y-86467639D01*
X98113266Y-86674616D01*
X98229987Y-86865088D01*
X98376250Y-87033938D01*
X98380225Y-87037238D01*
X98380231Y-87037244D01*
X98385425Y-87041556D01*
X98425059Y-87100460D01*
X98426555Y-87171441D01*
X98389439Y-87231962D01*
X98349168Y-87256480D01*
X98241946Y-87296676D01*
X98226351Y-87305214D01*
X98124276Y-87381715D01*
X98111715Y-87394276D01*
X98035214Y-87496351D01*
X98026676Y-87511946D01*
X97981522Y-87632394D01*
X97977895Y-87647649D01*
X97972369Y-87698514D01*
X97972000Y-87705328D01*
X97972000Y-88327885D01*
X97976475Y-88343124D01*
X97977865Y-88344329D01*
X97985548Y-88346000D01*
X100669884Y-88346000D01*
X100685123Y-88341525D01*
X100686328Y-88340135D01*
X100687999Y-88332452D01*
X100687999Y-87748134D01*
X112636500Y-87748134D01*
X112643255Y-87810316D01*
X112694385Y-87946705D01*
X112781739Y-88063261D01*
X112898295Y-88150615D01*
X113034684Y-88201745D01*
X113096866Y-88208500D01*
X114243134Y-88208500D01*
X114305316Y-88201745D01*
X114355881Y-88182789D01*
X114433296Y-88153768D01*
X114433299Y-88153766D01*
X114441705Y-88150615D01*
X114448894Y-88145227D01*
X114449137Y-88145094D01*
X114518494Y-88129924D01*
X114546907Y-88135248D01*
X114731180Y-88192290D01*
X114737305Y-88192934D01*
X114737306Y-88192934D01*
X114926622Y-88212832D01*
X114926623Y-88212832D01*
X114932750Y-88213476D01*
X115016014Y-88205898D01*
X115128457Y-88195665D01*
X115128460Y-88195664D01*
X115134596Y-88195106D01*
X115140502Y-88193368D01*
X115140506Y-88193367D01*
X115323120Y-88139620D01*
X115323119Y-88139620D01*
X115329029Y-88137881D01*
X115334486Y-88135028D01*
X115334489Y-88135027D01*
X115471765Y-88063261D01*
X115508460Y-88044077D01*
X115508462Y-88044077D01*
X115508645Y-88043981D01*
X115508663Y-88044016D01*
X115574441Y-88024111D01*
X115635409Y-88039271D01*
X115807565Y-88132356D01*
X115876733Y-88153767D01*
X115995293Y-88190468D01*
X115995296Y-88190469D01*
X116001180Y-88192290D01*
X116007305Y-88192934D01*
X116007306Y-88192934D01*
X116196622Y-88212832D01*
X116196623Y-88212832D01*
X116202750Y-88213476D01*
X116286014Y-88205898D01*
X116398457Y-88195665D01*
X116398460Y-88195664D01*
X116404596Y-88195106D01*
X116410502Y-88193368D01*
X116410506Y-88193367D01*
X116593120Y-88139620D01*
X116593119Y-88139620D01*
X116599029Y-88137881D01*
X116604486Y-88135028D01*
X116604489Y-88135027D01*
X116741765Y-88063261D01*
X116778645Y-88043981D01*
X116805051Y-88022750D01*
X131276524Y-88022750D01*
X131280211Y-88063261D01*
X131293396Y-88208131D01*
X131294894Y-88224596D01*
X131296632Y-88230502D01*
X131296633Y-88230506D01*
X131304354Y-88256739D01*
X131352119Y-88419029D01*
X131354972Y-88424486D01*
X131354973Y-88424489D01*
X131359127Y-88432435D01*
X131446019Y-88598645D01*
X131449879Y-88603445D01*
X131449879Y-88603446D01*
X131455729Y-88610722D01*
X131573019Y-88756601D01*
X131728281Y-88886881D01*
X131733673Y-88889845D01*
X131733677Y-88889848D01*
X131804562Y-88928817D01*
X131905891Y-88984523D01*
X132099084Y-89045807D01*
X132105201Y-89046493D01*
X132105205Y-89046494D01*
X132179348Y-89054810D01*
X132256817Y-89063500D01*
X132816004Y-89063500D01*
X132966713Y-89048723D01*
X133160742Y-88990142D01*
X133339698Y-88894990D01*
X133367746Y-88872115D01*
X133491987Y-88770785D01*
X133496763Y-88766890D01*
X133529908Y-88726825D01*
X133622027Y-88615472D01*
X133622029Y-88615469D01*
X133625956Y-88610722D01*
X133722356Y-88432435D01*
X133771293Y-88274346D01*
X133780468Y-88244707D01*
X133780469Y-88244704D01*
X133782290Y-88238820D01*
X133785022Y-88212832D01*
X133802832Y-88043378D01*
X133802832Y-88043377D01*
X133803476Y-88037250D01*
X133785106Y-87835404D01*
X133777723Y-87810316D01*
X133729620Y-87646880D01*
X133727881Y-87640971D01*
X133723951Y-87633452D01*
X133660429Y-87511946D01*
X133633981Y-87461355D01*
X133634016Y-87461337D01*
X133614111Y-87395559D01*
X133629271Y-87334591D01*
X133678653Y-87243261D01*
X133722356Y-87162435D01*
X133763342Y-87030031D01*
X133780468Y-86974707D01*
X133780469Y-86974704D01*
X133782290Y-86968820D01*
X133784953Y-86943489D01*
X133802832Y-86773378D01*
X133802832Y-86773377D01*
X133803476Y-86767250D01*
X133785106Y-86565404D01*
X133782591Y-86556857D01*
X133729620Y-86376879D01*
X133729619Y-86376877D01*
X133727881Y-86370971D01*
X133728740Y-86370718D01*
X133722286Y-86305338D01*
X133735452Y-86268594D01*
X133740615Y-86261705D01*
X133743768Y-86253296D01*
X133783065Y-86148469D01*
X133791745Y-86125316D01*
X133798500Y-86063134D01*
X133798500Y-84916866D01*
X133791745Y-84854684D01*
X133740615Y-84718295D01*
X133653261Y-84601739D01*
X133536705Y-84514385D01*
X133400316Y-84463255D01*
X133338134Y-84456500D01*
X131741866Y-84456500D01*
X131679684Y-84463255D01*
X131543295Y-84514385D01*
X131426739Y-84601739D01*
X131339385Y-84718295D01*
X131288255Y-84854684D01*
X131281500Y-84916866D01*
X131281500Y-86063134D01*
X131288255Y-86125316D01*
X131296935Y-86148469D01*
X131336232Y-86253296D01*
X131336234Y-86253299D01*
X131339385Y-86261705D01*
X131344773Y-86268894D01*
X131344906Y-86269137D01*
X131360076Y-86338494D01*
X131354752Y-86366907D01*
X131297710Y-86551180D01*
X131276524Y-86752750D01*
X131284102Y-86836014D01*
X131292486Y-86928134D01*
X131294894Y-86954596D01*
X131296632Y-86960502D01*
X131296633Y-86960506D01*
X131317096Y-87030031D01*
X131352119Y-87149029D01*
X131354972Y-87154486D01*
X131354973Y-87154489D01*
X131366549Y-87176632D01*
X131445923Y-87328460D01*
X131445923Y-87328462D01*
X131446019Y-87328645D01*
X131445984Y-87328663D01*
X131465889Y-87394441D01*
X131450729Y-87455409D01*
X131357644Y-87627565D01*
X131351427Y-87647649D01*
X131320322Y-87748134D01*
X131297710Y-87821180D01*
X131276524Y-88022750D01*
X116805051Y-88022750D01*
X116936601Y-87916981D01*
X117066881Y-87761719D01*
X117069845Y-87756327D01*
X117069848Y-87756323D01*
X117128959Y-87648799D01*
X117179304Y-87598741D01*
X117239374Y-87583500D01*
X117871233Y-87583500D01*
X117882416Y-87584027D01*
X117889909Y-87585702D01*
X117897835Y-87585453D01*
X117897836Y-87585453D01*
X117957986Y-87583562D01*
X117961945Y-87583500D01*
X117989856Y-87583500D01*
X117993791Y-87583003D01*
X117993856Y-87582995D01*
X118005693Y-87582062D01*
X118037951Y-87581048D01*
X118041970Y-87580922D01*
X118049889Y-87580673D01*
X118069343Y-87575021D01*
X118088700Y-87571013D01*
X118100930Y-87569468D01*
X118100931Y-87569468D01*
X118108797Y-87568474D01*
X118116168Y-87565555D01*
X118116170Y-87565555D01*
X118149912Y-87552196D01*
X118161142Y-87548351D01*
X118195983Y-87538229D01*
X118195984Y-87538229D01*
X118203593Y-87536018D01*
X118210412Y-87531985D01*
X118210417Y-87531983D01*
X118221028Y-87525707D01*
X118238776Y-87517012D01*
X118257617Y-87509552D01*
X118293387Y-87483564D01*
X118303307Y-87477048D01*
X118334535Y-87458580D01*
X118334538Y-87458578D01*
X118341362Y-87454542D01*
X118355683Y-87440221D01*
X118370717Y-87427380D01*
X118380694Y-87420131D01*
X118387107Y-87415472D01*
X118415298Y-87381395D01*
X118423288Y-87372616D01*
X118867770Y-86928134D01*
X122511500Y-86928134D01*
X122518255Y-86990316D01*
X122569385Y-87126705D01*
X122656739Y-87243261D01*
X122773295Y-87330615D01*
X122909684Y-87381745D01*
X122971866Y-87388500D01*
X125068134Y-87388500D01*
X125130316Y-87381745D01*
X125266705Y-87330615D01*
X125383261Y-87243261D01*
X125470615Y-87126705D01*
X125521745Y-86990316D01*
X125528500Y-86928134D01*
X125528500Y-84831866D01*
X125521745Y-84769684D01*
X125470615Y-84633295D01*
X125383261Y-84516739D01*
X125266705Y-84429385D01*
X125130316Y-84378255D01*
X125068134Y-84371500D01*
X122971866Y-84371500D01*
X122909684Y-84378255D01*
X122773295Y-84429385D01*
X122656739Y-84516739D01*
X122569385Y-84633295D01*
X122518255Y-84769684D01*
X122511500Y-84831866D01*
X122511500Y-86928134D01*
X118867770Y-86928134D01*
X123441540Y-82354364D01*
X123503852Y-82320338D01*
X123560049Y-82320940D01*
X123778476Y-82373380D01*
X123778482Y-82373381D01*
X123783289Y-82374535D01*
X124020000Y-82393165D01*
X124256711Y-82374535D01*
X124261518Y-82373381D01*
X124261524Y-82373380D01*
X124407391Y-82338360D01*
X124487594Y-82319105D01*
X124492167Y-82317211D01*
X124702389Y-82230135D01*
X124702393Y-82230133D01*
X124706963Y-82228240D01*
X124803237Y-82169243D01*
X124905202Y-82106759D01*
X124905208Y-82106755D01*
X124909416Y-82104176D01*
X125085941Y-81953409D01*
X125086213Y-81953177D01*
X125089969Y-81949969D01*
X125244176Y-81769416D01*
X125246755Y-81765208D01*
X125246759Y-81765202D01*
X125274459Y-81720000D01*
X131116502Y-81720000D01*
X131136457Y-81948087D01*
X131137881Y-81953400D01*
X131137881Y-81953402D01*
X131172478Y-82082517D01*
X131195716Y-82169243D01*
X131198039Y-82174224D01*
X131198039Y-82174225D01*
X131290151Y-82371762D01*
X131290154Y-82371767D01*
X131292477Y-82376749D01*
X131423802Y-82564300D01*
X131585700Y-82726198D01*
X131590208Y-82729355D01*
X131590211Y-82729357D01*
X131668389Y-82784098D01*
X131773251Y-82857523D01*
X131778233Y-82859846D01*
X131778238Y-82859849D01*
X131975775Y-82951961D01*
X131980757Y-82954284D01*
X131986065Y-82955706D01*
X131986067Y-82955707D01*
X132196598Y-83012119D01*
X132196600Y-83012119D01*
X132201913Y-83013543D01*
X132430000Y-83033498D01*
X132658087Y-83013543D01*
X132663400Y-83012119D01*
X132663402Y-83012119D01*
X132873933Y-82955707D01*
X132873935Y-82955706D01*
X132879243Y-82954284D01*
X132884225Y-82951961D01*
X133081762Y-82859849D01*
X133081767Y-82859846D01*
X133086749Y-82857523D01*
X133191611Y-82784098D01*
X133269789Y-82729357D01*
X133269792Y-82729355D01*
X133274300Y-82726198D01*
X133436198Y-82564300D01*
X133567523Y-82376749D01*
X133569846Y-82371767D01*
X133569849Y-82371762D01*
X133661961Y-82174225D01*
X133661961Y-82174224D01*
X133664284Y-82169243D01*
X133687523Y-82082517D01*
X133722119Y-81953402D01*
X133722119Y-81953400D01*
X133723543Y-81948087D01*
X133743498Y-81720000D01*
X133723543Y-81491913D01*
X133683583Y-81342782D01*
X133665707Y-81276067D01*
X133665706Y-81276065D01*
X133664284Y-81270757D01*
X133590151Y-81111777D01*
X133569849Y-81068238D01*
X133569846Y-81068233D01*
X133567523Y-81063251D01*
X133436198Y-80875700D01*
X133274300Y-80713802D01*
X133269792Y-80710645D01*
X133269789Y-80710643D01*
X133173597Y-80643289D01*
X133086749Y-80582477D01*
X133081767Y-80580154D01*
X133081762Y-80580151D01*
X132884225Y-80488039D01*
X132884224Y-80488039D01*
X132879243Y-80485716D01*
X132873935Y-80484294D01*
X132873933Y-80484293D01*
X132663402Y-80427881D01*
X132663400Y-80427881D01*
X132658087Y-80426457D01*
X132430000Y-80406502D01*
X132201913Y-80426457D01*
X132196600Y-80427881D01*
X132196598Y-80427881D01*
X131986067Y-80484293D01*
X131986065Y-80484294D01*
X131980757Y-80485716D01*
X131975776Y-80488039D01*
X131975775Y-80488039D01*
X131778238Y-80580151D01*
X131778233Y-80580154D01*
X131773251Y-80582477D01*
X131686403Y-80643289D01*
X131590211Y-80710643D01*
X131590208Y-80710645D01*
X131585700Y-80713802D01*
X131423802Y-80875700D01*
X131292477Y-81063251D01*
X131290154Y-81068233D01*
X131290151Y-81068238D01*
X131269849Y-81111777D01*
X131195716Y-81270757D01*
X131194294Y-81276065D01*
X131194293Y-81276067D01*
X131176417Y-81342782D01*
X131136457Y-81491913D01*
X131116502Y-81720000D01*
X125274459Y-81720000D01*
X125365654Y-81571183D01*
X125368240Y-81566963D01*
X125432901Y-81410858D01*
X125457211Y-81352167D01*
X125457212Y-81352165D01*
X125459105Y-81347594D01*
X125514535Y-81116711D01*
X125533165Y-80880000D01*
X125514535Y-80643289D01*
X125500694Y-80585634D01*
X125476705Y-80485716D01*
X125459105Y-80412406D01*
X125456858Y-80406981D01*
X125370135Y-80197611D01*
X125370133Y-80197607D01*
X125368240Y-80193037D01*
X125365654Y-80188817D01*
X125246759Y-79994798D01*
X125246755Y-79994792D01*
X125244176Y-79990584D01*
X125089969Y-79810031D01*
X124909416Y-79655824D01*
X124905208Y-79653245D01*
X124905202Y-79653241D01*
X124711183Y-79534346D01*
X124706963Y-79531760D01*
X124702393Y-79529867D01*
X124702389Y-79529865D01*
X124492167Y-79442789D01*
X124492165Y-79442788D01*
X124487594Y-79440895D01*
X124407391Y-79421640D01*
X124261524Y-79386620D01*
X124261518Y-79386619D01*
X124256711Y-79385465D01*
X124020000Y-79366835D01*
X123783289Y-79385465D01*
X123778482Y-79386619D01*
X123778476Y-79386620D01*
X123632609Y-79421640D01*
X123552406Y-79440895D01*
X123547835Y-79442788D01*
X123547833Y-79442789D01*
X123337611Y-79529865D01*
X123337607Y-79529867D01*
X123333037Y-79531760D01*
X123328817Y-79534346D01*
X123134798Y-79653241D01*
X123134792Y-79653245D01*
X123130584Y-79655824D01*
X122950031Y-79810031D01*
X122795824Y-79990584D01*
X122793245Y-79994792D01*
X122793241Y-79994798D01*
X122674346Y-80188817D01*
X122671760Y-80193037D01*
X122669867Y-80197607D01*
X122669865Y-80197611D01*
X122583142Y-80406981D01*
X122580895Y-80412406D01*
X122563295Y-80485716D01*
X122539307Y-80585634D01*
X122525465Y-80643289D01*
X122506835Y-80880000D01*
X122525465Y-81116711D01*
X122526619Y-81121518D01*
X122526620Y-81121524D01*
X122579060Y-81339950D01*
X122575513Y-81410858D01*
X122545636Y-81458459D01*
X117724500Y-86279595D01*
X117662188Y-86313621D01*
X117635405Y-86316500D01*
X117239067Y-86316500D01*
X117170946Y-86296498D01*
X117127815Y-86249653D01*
X117121366Y-86237523D01*
X117074990Y-86150302D01*
X117039020Y-86106198D01*
X116950785Y-85998013D01*
X116946890Y-85993237D01*
X116908772Y-85961703D01*
X116795472Y-85867973D01*
X116795469Y-85867971D01*
X116790722Y-85864044D01*
X116612435Y-85767644D01*
X116515627Y-85737677D01*
X116424707Y-85709532D01*
X116424704Y-85709531D01*
X116418820Y-85707710D01*
X116412695Y-85707066D01*
X116412694Y-85707066D01*
X116223378Y-85687168D01*
X116223377Y-85687168D01*
X116217250Y-85686524D01*
X116133986Y-85694102D01*
X116021543Y-85704335D01*
X116021540Y-85704336D01*
X116015404Y-85704894D01*
X116009498Y-85706632D01*
X116009494Y-85706633D01*
X115874947Y-85746233D01*
X115820971Y-85762119D01*
X115815514Y-85764972D01*
X115815511Y-85764973D01*
X115749299Y-85799588D01*
X115641540Y-85855923D01*
X115641538Y-85855923D01*
X115641355Y-85856019D01*
X115641337Y-85855984D01*
X115575559Y-85875889D01*
X115514591Y-85860729D01*
X115505815Y-85855984D01*
X115342435Y-85767644D01*
X115245627Y-85737677D01*
X115154707Y-85709532D01*
X115154704Y-85709531D01*
X115148820Y-85707710D01*
X115142695Y-85707066D01*
X115142694Y-85707066D01*
X114953378Y-85687168D01*
X114953377Y-85687168D01*
X114947250Y-85686524D01*
X114863986Y-85694102D01*
X114751543Y-85704335D01*
X114751540Y-85704336D01*
X114745404Y-85704894D01*
X114739498Y-85706632D01*
X114739494Y-85706633D01*
X114556879Y-85760380D01*
X114556877Y-85760381D01*
X114555493Y-85760788D01*
X114550971Y-85762119D01*
X114550718Y-85761260D01*
X114485338Y-85767714D01*
X114448594Y-85754548D01*
X114441705Y-85749385D01*
X114433304Y-85746236D01*
X114433301Y-85746234D01*
X114321534Y-85704335D01*
X114305316Y-85698255D01*
X114243134Y-85691500D01*
X113096866Y-85691500D01*
X113034684Y-85698255D01*
X112898295Y-85749385D01*
X112781739Y-85836739D01*
X112694385Y-85953295D01*
X112643255Y-86089684D01*
X112636500Y-86151866D01*
X112636500Y-87748134D01*
X100687999Y-87748134D01*
X100687999Y-87705331D01*
X100687629Y-87698510D01*
X100682105Y-87647648D01*
X100678479Y-87632396D01*
X100633324Y-87511946D01*
X100624786Y-87496351D01*
X100548285Y-87394276D01*
X100535724Y-87381715D01*
X100433649Y-87305214D01*
X100418054Y-87296676D01*
X100307813Y-87255348D01*
X100251049Y-87212706D01*
X100226349Y-87146145D01*
X100241557Y-87076796D01*
X100263104Y-87048115D01*
X100364430Y-86947144D01*
X100364440Y-86947132D01*
X100368096Y-86943489D01*
X100427594Y-86860689D01*
X100495435Y-86766277D01*
X100498453Y-86762077D01*
X100506092Y-86746622D01*
X100595136Y-86566453D01*
X100595137Y-86566451D01*
X100597430Y-86561811D01*
X100662370Y-86348069D01*
X100691529Y-86126590D01*
X100692027Y-86106198D01*
X100693074Y-86063365D01*
X100693074Y-86063361D01*
X100693156Y-86060000D01*
X100674852Y-85837361D01*
X100620431Y-85620702D01*
X100531354Y-85415840D01*
X100410014Y-85228277D01*
X100293291Y-85100000D01*
X104766502Y-85100000D01*
X104786457Y-85328087D01*
X104787881Y-85333400D01*
X104787881Y-85333402D01*
X104809971Y-85415840D01*
X104845716Y-85549243D01*
X104848039Y-85554224D01*
X104848039Y-85554225D01*
X104940151Y-85751762D01*
X104940154Y-85751767D01*
X104942477Y-85756749D01*
X105073802Y-85944300D01*
X105235700Y-86106198D01*
X105240208Y-86109355D01*
X105240211Y-86109357D01*
X105269561Y-86129908D01*
X105423251Y-86237523D01*
X105428233Y-86239846D01*
X105428238Y-86239849D01*
X105592861Y-86316613D01*
X105630757Y-86334284D01*
X105636065Y-86335706D01*
X105636067Y-86335707D01*
X105846598Y-86392119D01*
X105846600Y-86392119D01*
X105851913Y-86393543D01*
X106080000Y-86413498D01*
X106308087Y-86393543D01*
X106313400Y-86392119D01*
X106313402Y-86392119D01*
X106523933Y-86335707D01*
X106523935Y-86335706D01*
X106529243Y-86334284D01*
X106567139Y-86316613D01*
X106731762Y-86239849D01*
X106731767Y-86239846D01*
X106736749Y-86237523D01*
X106890439Y-86129908D01*
X106919789Y-86109357D01*
X106919792Y-86109355D01*
X106924300Y-86106198D01*
X107086198Y-85944300D01*
X107217523Y-85756749D01*
X107219846Y-85751767D01*
X107219849Y-85751762D01*
X107311961Y-85554225D01*
X107311961Y-85554224D01*
X107314284Y-85549243D01*
X107350030Y-85415840D01*
X107372119Y-85333402D01*
X107372119Y-85333400D01*
X107373543Y-85328087D01*
X107393498Y-85100000D01*
X107373543Y-84871913D01*
X107372119Y-84866598D01*
X107315707Y-84656067D01*
X107315706Y-84656065D01*
X107314284Y-84650757D01*
X107310062Y-84641703D01*
X107219849Y-84448238D01*
X107219846Y-84448233D01*
X107217523Y-84443251D01*
X107086198Y-84255700D01*
X106924300Y-84093802D01*
X106919792Y-84090645D01*
X106919789Y-84090643D01*
X106841611Y-84035902D01*
X106736749Y-83962477D01*
X106731767Y-83960154D01*
X106731762Y-83960151D01*
X106534225Y-83868039D01*
X106534224Y-83868039D01*
X106529243Y-83865716D01*
X106523935Y-83864294D01*
X106523933Y-83864293D01*
X106313402Y-83807881D01*
X106313400Y-83807881D01*
X106308087Y-83806457D01*
X106080000Y-83786502D01*
X105851913Y-83806457D01*
X105846600Y-83807881D01*
X105846598Y-83807881D01*
X105636067Y-83864293D01*
X105636065Y-83864294D01*
X105630757Y-83865716D01*
X105625776Y-83868039D01*
X105625775Y-83868039D01*
X105428238Y-83960151D01*
X105428233Y-83960154D01*
X105423251Y-83962477D01*
X105318389Y-84035902D01*
X105240211Y-84090643D01*
X105240208Y-84090645D01*
X105235700Y-84093802D01*
X105073802Y-84255700D01*
X104942477Y-84443251D01*
X104940154Y-84448233D01*
X104940151Y-84448238D01*
X104849938Y-84641703D01*
X104845716Y-84650757D01*
X104844294Y-84656065D01*
X104844293Y-84656067D01*
X104787881Y-84866598D01*
X104786457Y-84871913D01*
X104766502Y-85100000D01*
X100293291Y-85100000D01*
X100259670Y-85063051D01*
X100255619Y-85059852D01*
X100255615Y-85059848D01*
X100088414Y-84927800D01*
X100088410Y-84927798D01*
X100084359Y-84924598D01*
X100076543Y-84920283D01*
X99988920Y-84871913D01*
X99888789Y-84816638D01*
X99883920Y-84814914D01*
X99883916Y-84814912D01*
X99683087Y-84743795D01*
X99683083Y-84743794D01*
X99678212Y-84742069D01*
X99673119Y-84741162D01*
X99673116Y-84741161D01*
X99463373Y-84703800D01*
X99463367Y-84703799D01*
X99458284Y-84702894D01*
X99384452Y-84701992D01*
X99240081Y-84700228D01*
X99240079Y-84700228D01*
X99234911Y-84700165D01*
X99014091Y-84733955D01*
X98801756Y-84803357D01*
X98603607Y-84906507D01*
X98599474Y-84909610D01*
X98599471Y-84909612D01*
X98575247Y-84927800D01*
X98424965Y-85040635D01*
X98270629Y-85202138D01*
X98144743Y-85386680D01*
X98129003Y-85420590D01*
X98066972Y-85554225D01*
X98050688Y-85589305D01*
X97990989Y-85804570D01*
X97967251Y-86026695D01*
X93820722Y-86026695D01*
X93852060Y-78150000D01*
X131116502Y-78150000D01*
X131136457Y-78378087D01*
X131195716Y-78599243D01*
X131198039Y-78604224D01*
X131198039Y-78604225D01*
X131290151Y-78801762D01*
X131290154Y-78801767D01*
X131292477Y-78806749D01*
X131423802Y-78994300D01*
X131585700Y-79156198D01*
X131590208Y-79159355D01*
X131590211Y-79159357D01*
X131668389Y-79214098D01*
X131773251Y-79287523D01*
X131778233Y-79289846D01*
X131778238Y-79289849D01*
X131943337Y-79366835D01*
X131980757Y-79384284D01*
X131986065Y-79385706D01*
X131986067Y-79385707D01*
X132196598Y-79442119D01*
X132196600Y-79442119D01*
X132201913Y-79443543D01*
X132430000Y-79463498D01*
X132658087Y-79443543D01*
X132663400Y-79442119D01*
X132663402Y-79442119D01*
X132873933Y-79385707D01*
X132873935Y-79385706D01*
X132879243Y-79384284D01*
X132916663Y-79366835D01*
X133081762Y-79289849D01*
X133081767Y-79289846D01*
X133086749Y-79287523D01*
X133191611Y-79214098D01*
X133269789Y-79159357D01*
X133269792Y-79159355D01*
X133274300Y-79156198D01*
X133436198Y-78994300D01*
X133567523Y-78806749D01*
X133569846Y-78801767D01*
X133569849Y-78801762D01*
X133661961Y-78604225D01*
X133661961Y-78604224D01*
X133664284Y-78599243D01*
X133723543Y-78378087D01*
X133743498Y-78150000D01*
X141276502Y-78150000D01*
X141296457Y-78378087D01*
X141355716Y-78599243D01*
X141358039Y-78604224D01*
X141358039Y-78604225D01*
X141450151Y-78801762D01*
X141450154Y-78801767D01*
X141452477Y-78806749D01*
X141583802Y-78994300D01*
X141745700Y-79156198D01*
X141750208Y-79159355D01*
X141750211Y-79159357D01*
X141828389Y-79214098D01*
X141933251Y-79287523D01*
X141938233Y-79289846D01*
X141938238Y-79289849D01*
X142103337Y-79366835D01*
X142140757Y-79384284D01*
X142146065Y-79385706D01*
X142146067Y-79385707D01*
X142356598Y-79442119D01*
X142356600Y-79442119D01*
X142361913Y-79443543D01*
X142590000Y-79463498D01*
X142818087Y-79443543D01*
X142823400Y-79442119D01*
X142823402Y-79442119D01*
X143033933Y-79385707D01*
X143033935Y-79385706D01*
X143039243Y-79384284D01*
X143076663Y-79366835D01*
X143241762Y-79289849D01*
X143241767Y-79289846D01*
X143246749Y-79287523D01*
X143351611Y-79214098D01*
X143429789Y-79159357D01*
X143429792Y-79159355D01*
X143434300Y-79156198D01*
X143596198Y-78994300D01*
X143727523Y-78806749D01*
X143729846Y-78801767D01*
X143729849Y-78801762D01*
X143821961Y-78604225D01*
X143821961Y-78604224D01*
X143824284Y-78599243D01*
X143883543Y-78378087D01*
X143903498Y-78150000D01*
X143883543Y-77921913D01*
X143824284Y-77700757D01*
X143821961Y-77695775D01*
X143729849Y-77498238D01*
X143729846Y-77498233D01*
X143727523Y-77493251D01*
X143596198Y-77305700D01*
X143434300Y-77143802D01*
X143429792Y-77140645D01*
X143429789Y-77140643D01*
X143351611Y-77085902D01*
X143246749Y-77012477D01*
X143241767Y-77010154D01*
X143241762Y-77010151D01*
X143044225Y-76918039D01*
X143044224Y-76918039D01*
X143039243Y-76915716D01*
X143033935Y-76914294D01*
X143033933Y-76914293D01*
X142823402Y-76857881D01*
X142823400Y-76857881D01*
X142818087Y-76856457D01*
X142590000Y-76836502D01*
X142361913Y-76856457D01*
X142356600Y-76857881D01*
X142356598Y-76857881D01*
X142146067Y-76914293D01*
X142146065Y-76914294D01*
X142140757Y-76915716D01*
X142135776Y-76918039D01*
X142135775Y-76918039D01*
X141938238Y-77010151D01*
X141938233Y-77010154D01*
X141933251Y-77012477D01*
X141828389Y-77085902D01*
X141750211Y-77140643D01*
X141750208Y-77140645D01*
X141745700Y-77143802D01*
X141583802Y-77305700D01*
X141452477Y-77493251D01*
X141450154Y-77498233D01*
X141450151Y-77498238D01*
X141358039Y-77695775D01*
X141355716Y-77700757D01*
X141296457Y-77921913D01*
X141276502Y-78150000D01*
X133743498Y-78150000D01*
X133723543Y-77921913D01*
X133664284Y-77700757D01*
X133661961Y-77695775D01*
X133569849Y-77498238D01*
X133569846Y-77498233D01*
X133567523Y-77493251D01*
X133436198Y-77305700D01*
X133274300Y-77143802D01*
X133269792Y-77140645D01*
X133269789Y-77140643D01*
X133191611Y-77085902D01*
X133086749Y-77012477D01*
X133081767Y-77010154D01*
X133081762Y-77010151D01*
X132884225Y-76918039D01*
X132884224Y-76918039D01*
X132879243Y-76915716D01*
X132873935Y-76914294D01*
X132873933Y-76914293D01*
X132663402Y-76857881D01*
X132663400Y-76857881D01*
X132658087Y-76856457D01*
X132430000Y-76836502D01*
X132201913Y-76856457D01*
X132196600Y-76857881D01*
X132196598Y-76857881D01*
X131986067Y-76914293D01*
X131986065Y-76914294D01*
X131980757Y-76915716D01*
X131975776Y-76918039D01*
X131975775Y-76918039D01*
X131778238Y-77010151D01*
X131778233Y-77010154D01*
X131773251Y-77012477D01*
X131668389Y-77085902D01*
X131590211Y-77140643D01*
X131590208Y-77140645D01*
X131585700Y-77143802D01*
X131423802Y-77305700D01*
X131292477Y-77493251D01*
X131290154Y-77498233D01*
X131290151Y-77498238D01*
X131198039Y-77695775D01*
X131195716Y-77700757D01*
X131136457Y-77921913D01*
X131116502Y-78150000D01*
X93852060Y-78150000D01*
X93861496Y-75778134D01*
X104321294Y-75778134D01*
X104328049Y-75840316D01*
X104379179Y-75976705D01*
X104466533Y-76093261D01*
X104583089Y-76180615D01*
X104719478Y-76231745D01*
X104781660Y-76238500D01*
X107277928Y-76238500D01*
X107340110Y-76231745D01*
X107476499Y-76180615D01*
X107593055Y-76093261D01*
X107680409Y-75976705D01*
X107707905Y-75903359D01*
X112521180Y-75903359D01*
X112529893Y-75914879D01*
X112618380Y-75979760D01*
X112626299Y-75984708D01*
X112842671Y-76098547D01*
X112851245Y-76102275D01*
X113082076Y-76182885D01*
X113091085Y-76185299D01*
X113331312Y-76230908D01*
X113340569Y-76231962D01*
X113584901Y-76241563D01*
X113594214Y-76241237D01*
X113837272Y-76214618D01*
X113846449Y-76212917D01*
X114082901Y-76150665D01*
X114091720Y-76147628D01*
X114316378Y-76051107D01*
X114324650Y-76046800D01*
X114532571Y-75918135D01*
X114534414Y-75916796D01*
X114541832Y-75905541D01*
X114535768Y-75895184D01*
X113542606Y-74902022D01*
X113528662Y-74894408D01*
X113526829Y-74894539D01*
X113520214Y-74898790D01*
X112527838Y-75891166D01*
X112521180Y-75903359D01*
X107707905Y-75903359D01*
X107731539Y-75840316D01*
X107738294Y-75778134D01*
X107738294Y-74489835D01*
X111817816Y-74489835D01*
X111829548Y-74734064D01*
X111830685Y-74743324D01*
X111878387Y-74983143D01*
X111880876Y-74992118D01*
X111963502Y-75222250D01*
X111967299Y-75230778D01*
X112083028Y-75446160D01*
X112088039Y-75454027D01*
X112144967Y-75530263D01*
X112156225Y-75538712D01*
X112168644Y-75531940D01*
X113157772Y-74542812D01*
X113164150Y-74531132D01*
X113894202Y-74531132D01*
X113894333Y-74532965D01*
X113898584Y-74539580D01*
X114893526Y-75534522D01*
X114905906Y-75541282D01*
X114914247Y-75535038D01*
X115032494Y-75351202D01*
X115036941Y-75343011D01*
X115137366Y-75120076D01*
X115140561Y-75111298D01*
X115206929Y-74875973D01*
X115208787Y-74866844D01*
X115232180Y-74682966D01*
X122718257Y-74682966D01*
X122748565Y-74817446D01*
X122751645Y-74827275D01*
X122831770Y-75024603D01*
X122836413Y-75033794D01*
X122947694Y-75215388D01*
X122953777Y-75223699D01*
X123093213Y-75384667D01*
X123100580Y-75391883D01*
X123264434Y-75527916D01*
X123272881Y-75533831D01*
X123456756Y-75641279D01*
X123466042Y-75645729D01*
X123665001Y-75721703D01*
X123674899Y-75724579D01*
X123778250Y-75745606D01*
X123792299Y-75744410D01*
X123796000Y-75734065D01*
X123796000Y-75733517D01*
X124304000Y-75733517D01*
X124308064Y-75747359D01*
X124321478Y-75749393D01*
X124328184Y-75748534D01*
X124338262Y-75746392D01*
X124542255Y-75685191D01*
X124551842Y-75681433D01*
X124743095Y-75587739D01*
X124751945Y-75582464D01*
X124925328Y-75458792D01*
X124933193Y-75452145D01*
X125037897Y-75347805D01*
X125100268Y-75313889D01*
X125171075Y-75319077D01*
X125227837Y-75361723D01*
X125244819Y-75392826D01*
X125289385Y-75511705D01*
X125376739Y-75628261D01*
X125493295Y-75715615D01*
X125629684Y-75766745D01*
X125691866Y-75773500D01*
X127488134Y-75773500D01*
X127550316Y-75766745D01*
X127686705Y-75715615D01*
X127803261Y-75628261D01*
X127890615Y-75511705D01*
X127941745Y-75375316D01*
X127948500Y-75313134D01*
X127948500Y-73516866D01*
X127941745Y-73454684D01*
X127890615Y-73318295D01*
X127826664Y-73232966D01*
X135458257Y-73232966D01*
X135488565Y-73367446D01*
X135491645Y-73377275D01*
X135571770Y-73574603D01*
X135576413Y-73583794D01*
X135687694Y-73765388D01*
X135693777Y-73773699D01*
X135833213Y-73934667D01*
X135840580Y-73941883D01*
X136004434Y-74077916D01*
X136012881Y-74083831D01*
X136196756Y-74191279D01*
X136206042Y-74195729D01*
X136405001Y-74271703D01*
X136414899Y-74274579D01*
X136518250Y-74295606D01*
X136532299Y-74294410D01*
X136536000Y-74284065D01*
X136536000Y-74283517D01*
X137044000Y-74283517D01*
X137048064Y-74297359D01*
X137061478Y-74299393D01*
X137068184Y-74298534D01*
X137078262Y-74296392D01*
X137282255Y-74235191D01*
X137291842Y-74231433D01*
X137483095Y-74137739D01*
X137491945Y-74132464D01*
X137665328Y-74008792D01*
X137673193Y-74002145D01*
X137777897Y-73897805D01*
X137840268Y-73863889D01*
X137911075Y-73869077D01*
X137967837Y-73911723D01*
X137984819Y-73942826D01*
X138029385Y-74061705D01*
X138116739Y-74178261D01*
X138233295Y-74265615D01*
X138369684Y-74316745D01*
X138431866Y-74323500D01*
X140228134Y-74323500D01*
X140290316Y-74316745D01*
X140426705Y-74265615D01*
X140543261Y-74178261D01*
X140630615Y-74061705D01*
X140681745Y-73925316D01*
X140688500Y-73863134D01*
X140688500Y-72066866D01*
X140681745Y-72004684D01*
X140630615Y-71868295D01*
X140543261Y-71751739D01*
X140426705Y-71664385D01*
X140290316Y-71613255D01*
X140228134Y-71606500D01*
X138431866Y-71606500D01*
X138369684Y-71613255D01*
X138233295Y-71664385D01*
X138116739Y-71751739D01*
X138029385Y-71868295D01*
X138026233Y-71876703D01*
X138026232Y-71876705D01*
X137984722Y-71987433D01*
X137942081Y-72044198D01*
X137875519Y-72068898D01*
X137806170Y-72053691D01*
X137773546Y-72028004D01*
X137722799Y-71972234D01*
X137715273Y-71965215D01*
X137548139Y-71833222D01*
X137539552Y-71827517D01*
X137353117Y-71724599D01*
X137343705Y-71720369D01*
X137142959Y-71649280D01*
X137132988Y-71646646D01*
X137061837Y-71633972D01*
X137048540Y-71635432D01*
X137044000Y-71649989D01*
X137044000Y-74283517D01*
X136536000Y-74283517D01*
X136536000Y-73237115D01*
X136531525Y-73221876D01*
X136530135Y-73220671D01*
X136522452Y-73219000D01*
X135473225Y-73219000D01*
X135459694Y-73222973D01*
X135458257Y-73232966D01*
X127826664Y-73232966D01*
X127803261Y-73201739D01*
X127686705Y-73114385D01*
X127550316Y-73063255D01*
X127488134Y-73056500D01*
X125691866Y-73056500D01*
X125629684Y-73063255D01*
X125493295Y-73114385D01*
X125376739Y-73201739D01*
X125289385Y-73318295D01*
X125286233Y-73326703D01*
X125286232Y-73326705D01*
X125244722Y-73437433D01*
X125202081Y-73494198D01*
X125135519Y-73518898D01*
X125066170Y-73503691D01*
X125033546Y-73478004D01*
X124982799Y-73422234D01*
X124975273Y-73415215D01*
X124808139Y-73283222D01*
X124799552Y-73277517D01*
X124613117Y-73174599D01*
X124603705Y-73170369D01*
X124402959Y-73099280D01*
X124392988Y-73096646D01*
X124321837Y-73083972D01*
X124308540Y-73085432D01*
X124304000Y-73099989D01*
X124304000Y-75733517D01*
X123796000Y-75733517D01*
X123796000Y-74687115D01*
X123791525Y-74671876D01*
X123790135Y-74670671D01*
X123782452Y-74669000D01*
X122733225Y-74669000D01*
X122719694Y-74672973D01*
X122718257Y-74682966D01*
X115232180Y-74682966D01*
X115239838Y-74622770D01*
X115240319Y-74616483D01*
X115242500Y-74533160D01*
X115242349Y-74526851D01*
X115224115Y-74281486D01*
X115222738Y-74272280D01*
X115194884Y-74149183D01*
X122714389Y-74149183D01*
X122715912Y-74157607D01*
X122728292Y-74161000D01*
X123777885Y-74161000D01*
X123793124Y-74156525D01*
X123794329Y-74155135D01*
X123796000Y-74147452D01*
X123796000Y-73098102D01*
X123792082Y-73084758D01*
X123777806Y-73082771D01*
X123739324Y-73088660D01*
X123729288Y-73091051D01*
X123526868Y-73157212D01*
X123517359Y-73161209D01*
X123328463Y-73259542D01*
X123319738Y-73265036D01*
X123149433Y-73392905D01*
X123141726Y-73399748D01*
X122994590Y-73553717D01*
X122988104Y-73561727D01*
X122868098Y-73737649D01*
X122863000Y-73746623D01*
X122773338Y-73939783D01*
X122769775Y-73949470D01*
X122714389Y-74149183D01*
X115194884Y-74149183D01*
X115168773Y-74033786D01*
X115166049Y-74024875D01*
X115077427Y-73796983D01*
X115073413Y-73788567D01*
X114952078Y-73576276D01*
X114946868Y-73568553D01*
X114915581Y-73528865D01*
X114903657Y-73520395D01*
X114892122Y-73526882D01*
X113901816Y-74517188D01*
X113894202Y-74531132D01*
X113164150Y-74531132D01*
X113165386Y-74528868D01*
X113165255Y-74527035D01*
X113161004Y-74520420D01*
X112166622Y-73526038D01*
X112153314Y-73518771D01*
X112143275Y-73525893D01*
X112138375Y-73531784D01*
X112132962Y-73539373D01*
X112006116Y-73748409D01*
X112001878Y-73756726D01*
X111907323Y-73982214D01*
X111904366Y-73991052D01*
X111844178Y-74228042D01*
X111842557Y-74237232D01*
X111818061Y-74480510D01*
X111817816Y-74489835D01*
X107738294Y-74489835D01*
X107738294Y-73281866D01*
X107731539Y-73219684D01*
X107707259Y-73154917D01*
X112519124Y-73154917D01*
X112523697Y-73164693D01*
X113516982Y-74157978D01*
X113530926Y-74165592D01*
X113532759Y-74165461D01*
X113539374Y-74161210D01*
X114532282Y-73168302D01*
X114538666Y-73156612D01*
X114529254Y-73144502D01*
X114402938Y-73056873D01*
X114394910Y-73052145D01*
X114175604Y-72943995D01*
X114166971Y-72940507D01*
X113934082Y-72865958D01*
X113925032Y-72863785D01*
X113683685Y-72824480D01*
X113674396Y-72823668D01*
X113429908Y-72820467D01*
X113420597Y-72821037D01*
X113178316Y-72854010D01*
X113169197Y-72855948D01*
X112934462Y-72924367D01*
X112925709Y-72927639D01*
X112703663Y-73030004D01*
X112695508Y-73034524D01*
X112528262Y-73144175D01*
X112519124Y-73154917D01*
X107707259Y-73154917D01*
X107680409Y-73083295D01*
X107593055Y-72966739D01*
X107476499Y-72879385D01*
X107340110Y-72828255D01*
X107277928Y-72821500D01*
X104781660Y-72821500D01*
X104719478Y-72828255D01*
X104583089Y-72879385D01*
X104466533Y-72966739D01*
X104379179Y-73083295D01*
X104328049Y-73219684D01*
X104321294Y-73281866D01*
X104321294Y-75778134D01*
X93861496Y-75778134D01*
X93873745Y-72699183D01*
X135454389Y-72699183D01*
X135455912Y-72707607D01*
X135468292Y-72711000D01*
X136517885Y-72711000D01*
X136533124Y-72706525D01*
X136534329Y-72705135D01*
X136536000Y-72697452D01*
X136536000Y-71648102D01*
X136532082Y-71634758D01*
X136517806Y-71632771D01*
X136479324Y-71638660D01*
X136469288Y-71641051D01*
X136266868Y-71707212D01*
X136257359Y-71711209D01*
X136068463Y-71809542D01*
X136059738Y-71815036D01*
X135889433Y-71942905D01*
X135881726Y-71949748D01*
X135734590Y-72103717D01*
X135728104Y-72111727D01*
X135608098Y-72287649D01*
X135603000Y-72296623D01*
X135513338Y-72489783D01*
X135509775Y-72499470D01*
X135454389Y-72699183D01*
X93873745Y-72699183D01*
X93899660Y-66185478D01*
X93919933Y-66117437D01*
X93973773Y-66071158D01*
X94025610Y-66059979D01*
X123551554Y-66049062D01*
X147933865Y-66040047D01*
X148001994Y-66060024D01*
G37*
%TD.AperFunction*%
%TD*%
M02*
