%TF.GenerationSoftware,KiCad,Pcbnew,(6.0.0)*%
%TF.CreationDate,2022-01-14T09:14:34+00:00*%
%TF.ProjectId,ampli1,616d706c-6931-42e6-9b69-6361645f7063,rev?*%
%TF.SameCoordinates,Original*%
%TF.FileFunction,Copper,L2,Bot*%
%TF.FilePolarity,Positive*%
%FSLAX46Y46*%
G04 Gerber Fmt 4.6, Leading zero omitted, Abs format (unit mm)*
G04 Created by KiCad (PCBNEW (6.0.0)) date 2022-01-14 09:14:34*
%MOMM*%
%LPD*%
G01*
G04 APERTURE LIST*
%TA.AperFunction,ComponentPad*%
%ADD10R,1.700000X1.700000*%
%TD*%
%TA.AperFunction,ComponentPad*%
%ADD11O,1.700000X1.700000*%
%TD*%
%TA.AperFunction,ComponentPad*%
%ADD12R,1.500000X1.050000*%
%TD*%
%TA.AperFunction,ComponentPad*%
%ADD13O,1.500000X1.050000*%
%TD*%
%TA.AperFunction,ComponentPad*%
%ADD14R,2.000000X2.000000*%
%TD*%
%TA.AperFunction,ComponentPad*%
%ADD15C,2.000000*%
%TD*%
%TA.AperFunction,ComponentPad*%
%ADD16C,1.600000*%
%TD*%
%TA.AperFunction,ComponentPad*%
%ADD17O,1.600000X1.600000*%
%TD*%
%TA.AperFunction,ComponentPad*%
%ADD18R,1.050000X1.500000*%
%TD*%
%TA.AperFunction,ComponentPad*%
%ADD19O,1.050000X1.500000*%
%TD*%
%TA.AperFunction,ComponentPad*%
%ADD20C,1.620000*%
%TD*%
%TA.AperFunction,ComponentPad*%
%ADD21R,2.400000X2.400000*%
%TD*%
%TA.AperFunction,ComponentPad*%
%ADD22C,2.400000*%
%TD*%
%TA.AperFunction,Conductor*%
%ADD23C,0.250000*%
%TD*%
G04 APERTURE END LIST*
D10*
%TO.P,V1,1,E1*%
%TO.N,VCC*%
X126590000Y-74415000D03*
D11*
%TO.P,V1,2,E2*%
%TO.N,GND*%
X124050000Y-74415000D03*
%TD*%
D12*
%TO.P,Q2,1,C*%
%TO.N,Net-(C5-Pad1)*%
X132540000Y-85490000D03*
D13*
%TO.P,Q2,2,B*%
%TO.N,Net-(Q1-Pad1)*%
X132540000Y-86760000D03*
%TO.P,Q2,3,E*%
%TO.N,Net-(C4-Pad1)*%
X132540000Y-88030000D03*
%TD*%
D14*
%TO.P,C1,1*%
%TO.N,Net-(C1-Pad1)*%
X119457677Y-102430000D03*
D15*
%TO.P,C1,2*%
%TO.N,Net-(C1-Pad2)*%
X114457677Y-102430000D03*
%TD*%
D16*
%TO.P,R4,1*%
%TO.N,Net-(C4-Pad1)*%
X130030000Y-96080000D03*
D17*
%TO.P,R4,2*%
%TO.N,Net-(R1-Pad2)*%
X130030000Y-106240000D03*
%TD*%
D16*
%TO.P,R5,1*%
%TO.N,Net-(R1-Pad2)*%
X125340000Y-106240000D03*
D17*
%TO.P,R5,2*%
%TO.N,GND*%
X125340000Y-96080000D03*
%TD*%
D16*
%TO.P,R1,1*%
%TO.N,Net-(C1-Pad1)*%
X109710000Y-94450000D03*
D17*
%TO.P,R1,2*%
%TO.N,Net-(R1-Pad2)*%
X119870000Y-94450000D03*
%TD*%
D14*
%TO.P,C3,1*%
%TO.N,Net-(C3-Pad1)*%
X124020000Y-85880000D03*
D15*
%TO.P,C3,2*%
%TO.N,Net-(C3-Pad2)*%
X124020000Y-80880000D03*
%TD*%
D16*
%TO.P,R3,1*%
%TO.N,Net-(C3-Pad2)*%
X115810000Y-90950000D03*
D17*
%TO.P,R3,2*%
%TO.N,GND*%
X125970000Y-90950000D03*
%TD*%
D18*
%TO.P,Q1,1,C*%
%TO.N,Net-(Q1-Pad1)*%
X113670000Y-86950000D03*
D19*
%TO.P,Q1,2,B*%
%TO.N,Net-(C1-Pad1)*%
X114940000Y-86950000D03*
%TO.P,Q1,3,E*%
%TO.N,Net-(C3-Pad2)*%
X116210000Y-86950000D03*
%TD*%
D14*
%TO.P,C5,1*%
%TO.N,Net-(C5-Pad1)*%
X140982323Y-89620000D03*
D15*
%TO.P,C5,2*%
%TO.N,Net-(C5-Pad2)*%
X145982323Y-89620000D03*
%TD*%
D16*
%TO.P,R2,1*%
%TO.N,Net-(C2-Pad1)*%
X106080000Y-95260000D03*
D17*
%TO.P,R2,2*%
%TO.N,Net-(Q1-Pad1)*%
X106080000Y-85100000D03*
%TD*%
D10*
%TO.P,J1,1,Pin_1*%
%TO.N,GND*%
X99330000Y-88600000D03*
D11*
%TO.P,J1,2,Pin_2*%
%TO.N,Net-(C1-Pad2)*%
X99330000Y-86060000D03*
%TD*%
D16*
%TO.P,R7,1*%
%TO.N,Net-(C2-Pad1)*%
X142590000Y-81720000D03*
D17*
%TO.P,R7,2*%
%TO.N,Net-(C5-Pad1)*%
X132430000Y-81720000D03*
%TD*%
D10*
%TO.P,J2,1,Pin_1*%
%TO.N,Net-(C5-Pad2)*%
X139330000Y-72965000D03*
D11*
%TO.P,J2,2,Pin_2*%
%TO.N,GND*%
X136790000Y-72965000D03*
%TD*%
D20*
%TO.P,RV1,1,1*%
%TO.N,Net-(C3-Pad1)*%
X133275000Y-93460000D03*
%TO.P,RV1,2,2*%
X135775000Y-95960000D03*
%TO.P,RV1,3,3*%
%TO.N,Net-(R6-Pad1)*%
X133275000Y-98460000D03*
%TD*%
D21*
%TO.P,C4,1*%
%TO.N,Net-(C4-Pad1)*%
X106029794Y-74530000D03*
D22*
%TO.P,C4,2*%
%TO.N,GND*%
X113529794Y-74530000D03*
%TD*%
D16*
%TO.P,R6,1*%
%TO.N,Net-(R6-Pad1)*%
X139550000Y-95960000D03*
D17*
%TO.P,R6,2*%
%TO.N,Net-(C5-Pad1)*%
X139550000Y-106120000D03*
%TD*%
D16*
%TO.P,R8,1*%
%TO.N,VCC*%
X132430000Y-78150000D03*
D17*
%TO.P,R8,2*%
%TO.N,Net-(C2-Pad1)*%
X142590000Y-78150000D03*
%TD*%
D14*
%TO.P,C2,1*%
%TO.N,Net-(C2-Pad1)*%
X103390000Y-104037677D03*
D15*
%TO.P,C2,2*%
%TO.N,GND*%
X103390000Y-99037677D03*
%TD*%
D23*
%TO.N,Net-(C1-Pad1)*%
X109710000Y-93180000D02*
X109710000Y-94450000D01*
X119457677Y-100167677D02*
X113740000Y-94450000D01*
X114940000Y-86950000D02*
X114940000Y-87950000D01*
X113740000Y-94450000D02*
X109710000Y-94450000D01*
X114940000Y-87950000D02*
X109710000Y-93180000D01*
X119457677Y-102430000D02*
X119457677Y-100167677D01*
%TO.N,Net-(C1-Pad2)*%
X96690000Y-88700000D02*
X96690000Y-105990000D01*
X99330000Y-86060000D02*
X96690000Y-88700000D01*
X96690000Y-105990000D02*
X97800000Y-107100000D01*
X97800000Y-107100000D02*
X109787677Y-107100000D01*
X109787677Y-107100000D02*
X114457677Y-102430000D01*
%TO.N,Net-(C2-Pad1)*%
X104452323Y-104037677D02*
X106080000Y-102410000D01*
X142590000Y-78150000D02*
X142590000Y-81720000D01*
X106080000Y-102410000D02*
X106080000Y-95260000D01*
X103390000Y-104037677D02*
X104452323Y-104037677D01*
%TO.N,GND*%
X124050000Y-72300000D02*
X124050000Y-74415000D01*
X99330000Y-88600000D02*
X99330000Y-94977677D01*
X125340000Y-91580000D02*
X125970000Y-90950000D01*
X124050000Y-74415000D02*
X113644794Y-74415000D01*
X125970000Y-90950000D02*
X126080000Y-90840000D01*
X125340000Y-96080000D02*
X125340000Y-91580000D01*
X99330000Y-94977677D02*
X103390000Y-99037677D01*
X128980000Y-71110000D02*
X125240000Y-71110000D01*
X126080000Y-90840000D02*
X126080000Y-90590000D01*
X125240000Y-71110000D02*
X124050000Y-72300000D01*
X113644794Y-74415000D02*
X113529794Y-74530000D01*
X136790000Y-72965000D02*
X130835000Y-72965000D01*
X130835000Y-72965000D02*
X128980000Y-71110000D01*
%TO.N,Net-(C3-Pad1)*%
X133275000Y-93460000D02*
X125695000Y-85880000D01*
X133275000Y-93460000D02*
X135775000Y-95960000D01*
X125695000Y-85880000D02*
X124020000Y-85880000D01*
%TO.N,Net-(C3-Pad2)*%
X115810000Y-90950000D02*
X115810000Y-87350000D01*
X115810000Y-87350000D02*
X116210000Y-86950000D01*
%TO.N,Net-(C4-Pad1)*%
X106029794Y-74530000D02*
X95490000Y-85069794D01*
X142060000Y-94650000D02*
X135440000Y-88030000D01*
X139270000Y-101280000D02*
X142060000Y-98490000D01*
X142060000Y-98490000D02*
X142060000Y-94650000D01*
X130030000Y-96080000D02*
X130030000Y-99610000D01*
X128180000Y-100400000D02*
X128180000Y-96750000D01*
X132650000Y-104870000D02*
X128180000Y-100400000D01*
X128180000Y-96750000D02*
X128850000Y-96080000D01*
X95490000Y-107180000D02*
X96610000Y-108300000D01*
X131700000Y-101280000D02*
X139270000Y-101280000D01*
X132650000Y-106860000D02*
X132650000Y-104870000D01*
X128850000Y-96080000D02*
X130030000Y-96080000D01*
X96610000Y-108300000D02*
X131210000Y-108300000D01*
X95490000Y-85069794D02*
X95490000Y-107180000D01*
X130030000Y-99610000D02*
X131700000Y-101280000D01*
X135440000Y-88030000D02*
X132540000Y-88030000D01*
X131210000Y-108300000D02*
X132650000Y-106860000D01*
%TO.N,Net-(C5-Pad1)*%
X136852323Y-85490000D02*
X140982323Y-89620000D01*
X141930000Y-89620000D02*
X140982323Y-89620000D01*
X132430000Y-81720000D02*
X132430000Y-85380000D01*
X143220000Y-102450000D02*
X143220000Y-90910000D01*
X143220000Y-90910000D02*
X141930000Y-89620000D01*
X132430000Y-85380000D02*
X132540000Y-85490000D01*
X132540000Y-85490000D02*
X136852323Y-85490000D01*
X139550000Y-106120000D02*
X143220000Y-102450000D01*
%TO.N,Net-(C5-Pad2)*%
X145982323Y-77502323D02*
X145982323Y-89620000D01*
X139330000Y-72965000D02*
X141445000Y-72965000D01*
X141445000Y-72965000D02*
X145982323Y-77502323D01*
%TO.N,Net-(Q1-Pad1)*%
X110540000Y-86950000D02*
X108690000Y-85100000D01*
X113670000Y-86950000D02*
X113670000Y-86725000D01*
X116175000Y-83580000D02*
X127470000Y-83580000D01*
X113670000Y-86725000D02*
X113350000Y-86405000D01*
X127470000Y-83580000D02*
X130650000Y-86760000D01*
X113350000Y-86405000D02*
X116175000Y-83580000D01*
X130650000Y-86760000D02*
X132540000Y-86760000D01*
X108690000Y-85100000D02*
X106080000Y-85100000D01*
X113670000Y-86950000D02*
X110540000Y-86950000D01*
%TO.N,Net-(R1-Pad2)*%
X125340000Y-99920000D02*
X119870000Y-94450000D01*
X125340000Y-106240000D02*
X130030000Y-106240000D01*
X125340000Y-106240000D02*
X125340000Y-99920000D01*
%TO.N,Net-(R6-Pad1)*%
X138790000Y-98460000D02*
X133275000Y-98460000D01*
X139550000Y-97700000D02*
X138790000Y-98460000D01*
X139550000Y-95960000D02*
X139550000Y-97700000D01*
%TO.N,VCC*%
X128695000Y-74415000D02*
X132430000Y-78150000D01*
X126590000Y-74415000D02*
X128695000Y-74415000D01*
%TD*%
%TA.AperFunction,Conductor*%
%TO.N,VCC*%
G36*
X148042121Y-66010002D02*
G01*
X148088614Y-66063658D01*
X148100000Y-66116000D01*
X148100000Y-108756000D01*
X148079998Y-108824121D01*
X148026342Y-108870614D01*
X147974000Y-108882000D01*
X131828094Y-108882000D01*
X131759973Y-108861998D01*
X131713480Y-108808342D01*
X131703376Y-108738068D01*
X131732870Y-108673488D01*
X131738999Y-108666905D01*
X133042247Y-107363657D01*
X133050537Y-107356113D01*
X133057018Y-107352000D01*
X133103659Y-107302332D01*
X133106413Y-107299491D01*
X133126135Y-107279769D01*
X133128612Y-107276576D01*
X133136317Y-107267555D01*
X133148702Y-107254366D01*
X133166586Y-107235321D01*
X133172889Y-107223856D01*
X133176346Y-107217568D01*
X133187202Y-107201041D01*
X133194757Y-107191302D01*
X133194758Y-107191300D01*
X133199614Y-107185040D01*
X133217174Y-107144460D01*
X133222391Y-107133812D01*
X133239875Y-107102009D01*
X133239876Y-107102007D01*
X133243695Y-107095060D01*
X133248733Y-107075437D01*
X133255137Y-107056734D01*
X133260033Y-107045420D01*
X133260033Y-107045419D01*
X133263181Y-107038145D01*
X133264420Y-107030322D01*
X133264423Y-107030312D01*
X133270099Y-106994476D01*
X133272505Y-106982856D01*
X133281528Y-106947711D01*
X133281528Y-106947710D01*
X133283500Y-106940030D01*
X133283500Y-106919776D01*
X133285051Y-106900065D01*
X133286091Y-106893502D01*
X133288220Y-106880057D01*
X133284059Y-106836038D01*
X133283500Y-106824181D01*
X133283500Y-104948768D01*
X133284027Y-104937585D01*
X133285702Y-104930092D01*
X133283562Y-104862001D01*
X133283500Y-104858044D01*
X133283500Y-104830144D01*
X133282996Y-104826153D01*
X133282063Y-104814311D01*
X133281955Y-104810848D01*
X133280674Y-104770111D01*
X133275021Y-104750652D01*
X133271012Y-104731293D01*
X133270846Y-104729983D01*
X133268474Y-104711203D01*
X133265558Y-104703837D01*
X133265556Y-104703831D01*
X133252200Y-104670098D01*
X133248355Y-104658868D01*
X133238230Y-104624017D01*
X133238230Y-104624016D01*
X133236019Y-104616407D01*
X133225705Y-104598966D01*
X133217008Y-104581213D01*
X133212472Y-104569758D01*
X133209552Y-104562383D01*
X133183563Y-104526612D01*
X133177047Y-104516692D01*
X133154542Y-104478638D01*
X133140221Y-104464317D01*
X133127380Y-104449283D01*
X133120131Y-104439306D01*
X133115472Y-104432893D01*
X133081395Y-104404702D01*
X133072616Y-104396712D01*
X128850405Y-100174500D01*
X128816379Y-100112188D01*
X128813500Y-100085405D01*
X128813500Y-97064595D01*
X128833502Y-96996474D01*
X128850406Y-96975498D01*
X128873610Y-96952295D01*
X128935923Y-96918271D01*
X129006739Y-96923337D01*
X129051799Y-96952297D01*
X129185700Y-97086198D01*
X129190208Y-97089355D01*
X129190211Y-97089357D01*
X129342771Y-97196181D01*
X129387099Y-97251638D01*
X129396500Y-97299394D01*
X129396500Y-99531233D01*
X129395973Y-99542416D01*
X129394298Y-99549909D01*
X129394547Y-99557835D01*
X129394547Y-99557836D01*
X129396438Y-99617986D01*
X129396500Y-99621945D01*
X129396500Y-99649856D01*
X129396997Y-99653790D01*
X129396997Y-99653791D01*
X129397005Y-99653856D01*
X129397938Y-99665693D01*
X129399327Y-99709889D01*
X129404978Y-99729339D01*
X129408987Y-99748700D01*
X129411526Y-99768797D01*
X129414445Y-99776168D01*
X129414445Y-99776170D01*
X129427804Y-99809912D01*
X129431649Y-99821142D01*
X129443982Y-99863593D01*
X129448015Y-99870412D01*
X129448017Y-99870417D01*
X129454293Y-99881028D01*
X129462988Y-99898776D01*
X129470448Y-99917617D01*
X129475110Y-99924033D01*
X129475110Y-99924034D01*
X129496436Y-99953387D01*
X129502952Y-99963307D01*
X129525458Y-100001362D01*
X129539779Y-100015683D01*
X129552619Y-100030716D01*
X129564528Y-100047107D01*
X129589526Y-100067787D01*
X129598605Y-100075298D01*
X129607384Y-100083288D01*
X131196343Y-101672247D01*
X131203887Y-101680537D01*
X131208000Y-101687018D01*
X131213777Y-101692443D01*
X131257667Y-101733658D01*
X131260509Y-101736413D01*
X131280231Y-101756135D01*
X131283355Y-101758558D01*
X131283359Y-101758562D01*
X131283424Y-101758612D01*
X131292445Y-101766317D01*
X131324679Y-101796586D01*
X131331627Y-101800405D01*
X131331629Y-101800407D01*
X131342432Y-101806346D01*
X131358959Y-101817202D01*
X131368698Y-101824757D01*
X131368700Y-101824758D01*
X131374960Y-101829614D01*
X131415540Y-101847174D01*
X131426188Y-101852391D01*
X131450976Y-101866018D01*
X131464940Y-101873695D01*
X131472616Y-101875666D01*
X131472619Y-101875667D01*
X131484562Y-101878733D01*
X131503267Y-101885137D01*
X131521855Y-101893181D01*
X131529678Y-101894420D01*
X131529688Y-101894423D01*
X131565524Y-101900099D01*
X131577144Y-101902505D01*
X131608959Y-101910673D01*
X131619970Y-101913500D01*
X131640224Y-101913500D01*
X131659934Y-101915051D01*
X131679943Y-101918220D01*
X131687835Y-101917474D01*
X131706580Y-101915702D01*
X131723962Y-101914059D01*
X131735819Y-101913500D01*
X139191233Y-101913500D01*
X139202416Y-101914027D01*
X139209909Y-101915702D01*
X139217835Y-101915453D01*
X139217836Y-101915453D01*
X139277986Y-101913562D01*
X139281945Y-101913500D01*
X139309856Y-101913500D01*
X139313791Y-101913003D01*
X139313856Y-101912995D01*
X139325693Y-101912062D01*
X139357951Y-101911048D01*
X139361970Y-101910922D01*
X139369889Y-101910673D01*
X139389343Y-101905021D01*
X139408700Y-101901013D01*
X139420930Y-101899468D01*
X139420931Y-101899468D01*
X139428797Y-101898474D01*
X139436168Y-101895555D01*
X139436170Y-101895555D01*
X139469912Y-101882196D01*
X139481142Y-101878351D01*
X139515983Y-101868229D01*
X139515984Y-101868229D01*
X139523593Y-101866018D01*
X139530412Y-101861985D01*
X139530417Y-101861983D01*
X139541028Y-101855707D01*
X139558776Y-101847012D01*
X139577617Y-101839552D01*
X139613387Y-101813564D01*
X139623307Y-101807048D01*
X139654535Y-101788580D01*
X139654538Y-101788578D01*
X139661362Y-101784542D01*
X139675683Y-101770221D01*
X139690717Y-101757380D01*
X139692431Y-101756135D01*
X139707107Y-101745472D01*
X139735298Y-101711395D01*
X139743288Y-101702616D01*
X142371405Y-99074500D01*
X142433717Y-99040474D01*
X142504533Y-99045539D01*
X142561368Y-99088086D01*
X142586179Y-99154606D01*
X142586500Y-99163595D01*
X142586500Y-102135406D01*
X142566498Y-102203527D01*
X142549595Y-102224501D01*
X139963248Y-104810848D01*
X139900936Y-104844874D01*
X139841541Y-104843459D01*
X139783409Y-104827882D01*
X139783398Y-104827880D01*
X139778087Y-104826457D01*
X139550000Y-104806502D01*
X139321913Y-104826457D01*
X139316600Y-104827881D01*
X139316598Y-104827881D01*
X139106067Y-104884293D01*
X139106065Y-104884294D01*
X139100757Y-104885716D01*
X139095776Y-104888039D01*
X139095775Y-104888039D01*
X138898238Y-104980151D01*
X138898233Y-104980154D01*
X138893251Y-104982477D01*
X138788389Y-105055902D01*
X138710211Y-105110643D01*
X138710208Y-105110645D01*
X138705700Y-105113802D01*
X138543802Y-105275700D01*
X138540645Y-105280208D01*
X138540643Y-105280211D01*
X138532691Y-105291568D01*
X138412477Y-105463251D01*
X138410154Y-105468233D01*
X138410151Y-105468238D01*
X138356520Y-105583251D01*
X138315716Y-105670757D01*
X138314294Y-105676065D01*
X138314293Y-105676067D01*
X138257883Y-105886591D01*
X138256457Y-105891913D01*
X138236502Y-106120000D01*
X138256457Y-106348087D01*
X138315716Y-106569243D01*
X138318039Y-106574224D01*
X138318039Y-106574225D01*
X138410151Y-106771762D01*
X138410154Y-106771767D01*
X138412477Y-106776749D01*
X138474555Y-106865405D01*
X138517845Y-106927229D01*
X138543802Y-106964300D01*
X138705700Y-107126198D01*
X138710208Y-107129355D01*
X138710211Y-107129357D01*
X138724003Y-107139014D01*
X138893251Y-107257523D01*
X138898233Y-107259846D01*
X138898238Y-107259849D01*
X139083356Y-107346170D01*
X139100757Y-107354284D01*
X139106065Y-107355706D01*
X139106067Y-107355707D01*
X139316598Y-107412119D01*
X139316600Y-107412119D01*
X139321913Y-107413543D01*
X139550000Y-107433498D01*
X139778087Y-107413543D01*
X139783400Y-107412119D01*
X139783402Y-107412119D01*
X139993933Y-107355707D01*
X139993935Y-107355706D01*
X139999243Y-107354284D01*
X140016644Y-107346170D01*
X140201762Y-107259849D01*
X140201767Y-107259846D01*
X140206749Y-107257523D01*
X140375997Y-107139014D01*
X140389789Y-107129357D01*
X140389792Y-107129355D01*
X140394300Y-107126198D01*
X140556198Y-106964300D01*
X140582156Y-106927229D01*
X140625445Y-106865405D01*
X140687523Y-106776749D01*
X140689846Y-106771767D01*
X140689849Y-106771762D01*
X140781961Y-106574225D01*
X140781961Y-106574224D01*
X140784284Y-106569243D01*
X140843543Y-106348087D01*
X140863498Y-106120000D01*
X140843543Y-105891913D01*
X140842119Y-105886598D01*
X140842118Y-105886591D01*
X140826541Y-105828459D01*
X140828230Y-105757483D01*
X140859152Y-105706752D01*
X143612253Y-102953652D01*
X143620539Y-102946112D01*
X143627018Y-102942000D01*
X143673644Y-102892348D01*
X143676398Y-102889507D01*
X143696135Y-102869770D01*
X143698615Y-102866573D01*
X143706320Y-102857551D01*
X143731159Y-102831100D01*
X143736586Y-102825321D01*
X143740405Y-102818375D01*
X143740407Y-102818372D01*
X143746348Y-102807566D01*
X143757199Y-102791047D01*
X143764758Y-102781301D01*
X143769614Y-102775041D01*
X143772759Y-102767772D01*
X143772762Y-102767768D01*
X143787174Y-102734463D01*
X143792391Y-102723813D01*
X143813695Y-102685060D01*
X143818733Y-102665437D01*
X143825137Y-102646734D01*
X143830033Y-102635420D01*
X143830033Y-102635419D01*
X143833181Y-102628145D01*
X143834420Y-102620322D01*
X143834423Y-102620312D01*
X143840099Y-102584476D01*
X143842505Y-102572856D01*
X143851528Y-102537711D01*
X143851528Y-102537710D01*
X143853500Y-102530030D01*
X143853500Y-102509776D01*
X143855051Y-102490065D01*
X143856980Y-102477886D01*
X143858220Y-102470057D01*
X143854059Y-102426038D01*
X143853500Y-102414181D01*
X143853500Y-90988763D01*
X143854027Y-90977579D01*
X143855701Y-90970091D01*
X143853562Y-90902032D01*
X143853500Y-90898075D01*
X143853500Y-90870144D01*
X143852994Y-90866138D01*
X143852061Y-90854292D01*
X143851825Y-90846759D01*
X143850673Y-90810110D01*
X143845022Y-90790658D01*
X143841014Y-90771306D01*
X143839468Y-90759068D01*
X143839467Y-90759066D01*
X143838474Y-90751203D01*
X143822194Y-90710086D01*
X143818359Y-90698885D01*
X143806018Y-90656406D01*
X143801985Y-90649587D01*
X143801983Y-90649582D01*
X143795707Y-90638971D01*
X143787010Y-90621221D01*
X143779552Y-90602383D01*
X143753571Y-90566623D01*
X143747053Y-90556701D01*
X143728578Y-90525460D01*
X143728574Y-90525455D01*
X143724542Y-90518637D01*
X143710218Y-90504313D01*
X143697376Y-90489278D01*
X143685472Y-90472893D01*
X143651406Y-90444711D01*
X143642627Y-90436722D01*
X142527728Y-89321823D01*
X142493702Y-89259511D01*
X142490823Y-89232728D01*
X142490823Y-88571866D01*
X142484068Y-88509684D01*
X142432938Y-88373295D01*
X142345584Y-88256739D01*
X142229028Y-88169385D01*
X142092639Y-88118255D01*
X142030457Y-88111500D01*
X140421917Y-88111500D01*
X140353796Y-88091498D01*
X140332822Y-88074595D01*
X137355975Y-85097747D01*
X137348435Y-85089461D01*
X137344323Y-85082982D01*
X137323099Y-85063051D01*
X137294672Y-85036357D01*
X137291830Y-85033602D01*
X137272093Y-85013865D01*
X137268896Y-85011385D01*
X137259874Y-85003680D01*
X137227644Y-84973414D01*
X137220698Y-84969595D01*
X137220695Y-84969593D01*
X137209889Y-84963652D01*
X137193370Y-84952801D01*
X137185811Y-84946938D01*
X137177364Y-84940386D01*
X137170095Y-84937241D01*
X137170091Y-84937238D01*
X137136786Y-84922826D01*
X137126136Y-84917609D01*
X137087383Y-84896305D01*
X137067760Y-84891267D01*
X137049057Y-84884863D01*
X137037743Y-84879967D01*
X137037742Y-84879967D01*
X137030468Y-84876819D01*
X137022645Y-84875580D01*
X137022635Y-84875577D01*
X136986799Y-84869901D01*
X136975179Y-84867495D01*
X136940034Y-84858472D01*
X136940033Y-84858472D01*
X136932353Y-84856500D01*
X136912099Y-84856500D01*
X136892388Y-84854949D01*
X136880209Y-84853020D01*
X136872380Y-84851780D01*
X136864488Y-84852526D01*
X136828362Y-84855941D01*
X136816504Y-84856500D01*
X133879754Y-84856500D01*
X133811633Y-84836498D01*
X133765140Y-84782842D01*
X133761772Y-84774730D01*
X133743767Y-84726703D01*
X133740615Y-84718295D01*
X133653261Y-84601739D01*
X133536705Y-84514385D01*
X133400316Y-84463255D01*
X133338134Y-84456500D01*
X133189500Y-84456500D01*
X133121379Y-84436498D01*
X133074886Y-84382842D01*
X133063500Y-84330500D01*
X133063500Y-82939394D01*
X133083502Y-82871273D01*
X133117229Y-82836181D01*
X133269789Y-82729357D01*
X133269792Y-82729355D01*
X133274300Y-82726198D01*
X133436198Y-82564300D01*
X133567523Y-82376749D01*
X133569846Y-82371767D01*
X133569849Y-82371762D01*
X133661961Y-82174225D01*
X133661961Y-82174224D01*
X133664284Y-82169243D01*
X133723543Y-81948087D01*
X133743498Y-81720000D01*
X141276502Y-81720000D01*
X141296457Y-81948087D01*
X141355716Y-82169243D01*
X141358039Y-82174224D01*
X141358039Y-82174225D01*
X141450151Y-82371762D01*
X141450154Y-82371767D01*
X141452477Y-82376749D01*
X141583802Y-82564300D01*
X141745700Y-82726198D01*
X141750208Y-82729355D01*
X141750211Y-82729357D01*
X141828389Y-82784098D01*
X141933251Y-82857523D01*
X141938233Y-82859846D01*
X141938238Y-82859849D01*
X142134868Y-82951538D01*
X142140757Y-82954284D01*
X142146065Y-82955706D01*
X142146067Y-82955707D01*
X142356598Y-83012119D01*
X142356600Y-83012119D01*
X142361913Y-83013543D01*
X142590000Y-83033498D01*
X142818087Y-83013543D01*
X142823400Y-83012119D01*
X142823402Y-83012119D01*
X143033933Y-82955707D01*
X143033935Y-82955706D01*
X143039243Y-82954284D01*
X143045132Y-82951538D01*
X143241762Y-82859849D01*
X143241767Y-82859846D01*
X143246749Y-82857523D01*
X143351611Y-82784098D01*
X143429789Y-82729357D01*
X143429792Y-82729355D01*
X143434300Y-82726198D01*
X143596198Y-82564300D01*
X143727523Y-82376749D01*
X143729846Y-82371767D01*
X143729849Y-82371762D01*
X143821961Y-82174225D01*
X143821961Y-82174224D01*
X143824284Y-82169243D01*
X143883543Y-81948087D01*
X143903498Y-81720000D01*
X143883543Y-81491913D01*
X143824284Y-81270757D01*
X143750151Y-81111777D01*
X143729849Y-81068238D01*
X143729846Y-81068233D01*
X143727523Y-81063251D01*
X143596198Y-80875700D01*
X143434300Y-80713802D01*
X143429792Y-80710645D01*
X143429789Y-80710643D01*
X143277229Y-80603819D01*
X143232901Y-80548362D01*
X143223500Y-80500606D01*
X143223500Y-79369394D01*
X143243502Y-79301273D01*
X143277229Y-79266181D01*
X143429789Y-79159357D01*
X143429792Y-79159355D01*
X143434300Y-79156198D01*
X143596198Y-78994300D01*
X143727523Y-78806749D01*
X143729846Y-78801767D01*
X143729849Y-78801762D01*
X143821961Y-78604225D01*
X143821961Y-78604224D01*
X143824284Y-78599243D01*
X143844976Y-78522022D01*
X143882119Y-78383402D01*
X143882119Y-78383400D01*
X143883543Y-78378087D01*
X143903498Y-78150000D01*
X143883543Y-77921913D01*
X143882119Y-77916598D01*
X143825707Y-77706067D01*
X143825706Y-77706065D01*
X143824284Y-77700757D01*
X143821961Y-77695775D01*
X143729849Y-77498238D01*
X143729846Y-77498233D01*
X143727523Y-77493251D01*
X143636753Y-77363618D01*
X143599357Y-77310211D01*
X143599355Y-77310208D01*
X143596198Y-77305700D01*
X143434300Y-77143802D01*
X143429792Y-77140645D01*
X143429789Y-77140643D01*
X143337059Y-77075713D01*
X143246749Y-77012477D01*
X143241767Y-77010154D01*
X143241762Y-77010151D01*
X143044225Y-76918039D01*
X143044224Y-76918039D01*
X143039243Y-76915716D01*
X143033935Y-76914294D01*
X143033933Y-76914293D01*
X142823402Y-76857881D01*
X142823400Y-76857881D01*
X142818087Y-76856457D01*
X142590000Y-76836502D01*
X142361913Y-76856457D01*
X142356600Y-76857881D01*
X142356598Y-76857881D01*
X142146067Y-76914293D01*
X142146065Y-76914294D01*
X142140757Y-76915716D01*
X142135776Y-76918039D01*
X142135775Y-76918039D01*
X141938238Y-77010151D01*
X141938233Y-77010154D01*
X141933251Y-77012477D01*
X141842941Y-77075713D01*
X141750211Y-77140643D01*
X141750208Y-77140645D01*
X141745700Y-77143802D01*
X141583802Y-77305700D01*
X141580645Y-77310208D01*
X141580643Y-77310211D01*
X141543247Y-77363618D01*
X141452477Y-77493251D01*
X141450154Y-77498233D01*
X141450151Y-77498238D01*
X141358039Y-77695775D01*
X141355716Y-77700757D01*
X141354294Y-77706065D01*
X141354293Y-77706067D01*
X141297881Y-77916598D01*
X141296457Y-77921913D01*
X141276502Y-78150000D01*
X141296457Y-78378087D01*
X141297881Y-78383400D01*
X141297881Y-78383402D01*
X141335025Y-78522022D01*
X141355716Y-78599243D01*
X141358039Y-78604224D01*
X141358039Y-78604225D01*
X141450151Y-78801762D01*
X141450154Y-78801767D01*
X141452477Y-78806749D01*
X141583802Y-78994300D01*
X141745700Y-79156198D01*
X141750208Y-79159355D01*
X141750211Y-79159357D01*
X141902771Y-79266181D01*
X141947099Y-79321638D01*
X141956500Y-79369394D01*
X141956500Y-80500606D01*
X141936498Y-80568727D01*
X141902771Y-80603819D01*
X141750211Y-80710643D01*
X141750208Y-80710645D01*
X141745700Y-80713802D01*
X141583802Y-80875700D01*
X141452477Y-81063251D01*
X141450154Y-81068233D01*
X141450151Y-81068238D01*
X141429849Y-81111777D01*
X141355716Y-81270757D01*
X141296457Y-81491913D01*
X141276502Y-81720000D01*
X133743498Y-81720000D01*
X133723543Y-81491913D01*
X133664284Y-81270757D01*
X133590151Y-81111777D01*
X133569849Y-81068238D01*
X133569846Y-81068233D01*
X133567523Y-81063251D01*
X133436198Y-80875700D01*
X133274300Y-80713802D01*
X133269792Y-80710645D01*
X133269789Y-80710643D01*
X133173597Y-80643289D01*
X133086749Y-80582477D01*
X133081767Y-80580154D01*
X133081762Y-80580151D01*
X132884225Y-80488039D01*
X132884224Y-80488039D01*
X132879243Y-80485716D01*
X132873935Y-80484294D01*
X132873933Y-80484293D01*
X132663402Y-80427881D01*
X132663400Y-80427881D01*
X132658087Y-80426457D01*
X132430000Y-80406502D01*
X132201913Y-80426457D01*
X132196600Y-80427881D01*
X132196598Y-80427881D01*
X131986067Y-80484293D01*
X131986065Y-80484294D01*
X131980757Y-80485716D01*
X131975776Y-80488039D01*
X131975775Y-80488039D01*
X131778238Y-80580151D01*
X131778233Y-80580154D01*
X131773251Y-80582477D01*
X131686403Y-80643289D01*
X131590211Y-80710643D01*
X131590208Y-80710645D01*
X131585700Y-80713802D01*
X131423802Y-80875700D01*
X131292477Y-81063251D01*
X131290154Y-81068233D01*
X131290151Y-81068238D01*
X131269849Y-81111777D01*
X131195716Y-81270757D01*
X131136457Y-81491913D01*
X131116502Y-81720000D01*
X131136457Y-81948087D01*
X131195716Y-82169243D01*
X131198039Y-82174224D01*
X131198039Y-82174225D01*
X131290151Y-82371762D01*
X131290154Y-82371767D01*
X131292477Y-82376749D01*
X131423802Y-82564300D01*
X131585700Y-82726198D01*
X131590208Y-82729355D01*
X131590211Y-82729357D01*
X131742771Y-82836181D01*
X131787099Y-82891638D01*
X131796500Y-82939394D01*
X131796500Y-84337511D01*
X131776498Y-84405632D01*
X131722842Y-84452125D01*
X131695031Y-84459772D01*
X131695222Y-84460575D01*
X131687540Y-84462402D01*
X131679684Y-84463255D01*
X131543295Y-84514385D01*
X131426739Y-84601739D01*
X131339385Y-84718295D01*
X131288255Y-84854684D01*
X131281500Y-84916866D01*
X131281500Y-86000500D01*
X131261498Y-86068621D01*
X131207842Y-86115114D01*
X131155500Y-86126500D01*
X130964594Y-86126500D01*
X130896473Y-86106498D01*
X130875499Y-86089595D01*
X129439118Y-84653213D01*
X127973652Y-83187747D01*
X127966112Y-83179461D01*
X127962000Y-83172982D01*
X127912348Y-83126356D01*
X127909507Y-83123602D01*
X127889770Y-83103865D01*
X127886573Y-83101385D01*
X127877551Y-83093680D01*
X127864116Y-83081064D01*
X127845321Y-83063414D01*
X127838375Y-83059595D01*
X127838372Y-83059593D01*
X127827566Y-83053652D01*
X127811047Y-83042801D01*
X127810583Y-83042441D01*
X127795041Y-83030386D01*
X127787772Y-83027241D01*
X127787768Y-83027238D01*
X127754463Y-83012826D01*
X127743813Y-83007609D01*
X127705060Y-82986305D01*
X127685437Y-82981267D01*
X127666734Y-82974863D01*
X127655420Y-82969967D01*
X127655419Y-82969967D01*
X127648145Y-82966819D01*
X127640322Y-82965580D01*
X127640312Y-82965577D01*
X127604476Y-82959901D01*
X127592856Y-82957495D01*
X127557711Y-82948472D01*
X127557710Y-82948472D01*
X127550030Y-82946500D01*
X127529776Y-82946500D01*
X127510065Y-82944949D01*
X127497886Y-82943020D01*
X127490057Y-82941780D01*
X127460786Y-82944547D01*
X127446039Y-82945941D01*
X127434181Y-82946500D01*
X116253767Y-82946500D01*
X116242584Y-82945973D01*
X116235091Y-82944298D01*
X116227165Y-82944547D01*
X116227164Y-82944547D01*
X116167014Y-82946438D01*
X116163055Y-82946500D01*
X116135144Y-82946500D01*
X116131210Y-82946997D01*
X116131209Y-82946997D01*
X116131144Y-82947005D01*
X116119307Y-82947938D01*
X116087490Y-82948938D01*
X116083029Y-82949078D01*
X116075110Y-82949327D01*
X116058047Y-82954284D01*
X116055658Y-82954978D01*
X116036306Y-82958986D01*
X116029235Y-82959880D01*
X116016203Y-82961526D01*
X116008834Y-82964443D01*
X116008832Y-82964444D01*
X115975097Y-82977800D01*
X115963869Y-82981645D01*
X115921407Y-82993982D01*
X115914585Y-82998016D01*
X115914579Y-82998019D01*
X115903968Y-83004294D01*
X115886218Y-83012990D01*
X115874756Y-83017528D01*
X115874751Y-83017531D01*
X115867383Y-83020448D01*
X115850080Y-83033019D01*
X115831625Y-83046427D01*
X115821707Y-83052943D01*
X115810463Y-83059593D01*
X115783637Y-83075458D01*
X115769313Y-83089782D01*
X115754281Y-83102621D01*
X115737893Y-83114528D01*
X115709712Y-83148593D01*
X115701722Y-83157373D01*
X113204500Y-85654595D01*
X113142188Y-85688621D01*
X113115405Y-85691500D01*
X113096866Y-85691500D01*
X113034684Y-85698255D01*
X112898295Y-85749385D01*
X112781739Y-85836739D01*
X112694385Y-85953295D01*
X112643255Y-86089684D01*
X112636500Y-86151866D01*
X112636500Y-86190500D01*
X112616498Y-86258621D01*
X112562842Y-86305114D01*
X112510500Y-86316500D01*
X110854594Y-86316500D01*
X110786473Y-86296498D01*
X110765499Y-86279595D01*
X109193652Y-84707747D01*
X109186112Y-84699461D01*
X109182000Y-84692982D01*
X109132348Y-84646356D01*
X109129507Y-84643602D01*
X109109770Y-84623865D01*
X109106573Y-84621385D01*
X109097551Y-84613680D01*
X109071100Y-84588841D01*
X109065321Y-84583414D01*
X109058375Y-84579595D01*
X109058372Y-84579593D01*
X109047566Y-84573652D01*
X109031047Y-84562801D01*
X109030583Y-84562441D01*
X109015041Y-84550386D01*
X109007772Y-84547241D01*
X109007768Y-84547238D01*
X108974463Y-84532826D01*
X108963813Y-84527609D01*
X108925060Y-84506305D01*
X108905437Y-84501267D01*
X108886734Y-84494863D01*
X108875420Y-84489967D01*
X108875419Y-84489967D01*
X108868145Y-84486819D01*
X108860322Y-84485580D01*
X108860312Y-84485577D01*
X108824476Y-84479901D01*
X108812856Y-84477495D01*
X108777711Y-84468472D01*
X108777710Y-84468472D01*
X108770030Y-84466500D01*
X108749776Y-84466500D01*
X108730065Y-84464949D01*
X108717886Y-84463020D01*
X108710057Y-84461780D01*
X108702165Y-84462526D01*
X108666039Y-84465941D01*
X108654181Y-84466500D01*
X107299394Y-84466500D01*
X107231273Y-84446498D01*
X107196181Y-84412771D01*
X107089357Y-84260211D01*
X107089355Y-84260208D01*
X107086198Y-84255700D01*
X106924300Y-84093802D01*
X106919792Y-84090645D01*
X106919789Y-84090643D01*
X106841611Y-84035902D01*
X106736749Y-83962477D01*
X106731767Y-83960154D01*
X106731762Y-83960151D01*
X106534225Y-83868039D01*
X106534224Y-83868039D01*
X106529243Y-83865716D01*
X106523935Y-83864294D01*
X106523933Y-83864293D01*
X106313402Y-83807881D01*
X106313400Y-83807881D01*
X106308087Y-83806457D01*
X106080000Y-83786502D01*
X105851913Y-83806457D01*
X105846600Y-83807881D01*
X105846598Y-83807881D01*
X105636067Y-83864293D01*
X105636065Y-83864294D01*
X105630757Y-83865716D01*
X105625776Y-83868039D01*
X105625775Y-83868039D01*
X105428238Y-83960151D01*
X105428233Y-83960154D01*
X105423251Y-83962477D01*
X105318389Y-84035902D01*
X105240211Y-84090643D01*
X105240208Y-84090645D01*
X105235700Y-84093802D01*
X105073802Y-84255700D01*
X104942477Y-84443251D01*
X104940154Y-84448233D01*
X104940151Y-84448238D01*
X104849938Y-84641703D01*
X104845716Y-84650757D01*
X104844294Y-84656065D01*
X104844293Y-84656067D01*
X104788588Y-84863960D01*
X104786457Y-84871913D01*
X104766502Y-85100000D01*
X104786457Y-85328087D01*
X104787881Y-85333400D01*
X104787881Y-85333402D01*
X104812789Y-85426357D01*
X104845716Y-85549243D01*
X104848039Y-85554224D01*
X104848039Y-85554225D01*
X104940151Y-85751762D01*
X104940154Y-85751767D01*
X104942477Y-85756749D01*
X105073802Y-85944300D01*
X105235700Y-86106198D01*
X105240208Y-86109355D01*
X105240211Y-86109357D01*
X105269561Y-86129908D01*
X105423251Y-86237523D01*
X105428233Y-86239846D01*
X105428238Y-86239849D01*
X105625775Y-86331961D01*
X105630757Y-86334284D01*
X105636065Y-86335706D01*
X105636067Y-86335707D01*
X105846598Y-86392119D01*
X105846600Y-86392119D01*
X105851913Y-86393543D01*
X106080000Y-86413498D01*
X106308087Y-86393543D01*
X106313400Y-86392119D01*
X106313402Y-86392119D01*
X106523933Y-86335707D01*
X106523935Y-86335706D01*
X106529243Y-86334284D01*
X106534225Y-86331961D01*
X106731762Y-86239849D01*
X106731767Y-86239846D01*
X106736749Y-86237523D01*
X106890439Y-86129908D01*
X106919789Y-86109357D01*
X106919792Y-86109355D01*
X106924300Y-86106198D01*
X107086198Y-85944300D01*
X107142394Y-85864044D01*
X107196181Y-85787229D01*
X107251638Y-85742901D01*
X107299394Y-85733500D01*
X108375406Y-85733500D01*
X108443527Y-85753502D01*
X108464501Y-85770405D01*
X110036348Y-87342253D01*
X110043888Y-87350539D01*
X110048000Y-87357018D01*
X110053777Y-87362443D01*
X110097651Y-87403643D01*
X110100493Y-87406398D01*
X110120230Y-87426135D01*
X110123427Y-87428615D01*
X110132447Y-87436318D01*
X110164679Y-87466586D01*
X110171625Y-87470405D01*
X110171628Y-87470407D01*
X110182434Y-87476348D01*
X110198953Y-87487199D01*
X110214959Y-87499614D01*
X110222228Y-87502759D01*
X110222232Y-87502762D01*
X110255537Y-87517174D01*
X110266187Y-87522391D01*
X110304940Y-87543695D01*
X110312615Y-87545666D01*
X110312616Y-87545666D01*
X110324562Y-87548733D01*
X110343266Y-87555137D01*
X110346807Y-87556669D01*
X110361855Y-87563181D01*
X110369678Y-87564420D01*
X110369688Y-87564423D01*
X110405524Y-87570099D01*
X110417144Y-87572505D01*
X110452289Y-87581528D01*
X110459970Y-87583500D01*
X110480224Y-87583500D01*
X110499934Y-87585051D01*
X110519943Y-87588220D01*
X110527835Y-87587474D01*
X110553467Y-87585051D01*
X110563962Y-87584059D01*
X110575819Y-87583500D01*
X112510500Y-87583500D01*
X112578621Y-87603502D01*
X112625114Y-87657158D01*
X112636500Y-87709500D01*
X112636500Y-87748134D01*
X112643255Y-87810316D01*
X112694385Y-87946705D01*
X112781739Y-88063261D01*
X112898295Y-88150615D01*
X113034684Y-88201745D01*
X113096866Y-88208500D01*
X113481406Y-88208500D01*
X113549527Y-88228502D01*
X113596020Y-88282158D01*
X113606124Y-88352432D01*
X113576630Y-88417012D01*
X113570502Y-88423594D01*
X111437394Y-90556701D01*
X109317747Y-92676348D01*
X109309461Y-92683888D01*
X109302982Y-92688000D01*
X109297557Y-92693777D01*
X109256357Y-92737651D01*
X109253602Y-92740493D01*
X109233865Y-92760230D01*
X109231385Y-92763427D01*
X109223682Y-92772447D01*
X109193414Y-92804679D01*
X109189595Y-92811625D01*
X109189593Y-92811628D01*
X109183652Y-92822434D01*
X109172801Y-92838953D01*
X109160386Y-92854959D01*
X109157241Y-92862228D01*
X109157238Y-92862232D01*
X109142826Y-92895537D01*
X109137609Y-92906187D01*
X109116305Y-92944940D01*
X109114334Y-92952615D01*
X109114334Y-92952616D01*
X109111267Y-92964562D01*
X109104863Y-92983266D01*
X109096819Y-93001855D01*
X109095580Y-93009678D01*
X109095577Y-93009688D01*
X109089901Y-93045524D01*
X109087495Y-93057144D01*
X109076500Y-93099970D01*
X109076500Y-93120224D01*
X109074949Y-93139934D01*
X109071780Y-93159943D01*
X109072526Y-93167835D01*
X109075941Y-93203961D01*
X109076500Y-93215819D01*
X109076500Y-93230606D01*
X109056498Y-93298727D01*
X109022771Y-93333819D01*
X108870211Y-93440643D01*
X108870208Y-93440645D01*
X108865700Y-93443802D01*
X108703802Y-93605700D01*
X108572477Y-93793251D01*
X108570154Y-93798233D01*
X108570151Y-93798238D01*
X108491046Y-93967881D01*
X108475716Y-94000757D01*
X108474294Y-94006065D01*
X108474293Y-94006067D01*
X108444627Y-94116781D01*
X108416457Y-94221913D01*
X108396502Y-94450000D01*
X108416457Y-94678087D01*
X108417880Y-94683398D01*
X108417881Y-94683402D01*
X108445367Y-94785978D01*
X108475716Y-94899243D01*
X108478039Y-94904224D01*
X108478039Y-94904225D01*
X108570151Y-95101762D01*
X108570154Y-95101767D01*
X108572477Y-95106749D01*
X108622080Y-95177589D01*
X108692335Y-95277923D01*
X108703802Y-95294300D01*
X108865700Y-95456198D01*
X108870208Y-95459355D01*
X108870211Y-95459357D01*
X108936503Y-95505775D01*
X109053251Y-95587523D01*
X109058233Y-95589846D01*
X109058238Y-95589849D01*
X109255775Y-95681961D01*
X109260757Y-95684284D01*
X109266065Y-95685706D01*
X109266067Y-95685707D01*
X109476598Y-95742119D01*
X109476600Y-95742119D01*
X109481913Y-95743543D01*
X109710000Y-95763498D01*
X109938087Y-95743543D01*
X109943400Y-95742119D01*
X109943402Y-95742119D01*
X110153933Y-95685707D01*
X110153935Y-95685706D01*
X110159243Y-95684284D01*
X110164225Y-95681961D01*
X110361762Y-95589849D01*
X110361767Y-95589846D01*
X110366749Y-95587523D01*
X110483497Y-95505775D01*
X110549789Y-95459357D01*
X110549792Y-95459355D01*
X110554300Y-95456198D01*
X110716198Y-95294300D01*
X110722504Y-95285294D01*
X110826181Y-95137229D01*
X110881638Y-95092901D01*
X110929394Y-95083500D01*
X113425406Y-95083500D01*
X113493527Y-95103502D01*
X113514501Y-95120405D01*
X118787272Y-100393176D01*
X118821298Y-100455488D01*
X118824177Y-100482271D01*
X118824177Y-100795500D01*
X118804175Y-100863621D01*
X118750519Y-100910114D01*
X118698177Y-100921500D01*
X118409543Y-100921500D01*
X118347361Y-100928255D01*
X118210972Y-100979385D01*
X118094416Y-101066739D01*
X118007062Y-101183295D01*
X117955932Y-101319684D01*
X117949177Y-101381866D01*
X117949177Y-103478134D01*
X117955932Y-103540316D01*
X118007062Y-103676705D01*
X118094416Y-103793261D01*
X118210972Y-103880615D01*
X118347361Y-103931745D01*
X118409543Y-103938500D01*
X120505811Y-103938500D01*
X120567993Y-103931745D01*
X120704382Y-103880615D01*
X120820938Y-103793261D01*
X120908292Y-103676705D01*
X120959422Y-103540316D01*
X120966177Y-103478134D01*
X120966177Y-101381866D01*
X120959422Y-101319684D01*
X120908292Y-101183295D01*
X120820938Y-101066739D01*
X120704382Y-100979385D01*
X120567993Y-100928255D01*
X120505811Y-100921500D01*
X120217177Y-100921500D01*
X120149056Y-100901498D01*
X120102563Y-100847842D01*
X120091177Y-100795500D01*
X120091177Y-100246440D01*
X120091704Y-100235256D01*
X120093378Y-100227768D01*
X120091239Y-100159709D01*
X120091177Y-100155752D01*
X120091177Y-100127821D01*
X120090671Y-100123815D01*
X120089738Y-100111969D01*
X120088904Y-100085405D01*
X120088350Y-100067787D01*
X120082699Y-100048335D01*
X120078691Y-100028983D01*
X120077144Y-100016740D01*
X120076151Y-100008880D01*
X120073233Y-100001509D01*
X120059877Y-99967774D01*
X120056032Y-99956547D01*
X120055114Y-99953387D01*
X120043695Y-99914084D01*
X120039661Y-99907262D01*
X120039658Y-99907256D01*
X120033383Y-99896645D01*
X120024687Y-99878895D01*
X120020149Y-99867433D01*
X120020146Y-99867428D01*
X120017229Y-99860060D01*
X120004578Y-99842647D01*
X119991250Y-99824302D01*
X119984734Y-99814384D01*
X119966252Y-99783134D01*
X119962219Y-99776314D01*
X119947895Y-99761990D01*
X119935053Y-99746955D01*
X119923149Y-99730570D01*
X119889083Y-99702388D01*
X119880304Y-99694399D01*
X114243652Y-94057747D01*
X114236112Y-94049461D01*
X114232000Y-94042982D01*
X114182348Y-93996356D01*
X114179507Y-93993602D01*
X114159770Y-93973865D01*
X114156573Y-93971385D01*
X114147551Y-93963680D01*
X114121100Y-93938841D01*
X114115321Y-93933414D01*
X114108375Y-93929595D01*
X114108372Y-93929593D01*
X114097566Y-93923652D01*
X114081047Y-93912801D01*
X114080583Y-93912441D01*
X114065041Y-93900386D01*
X114057772Y-93897241D01*
X114057768Y-93897238D01*
X114024463Y-93882826D01*
X114013813Y-93877609D01*
X113975060Y-93856305D01*
X113955437Y-93851267D01*
X113936734Y-93844863D01*
X113925420Y-93839967D01*
X113925419Y-93839967D01*
X113918145Y-93836819D01*
X113910322Y-93835580D01*
X113910312Y-93835577D01*
X113874476Y-93829901D01*
X113862856Y-93827495D01*
X113827711Y-93818472D01*
X113827710Y-93818472D01*
X113820030Y-93816500D01*
X113799776Y-93816500D01*
X113780065Y-93814949D01*
X113767886Y-93813020D01*
X113760057Y-93811780D01*
X113752165Y-93812526D01*
X113716039Y-93815941D01*
X113704181Y-93816500D01*
X110929394Y-93816500D01*
X110861273Y-93796498D01*
X110826181Y-93762771D01*
X110719357Y-93610211D01*
X110719355Y-93610208D01*
X110716198Y-93605700D01*
X110554300Y-93443802D01*
X110549789Y-93440643D01*
X110545576Y-93437108D01*
X110546894Y-93435537D01*
X110508159Y-93387059D01*
X110500864Y-93316438D01*
X110535673Y-93250231D01*
X114961405Y-88824500D01*
X115023717Y-88790474D01*
X115094532Y-88795539D01*
X115151368Y-88838086D01*
X115176179Y-88904606D01*
X115176500Y-88913595D01*
X115176500Y-89730606D01*
X115156498Y-89798727D01*
X115122771Y-89833819D01*
X114970211Y-89940643D01*
X114970208Y-89940645D01*
X114965700Y-89943802D01*
X114803802Y-90105700D01*
X114672477Y-90293251D01*
X114670154Y-90298233D01*
X114670151Y-90298238D01*
X114601850Y-90444712D01*
X114575716Y-90500757D01*
X114574294Y-90506065D01*
X114574293Y-90506067D01*
X114519622Y-90710100D01*
X114516457Y-90721913D01*
X114496502Y-90950000D01*
X114516457Y-91178087D01*
X114517881Y-91183400D01*
X114517881Y-91183402D01*
X114528919Y-91224594D01*
X114575716Y-91399243D01*
X114578039Y-91404224D01*
X114578039Y-91404225D01*
X114670151Y-91601762D01*
X114670154Y-91601767D01*
X114672477Y-91606749D01*
X114803802Y-91794300D01*
X114965700Y-91956198D01*
X114970208Y-91959355D01*
X114970211Y-91959357D01*
X115048389Y-92014098D01*
X115153251Y-92087523D01*
X115158233Y-92089846D01*
X115158238Y-92089849D01*
X115341480Y-92175295D01*
X115360757Y-92184284D01*
X115366065Y-92185706D01*
X115366067Y-92185707D01*
X115576598Y-92242119D01*
X115576600Y-92242119D01*
X115581913Y-92243543D01*
X115810000Y-92263498D01*
X116038087Y-92243543D01*
X116043400Y-92242119D01*
X116043402Y-92242119D01*
X116253933Y-92185707D01*
X116253935Y-92185706D01*
X116259243Y-92184284D01*
X116278520Y-92175295D01*
X116461762Y-92089849D01*
X116461767Y-92089846D01*
X116466749Y-92087523D01*
X116571611Y-92014098D01*
X116649789Y-91959357D01*
X116649792Y-91959355D01*
X116654300Y-91956198D01*
X116816198Y-91794300D01*
X116947523Y-91606749D01*
X116949846Y-91601767D01*
X116949849Y-91601762D01*
X117041961Y-91404225D01*
X117041961Y-91404224D01*
X117044284Y-91399243D01*
X117091082Y-91224594D01*
X117102119Y-91183402D01*
X117102119Y-91183400D01*
X117103543Y-91178087D01*
X117123498Y-90950000D01*
X117103543Y-90721913D01*
X117100378Y-90710100D01*
X117045707Y-90506067D01*
X117045706Y-90506065D01*
X117044284Y-90500757D01*
X117018150Y-90444712D01*
X116949849Y-90298238D01*
X116949846Y-90298233D01*
X116947523Y-90293251D01*
X116816198Y-90105700D01*
X116654300Y-89943802D01*
X116649792Y-89940645D01*
X116649789Y-89940643D01*
X116497229Y-89833819D01*
X116452901Y-89778362D01*
X116443500Y-89730606D01*
X116443500Y-88277915D01*
X116463502Y-88209794D01*
X116517158Y-88163301D01*
X116533909Y-88157047D01*
X116599029Y-88137881D01*
X116778645Y-88043981D01*
X116936601Y-87916981D01*
X117066881Y-87761719D01*
X117069845Y-87756327D01*
X117069848Y-87756323D01*
X117161556Y-87589506D01*
X117164523Y-87584109D01*
X117225807Y-87390916D01*
X117226751Y-87382505D01*
X117241057Y-87254960D01*
X117243500Y-87233183D01*
X117243500Y-86673996D01*
X117228723Y-86523287D01*
X117170142Y-86329258D01*
X117074990Y-86150302D01*
X117055578Y-86126500D01*
X116969991Y-86021562D01*
X116946890Y-85993237D01*
X116908772Y-85961703D01*
X116795472Y-85867973D01*
X116795469Y-85867971D01*
X116790722Y-85864044D01*
X116612435Y-85767644D01*
X116461330Y-85720869D01*
X116424707Y-85709532D01*
X116424704Y-85709531D01*
X116418820Y-85707710D01*
X116412695Y-85707066D01*
X116412694Y-85707066D01*
X116223378Y-85687168D01*
X116223377Y-85687168D01*
X116217250Y-85686524D01*
X116133986Y-85694102D01*
X116021543Y-85704335D01*
X116021540Y-85704336D01*
X116015404Y-85704894D01*
X116009498Y-85706632D01*
X116009494Y-85706633D01*
X115886268Y-85742901D01*
X115820971Y-85762119D01*
X115815514Y-85764972D01*
X115815511Y-85764973D01*
X115749299Y-85799588D01*
X115641540Y-85855923D01*
X115641538Y-85855923D01*
X115641355Y-85856019D01*
X115641337Y-85855984D01*
X115575559Y-85875889D01*
X115514591Y-85860729D01*
X115505815Y-85855984D01*
X115342435Y-85767644D01*
X115191330Y-85720869D01*
X115132171Y-85681617D01*
X115103624Y-85616613D01*
X115114753Y-85546494D01*
X115139495Y-85511409D01*
X116400499Y-84250405D01*
X116462811Y-84216379D01*
X116489594Y-84213500D01*
X122683131Y-84213500D01*
X122751252Y-84233502D01*
X122797745Y-84287158D01*
X122807849Y-84357432D01*
X122778355Y-84422012D01*
X122758696Y-84440326D01*
X122663920Y-84511357D01*
X122656739Y-84516739D01*
X122569385Y-84633295D01*
X122518255Y-84769684D01*
X122511500Y-84831866D01*
X122511500Y-86928134D01*
X122518255Y-86990316D01*
X122569385Y-87126705D01*
X122656739Y-87243261D01*
X122773295Y-87330615D01*
X122909684Y-87381745D01*
X122971866Y-87388500D01*
X125068134Y-87388500D01*
X125130316Y-87381745D01*
X125266705Y-87330615D01*
X125383261Y-87243261D01*
X125470615Y-87126705D01*
X125521745Y-86990316D01*
X125528500Y-86928134D01*
X125528500Y-86913594D01*
X125548502Y-86845473D01*
X125602158Y-86798980D01*
X125672432Y-86788876D01*
X125737012Y-86818370D01*
X125743595Y-86824499D01*
X128859738Y-89940643D01*
X131957682Y-93038587D01*
X131991708Y-93100899D01*
X131990294Y-93160292D01*
X131972995Y-93224853D01*
X131972994Y-93224860D01*
X131971571Y-93230170D01*
X131951464Y-93460000D01*
X131971571Y-93689830D01*
X132031283Y-93912676D01*
X132069019Y-93993602D01*
X132126458Y-94116781D01*
X132126461Y-94116786D01*
X132128784Y-94121768D01*
X132131941Y-94126276D01*
X132250620Y-94295767D01*
X132261113Y-94310753D01*
X132424247Y-94473887D01*
X132428755Y-94477044D01*
X132428758Y-94477046D01*
X132507630Y-94532272D01*
X132613232Y-94606216D01*
X132618214Y-94608539D01*
X132618219Y-94608542D01*
X132678099Y-94636464D01*
X132822324Y-94703717D01*
X133045170Y-94763429D01*
X133275000Y-94783536D01*
X133504830Y-94763429D01*
X133574707Y-94744705D01*
X133645684Y-94746395D01*
X133696413Y-94777317D01*
X134457683Y-95538587D01*
X134491709Y-95600899D01*
X134490295Y-95660293D01*
X134471571Y-95730170D01*
X134451464Y-95960000D01*
X134471571Y-96189830D01*
X134531283Y-96412676D01*
X134558475Y-96470989D01*
X134626458Y-96616781D01*
X134626461Y-96616786D01*
X134628784Y-96621768D01*
X134676718Y-96690224D01*
X134756595Y-96804300D01*
X134761113Y-96810753D01*
X134924247Y-96973887D01*
X134928755Y-96977044D01*
X134928758Y-96977046D01*
X134979255Y-97012404D01*
X135113232Y-97106216D01*
X135118214Y-97108539D01*
X135118219Y-97108542D01*
X135178099Y-97136464D01*
X135322324Y-97203717D01*
X135545170Y-97263429D01*
X135775000Y-97283536D01*
X136004830Y-97263429D01*
X136227676Y-97203717D01*
X136371901Y-97136464D01*
X136431781Y-97108542D01*
X136431786Y-97108539D01*
X136436768Y-97106216D01*
X136570745Y-97012404D01*
X136621242Y-96977046D01*
X136621245Y-96977044D01*
X136625753Y-96973887D01*
X136788887Y-96810753D01*
X136793406Y-96804300D01*
X136873282Y-96690224D01*
X136921216Y-96621768D01*
X136923539Y-96616786D01*
X136923542Y-96616781D01*
X136991525Y-96470989D01*
X137018717Y-96412676D01*
X137078429Y-96189830D01*
X137098536Y-95960000D01*
X137078429Y-95730170D01*
X137018717Y-95507324D01*
X136965300Y-95392771D01*
X136923542Y-95303219D01*
X136923539Y-95303214D01*
X136921216Y-95298232D01*
X136796564Y-95120211D01*
X136792046Y-95113758D01*
X136792044Y-95113755D01*
X136788887Y-95109247D01*
X136625753Y-94946113D01*
X136621245Y-94942956D01*
X136621242Y-94942954D01*
X136507408Y-94863247D01*
X136436768Y-94813784D01*
X136431786Y-94811461D01*
X136431781Y-94811458D01*
X136304651Y-94752177D01*
X136227676Y-94716283D01*
X136004830Y-94656571D01*
X135775000Y-94636464D01*
X135545170Y-94656571D01*
X135475293Y-94675295D01*
X135404316Y-94673605D01*
X135353587Y-94642683D01*
X134592317Y-93881413D01*
X134558291Y-93819101D01*
X134559705Y-93759707D01*
X134578429Y-93689830D01*
X134598536Y-93460000D01*
X134578429Y-93230170D01*
X134518717Y-93007324D01*
X134444749Y-92848699D01*
X134423542Y-92803219D01*
X134423539Y-92803214D01*
X134421216Y-92798232D01*
X134288887Y-92609247D01*
X134125753Y-92446113D01*
X134121245Y-92442956D01*
X134121242Y-92442954D01*
X134029406Y-92378650D01*
X133936768Y-92313784D01*
X133931786Y-92311461D01*
X133931781Y-92311458D01*
X133825442Y-92261872D01*
X133727676Y-92216283D01*
X133504830Y-92156571D01*
X133275000Y-92136464D01*
X133045170Y-92156571D01*
X132975293Y-92175295D01*
X132904316Y-92173605D01*
X132853587Y-92142683D01*
X129535405Y-88824500D01*
X126198652Y-85487747D01*
X126191112Y-85479461D01*
X126187000Y-85472982D01*
X126137348Y-85426356D01*
X126134507Y-85423602D01*
X126114770Y-85403865D01*
X126111573Y-85401385D01*
X126102551Y-85393680D01*
X126070321Y-85363414D01*
X126063375Y-85359595D01*
X126063372Y-85359593D01*
X126052566Y-85353652D01*
X126036047Y-85342801D01*
X126035583Y-85342441D01*
X126020041Y-85330386D01*
X126012772Y-85327241D01*
X126012768Y-85327238D01*
X125979463Y-85312826D01*
X125968813Y-85307609D01*
X125930060Y-85286305D01*
X125910437Y-85281267D01*
X125891734Y-85274863D01*
X125880420Y-85269967D01*
X125880419Y-85269967D01*
X125873145Y-85266819D01*
X125865322Y-85265580D01*
X125865312Y-85265577D01*
X125829476Y-85259901D01*
X125817856Y-85257495D01*
X125782711Y-85248472D01*
X125782710Y-85248472D01*
X125775030Y-85246500D01*
X125754776Y-85246500D01*
X125735065Y-85244949D01*
X125722886Y-85243020D01*
X125715057Y-85241780D01*
X125707165Y-85242526D01*
X125671039Y-85245941D01*
X125659181Y-85246500D01*
X125654500Y-85246500D01*
X125586379Y-85226498D01*
X125539886Y-85172842D01*
X125528500Y-85120500D01*
X125528500Y-84831866D01*
X125521745Y-84769684D01*
X125470615Y-84633295D01*
X125383261Y-84516739D01*
X125376080Y-84511357D01*
X125281304Y-84440326D01*
X125238789Y-84383467D01*
X125233763Y-84312648D01*
X125267823Y-84250355D01*
X125330155Y-84216365D01*
X125356869Y-84213500D01*
X127155406Y-84213500D01*
X127223527Y-84233502D01*
X127244501Y-84250405D01*
X128698430Y-85704335D01*
X130146348Y-87152253D01*
X130153888Y-87160539D01*
X130158000Y-87167018D01*
X130163777Y-87172443D01*
X130207651Y-87213643D01*
X130210493Y-87216398D01*
X130230230Y-87236135D01*
X130233427Y-87238615D01*
X130242447Y-87246318D01*
X130274679Y-87276586D01*
X130281625Y-87280405D01*
X130281628Y-87280407D01*
X130292434Y-87286348D01*
X130308953Y-87297199D01*
X130324959Y-87309614D01*
X130332228Y-87312759D01*
X130332232Y-87312762D01*
X130365537Y-87327174D01*
X130376187Y-87332391D01*
X130414940Y-87353695D01*
X130422615Y-87355666D01*
X130422616Y-87355666D01*
X130434562Y-87358733D01*
X130453267Y-87365137D01*
X130471855Y-87373181D01*
X130479678Y-87374420D01*
X130479688Y-87374423D01*
X130515524Y-87380099D01*
X130527144Y-87382505D01*
X130562289Y-87391528D01*
X130569970Y-87393500D01*
X130590224Y-87393500D01*
X130609934Y-87395051D01*
X130629943Y-87398220D01*
X130637835Y-87397474D01*
X130664546Y-87394949D01*
X130673962Y-87394059D01*
X130685819Y-87393500D01*
X131272835Y-87393500D01*
X131340956Y-87413502D01*
X131387449Y-87467158D01*
X131397553Y-87537432D01*
X131383671Y-87579429D01*
X131357644Y-87627565D01*
X131334644Y-87701866D01*
X131320322Y-87748134D01*
X131297710Y-87821180D01*
X131276524Y-88022750D01*
X131280211Y-88063261D01*
X131293396Y-88208131D01*
X131294894Y-88224596D01*
X131296632Y-88230502D01*
X131296633Y-88230506D01*
X131311268Y-88280230D01*
X131352119Y-88419029D01*
X131354972Y-88424486D01*
X131354973Y-88424489D01*
X131394730Y-88500538D01*
X131446019Y-88598645D01*
X131573019Y-88756601D01*
X131728281Y-88886881D01*
X131733673Y-88889845D01*
X131733677Y-88889848D01*
X131880383Y-88970500D01*
X131905891Y-88984523D01*
X132099084Y-89045807D01*
X132105201Y-89046493D01*
X132105205Y-89046494D01*
X132179348Y-89054810D01*
X132256817Y-89063500D01*
X132816004Y-89063500D01*
X132966713Y-89048723D01*
X133160742Y-88990142D01*
X133339698Y-88894990D01*
X133496763Y-88766890D01*
X133544501Y-88709184D01*
X133603333Y-88669447D01*
X133641585Y-88663500D01*
X135125406Y-88663500D01*
X135193527Y-88683502D01*
X135214501Y-88700405D01*
X141389595Y-94875500D01*
X141423621Y-94937812D01*
X141426500Y-94964595D01*
X141426500Y-98175406D01*
X141406498Y-98243527D01*
X141389595Y-98264501D01*
X139044500Y-100609595D01*
X138982188Y-100643621D01*
X138955405Y-100646500D01*
X132014594Y-100646500D01*
X131946473Y-100626498D01*
X131925499Y-100609595D01*
X130700405Y-99384500D01*
X130666379Y-99322188D01*
X130663500Y-99295405D01*
X130663500Y-98460000D01*
X131951464Y-98460000D01*
X131971571Y-98689830D01*
X132031283Y-98912676D01*
X132063609Y-98982000D01*
X132126458Y-99116781D01*
X132126461Y-99116786D01*
X132128784Y-99121768D01*
X132261113Y-99310753D01*
X132424247Y-99473887D01*
X132428755Y-99477044D01*
X132428758Y-99477046D01*
X132469068Y-99505271D01*
X132613232Y-99606216D01*
X132618214Y-99608539D01*
X132618219Y-99608542D01*
X132724558Y-99658128D01*
X132822324Y-99703717D01*
X133045170Y-99763429D01*
X133275000Y-99783536D01*
X133504830Y-99763429D01*
X133727676Y-99703717D01*
X133825442Y-99658128D01*
X133931781Y-99608542D01*
X133931786Y-99608539D01*
X133936768Y-99606216D01*
X134080932Y-99505271D01*
X134121242Y-99477046D01*
X134121245Y-99477044D01*
X134125753Y-99473887D01*
X134288887Y-99310753D01*
X134403388Y-99147229D01*
X134458845Y-99102901D01*
X134506601Y-99093500D01*
X138711233Y-99093500D01*
X138722416Y-99094027D01*
X138729909Y-99095702D01*
X138737835Y-99095453D01*
X138737836Y-99095453D01*
X138797986Y-99093562D01*
X138801945Y-99093500D01*
X138829856Y-99093500D01*
X138833791Y-99093003D01*
X138833856Y-99092995D01*
X138845693Y-99092062D01*
X138877951Y-99091048D01*
X138881970Y-99090922D01*
X138889889Y-99090673D01*
X138909343Y-99085021D01*
X138928700Y-99081013D01*
X138940930Y-99079468D01*
X138940931Y-99079468D01*
X138948797Y-99078474D01*
X138956168Y-99075555D01*
X138956170Y-99075555D01*
X138989912Y-99062196D01*
X139001142Y-99058351D01*
X139035983Y-99048229D01*
X139035984Y-99048229D01*
X139043593Y-99046018D01*
X139050412Y-99041985D01*
X139050417Y-99041983D01*
X139061028Y-99035707D01*
X139078776Y-99027012D01*
X139097617Y-99019552D01*
X139133387Y-98993564D01*
X139143307Y-98987048D01*
X139174535Y-98968580D01*
X139174538Y-98968578D01*
X139181362Y-98964542D01*
X139195683Y-98950221D01*
X139210717Y-98937380D01*
X139220694Y-98930131D01*
X139227107Y-98925472D01*
X139255298Y-98891395D01*
X139263288Y-98882616D01*
X139942247Y-98203657D01*
X139950537Y-98196113D01*
X139957018Y-98192000D01*
X140003659Y-98142332D01*
X140006413Y-98139491D01*
X140026134Y-98119770D01*
X140028612Y-98116575D01*
X140036318Y-98107553D01*
X140061158Y-98081101D01*
X140066586Y-98075321D01*
X140076346Y-98057568D01*
X140087199Y-98041045D01*
X140094753Y-98031306D01*
X140099613Y-98025041D01*
X140117176Y-97984457D01*
X140122383Y-97973827D01*
X140143695Y-97935060D01*
X140145666Y-97927383D01*
X140145668Y-97927378D01*
X140148732Y-97915442D01*
X140155138Y-97896730D01*
X140160033Y-97885419D01*
X140163181Y-97878145D01*
X140164421Y-97870317D01*
X140164423Y-97870310D01*
X140170099Y-97834476D01*
X140172505Y-97822856D01*
X140181528Y-97787711D01*
X140181528Y-97787710D01*
X140183500Y-97780030D01*
X140183500Y-97759776D01*
X140185051Y-97740065D01*
X140186980Y-97727886D01*
X140188220Y-97720057D01*
X140184059Y-97676038D01*
X140183500Y-97664181D01*
X140183500Y-97179394D01*
X140203502Y-97111273D01*
X140237229Y-97076181D01*
X140389789Y-96969357D01*
X140389792Y-96969355D01*
X140394300Y-96966198D01*
X140556198Y-96804300D01*
X140602738Y-96737835D01*
X140680852Y-96626276D01*
X140687523Y-96616749D01*
X140689846Y-96611767D01*
X140689849Y-96611762D01*
X140781961Y-96414225D01*
X140781961Y-96414224D01*
X140784284Y-96409243D01*
X140786462Y-96401117D01*
X140842119Y-96193402D01*
X140842119Y-96193400D01*
X140843543Y-96188087D01*
X140863498Y-95960000D01*
X140843543Y-95731913D01*
X140841653Y-95724859D01*
X140785707Y-95516067D01*
X140785706Y-95516065D01*
X140784284Y-95510757D01*
X140762688Y-95464444D01*
X140689849Y-95308238D01*
X140689846Y-95308233D01*
X140687523Y-95303251D01*
X140565236Y-95128607D01*
X140559357Y-95120211D01*
X140559355Y-95120208D01*
X140556198Y-95115700D01*
X140394300Y-94953802D01*
X140389792Y-94950645D01*
X140389789Y-94950643D01*
X140264974Y-94863247D01*
X140206749Y-94822477D01*
X140201767Y-94820154D01*
X140201762Y-94820151D01*
X140004225Y-94728039D01*
X140004224Y-94728039D01*
X139999243Y-94725716D01*
X139993935Y-94724294D01*
X139993933Y-94724293D01*
X139783402Y-94667881D01*
X139783400Y-94667881D01*
X139778087Y-94666457D01*
X139550000Y-94646502D01*
X139321913Y-94666457D01*
X139316600Y-94667881D01*
X139316598Y-94667881D01*
X139106067Y-94724293D01*
X139106065Y-94724294D01*
X139100757Y-94725716D01*
X139095776Y-94728039D01*
X139095775Y-94728039D01*
X138898238Y-94820151D01*
X138898233Y-94820154D01*
X138893251Y-94822477D01*
X138835026Y-94863247D01*
X138710211Y-94950643D01*
X138710208Y-94950645D01*
X138705700Y-94953802D01*
X138543802Y-95115700D01*
X138540645Y-95120208D01*
X138540643Y-95120211D01*
X138534764Y-95128607D01*
X138412477Y-95303251D01*
X138410154Y-95308233D01*
X138410151Y-95308238D01*
X138337312Y-95464444D01*
X138315716Y-95510757D01*
X138314294Y-95516065D01*
X138314293Y-95516067D01*
X138258347Y-95724859D01*
X138256457Y-95731913D01*
X138236502Y-95960000D01*
X138256457Y-96188087D01*
X138257881Y-96193400D01*
X138257881Y-96193402D01*
X138313539Y-96401117D01*
X138315716Y-96409243D01*
X138318039Y-96414224D01*
X138318039Y-96414225D01*
X138410151Y-96611762D01*
X138410154Y-96611767D01*
X138412477Y-96616749D01*
X138419148Y-96626276D01*
X138497263Y-96737835D01*
X138543802Y-96804300D01*
X138705700Y-96966198D01*
X138710208Y-96969355D01*
X138710211Y-96969357D01*
X138862771Y-97076181D01*
X138907099Y-97131638D01*
X138916500Y-97179394D01*
X138916500Y-97385405D01*
X138896498Y-97453526D01*
X138879595Y-97474500D01*
X138564500Y-97789595D01*
X138502188Y-97823621D01*
X138475405Y-97826500D01*
X134506601Y-97826500D01*
X134438480Y-97806498D01*
X134403388Y-97772771D01*
X134292046Y-97613758D01*
X134292044Y-97613755D01*
X134288887Y-97609247D01*
X134125753Y-97446113D01*
X134121245Y-97442956D01*
X134121242Y-97442954D01*
X134039053Y-97385405D01*
X133936768Y-97313784D01*
X133931786Y-97311461D01*
X133931781Y-97311458D01*
X133759822Y-97231273D01*
X133727676Y-97216283D01*
X133504830Y-97156571D01*
X133275000Y-97136464D01*
X133045170Y-97156571D01*
X132822324Y-97216283D01*
X132790178Y-97231273D01*
X132618219Y-97311458D01*
X132618214Y-97311461D01*
X132613232Y-97313784D01*
X132510947Y-97385405D01*
X132428758Y-97442954D01*
X132428755Y-97442956D01*
X132424247Y-97446113D01*
X132261113Y-97609247D01*
X132257956Y-97613755D01*
X132257954Y-97613758D01*
X132222648Y-97664181D01*
X132128784Y-97798232D01*
X132126461Y-97803214D01*
X132126458Y-97803219D01*
X132091520Y-97878145D01*
X132031283Y-98007324D01*
X131971571Y-98230170D01*
X131951464Y-98460000D01*
X130663500Y-98460000D01*
X130663500Y-97299394D01*
X130683502Y-97231273D01*
X130717229Y-97196181D01*
X130869789Y-97089357D01*
X130869792Y-97089355D01*
X130874300Y-97086198D01*
X131036198Y-96924300D01*
X131086524Y-96852428D01*
X131123382Y-96799789D01*
X131167523Y-96736749D01*
X131169846Y-96731767D01*
X131169849Y-96731762D01*
X131261961Y-96534225D01*
X131261961Y-96534224D01*
X131264284Y-96529243D01*
X131269977Y-96507999D01*
X131322119Y-96313402D01*
X131322119Y-96313400D01*
X131323543Y-96308087D01*
X131343498Y-96080000D01*
X131323543Y-95851913D01*
X131298688Y-95759152D01*
X131265707Y-95636067D01*
X131265706Y-95636065D01*
X131264284Y-95630757D01*
X131256716Y-95614528D01*
X131169849Y-95428238D01*
X131169846Y-95428233D01*
X131167523Y-95423251D01*
X131083498Y-95303251D01*
X131039357Y-95240211D01*
X131039355Y-95240208D01*
X131036198Y-95235700D01*
X130874300Y-95073802D01*
X130869792Y-95070645D01*
X130869789Y-95070643D01*
X130748425Y-94985663D01*
X130686749Y-94942477D01*
X130681767Y-94940154D01*
X130681762Y-94940151D01*
X130484225Y-94848039D01*
X130484224Y-94848039D01*
X130479243Y-94845716D01*
X130473935Y-94844294D01*
X130473933Y-94844293D01*
X130263402Y-94787881D01*
X130263400Y-94787881D01*
X130258087Y-94786457D01*
X130030000Y-94766502D01*
X129801913Y-94786457D01*
X129796600Y-94787881D01*
X129796598Y-94787881D01*
X129586067Y-94844293D01*
X129586065Y-94844294D01*
X129580757Y-94845716D01*
X129575776Y-94848039D01*
X129575775Y-94848039D01*
X129378238Y-94940151D01*
X129378233Y-94940154D01*
X129373251Y-94942477D01*
X129311575Y-94985663D01*
X129190211Y-95070643D01*
X129190208Y-95070645D01*
X129185700Y-95073802D01*
X129023802Y-95235700D01*
X129020645Y-95240208D01*
X129020643Y-95240211D01*
X128913819Y-95392771D01*
X128858362Y-95437099D01*
X128817976Y-95445049D01*
X128818052Y-95446252D01*
X128814110Y-95446500D01*
X128810144Y-95446500D01*
X128806210Y-95446997D01*
X128806209Y-95446997D01*
X128806144Y-95447005D01*
X128794307Y-95447938D01*
X128762490Y-95448938D01*
X128758029Y-95449078D01*
X128750110Y-95449327D01*
X128739873Y-95452301D01*
X128730658Y-95454978D01*
X128711306Y-95458986D01*
X128708370Y-95459357D01*
X128691203Y-95461526D01*
X128683834Y-95464443D01*
X128683832Y-95464444D01*
X128650097Y-95477800D01*
X128638869Y-95481645D01*
X128596407Y-95493982D01*
X128589584Y-95498017D01*
X128589582Y-95498018D01*
X128578972Y-95504293D01*
X128561224Y-95512988D01*
X128542383Y-95520448D01*
X128535967Y-95525110D01*
X128535966Y-95525110D01*
X128506613Y-95546436D01*
X128496693Y-95552952D01*
X128465465Y-95571420D01*
X128465462Y-95571422D01*
X128458638Y-95575458D01*
X128444317Y-95589779D01*
X128429284Y-95602619D01*
X128412893Y-95614528D01*
X128386516Y-95646413D01*
X128384712Y-95648593D01*
X128376722Y-95657374D01*
X127787742Y-96246353D01*
X127779463Y-96253887D01*
X127772982Y-96258000D01*
X127731094Y-96302607D01*
X127726357Y-96307651D01*
X127723602Y-96310493D01*
X127703865Y-96330230D01*
X127701385Y-96333427D01*
X127693682Y-96342447D01*
X127663414Y-96374679D01*
X127659595Y-96381625D01*
X127659593Y-96381628D01*
X127653652Y-96392434D01*
X127642801Y-96408953D01*
X127630386Y-96424959D01*
X127627241Y-96432228D01*
X127627238Y-96432232D01*
X127612826Y-96465537D01*
X127607609Y-96476187D01*
X127586305Y-96514940D01*
X127581354Y-96534225D01*
X127581267Y-96534562D01*
X127574863Y-96553266D01*
X127566819Y-96571855D01*
X127565580Y-96579678D01*
X127565577Y-96579688D01*
X127559901Y-96615524D01*
X127557495Y-96627144D01*
X127546500Y-96669970D01*
X127546500Y-96690224D01*
X127544949Y-96709934D01*
X127541780Y-96729943D01*
X127542526Y-96737835D01*
X127545941Y-96773961D01*
X127546500Y-96785819D01*
X127546500Y-100321233D01*
X127545973Y-100332416D01*
X127544298Y-100339909D01*
X127544547Y-100347835D01*
X127544547Y-100347836D01*
X127546438Y-100407986D01*
X127546500Y-100411945D01*
X127546500Y-100439856D01*
X127546997Y-100443790D01*
X127546997Y-100443791D01*
X127547005Y-100443856D01*
X127547938Y-100455693D01*
X127549327Y-100499889D01*
X127554978Y-100519339D01*
X127558987Y-100538700D01*
X127561526Y-100558797D01*
X127564445Y-100566168D01*
X127564445Y-100566170D01*
X127577804Y-100599912D01*
X127581649Y-100611142D01*
X127593982Y-100653593D01*
X127598015Y-100660412D01*
X127598017Y-100660417D01*
X127604293Y-100671028D01*
X127612988Y-100688776D01*
X127620448Y-100707617D01*
X127625110Y-100714033D01*
X127625110Y-100714034D01*
X127646436Y-100743387D01*
X127652952Y-100753307D01*
X127675458Y-100791362D01*
X127689779Y-100805683D01*
X127702619Y-100820716D01*
X127714528Y-100837107D01*
X127746578Y-100863621D01*
X127748605Y-100865298D01*
X127757384Y-100873288D01*
X131979595Y-105095499D01*
X132013621Y-105157811D01*
X132016500Y-105184594D01*
X132016500Y-106545406D01*
X131996498Y-106613527D01*
X131979595Y-106634501D01*
X130984500Y-107629595D01*
X130922188Y-107663621D01*
X130895405Y-107666500D01*
X130635385Y-107666500D01*
X130567264Y-107646498D01*
X130520771Y-107592842D01*
X130510667Y-107522568D01*
X130540161Y-107457988D01*
X130582135Y-107426305D01*
X130681762Y-107379849D01*
X130681767Y-107379846D01*
X130686749Y-107377523D01*
X130822353Y-107282572D01*
X130869789Y-107249357D01*
X130869792Y-107249355D01*
X130874300Y-107246198D01*
X131036198Y-107084300D01*
X131042404Y-107075438D01*
X131142769Y-106932101D01*
X131167523Y-106896749D01*
X131169846Y-106891767D01*
X131169849Y-106891762D01*
X131261961Y-106694225D01*
X131261961Y-106694224D01*
X131264284Y-106689243D01*
X131323543Y-106468087D01*
X131343498Y-106240000D01*
X131323543Y-106011913D01*
X131264284Y-105790757D01*
X131248768Y-105757483D01*
X131169849Y-105588238D01*
X131169846Y-105588233D01*
X131167523Y-105583251D01*
X131036198Y-105395700D01*
X130874300Y-105233802D01*
X130869792Y-105230645D01*
X130869789Y-105230643D01*
X130708488Y-105117699D01*
X130686749Y-105102477D01*
X130681767Y-105100154D01*
X130681762Y-105100151D01*
X130484225Y-105008039D01*
X130484224Y-105008039D01*
X130479243Y-105005716D01*
X130473935Y-105004294D01*
X130473933Y-105004293D01*
X130263402Y-104947881D01*
X130263400Y-104947881D01*
X130258087Y-104946457D01*
X130030000Y-104926502D01*
X129801913Y-104946457D01*
X129796600Y-104947881D01*
X129796598Y-104947881D01*
X129586067Y-105004293D01*
X129586065Y-105004294D01*
X129580757Y-105005716D01*
X129575776Y-105008039D01*
X129575775Y-105008039D01*
X129378238Y-105100151D01*
X129378233Y-105100154D01*
X129373251Y-105102477D01*
X129351512Y-105117699D01*
X129190211Y-105230643D01*
X129190208Y-105230645D01*
X129185700Y-105233802D01*
X129023802Y-105395700D01*
X129020645Y-105400208D01*
X129020643Y-105400211D01*
X128913819Y-105552771D01*
X128858362Y-105597099D01*
X128810606Y-105606500D01*
X126559394Y-105606500D01*
X126491273Y-105586498D01*
X126456181Y-105552771D01*
X126349357Y-105400211D01*
X126349355Y-105400208D01*
X126346198Y-105395700D01*
X126184300Y-105233802D01*
X126179792Y-105230645D01*
X126179789Y-105230643D01*
X126027229Y-105123819D01*
X125982901Y-105068362D01*
X125973500Y-105020606D01*
X125973500Y-99998767D01*
X125974027Y-99987584D01*
X125975702Y-99980091D01*
X125975175Y-99963307D01*
X125973562Y-99912014D01*
X125973500Y-99908055D01*
X125973500Y-99880144D01*
X125972995Y-99876144D01*
X125972062Y-99864301D01*
X125970922Y-99828029D01*
X125970673Y-99820110D01*
X125965022Y-99800658D01*
X125961014Y-99781306D01*
X125959467Y-99769063D01*
X125958474Y-99761203D01*
X125952833Y-99746955D01*
X125942200Y-99720097D01*
X125938355Y-99708870D01*
X125936182Y-99701392D01*
X125926018Y-99666407D01*
X125921984Y-99659585D01*
X125921981Y-99659579D01*
X125915706Y-99648968D01*
X125907010Y-99631218D01*
X125902472Y-99619756D01*
X125902469Y-99619751D01*
X125899552Y-99612383D01*
X125873573Y-99576625D01*
X125867057Y-99566707D01*
X125848575Y-99535457D01*
X125844542Y-99528637D01*
X125830218Y-99514313D01*
X125817376Y-99499278D01*
X125805472Y-99482893D01*
X125771406Y-99454711D01*
X125762627Y-99446722D01*
X122395905Y-96080000D01*
X124026502Y-96080000D01*
X124046457Y-96308087D01*
X124047881Y-96313400D01*
X124047881Y-96313402D01*
X124100024Y-96507999D01*
X124105716Y-96529243D01*
X124108039Y-96534224D01*
X124108039Y-96534225D01*
X124200151Y-96731762D01*
X124200154Y-96731767D01*
X124202477Y-96736749D01*
X124246618Y-96799789D01*
X124283477Y-96852428D01*
X124333802Y-96924300D01*
X124495700Y-97086198D01*
X124500208Y-97089355D01*
X124500211Y-97089357D01*
X124560595Y-97131638D01*
X124683251Y-97217523D01*
X124688233Y-97219846D01*
X124688238Y-97219849D01*
X124885775Y-97311961D01*
X124890757Y-97314284D01*
X124896065Y-97315706D01*
X124896067Y-97315707D01*
X125106598Y-97372119D01*
X125106600Y-97372119D01*
X125111913Y-97373543D01*
X125340000Y-97393498D01*
X125568087Y-97373543D01*
X125573400Y-97372119D01*
X125573402Y-97372119D01*
X125783933Y-97315707D01*
X125783935Y-97315706D01*
X125789243Y-97314284D01*
X125794225Y-97311961D01*
X125991762Y-97219849D01*
X125991767Y-97219846D01*
X125996749Y-97217523D01*
X126119405Y-97131638D01*
X126179789Y-97089357D01*
X126179792Y-97089355D01*
X126184300Y-97086198D01*
X126346198Y-96924300D01*
X126396524Y-96852428D01*
X126433382Y-96799789D01*
X126477523Y-96736749D01*
X126479846Y-96731767D01*
X126479849Y-96731762D01*
X126571961Y-96534225D01*
X126571961Y-96534224D01*
X126574284Y-96529243D01*
X126579977Y-96507999D01*
X126632119Y-96313402D01*
X126632119Y-96313400D01*
X126633543Y-96308087D01*
X126653498Y-96080000D01*
X126633543Y-95851913D01*
X126608688Y-95759152D01*
X126575707Y-95636067D01*
X126575706Y-95636065D01*
X126574284Y-95630757D01*
X126566716Y-95614528D01*
X126479849Y-95428238D01*
X126479846Y-95428233D01*
X126477523Y-95423251D01*
X126393498Y-95303251D01*
X126349357Y-95240211D01*
X126349355Y-95240208D01*
X126346198Y-95235700D01*
X126184300Y-95073802D01*
X126179792Y-95070645D01*
X126179789Y-95070643D01*
X126027229Y-94963819D01*
X125982901Y-94908362D01*
X125973500Y-94860606D01*
X125973500Y-92378650D01*
X125993502Y-92310529D01*
X126047158Y-92264036D01*
X126088517Y-92253129D01*
X126198087Y-92243543D01*
X126203400Y-92242119D01*
X126203402Y-92242119D01*
X126413933Y-92185707D01*
X126413935Y-92185706D01*
X126419243Y-92184284D01*
X126438520Y-92175295D01*
X126621762Y-92089849D01*
X126621767Y-92089846D01*
X126626749Y-92087523D01*
X126731611Y-92014098D01*
X126809789Y-91959357D01*
X126809792Y-91959355D01*
X126814300Y-91956198D01*
X126976198Y-91794300D01*
X127107523Y-91606749D01*
X127109846Y-91601767D01*
X127109849Y-91601762D01*
X127201961Y-91404225D01*
X127201961Y-91404224D01*
X127204284Y-91399243D01*
X127251082Y-91224594D01*
X127262119Y-91183402D01*
X127262119Y-91183400D01*
X127263543Y-91178087D01*
X127283498Y-90950000D01*
X127263543Y-90721913D01*
X127260378Y-90710100D01*
X127205707Y-90506067D01*
X127205706Y-90506065D01*
X127204284Y-90500757D01*
X127178150Y-90444712D01*
X127109849Y-90298238D01*
X127109846Y-90298233D01*
X127107523Y-90293251D01*
X126976198Y-90105700D01*
X126814300Y-89943802D01*
X126809792Y-89940645D01*
X126809789Y-89940643D01*
X126696795Y-89861524D01*
X126626749Y-89812477D01*
X126621767Y-89810154D01*
X126621762Y-89810151D01*
X126424225Y-89718039D01*
X126424224Y-89718039D01*
X126419243Y-89715716D01*
X126413935Y-89714294D01*
X126413933Y-89714293D01*
X126203402Y-89657881D01*
X126203400Y-89657881D01*
X126198087Y-89656457D01*
X125970000Y-89636502D01*
X125741913Y-89656457D01*
X125736600Y-89657881D01*
X125736598Y-89657881D01*
X125526067Y-89714293D01*
X125526065Y-89714294D01*
X125520757Y-89715716D01*
X125515776Y-89718039D01*
X125515775Y-89718039D01*
X125318238Y-89810151D01*
X125318233Y-89810154D01*
X125313251Y-89812477D01*
X125243205Y-89861524D01*
X125130211Y-89940643D01*
X125130208Y-89940645D01*
X125125700Y-89943802D01*
X124963802Y-90105700D01*
X124832477Y-90293251D01*
X124830154Y-90298233D01*
X124830151Y-90298238D01*
X124761850Y-90444712D01*
X124735716Y-90500757D01*
X124734294Y-90506065D01*
X124734293Y-90506067D01*
X124679622Y-90710100D01*
X124676457Y-90721913D01*
X124656502Y-90950000D01*
X124676457Y-91178087D01*
X124677881Y-91183400D01*
X124677881Y-91183402D01*
X124723452Y-91353475D01*
X124726194Y-91405797D01*
X124719902Y-91445522D01*
X124717495Y-91457144D01*
X124706500Y-91499970D01*
X124706500Y-91520224D01*
X124704949Y-91539934D01*
X124701780Y-91559943D01*
X124702526Y-91567835D01*
X124705941Y-91603961D01*
X124706500Y-91615819D01*
X124706500Y-94860606D01*
X124686498Y-94928727D01*
X124652771Y-94963819D01*
X124500211Y-95070643D01*
X124500208Y-95070645D01*
X124495700Y-95073802D01*
X124333802Y-95235700D01*
X124330645Y-95240208D01*
X124330643Y-95240211D01*
X124286502Y-95303251D01*
X124202477Y-95423251D01*
X124200154Y-95428233D01*
X124200151Y-95428238D01*
X124113284Y-95614528D01*
X124105716Y-95630757D01*
X124104294Y-95636065D01*
X124104293Y-95636067D01*
X124071312Y-95759152D01*
X124046457Y-95851913D01*
X124026502Y-96080000D01*
X122395905Y-96080000D01*
X121179152Y-94863247D01*
X121145126Y-94800935D01*
X121146540Y-94741541D01*
X121150737Y-94725877D01*
X121163543Y-94678087D01*
X121183498Y-94450000D01*
X121163543Y-94221913D01*
X121135373Y-94116781D01*
X121105707Y-94006067D01*
X121105706Y-94006065D01*
X121104284Y-94000757D01*
X121088954Y-93967881D01*
X121009849Y-93798238D01*
X121009846Y-93798233D01*
X121007523Y-93793251D01*
X120876198Y-93605700D01*
X120714300Y-93443802D01*
X120709792Y-93440645D01*
X120709789Y-93440643D01*
X120557228Y-93333819D01*
X120526749Y-93312477D01*
X120521767Y-93310154D01*
X120521762Y-93310151D01*
X120324225Y-93218039D01*
X120324224Y-93218039D01*
X120319243Y-93215716D01*
X120313935Y-93214294D01*
X120313933Y-93214293D01*
X120103402Y-93157881D01*
X120103400Y-93157881D01*
X120098087Y-93156457D01*
X119870000Y-93136502D01*
X119641913Y-93156457D01*
X119636600Y-93157881D01*
X119636598Y-93157881D01*
X119426067Y-93214293D01*
X119426065Y-93214294D01*
X119420757Y-93215716D01*
X119415776Y-93218039D01*
X119415775Y-93218039D01*
X119218238Y-93310151D01*
X119218233Y-93310154D01*
X119213251Y-93312477D01*
X119182772Y-93333819D01*
X119030211Y-93440643D01*
X119030208Y-93440645D01*
X119025700Y-93443802D01*
X118863802Y-93605700D01*
X118732477Y-93793251D01*
X118730154Y-93798233D01*
X118730151Y-93798238D01*
X118651046Y-93967881D01*
X118635716Y-94000757D01*
X118634294Y-94006065D01*
X118634293Y-94006067D01*
X118604627Y-94116781D01*
X118576457Y-94221913D01*
X118556502Y-94450000D01*
X118576457Y-94678087D01*
X118577880Y-94683398D01*
X118577881Y-94683402D01*
X118605367Y-94785978D01*
X118635716Y-94899243D01*
X118638039Y-94904224D01*
X118638039Y-94904225D01*
X118730151Y-95101762D01*
X118730154Y-95101767D01*
X118732477Y-95106749D01*
X118782080Y-95177589D01*
X118852335Y-95277923D01*
X118863802Y-95294300D01*
X119025700Y-95456198D01*
X119030208Y-95459355D01*
X119030211Y-95459357D01*
X119096503Y-95505775D01*
X119213251Y-95587523D01*
X119218233Y-95589846D01*
X119218238Y-95589849D01*
X119415775Y-95681961D01*
X119420757Y-95684284D01*
X119426065Y-95685706D01*
X119426067Y-95685707D01*
X119636598Y-95742119D01*
X119636600Y-95742119D01*
X119641913Y-95743543D01*
X119870000Y-95763498D01*
X120098087Y-95743543D01*
X120103398Y-95742120D01*
X120103409Y-95742118D01*
X120161541Y-95726541D01*
X120232517Y-95728230D01*
X120283248Y-95759152D01*
X124669595Y-100145499D01*
X124703621Y-100207811D01*
X124706500Y-100234594D01*
X124706500Y-105020606D01*
X124686498Y-105088727D01*
X124652771Y-105123819D01*
X124500211Y-105230643D01*
X124500208Y-105230645D01*
X124495700Y-105233802D01*
X124333802Y-105395700D01*
X124202477Y-105583251D01*
X124200154Y-105588233D01*
X124200151Y-105588238D01*
X124121232Y-105757483D01*
X124105716Y-105790757D01*
X124046457Y-106011913D01*
X124026502Y-106240000D01*
X124046457Y-106468087D01*
X124105716Y-106689243D01*
X124108039Y-106694224D01*
X124108039Y-106694225D01*
X124200151Y-106891762D01*
X124200154Y-106891767D01*
X124202477Y-106896749D01*
X124227231Y-106932101D01*
X124327597Y-107075438D01*
X124333802Y-107084300D01*
X124495700Y-107246198D01*
X124500208Y-107249355D01*
X124500211Y-107249357D01*
X124547647Y-107282572D01*
X124683251Y-107377523D01*
X124688233Y-107379846D01*
X124688238Y-107379849D01*
X124787865Y-107426305D01*
X124841150Y-107473222D01*
X124860611Y-107541499D01*
X124840069Y-107609459D01*
X124786047Y-107655525D01*
X124734615Y-107666500D01*
X110421271Y-107666500D01*
X110353150Y-107646498D01*
X110306657Y-107592842D01*
X110296553Y-107522568D01*
X110326047Y-107457988D01*
X110332176Y-107451405D01*
X113879217Y-103904364D01*
X113941529Y-103870338D01*
X113997726Y-103870940D01*
X114216153Y-103923380D01*
X114216159Y-103923381D01*
X114220966Y-103924535D01*
X114457677Y-103943165D01*
X114694388Y-103924535D01*
X114699195Y-103923381D01*
X114699201Y-103923380D01*
X114877328Y-103880615D01*
X114925271Y-103869105D01*
X114929844Y-103867211D01*
X115140066Y-103780135D01*
X115140070Y-103780133D01*
X115144640Y-103778240D01*
X115148860Y-103775654D01*
X115342879Y-103656759D01*
X115342885Y-103656755D01*
X115347093Y-103654176D01*
X115527646Y-103499969D01*
X115681853Y-103319416D01*
X115684432Y-103315208D01*
X115684436Y-103315202D01*
X115803331Y-103121183D01*
X115805917Y-103116963D01*
X115857281Y-102992960D01*
X115894888Y-102902167D01*
X115894889Y-102902165D01*
X115896782Y-102897594D01*
X115924105Y-102783786D01*
X115951057Y-102671524D01*
X115951058Y-102671518D01*
X115952212Y-102666711D01*
X115970842Y-102430000D01*
X115952212Y-102193289D01*
X115950846Y-102187596D01*
X115897937Y-101967218D01*
X115896782Y-101962406D01*
X115876756Y-101914059D01*
X115807812Y-101747611D01*
X115807810Y-101747607D01*
X115805917Y-101743037D01*
X115786527Y-101711395D01*
X115684436Y-101544798D01*
X115684432Y-101544792D01*
X115681853Y-101540584D01*
X115527646Y-101360031D01*
X115347093Y-101205824D01*
X115342885Y-101203245D01*
X115342879Y-101203241D01*
X115148860Y-101084346D01*
X115144640Y-101081760D01*
X115140070Y-101079867D01*
X115140066Y-101079865D01*
X114929844Y-100992789D01*
X114929842Y-100992788D01*
X114925271Y-100990895D01*
X114845068Y-100971640D01*
X114699201Y-100936620D01*
X114699195Y-100936619D01*
X114694388Y-100935465D01*
X114457677Y-100916835D01*
X114220966Y-100935465D01*
X114216159Y-100936619D01*
X114216153Y-100936620D01*
X114070286Y-100971640D01*
X113990083Y-100990895D01*
X113985512Y-100992788D01*
X113985510Y-100992789D01*
X113775288Y-101079865D01*
X113775284Y-101079867D01*
X113770714Y-101081760D01*
X113766494Y-101084346D01*
X113572475Y-101203241D01*
X113572469Y-101203245D01*
X113568261Y-101205824D01*
X113387708Y-101360031D01*
X113233501Y-101540584D01*
X113230922Y-101544792D01*
X113230918Y-101544798D01*
X113128827Y-101711395D01*
X113109437Y-101743037D01*
X113107544Y-101747607D01*
X113107542Y-101747611D01*
X113038598Y-101914059D01*
X113018572Y-101962406D01*
X113017417Y-101967218D01*
X112964509Y-102187596D01*
X112963142Y-102193289D01*
X112944512Y-102430000D01*
X112963142Y-102666711D01*
X112964296Y-102671518D01*
X112964297Y-102671524D01*
X113000395Y-102821880D01*
X113016631Y-102889507D01*
X113016737Y-102889950D01*
X113013190Y-102960858D01*
X112983313Y-103008459D01*
X109562177Y-106429595D01*
X109499865Y-106463621D01*
X109473082Y-106466500D01*
X98114595Y-106466500D01*
X98046474Y-106446498D01*
X98025499Y-106429595D01*
X97360404Y-105764499D01*
X97326379Y-105702187D01*
X97323500Y-105675404D01*
X97323500Y-105085811D01*
X101881500Y-105085811D01*
X101888255Y-105147993D01*
X101939385Y-105284382D01*
X102026739Y-105400938D01*
X102143295Y-105488292D01*
X102279684Y-105539422D01*
X102341866Y-105546177D01*
X104438134Y-105546177D01*
X104500316Y-105539422D01*
X104636705Y-105488292D01*
X104753261Y-105400938D01*
X104840615Y-105284382D01*
X104891745Y-105147993D01*
X104898500Y-105085811D01*
X104898500Y-104539594D01*
X104918502Y-104471473D01*
X104935405Y-104450499D01*
X105702014Y-103683891D01*
X106472253Y-102913652D01*
X106480539Y-102906112D01*
X106487018Y-102902000D01*
X106533644Y-102852348D01*
X106536398Y-102849507D01*
X106556135Y-102829770D01*
X106558615Y-102826573D01*
X106566320Y-102817551D01*
X106596586Y-102785321D01*
X106600405Y-102778375D01*
X106600407Y-102778372D01*
X106606348Y-102767566D01*
X106617199Y-102751047D01*
X106624758Y-102741301D01*
X106629614Y-102735041D01*
X106632759Y-102727772D01*
X106632762Y-102727768D01*
X106647174Y-102694463D01*
X106652391Y-102683813D01*
X106673695Y-102645060D01*
X106678733Y-102625437D01*
X106685137Y-102606734D01*
X106690033Y-102595420D01*
X106690033Y-102595419D01*
X106693181Y-102588145D01*
X106694420Y-102580322D01*
X106694423Y-102580312D01*
X106700099Y-102544476D01*
X106702505Y-102532856D01*
X106711528Y-102497711D01*
X106711528Y-102497710D01*
X106713500Y-102490030D01*
X106713500Y-102469776D01*
X106715051Y-102450065D01*
X106716980Y-102437886D01*
X106718220Y-102430057D01*
X106714059Y-102386038D01*
X106713500Y-102374181D01*
X106713500Y-96479394D01*
X106733502Y-96411273D01*
X106767229Y-96376181D01*
X106919789Y-96269357D01*
X106919792Y-96269355D01*
X106924300Y-96266198D01*
X107086198Y-96104300D01*
X107099380Y-96085475D01*
X107144098Y-96021611D01*
X107217523Y-95916749D01*
X107219846Y-95911767D01*
X107219849Y-95911762D01*
X107311961Y-95714225D01*
X107311961Y-95714224D01*
X107314284Y-95709243D01*
X107320591Y-95685707D01*
X107372119Y-95493402D01*
X107372119Y-95493400D01*
X107373543Y-95488087D01*
X107393498Y-95260000D01*
X107373543Y-95031913D01*
X107350553Y-94946113D01*
X107315707Y-94816067D01*
X107315706Y-94816065D01*
X107314284Y-94810757D01*
X107302953Y-94786457D01*
X107219849Y-94608238D01*
X107219846Y-94608233D01*
X107217523Y-94603251D01*
X107126941Y-94473887D01*
X107089357Y-94420211D01*
X107089355Y-94420208D01*
X107086198Y-94415700D01*
X106924300Y-94253802D01*
X106919792Y-94250645D01*
X106919789Y-94250643D01*
X106820218Y-94180923D01*
X106736749Y-94122477D01*
X106731767Y-94120154D01*
X106731762Y-94120151D01*
X106534225Y-94028039D01*
X106534224Y-94028039D01*
X106529243Y-94025716D01*
X106523935Y-94024294D01*
X106523933Y-94024293D01*
X106313402Y-93967881D01*
X106313400Y-93967881D01*
X106308087Y-93966457D01*
X106080000Y-93946502D01*
X105851913Y-93966457D01*
X105846600Y-93967881D01*
X105846598Y-93967881D01*
X105636067Y-94024293D01*
X105636065Y-94024294D01*
X105630757Y-94025716D01*
X105625776Y-94028039D01*
X105625775Y-94028039D01*
X105428238Y-94120151D01*
X105428233Y-94120154D01*
X105423251Y-94122477D01*
X105339782Y-94180923D01*
X105240211Y-94250643D01*
X105240208Y-94250645D01*
X105235700Y-94253802D01*
X105073802Y-94415700D01*
X105070645Y-94420208D01*
X105070643Y-94420211D01*
X105033059Y-94473887D01*
X104942477Y-94603251D01*
X104940154Y-94608233D01*
X104940151Y-94608238D01*
X104857047Y-94786457D01*
X104845716Y-94810757D01*
X104844294Y-94816065D01*
X104844293Y-94816067D01*
X104809447Y-94946113D01*
X104786457Y-95031913D01*
X104766502Y-95260000D01*
X104786457Y-95488087D01*
X104787881Y-95493400D01*
X104787881Y-95493402D01*
X104839410Y-95685707D01*
X104845716Y-95709243D01*
X104848039Y-95714224D01*
X104848039Y-95714225D01*
X104940151Y-95911762D01*
X104940154Y-95911767D01*
X104942477Y-95916749D01*
X105015902Y-96021611D01*
X105060621Y-96085475D01*
X105073802Y-96104300D01*
X105235700Y-96266198D01*
X105240208Y-96269355D01*
X105240211Y-96269357D01*
X105392771Y-96376181D01*
X105437099Y-96431638D01*
X105446500Y-96479394D01*
X105446500Y-102095406D01*
X105426498Y-102163527D01*
X105409595Y-102184501D01*
X104924666Y-102669430D01*
X104862354Y-102703456D01*
X104791539Y-102698391D01*
X104753577Y-102673994D01*
X104753261Y-102674416D01*
X104747404Y-102670026D01*
X104747400Y-102670024D01*
X104636705Y-102587062D01*
X104500316Y-102535932D01*
X104438134Y-102529177D01*
X102341866Y-102529177D01*
X102279684Y-102535932D01*
X102143295Y-102587062D01*
X102026739Y-102674416D01*
X101939385Y-102790972D01*
X101888255Y-102927361D01*
X101881500Y-102989543D01*
X101881500Y-105085811D01*
X97323500Y-105085811D01*
X97323500Y-89014594D01*
X97343502Y-88946473D01*
X97360405Y-88925499D01*
X97756405Y-88529499D01*
X97818717Y-88495473D01*
X97889532Y-88500538D01*
X97946368Y-88543085D01*
X97971179Y-88609605D01*
X97971500Y-88618594D01*
X97971500Y-89498134D01*
X97978255Y-89560316D01*
X98029385Y-89696705D01*
X98116739Y-89813261D01*
X98233295Y-89900615D01*
X98369684Y-89951745D01*
X98431866Y-89958500D01*
X98570500Y-89958500D01*
X98638621Y-89978502D01*
X98685114Y-90032158D01*
X98696500Y-90084500D01*
X98696500Y-94898910D01*
X98695973Y-94910093D01*
X98694298Y-94917586D01*
X98694547Y-94925512D01*
X98694547Y-94925513D01*
X98696438Y-94985663D01*
X98696500Y-94989622D01*
X98696500Y-95017533D01*
X98696997Y-95021467D01*
X98696997Y-95021468D01*
X98697005Y-95021533D01*
X98697938Y-95033370D01*
X98699327Y-95077566D01*
X98704978Y-95097016D01*
X98708987Y-95116377D01*
X98711526Y-95136474D01*
X98714445Y-95143845D01*
X98714445Y-95143847D01*
X98727804Y-95177589D01*
X98731649Y-95188819D01*
X98743982Y-95231270D01*
X98748015Y-95238089D01*
X98748017Y-95238094D01*
X98754293Y-95248705D01*
X98762988Y-95266453D01*
X98770448Y-95285294D01*
X98775110Y-95291710D01*
X98775110Y-95291711D01*
X98796436Y-95321064D01*
X98802952Y-95330984D01*
X98825458Y-95369039D01*
X98839779Y-95383360D01*
X98852619Y-95398393D01*
X98864528Y-95414784D01*
X98870634Y-95419835D01*
X98898605Y-95442975D01*
X98907384Y-95450965D01*
X101915636Y-98459218D01*
X101949662Y-98521530D01*
X101949060Y-98577727D01*
X101920872Y-98695140D01*
X101895465Y-98800966D01*
X101876835Y-99037677D01*
X101895465Y-99274388D01*
X101896619Y-99279195D01*
X101896620Y-99279201D01*
X101931640Y-99425068D01*
X101950895Y-99505271D01*
X101952788Y-99509842D01*
X101952789Y-99509844D01*
X102032370Y-99701970D01*
X102041760Y-99724640D01*
X102044346Y-99728860D01*
X102163241Y-99922879D01*
X102163245Y-99922885D01*
X102165824Y-99927093D01*
X102320031Y-100107646D01*
X102500584Y-100261853D01*
X102504792Y-100264432D01*
X102504798Y-100264436D01*
X102698817Y-100383331D01*
X102703037Y-100385917D01*
X102707607Y-100387810D01*
X102707611Y-100387812D01*
X102917833Y-100474888D01*
X102922406Y-100476782D01*
X102985669Y-100491970D01*
X103148476Y-100531057D01*
X103148482Y-100531058D01*
X103153289Y-100532212D01*
X103390000Y-100550842D01*
X103626711Y-100532212D01*
X103631518Y-100531058D01*
X103631524Y-100531057D01*
X103794331Y-100491970D01*
X103857594Y-100476782D01*
X103862167Y-100474888D01*
X104072389Y-100387812D01*
X104072393Y-100387810D01*
X104076963Y-100385917D01*
X104081183Y-100383331D01*
X104275202Y-100264436D01*
X104275208Y-100264432D01*
X104279416Y-100261853D01*
X104459969Y-100107646D01*
X104614176Y-99927093D01*
X104616755Y-99922885D01*
X104616759Y-99922879D01*
X104735654Y-99728860D01*
X104738240Y-99724640D01*
X104747631Y-99701970D01*
X104827211Y-99509844D01*
X104827212Y-99509842D01*
X104829105Y-99505271D01*
X104848360Y-99425068D01*
X104883380Y-99279201D01*
X104883381Y-99279195D01*
X104884535Y-99274388D01*
X104903165Y-99037677D01*
X104884535Y-98800966D01*
X104859129Y-98695140D01*
X104830260Y-98574895D01*
X104829105Y-98570083D01*
X104808994Y-98521530D01*
X104740135Y-98355288D01*
X104740133Y-98355284D01*
X104738240Y-98350714D01*
X104735654Y-98346494D01*
X104616759Y-98152475D01*
X104616755Y-98152469D01*
X104614176Y-98148261D01*
X104459969Y-97967708D01*
X104279416Y-97813501D01*
X104275208Y-97810922D01*
X104275202Y-97810918D01*
X104081183Y-97692023D01*
X104076963Y-97689437D01*
X104072393Y-97687544D01*
X104072389Y-97687542D01*
X103862167Y-97600466D01*
X103862165Y-97600465D01*
X103857594Y-97598572D01*
X103777391Y-97579317D01*
X103631524Y-97544297D01*
X103631518Y-97544296D01*
X103626711Y-97543142D01*
X103390000Y-97524512D01*
X103153289Y-97543142D01*
X103148482Y-97544296D01*
X103148476Y-97544297D01*
X102930049Y-97596737D01*
X102859141Y-97593190D01*
X102811540Y-97563313D01*
X100000405Y-94752177D01*
X99966379Y-94689865D01*
X99963500Y-94663082D01*
X99963500Y-90084500D01*
X99983502Y-90016379D01*
X100037158Y-89969886D01*
X100089500Y-89958500D01*
X100228134Y-89958500D01*
X100290316Y-89951745D01*
X100426705Y-89900615D01*
X100543261Y-89813261D01*
X100630615Y-89696705D01*
X100681745Y-89560316D01*
X100688500Y-89498134D01*
X100688500Y-87701866D01*
X100681745Y-87639684D01*
X100630615Y-87503295D01*
X100543261Y-87386739D01*
X100426705Y-87299385D01*
X100391929Y-87286348D01*
X100308203Y-87254960D01*
X100251439Y-87212318D01*
X100226739Y-87145756D01*
X100241947Y-87076408D01*
X100263493Y-87047727D01*
X100321105Y-86990316D01*
X100368096Y-86943489D01*
X100453599Y-86824499D01*
X100495435Y-86766277D01*
X100498453Y-86762077D01*
X100540462Y-86677079D01*
X100595136Y-86566453D01*
X100595137Y-86566451D01*
X100597430Y-86561811D01*
X100662370Y-86348069D01*
X100691529Y-86126590D01*
X100691611Y-86123240D01*
X100693074Y-86063365D01*
X100693074Y-86063361D01*
X100693156Y-86060000D01*
X100674852Y-85837361D01*
X100620431Y-85620702D01*
X100531354Y-85415840D01*
X100444295Y-85281267D01*
X100412822Y-85232617D01*
X100412820Y-85232614D01*
X100410014Y-85228277D01*
X100259670Y-85063051D01*
X100255619Y-85059852D01*
X100255615Y-85059848D01*
X100088414Y-84927800D01*
X100088410Y-84927798D01*
X100084359Y-84924598D01*
X100076543Y-84920283D01*
X100023980Y-84891267D01*
X99888789Y-84816638D01*
X99883920Y-84814914D01*
X99883916Y-84814912D01*
X99683087Y-84743795D01*
X99683083Y-84743794D01*
X99678212Y-84742069D01*
X99673119Y-84741162D01*
X99673116Y-84741161D01*
X99463373Y-84703800D01*
X99463367Y-84703799D01*
X99458284Y-84702894D01*
X99384452Y-84701992D01*
X99240081Y-84700228D01*
X99240079Y-84700228D01*
X99234911Y-84700165D01*
X99014091Y-84733955D01*
X98801756Y-84803357D01*
X98603607Y-84906507D01*
X98599474Y-84909610D01*
X98599471Y-84909612D01*
X98429100Y-85037530D01*
X98424965Y-85040635D01*
X98270629Y-85202138D01*
X98144743Y-85386680D01*
X98126948Y-85425016D01*
X98066972Y-85554225D01*
X98050688Y-85589305D01*
X97990989Y-85804570D01*
X97967251Y-86026695D01*
X97967548Y-86031848D01*
X97967548Y-86031851D01*
X97976696Y-86190500D01*
X97980110Y-86249715D01*
X97981247Y-86254761D01*
X97981248Y-86254767D01*
X97999489Y-86335707D01*
X98008456Y-86375493D01*
X98013453Y-86397668D01*
X98008917Y-86468520D01*
X97979631Y-86514464D01*
X96338595Y-88155500D01*
X96276283Y-88189526D01*
X96205468Y-88184461D01*
X96148632Y-88141914D01*
X96123821Y-88075394D01*
X96123500Y-88066405D01*
X96123500Y-85384388D01*
X96143502Y-85316267D01*
X96160405Y-85295293D01*
X100575698Y-80880000D01*
X122506835Y-80880000D01*
X122525465Y-81116711D01*
X122580895Y-81347594D01*
X122671760Y-81566963D01*
X122674346Y-81571183D01*
X122793241Y-81765202D01*
X122793245Y-81765208D01*
X122795824Y-81769416D01*
X122950031Y-81949969D01*
X122953787Y-81953177D01*
X122974618Y-81970968D01*
X123130584Y-82104176D01*
X123134792Y-82106755D01*
X123134798Y-82106759D01*
X123236763Y-82169243D01*
X123333037Y-82228240D01*
X123337607Y-82230133D01*
X123337611Y-82230135D01*
X123547833Y-82317211D01*
X123552406Y-82319105D01*
X123632609Y-82338360D01*
X123778476Y-82373380D01*
X123778482Y-82373381D01*
X123783289Y-82374535D01*
X124020000Y-82393165D01*
X124256711Y-82374535D01*
X124261518Y-82373381D01*
X124261524Y-82373380D01*
X124407391Y-82338360D01*
X124487594Y-82319105D01*
X124492167Y-82317211D01*
X124702389Y-82230135D01*
X124702393Y-82230133D01*
X124706963Y-82228240D01*
X124803237Y-82169243D01*
X124905202Y-82106759D01*
X124905208Y-82106755D01*
X124909416Y-82104176D01*
X125065382Y-81970968D01*
X125086213Y-81953177D01*
X125089969Y-81949969D01*
X125244176Y-81769416D01*
X125246755Y-81765208D01*
X125246759Y-81765202D01*
X125365654Y-81571183D01*
X125368240Y-81566963D01*
X125459105Y-81347594D01*
X125514535Y-81116711D01*
X125533165Y-80880000D01*
X125514535Y-80643289D01*
X125500694Y-80585634D01*
X125476705Y-80485716D01*
X125459105Y-80412406D01*
X125456858Y-80406981D01*
X125370135Y-80197611D01*
X125370133Y-80197607D01*
X125368240Y-80193037D01*
X125365654Y-80188817D01*
X125246759Y-79994798D01*
X125246755Y-79994792D01*
X125244176Y-79990584D01*
X125089969Y-79810031D01*
X124909416Y-79655824D01*
X124905208Y-79653245D01*
X124905202Y-79653241D01*
X124711183Y-79534346D01*
X124706963Y-79531760D01*
X124702393Y-79529867D01*
X124702389Y-79529865D01*
X124492167Y-79442789D01*
X124492165Y-79442788D01*
X124487594Y-79440895D01*
X124407391Y-79421640D01*
X124261524Y-79386620D01*
X124261518Y-79386619D01*
X124256711Y-79385465D01*
X124020000Y-79366835D01*
X123783289Y-79385465D01*
X123778482Y-79386619D01*
X123778476Y-79386620D01*
X123632609Y-79421640D01*
X123552406Y-79440895D01*
X123547835Y-79442788D01*
X123547833Y-79442789D01*
X123337611Y-79529865D01*
X123337607Y-79529867D01*
X123333037Y-79531760D01*
X123328817Y-79534346D01*
X123134798Y-79653241D01*
X123134792Y-79653245D01*
X123130584Y-79655824D01*
X122950031Y-79810031D01*
X122795824Y-79990584D01*
X122793245Y-79994792D01*
X122793241Y-79994798D01*
X122674346Y-80188817D01*
X122671760Y-80193037D01*
X122669867Y-80197607D01*
X122669865Y-80197611D01*
X122583142Y-80406981D01*
X122580895Y-80412406D01*
X122563295Y-80485716D01*
X122539307Y-80585634D01*
X122525465Y-80643289D01*
X122506835Y-80880000D01*
X100575698Y-80880000D01*
X102219636Y-79236062D01*
X131708493Y-79236062D01*
X131717789Y-79248077D01*
X131768994Y-79283931D01*
X131778489Y-79289414D01*
X131975947Y-79381490D01*
X131986239Y-79385236D01*
X132196688Y-79441625D01*
X132207481Y-79443528D01*
X132424525Y-79462517D01*
X132435475Y-79462517D01*
X132652519Y-79443528D01*
X132663312Y-79441625D01*
X132873761Y-79385236D01*
X132884053Y-79381490D01*
X133081511Y-79289414D01*
X133091006Y-79283931D01*
X133143048Y-79247491D01*
X133151424Y-79237012D01*
X133144356Y-79223566D01*
X132442812Y-78522022D01*
X132428868Y-78514408D01*
X132427035Y-78514539D01*
X132420420Y-78518790D01*
X131714923Y-79224287D01*
X131708493Y-79236062D01*
X102219636Y-79236062D01*
X103300223Y-78155475D01*
X131117483Y-78155475D01*
X131136472Y-78372519D01*
X131138375Y-78383312D01*
X131194764Y-78593761D01*
X131198510Y-78604053D01*
X131290586Y-78801511D01*
X131296069Y-78811006D01*
X131332509Y-78863048D01*
X131342988Y-78871424D01*
X131356434Y-78864356D01*
X132057978Y-78162812D01*
X132064356Y-78151132D01*
X132794408Y-78151132D01*
X132794539Y-78152965D01*
X132798790Y-78159580D01*
X133504287Y-78865077D01*
X133516062Y-78871507D01*
X133528077Y-78862211D01*
X133563931Y-78811006D01*
X133569414Y-78801511D01*
X133661490Y-78604053D01*
X133665236Y-78593761D01*
X133721625Y-78383312D01*
X133723528Y-78372519D01*
X133742517Y-78155475D01*
X133742517Y-78144525D01*
X133723528Y-77927481D01*
X133721625Y-77916688D01*
X133665236Y-77706239D01*
X133661490Y-77695947D01*
X133569414Y-77498489D01*
X133563931Y-77488994D01*
X133527491Y-77436952D01*
X133517012Y-77428576D01*
X133503566Y-77435644D01*
X132802022Y-78137188D01*
X132794408Y-78151132D01*
X132064356Y-78151132D01*
X132065592Y-78148868D01*
X132065461Y-78147035D01*
X132061210Y-78140420D01*
X131355713Y-77434923D01*
X131343938Y-77428493D01*
X131331923Y-77437789D01*
X131296069Y-77488994D01*
X131290586Y-77498489D01*
X131198510Y-77695947D01*
X131194764Y-77706239D01*
X131138375Y-77916688D01*
X131136472Y-77927481D01*
X131117483Y-78144525D01*
X131117483Y-78155475D01*
X103300223Y-78155475D01*
X104392710Y-77062988D01*
X131708576Y-77062988D01*
X131715644Y-77076434D01*
X132417188Y-77777978D01*
X132431132Y-77785592D01*
X132432965Y-77785461D01*
X132439580Y-77781210D01*
X133145077Y-77075713D01*
X133151507Y-77063938D01*
X133142211Y-77051923D01*
X133091006Y-77016069D01*
X133081511Y-77010586D01*
X132884053Y-76918510D01*
X132873761Y-76914764D01*
X132663312Y-76858375D01*
X132652519Y-76856472D01*
X132435475Y-76837483D01*
X132424525Y-76837483D01*
X132207481Y-76856472D01*
X132196688Y-76858375D01*
X131986239Y-76914764D01*
X131975947Y-76918510D01*
X131778489Y-77010586D01*
X131768994Y-77016069D01*
X131716952Y-77052509D01*
X131708576Y-77062988D01*
X104392710Y-77062988D01*
X105180293Y-76275405D01*
X105242605Y-76241379D01*
X105269388Y-76238500D01*
X107277928Y-76238500D01*
X107340110Y-76231745D01*
X107476499Y-76180615D01*
X107593055Y-76093261D01*
X107680409Y-75976705D01*
X107731539Y-75840316D01*
X107738294Y-75778134D01*
X107738294Y-74485151D01*
X111817090Y-74485151D01*
X111829274Y-74738798D01*
X111878815Y-74987857D01*
X111880394Y-74992255D01*
X111880396Y-74992262D01*
X111927246Y-75122749D01*
X111964625Y-75226858D01*
X111966842Y-75230984D01*
X112053488Y-75392240D01*
X112084819Y-75450551D01*
X112087614Y-75454294D01*
X112087616Y-75454297D01*
X112233965Y-75650282D01*
X112233970Y-75650288D01*
X112236757Y-75654020D01*
X112240066Y-75657300D01*
X112240071Y-75657306D01*
X112413784Y-75829509D01*
X112417101Y-75832797D01*
X112420863Y-75835555D01*
X112420866Y-75835558D01*
X112526558Y-75913054D01*
X112621888Y-75982953D01*
X112626023Y-75985129D01*
X112626027Y-75985131D01*
X112744083Y-76047243D01*
X112846621Y-76101191D01*
X113086362Y-76184912D01*
X113335844Y-76232278D01*
X113456326Y-76237011D01*
X113584919Y-76242064D01*
X113584924Y-76242064D01*
X113589587Y-76242247D01*
X113688568Y-76231407D01*
X113837363Y-76215112D01*
X113837369Y-76215111D01*
X113842016Y-76214602D01*
X113951474Y-76185784D01*
X114083067Y-76151138D01*
X114087587Y-76149948D01*
X114236243Y-76086081D01*
X114316601Y-76051557D01*
X114316604Y-76051555D01*
X114320904Y-76049708D01*
X114324884Y-76047245D01*
X114324888Y-76047243D01*
X114532858Y-75918547D01*
X114532860Y-75918545D01*
X114536841Y-75916082D01*
X114635620Y-75832460D01*
X114727083Y-75755031D01*
X114727085Y-75755029D01*
X114730656Y-75752006D01*
X114898089Y-75561084D01*
X114915355Y-75534242D01*
X115032935Y-75351442D01*
X115035463Y-75347512D01*
X115136712Y-75122749D01*
X115182928Y-75068855D01*
X115251594Y-75048500D01*
X122774274Y-75048500D01*
X122842395Y-75068502D01*
X122881707Y-75108665D01*
X122949987Y-75220088D01*
X123096250Y-75388938D01*
X123268126Y-75531632D01*
X123461000Y-75644338D01*
X123465825Y-75646180D01*
X123465826Y-75646181D01*
X123494960Y-75657306D01*
X123669692Y-75724030D01*
X123674760Y-75725061D01*
X123674763Y-75725062D01*
X123782017Y-75746883D01*
X123888597Y-75768567D01*
X123893772Y-75768757D01*
X123893774Y-75768757D01*
X124106673Y-75776564D01*
X124106677Y-75776564D01*
X124111837Y-75776753D01*
X124116957Y-75776097D01*
X124116959Y-75776097D01*
X124328288Y-75749025D01*
X124328289Y-75749025D01*
X124333416Y-75748368D01*
X124338366Y-75746883D01*
X124542429Y-75685661D01*
X124542434Y-75685659D01*
X124547384Y-75684174D01*
X124747994Y-75585896D01*
X124929860Y-75456173D01*
X124997331Y-75388938D01*
X125038479Y-75347933D01*
X125100851Y-75314017D01*
X125171658Y-75319205D01*
X125228419Y-75361851D01*
X125245401Y-75392954D01*
X125286676Y-75503054D01*
X125295214Y-75518649D01*
X125371715Y-75620724D01*
X125384276Y-75633285D01*
X125486351Y-75709786D01*
X125501946Y-75718324D01*
X125622394Y-75763478D01*
X125637649Y-75767105D01*
X125688514Y-75772631D01*
X125695328Y-75773000D01*
X126317885Y-75773000D01*
X126333124Y-75768525D01*
X126334329Y-75767135D01*
X126336000Y-75759452D01*
X126336000Y-75754884D01*
X126844000Y-75754884D01*
X126848475Y-75770123D01*
X126849865Y-75771328D01*
X126857548Y-75772999D01*
X127484669Y-75772999D01*
X127491490Y-75772629D01*
X127542352Y-75767105D01*
X127557604Y-75763479D01*
X127678054Y-75718324D01*
X127693649Y-75709786D01*
X127795724Y-75633285D01*
X127808285Y-75620724D01*
X127884786Y-75518649D01*
X127893324Y-75503054D01*
X127938478Y-75382606D01*
X127942105Y-75367351D01*
X127947631Y-75316486D01*
X127948000Y-75309672D01*
X127948000Y-74687115D01*
X127943525Y-74671876D01*
X127942135Y-74670671D01*
X127934452Y-74669000D01*
X126862115Y-74669000D01*
X126846876Y-74673475D01*
X126845671Y-74674865D01*
X126844000Y-74682548D01*
X126844000Y-75754884D01*
X126336000Y-75754884D01*
X126336000Y-74142885D01*
X126844000Y-74142885D01*
X126848475Y-74158124D01*
X126849865Y-74159329D01*
X126857548Y-74161000D01*
X127929884Y-74161000D01*
X127945123Y-74156525D01*
X127946328Y-74155135D01*
X127947999Y-74147452D01*
X127947999Y-73520331D01*
X127947629Y-73513510D01*
X127942105Y-73462648D01*
X127938479Y-73447396D01*
X127893324Y-73326946D01*
X127884786Y-73311351D01*
X127808285Y-73209276D01*
X127795724Y-73196715D01*
X127693649Y-73120214D01*
X127678054Y-73111676D01*
X127557606Y-73066522D01*
X127542351Y-73062895D01*
X127491486Y-73057369D01*
X127484672Y-73057000D01*
X126862115Y-73057000D01*
X126846876Y-73061475D01*
X126845671Y-73062865D01*
X126844000Y-73070548D01*
X126844000Y-74142885D01*
X126336000Y-74142885D01*
X126336000Y-73075116D01*
X126331525Y-73059877D01*
X126330135Y-73058672D01*
X126322452Y-73057001D01*
X125695331Y-73057001D01*
X125688510Y-73057371D01*
X125637648Y-73062895D01*
X125622396Y-73066521D01*
X125501946Y-73111676D01*
X125486351Y-73120214D01*
X125384276Y-73196715D01*
X125371715Y-73209276D01*
X125295214Y-73311351D01*
X125286676Y-73326946D01*
X125245297Y-73437322D01*
X125202655Y-73494087D01*
X125136093Y-73518786D01*
X125066744Y-73503578D01*
X125034121Y-73477891D01*
X124983151Y-73421876D01*
X124983148Y-73421873D01*
X124979670Y-73418051D01*
X124975619Y-73414852D01*
X124975615Y-73414848D01*
X124808414Y-73282800D01*
X124808410Y-73282798D01*
X124804359Y-73279598D01*
X124799835Y-73277101D01*
X124799831Y-73277098D01*
X124748608Y-73248822D01*
X124698636Y-73198390D01*
X124683500Y-73138513D01*
X124683500Y-72614594D01*
X124703502Y-72546473D01*
X124720405Y-72525499D01*
X125465499Y-71780405D01*
X125527811Y-71746379D01*
X125554594Y-71743500D01*
X128665406Y-71743500D01*
X128733527Y-71763502D01*
X128754501Y-71780405D01*
X130331343Y-73357247D01*
X130338887Y-73365537D01*
X130343000Y-73372018D01*
X130348777Y-73377443D01*
X130392667Y-73418658D01*
X130395509Y-73421413D01*
X130415230Y-73441134D01*
X130418425Y-73443612D01*
X130427447Y-73451318D01*
X130459679Y-73481586D01*
X130466628Y-73485406D01*
X130477432Y-73491346D01*
X130493956Y-73502199D01*
X130509959Y-73514613D01*
X130550543Y-73532176D01*
X130561173Y-73537383D01*
X130599940Y-73558695D01*
X130607617Y-73560666D01*
X130607622Y-73560668D01*
X130619558Y-73563732D01*
X130638266Y-73570137D01*
X130656855Y-73578181D01*
X130664683Y-73579421D01*
X130664690Y-73579423D01*
X130700524Y-73585099D01*
X130712144Y-73587505D01*
X130747289Y-73596528D01*
X130754970Y-73598500D01*
X130775224Y-73598500D01*
X130794934Y-73600051D01*
X130814943Y-73603220D01*
X130822835Y-73602474D01*
X130858961Y-73599059D01*
X130870819Y-73598500D01*
X135514274Y-73598500D01*
X135582395Y-73618502D01*
X135621707Y-73658665D01*
X135689987Y-73770088D01*
X135836250Y-73938938D01*
X136008126Y-74081632D01*
X136201000Y-74194338D01*
X136409692Y-74274030D01*
X136414760Y-74275061D01*
X136414763Y-74275062D01*
X136522017Y-74296883D01*
X136628597Y-74318567D01*
X136633772Y-74318757D01*
X136633774Y-74318757D01*
X136846673Y-74326564D01*
X136846677Y-74326564D01*
X136851837Y-74326753D01*
X136856957Y-74326097D01*
X136856959Y-74326097D01*
X137068288Y-74299025D01*
X137068289Y-74299025D01*
X137073416Y-74298368D01*
X137078366Y-74296883D01*
X137282429Y-74235661D01*
X137282434Y-74235659D01*
X137287384Y-74234174D01*
X137487994Y-74135896D01*
X137669860Y-74006173D01*
X137778091Y-73898319D01*
X137840462Y-73864404D01*
X137911268Y-73869592D01*
X137968030Y-73912238D01*
X137985012Y-73943341D01*
X138001141Y-73986365D01*
X138029385Y-74061705D01*
X138116739Y-74178261D01*
X138233295Y-74265615D01*
X138369684Y-74316745D01*
X138431866Y-74323500D01*
X140228134Y-74323500D01*
X140290316Y-74316745D01*
X140426705Y-74265615D01*
X140543261Y-74178261D01*
X140630615Y-74061705D01*
X140681745Y-73925316D01*
X140688500Y-73863134D01*
X140688500Y-73724500D01*
X140708502Y-73656379D01*
X140762158Y-73609886D01*
X140814500Y-73598500D01*
X141130406Y-73598500D01*
X141198527Y-73618502D01*
X141219501Y-73635405D01*
X145311918Y-77727823D01*
X145345944Y-77790135D01*
X145348823Y-77816918D01*
X145348823Y-88168434D01*
X145328821Y-88236555D01*
X145288658Y-88275867D01*
X145097121Y-88393241D01*
X145097115Y-88393245D01*
X145092907Y-88395824D01*
X144912354Y-88550031D01*
X144758147Y-88730584D01*
X144755568Y-88734792D01*
X144755564Y-88734798D01*
X144651506Y-88904606D01*
X144634083Y-88933037D01*
X144632190Y-88937607D01*
X144632188Y-88937611D01*
X144580168Y-89063199D01*
X144543218Y-89152406D01*
X144542063Y-89157218D01*
X144502545Y-89321823D01*
X144487788Y-89383289D01*
X144469158Y-89620000D01*
X144487788Y-89856711D01*
X144488942Y-89861518D01*
X144488943Y-89861524D01*
X144510808Y-89952598D01*
X144543218Y-90087594D01*
X144545111Y-90092165D01*
X144545112Y-90092167D01*
X144549104Y-90101803D01*
X144634083Y-90306963D01*
X144636669Y-90311183D01*
X144755564Y-90505202D01*
X144755568Y-90505208D01*
X144758147Y-90509416D01*
X144912354Y-90689969D01*
X145092907Y-90844176D01*
X145097115Y-90846755D01*
X145097121Y-90846759D01*
X145285451Y-90962168D01*
X145295360Y-90968240D01*
X145299930Y-90970133D01*
X145299934Y-90970135D01*
X145464566Y-91038327D01*
X145514729Y-91059105D01*
X145575801Y-91073767D01*
X145740799Y-91113380D01*
X145740805Y-91113381D01*
X145745612Y-91114535D01*
X145982323Y-91133165D01*
X146219034Y-91114535D01*
X146223841Y-91113381D01*
X146223847Y-91113380D01*
X146388845Y-91073767D01*
X146449917Y-91059105D01*
X146500080Y-91038327D01*
X146664712Y-90970135D01*
X146664716Y-90970133D01*
X146669286Y-90968240D01*
X146679195Y-90962168D01*
X146867525Y-90846759D01*
X146867531Y-90846755D01*
X146871739Y-90844176D01*
X147052292Y-90689969D01*
X147206499Y-90509416D01*
X147209078Y-90505208D01*
X147209082Y-90505202D01*
X147327977Y-90311183D01*
X147330563Y-90306963D01*
X147415543Y-90101803D01*
X147419534Y-90092167D01*
X147419535Y-90092165D01*
X147421428Y-90087594D01*
X147453838Y-89952598D01*
X147475703Y-89861524D01*
X147475704Y-89861518D01*
X147476858Y-89856711D01*
X147495488Y-89620000D01*
X147476858Y-89383289D01*
X147462102Y-89321823D01*
X147422583Y-89157218D01*
X147421428Y-89152406D01*
X147384478Y-89063199D01*
X147332458Y-88937611D01*
X147332456Y-88937607D01*
X147330563Y-88933037D01*
X147313140Y-88904606D01*
X147209082Y-88734798D01*
X147209078Y-88734792D01*
X147206499Y-88730584D01*
X147052292Y-88550031D01*
X146871739Y-88395824D01*
X146867531Y-88393245D01*
X146867525Y-88393241D01*
X146675988Y-88275867D01*
X146628357Y-88223219D01*
X146615823Y-88168434D01*
X146615823Y-77581091D01*
X146616350Y-77569908D01*
X146618025Y-77562415D01*
X146615885Y-77494324D01*
X146615823Y-77490367D01*
X146615823Y-77462467D01*
X146615319Y-77458476D01*
X146614386Y-77446634D01*
X146613819Y-77428576D01*
X146612997Y-77402434D01*
X146610785Y-77394820D01*
X146610784Y-77394815D01*
X146607346Y-77382982D01*
X146603335Y-77363618D01*
X146601790Y-77351387D01*
X146600797Y-77343526D01*
X146597880Y-77336159D01*
X146597879Y-77336154D01*
X146584521Y-77302415D01*
X146580677Y-77291188D01*
X146570553Y-77256345D01*
X146568341Y-77248730D01*
X146558030Y-77231295D01*
X146549335Y-77213547D01*
X146541875Y-77194706D01*
X146515887Y-77158936D01*
X146509371Y-77149016D01*
X146490903Y-77117788D01*
X146490901Y-77117785D01*
X146486865Y-77110961D01*
X146472544Y-77096640D01*
X146459703Y-77081606D01*
X146455945Y-77076434D01*
X146447795Y-77065216D01*
X146413718Y-77037025D01*
X146404939Y-77029035D01*
X141948652Y-72572747D01*
X141941112Y-72564461D01*
X141937000Y-72557982D01*
X141887348Y-72511356D01*
X141884507Y-72508602D01*
X141864770Y-72488865D01*
X141861573Y-72486385D01*
X141852551Y-72478680D01*
X141826100Y-72453841D01*
X141820321Y-72448414D01*
X141813375Y-72444595D01*
X141813372Y-72444593D01*
X141802566Y-72438652D01*
X141786047Y-72427801D01*
X141785583Y-72427441D01*
X141770041Y-72415386D01*
X141762772Y-72412241D01*
X141762768Y-72412238D01*
X141729463Y-72397826D01*
X141718813Y-72392609D01*
X141680060Y-72371305D01*
X141660437Y-72366267D01*
X141641734Y-72359863D01*
X141630420Y-72354967D01*
X141630419Y-72354967D01*
X141623145Y-72351819D01*
X141615322Y-72350580D01*
X141615312Y-72350577D01*
X141579476Y-72344901D01*
X141567856Y-72342495D01*
X141532711Y-72333472D01*
X141532710Y-72333472D01*
X141525030Y-72331500D01*
X141504776Y-72331500D01*
X141485065Y-72329949D01*
X141472886Y-72328020D01*
X141465057Y-72326780D01*
X141457165Y-72327526D01*
X141421039Y-72330941D01*
X141409181Y-72331500D01*
X140814500Y-72331500D01*
X140746379Y-72311498D01*
X140699886Y-72257842D01*
X140688500Y-72205500D01*
X140688500Y-72066866D01*
X140681745Y-72004684D01*
X140630615Y-71868295D01*
X140543261Y-71751739D01*
X140426705Y-71664385D01*
X140290316Y-71613255D01*
X140228134Y-71606500D01*
X138431866Y-71606500D01*
X138369684Y-71613255D01*
X138233295Y-71664385D01*
X138116739Y-71751739D01*
X138029385Y-71868295D01*
X138026233Y-71876703D01*
X137984919Y-71986907D01*
X137942277Y-72043671D01*
X137875716Y-72068371D01*
X137806367Y-72053163D01*
X137773743Y-72027476D01*
X137723151Y-71971875D01*
X137723142Y-71971866D01*
X137719670Y-71968051D01*
X137715619Y-71964852D01*
X137715615Y-71964848D01*
X137548414Y-71832800D01*
X137548410Y-71832798D01*
X137544359Y-71829598D01*
X137348789Y-71721638D01*
X137343920Y-71719914D01*
X137343916Y-71719912D01*
X137143087Y-71648795D01*
X137143083Y-71648794D01*
X137138212Y-71647069D01*
X137133119Y-71646162D01*
X137133116Y-71646161D01*
X136923373Y-71608800D01*
X136923367Y-71608799D01*
X136918284Y-71607894D01*
X136844452Y-71606992D01*
X136700081Y-71605228D01*
X136700079Y-71605228D01*
X136694911Y-71605165D01*
X136474091Y-71638955D01*
X136261756Y-71708357D01*
X136231443Y-71724137D01*
X136080731Y-71802593D01*
X136063607Y-71811507D01*
X136059474Y-71814610D01*
X136059471Y-71814612D01*
X135889228Y-71942434D01*
X135884965Y-71945635D01*
X135856942Y-71974959D01*
X135791280Y-72043671D01*
X135730629Y-72107138D01*
X135727715Y-72111410D01*
X135727714Y-72111411D01*
X135615095Y-72276504D01*
X135560184Y-72321507D01*
X135511007Y-72331500D01*
X131149595Y-72331500D01*
X131081474Y-72311498D01*
X131060500Y-72294595D01*
X129483652Y-70717747D01*
X129476112Y-70709461D01*
X129472000Y-70702982D01*
X129422348Y-70656356D01*
X129419507Y-70653602D01*
X129399770Y-70633865D01*
X129396573Y-70631385D01*
X129387551Y-70623680D01*
X129374122Y-70611069D01*
X129355321Y-70593414D01*
X129348375Y-70589595D01*
X129348372Y-70589593D01*
X129337566Y-70583652D01*
X129321047Y-70572801D01*
X129320583Y-70572441D01*
X129305041Y-70560386D01*
X129297772Y-70557241D01*
X129297768Y-70557238D01*
X129264463Y-70542826D01*
X129253813Y-70537609D01*
X129215060Y-70516305D01*
X129195437Y-70511267D01*
X129176734Y-70504863D01*
X129165420Y-70499967D01*
X129165419Y-70499967D01*
X129158145Y-70496819D01*
X129150322Y-70495580D01*
X129150312Y-70495577D01*
X129114476Y-70489901D01*
X129102856Y-70487495D01*
X129067711Y-70478472D01*
X129067710Y-70478472D01*
X129060030Y-70476500D01*
X129039776Y-70476500D01*
X129020065Y-70474949D01*
X129007886Y-70473020D01*
X129000057Y-70471780D01*
X128970786Y-70474547D01*
X128956039Y-70475941D01*
X128944181Y-70476500D01*
X125318767Y-70476500D01*
X125307584Y-70475973D01*
X125300091Y-70474298D01*
X125292165Y-70474547D01*
X125292164Y-70474547D01*
X125232014Y-70476438D01*
X125228055Y-70476500D01*
X125200144Y-70476500D01*
X125196210Y-70476997D01*
X125196209Y-70476997D01*
X125196144Y-70477005D01*
X125184307Y-70477938D01*
X125152490Y-70478938D01*
X125148029Y-70479078D01*
X125140110Y-70479327D01*
X125122454Y-70484456D01*
X125120658Y-70484978D01*
X125101306Y-70488986D01*
X125094235Y-70489880D01*
X125081203Y-70491526D01*
X125073834Y-70494443D01*
X125073832Y-70494444D01*
X125040097Y-70507800D01*
X125028869Y-70511645D01*
X124986407Y-70523982D01*
X124979584Y-70528017D01*
X124979582Y-70528018D01*
X124968972Y-70534293D01*
X124951224Y-70542988D01*
X124932383Y-70550448D01*
X124925967Y-70555110D01*
X124925966Y-70555110D01*
X124896613Y-70576436D01*
X124886693Y-70582952D01*
X124855465Y-70601420D01*
X124855462Y-70601422D01*
X124848638Y-70605458D01*
X124834317Y-70619779D01*
X124819284Y-70632619D01*
X124802893Y-70644528D01*
X124794217Y-70655016D01*
X124774702Y-70678605D01*
X124766712Y-70687384D01*
X123657747Y-71796348D01*
X123649461Y-71803888D01*
X123642982Y-71808000D01*
X123637557Y-71813777D01*
X123596357Y-71857651D01*
X123593602Y-71860493D01*
X123573865Y-71880230D01*
X123571385Y-71883427D01*
X123563682Y-71892447D01*
X123533414Y-71924679D01*
X123529595Y-71931625D01*
X123529593Y-71931628D01*
X123523652Y-71942434D01*
X123512801Y-71958953D01*
X123500386Y-71974959D01*
X123497241Y-71982228D01*
X123497238Y-71982232D01*
X123482826Y-72015537D01*
X123477609Y-72026187D01*
X123456305Y-72064940D01*
X123454334Y-72072615D01*
X123454334Y-72072616D01*
X123451267Y-72084562D01*
X123444863Y-72103266D01*
X123443188Y-72107138D01*
X123436819Y-72121855D01*
X123435580Y-72129678D01*
X123435577Y-72129688D01*
X123429901Y-72165524D01*
X123427495Y-72177144D01*
X123416500Y-72219970D01*
X123416500Y-72240224D01*
X123414949Y-72259934D01*
X123411780Y-72279943D01*
X123412526Y-72287835D01*
X123415941Y-72323961D01*
X123416500Y-72335819D01*
X123416500Y-73136692D01*
X123396498Y-73204813D01*
X123348683Y-73248453D01*
X123323607Y-73261507D01*
X123319474Y-73264610D01*
X123319471Y-73264612D01*
X123149100Y-73392530D01*
X123144965Y-73395635D01*
X123105128Y-73437322D01*
X123028259Y-73517761D01*
X122990629Y-73557138D01*
X122987715Y-73561410D01*
X122987714Y-73561411D01*
X122875095Y-73726504D01*
X122820184Y-73771507D01*
X122771007Y-73781500D01*
X115143063Y-73781500D01*
X115074942Y-73761498D01*
X115033670Y-73718023D01*
X114952496Y-73575997D01*
X114952494Y-73575995D01*
X114950177Y-73571940D01*
X114792965Y-73372517D01*
X114608003Y-73198523D01*
X114495121Y-73120214D01*
X114403187Y-73056437D01*
X114403184Y-73056435D01*
X114399355Y-73053779D01*
X114395178Y-73051719D01*
X114395171Y-73051715D01*
X114175790Y-72943528D01*
X114175786Y-72943527D01*
X114171604Y-72941464D01*
X113929754Y-72864047D01*
X113925149Y-72863297D01*
X113683729Y-72823980D01*
X113683728Y-72823980D01*
X113679117Y-72823229D01*
X113552159Y-72821567D01*
X113429877Y-72819966D01*
X113429874Y-72819966D01*
X113425200Y-72819905D01*
X113173581Y-72854149D01*
X112929787Y-72925208D01*
X112699174Y-73031522D01*
X112655926Y-73059877D01*
X112490722Y-73168189D01*
X112490717Y-73168193D01*
X112486809Y-73170755D01*
X112431989Y-73219684D01*
X112364861Y-73279598D01*
X112297356Y-73339848D01*
X112134977Y-73535087D01*
X112003241Y-73752182D01*
X112001432Y-73756496D01*
X112001431Y-73756498D01*
X111924928Y-73938938D01*
X111905040Y-73986365D01*
X111903889Y-73990897D01*
X111903888Y-73990900D01*
X111880845Y-74081632D01*
X111842532Y-74232490D01*
X111817090Y-74485151D01*
X107738294Y-74485151D01*
X107738294Y-73281866D01*
X107731539Y-73219684D01*
X107680409Y-73083295D01*
X107593055Y-72966739D01*
X107476499Y-72879385D01*
X107340110Y-72828255D01*
X107277928Y-72821500D01*
X104781660Y-72821500D01*
X104719478Y-72828255D01*
X104583089Y-72879385D01*
X104466533Y-72966739D01*
X104379179Y-73083295D01*
X104328049Y-73219684D01*
X104321294Y-73281866D01*
X104321294Y-75290406D01*
X104301292Y-75358527D01*
X104284389Y-75379501D01*
X95097747Y-84566142D01*
X95089461Y-84573682D01*
X95082982Y-84577794D01*
X95077557Y-84583571D01*
X95036357Y-84627445D01*
X95033602Y-84630287D01*
X95013865Y-84650024D01*
X95011385Y-84653221D01*
X95003682Y-84662241D01*
X94973414Y-84694473D01*
X94969595Y-84701419D01*
X94969593Y-84701422D01*
X94963652Y-84712228D01*
X94952801Y-84728747D01*
X94940386Y-84744753D01*
X94937241Y-84752022D01*
X94937238Y-84752026D01*
X94922826Y-84785331D01*
X94917609Y-84795981D01*
X94896305Y-84834734D01*
X94894334Y-84842409D01*
X94894334Y-84842410D01*
X94891267Y-84854356D01*
X94884863Y-84873060D01*
X94876819Y-84891649D01*
X94875580Y-84899472D01*
X94875577Y-84899482D01*
X94869901Y-84935318D01*
X94867495Y-84946938D01*
X94863204Y-84963652D01*
X94856500Y-84989764D01*
X94856500Y-85010018D01*
X94854949Y-85029728D01*
X94851780Y-85049737D01*
X94852526Y-85057629D01*
X94855941Y-85093755D01*
X94856500Y-85105613D01*
X94856500Y-107101233D01*
X94855973Y-107112416D01*
X94854298Y-107119909D01*
X94854547Y-107127835D01*
X94854547Y-107127836D01*
X94856438Y-107187986D01*
X94856500Y-107191945D01*
X94856500Y-107219856D01*
X94856997Y-107223790D01*
X94856997Y-107223791D01*
X94857005Y-107223856D01*
X94857938Y-107235693D01*
X94859327Y-107279889D01*
X94864978Y-107299339D01*
X94868987Y-107318700D01*
X94871526Y-107338797D01*
X94874445Y-107346168D01*
X94874445Y-107346170D01*
X94887804Y-107379912D01*
X94891649Y-107391142D01*
X94903982Y-107433593D01*
X94908015Y-107440412D01*
X94908017Y-107440417D01*
X94914293Y-107451028D01*
X94922988Y-107468776D01*
X94930448Y-107487617D01*
X94935110Y-107494033D01*
X94935110Y-107494034D01*
X94956436Y-107523387D01*
X94962952Y-107533307D01*
X94985458Y-107571362D01*
X94999779Y-107585683D01*
X95012619Y-107600716D01*
X95024528Y-107617107D01*
X95058605Y-107645298D01*
X95067384Y-107653288D01*
X96081001Y-108666905D01*
X96115027Y-108729217D01*
X96109962Y-108800032D01*
X96067415Y-108856868D01*
X96000895Y-108881679D01*
X95991906Y-108882000D01*
X93964076Y-108882000D01*
X93895955Y-108861998D01*
X93857774Y-108823645D01*
X93849920Y-108811303D01*
X93830223Y-108743335D01*
X93891446Y-84899482D01*
X93939677Y-66115675D01*
X93959854Y-66047607D01*
X94013629Y-66001252D01*
X94065677Y-65990000D01*
X147974000Y-65990000D01*
X148042121Y-66010002D01*
G37*
%TD.AperFunction*%
%TD*%
M02*
