<?xml version="1.0" standalone="no"?>
 <!DOCTYPE svg PUBLIC "-//W3C//DTD SVG 1.1//EN" 
 "http://www.w3.org/Graphics/SVG/1.1/DTD/svg11.dtd"> 
<svg xmlns="http://www.w3.org/2000/svg" version="1.1" 
    width="29.7002cm" height="21.0007cm" viewBox="0 0 116930 82680 ">
<title>SVG Picture created as ne555-monostable.svg date 2021/10/02 20:51:15 </title>
  <desc>Picture generated by Eeschema-SVG </desc>
<g style="fill:#000000; fill-opacity:1;stroke:#000000; stroke-opacity:1;
stroke-linecap:round; stroke-linejoin:round; "
 transform="translate(0 0) scale(1 1)">
</g>
<g style="fill:#000000; fill-opacity:0.0; 
stroke:#000000; stroke-width:0; stroke-opacity:1; 
stroke-linecap:round; stroke-linejoin:round;">
<g >
</g>
<g style="fill:#840000; fill-opacity:0.0; 
stroke:#840000; stroke-width:0; stroke-opacity:1; 
stroke-linecap:round; stroke-linejoin:round;">
</g>
<g style="fill:#840000; fill-opacity:0.0; 
stroke:#840000; stroke-width:200; stroke-opacity:1; 
stroke-linecap:round; stroke-linejoin:round;">
<path d="M20499 28800.3 A1280 1280 0.0 0 0 20499 27199.7 " />
<path style="fill:#840000; fill-opacity:0.0; 
stroke:#840000; stroke-width:200; stroke-opacity:1; 
stroke-linecap:round; stroke-linejoin:round;fill:none"
d="M 21300,27200
21300,28800
" /> 
</g>
<g style="fill:#840000; fill-opacity:0.0; 
stroke:#840000; stroke-width:390; stroke-opacity:1; 
stroke-linecap:round; stroke-linejoin:round;">
<path style="fill:#840000; fill-opacity:0.0; 
stroke:#840000; stroke-width:390; stroke-opacity:1; 
stroke-linecap:round; stroke-linejoin:round;fill:none"
d="M 21900,27300
21900,27700
" /> 
<path style="fill:#840000; fill-opacity:0.0; 
stroke:#840000; stroke-width:390; stroke-opacity:1; 
stroke-linecap:round; stroke-linejoin:round;fill:none"
d="M 21700,27500
22100,27500
" /> 
<path d="M21400 28000
L22500 28000
" />
<path d="M20800 28000
L19500 28000
" />
</g>
<g style="fill:#008484; fill-opacity:0.0; 
stroke:#008484; stroke-width:390; stroke-opacity:1; 
stroke-linecap:round; stroke-linejoin:round;">
</g>
<g style="fill:#008484; fill-opacity:0.0; 
stroke:#008484; stroke-width:80; stroke-opacity:1; 
stroke-linecap:round; stroke-linejoin:round;">
<text x="21000" y="25750"
textLength="1170" font-size="660" lengthAdjust="spacingAndGlyphs"
text-anchor="middle" opacity="0">C?</text>
<path d="M20940 25670
L20910 25700
L20840 25720
L20790 25720
L20720 25700
L20670 25650
L20650 25600
L20630 25510
L20630 25440
L20650 25340
L20670 25290
L20720 25250
L20790 25220
L20840 25220
L20910 25250
L20940 25270
" />
<path d="M21220 25670
L21250 25700
L21220 25720
L21200 25700
L21220 25670
L21220 25720
" />
<path d="M21130 25250
L21170 25220
L21290 25220
L21340 25250
L21360 25290
L21360 25340
L21340 25390
L21320 25410
L21270 25440
L21250 25460
L21220 25510
L21220 25530
" />
<text x="21000" y="26670"
textLength="1560" font-size="660" lengthAdjust="spacingAndGlyphs"
text-anchor="middle" opacity="0">CP1</text>
<path d="M20660 26590
L20640 26620
L20570 26640
L20520 26640
L20450 26620
L20400 26570
L20380 26520
L20350 26430
L20350 26360
L20380 26260
L20400 26210
L20450 26170
L20520 26140
L20570 26140
L20640 26170
L20660 26190
" />
<path d="M20880 26640
L20880 26140
L21070 26140
L21110 26170
L21140 26190
L21160 26240
L21160 26310
L21140 26360
L21110 26380
L21070 26400
L20880 26400
" />
<path d="M21640 26640
L21350 26640
" />
<path d="M21500 26640
L21500 26140
L21450 26210
L21400 26260
L21350 26280
" />
</g>
</g>
<g style="fill:#008484; fill-opacity:0.0; 
stroke:#008484; stroke-width:0; stroke-opacity:1; 
stroke-linecap:round; stroke-linejoin:round;">
<g >
</g>
<g style="fill:#840000; fill-opacity:0.0; 
stroke:#840000; stroke-width:0; stroke-opacity:1; 
stroke-linecap:round; stroke-linejoin:round;">
</g>
<g style="fill:#FFFFC2; fill-opacity:0.0; 
stroke:#FFFFC2; stroke-width:0; stroke-opacity:1; 
stroke-linecap:round; stroke-linejoin:round;">
</g>
<g style="fill:#FFFFC2; fill-opacity:0.6; 
stroke:#FFFFC2; stroke-width:0; stroke-opacity:1; 
stroke-linecap:round; stroke-linejoin:round;">
<rect x="29000" y="25000" width="7000" height="6000" rx="0" />
</g>
<g style="fill:#840000; fill-opacity:0.6; 
stroke:#840000; stroke-width:0; stroke-opacity:1; 
stroke-linecap:round; stroke-linejoin:round;">
</g>
<g style="fill:#840000; fill-opacity:0.0; 
stroke:#840000; stroke-width:100; stroke-opacity:1; 
stroke-linecap:round; stroke-linejoin:round;">
<rect x="29000" y="25000" width="7000" height="6000" rx="0" />
</g>
<g style="fill:#FFFFC2; fill-opacity:0.0; 
stroke:#FFFFC2; stroke-width:100; stroke-opacity:1; 
stroke-linecap:round; stroke-linejoin:round;">
</g>
<g style="fill:#FFFFC2; fill-opacity:0.6; 
stroke:#FFFFC2; stroke-width:0; stroke-opacity:1; 
stroke-linecap:round; stroke-linejoin:round;">
<rect x="29000" y="25000" width="7000" height="6000" rx="0" />
</g>
<g style="fill:#840000; fill-opacity:0.6; 
stroke:#840000; stroke-width:0; stroke-opacity:1; 
stroke-linecap:round; stroke-linejoin:round;">
</g>
<g style="fill:#840000; fill-opacity:0.0; 
stroke:#840000; stroke-width:100; stroke-opacity:1; 
stroke-linecap:round; stroke-linejoin:round;">
<rect x="29000" y="25000" width="7000" height="6000" rx="0" />
<rect x="29000" y="25000" width="7000" height="6000" rx="0" />
<rect x="29000" y="25000" width="7000" height="6000" rx="0" />
</g>
<g style="fill:#840000; fill-opacity:0.0; 
stroke:#840000; stroke-width:390; stroke-opacity:1; 
stroke-linecap:round; stroke-linejoin:round;">
<path d="M32500 31000
L32500 32000
" />
</g>
<g style="fill:#008484; fill-opacity:0.0; 
stroke:#008484; stroke-width:390; stroke-opacity:1; 
stroke-linecap:round; stroke-linejoin:round;">
<g transform="rotate(-90 32500 30800)">
<text x="32500" y="31050"
textLength="1600" font-size="660" lengthAdjust="spacingAndGlyphs"
text-anchor="start" opacity="0">GND</text>
</g>
</g>
<g style="fill:#008484; fill-opacity:0.0; 
stroke:#008484; stroke-width:80; stroke-opacity:1; 
stroke-linecap:round; stroke-linejoin:round;">
<path d="M32250 30370
L32220 30420
L32220 30490
L32250 30560
L32290 30610
L32340 30640
L32440 30660
L32510 30660
L32600 30640
L32650 30610
L32700 30560
L32720 30490
L32720 30450
L32700 30370
L32670 30350
L32510 30350
L32510 30450
" />
<path d="M32720 30140
L32220 30140
L32720 29850
L32220 29850
" />
<path d="M32720 29610
L32220 29610
L32220 29490
L32250 29420
L32290 29370
L32340 29350
L32440 29330
L32510 29330
L32600 29350
L32650 29370
L32700 29420
L32720 29490
L32720 29610
" />
</g>
<g style="fill:#008484; fill-opacity:0.0; 
stroke:#008484; stroke-width:390; stroke-opacity:1; 
stroke-linecap:round; stroke-linejoin:round;">
</g>
<g style="fill:#840000; fill-opacity:0.0; 
stroke:#840000; stroke-width:390; stroke-opacity:1; 
stroke-linecap:round; stroke-linejoin:round;">
<g transform="rotate(-90 32230 31500)">
<text x="32230" y="31500"
textLength="560" font-size="660" lengthAdjust="spacingAndGlyphs"
text-anchor="middle" opacity="0">1</text>
</g>
</g>
<g style="fill:#840000; fill-opacity:0.0; 
stroke:#840000; stroke-width:80; stroke-opacity:1; 
stroke-linecap:round; stroke-linejoin:round;">
<path d="M32200 31350
L32200 31640
" />
<path d="M32200 31500
L31700 31500
L31770 31540
L31820 31590
L31840 31640
" />
</g>
<g style="fill:#840000; fill-opacity:0.0; 
stroke:#840000; stroke-width:390; stroke-opacity:1; 
stroke-linecap:round; stroke-linejoin:round;">
<path d="M32500 25000
L32500 24000
" />
</g>
<g style="fill:#008484; fill-opacity:0.0; 
stroke:#008484; stroke-width:390; stroke-opacity:1; 
stroke-linecap:round; stroke-linejoin:round;">
<g transform="rotate(-90 32500 25200)">
<text x="32500" y="25450"
textLength="1510" font-size="660" lengthAdjust="spacingAndGlyphs"
text-anchor="end" opacity="0">VCC</text>
</g>
</g>
<g style="fill:#008484; fill-opacity:0.0; 
stroke:#008484; stroke-width:80; stroke-opacity:1; 
stroke-linecap:round; stroke-linejoin:round;">
<path d="M32220 26620
L32720 26450
L32220 26280
" />
<path d="M32670 25830
L32700 25850
L32720 25930
L32720 25970
L32700 26040
L32650 26090
L32600 26120
L32510 26140
L32440 26140
L32340 26120
L32290 26090
L32250 26040
L32220 25970
L32220 25930
L32250 25850
L32270 25830
" />
<path d="M32670 25330
L32700 25350
L32720 25430
L32720 25470
L32700 25540
L32650 25590
L32600 25620
L32510 25640
L32440 25640
L32340 25620
L32290 25590
L32250 25540
L32220 25470
L32220 25430
L32250 25350
L32270 25330
" />
</g>
<g style="fill:#008484; fill-opacity:0.0; 
stroke:#008484; stroke-width:390; stroke-opacity:1; 
stroke-linecap:round; stroke-linejoin:round;">
</g>
<g style="fill:#840000; fill-opacity:0.0; 
stroke:#840000; stroke-width:390; stroke-opacity:1; 
stroke-linecap:round; stroke-linejoin:round;">
<g transform="rotate(-90 32230 24500)">
<text x="32230" y="24500"
textLength="560" font-size="660" lengthAdjust="spacingAndGlyphs"
text-anchor="middle" opacity="0">8</text>
</g>
</g>
<g style="fill:#840000; fill-opacity:0.0; 
stroke:#840000; stroke-width:80; stroke-opacity:1; 
stroke-linecap:round; stroke-linejoin:round;">
<path d="M31920 24540
L31890 24590
L31870 24610
L31820 24640
L31800 24640
L31750 24610
L31730 24590
L31700 24540
L31700 24450
L31730 24400
L31750 24380
L31800 24350
L31820 24350
L31870 24380
L31890 24400
L31920 24450
L31920 24540
L31940 24590
L31960 24610
L32010 24640
L32110 24640
L32150 24610
L32180 24590
L32200 24540
L32200 24450
L32180 24400
L32150 24380
L32110 24350
L32010 24350
L31960 24380
L31940 24400
L31920 24450
" />
</g>
<g style="fill:#840000; fill-opacity:0.0; 
stroke:#840000; stroke-width:390; stroke-opacity:1; 
stroke-linecap:round; stroke-linejoin:round;">
<path d="M29000 26000
L27500 26000
" />
</g>
<g style="fill:#008484; fill-opacity:0.0; 
stroke:#008484; stroke-width:390; stroke-opacity:1; 
stroke-linecap:round; stroke-linejoin:round;">
<text x="29200" y="26250"
textLength="960" font-size="660" lengthAdjust="spacingAndGlyphs"
text-anchor="start" opacity="0">TR</text>
</g>
<g style="fill:#008484; fill-opacity:0.0; 
stroke:#008484; stroke-width:80; stroke-opacity:1; 
stroke-linecap:round; stroke-linejoin:round;">
<path d="M29280 25720
L29570 25720
" />
<path d="M29430 26220
L29430 25720
" />
<path d="M30020 26220
L29850 25980
" />
<path d="M29740 26220
L29740 25720
L29930 25720
L29970 25750
L30000 25770
L30020 25820
L30020 25890
L30000 25940
L29970 25960
L29930 25980
L29740 25980
" />
</g>
<g style="fill:#008484; fill-opacity:0.0; 
stroke:#008484; stroke-width:390; stroke-opacity:1; 
stroke-linecap:round; stroke-linejoin:round;">
</g>
<g style="fill:#840000; fill-opacity:0.0; 
stroke:#840000; stroke-width:390; stroke-opacity:1; 
stroke-linecap:round; stroke-linejoin:round;">
<text x="28250" y="25730"
textLength="560" font-size="660" lengthAdjust="spacingAndGlyphs"
text-anchor="middle" opacity="0">2</text>
</g>
<g style="fill:#840000; fill-opacity:0.0; 
stroke:#840000; stroke-width:80; stroke-opacity:1; 
stroke-linecap:round; stroke-linejoin:round;">
<path d="M28100 25250
L28130 25230
L28170 25200
L28290 25200
L28340 25230
L28360 25250
L28390 25300
L28390 25340
L28360 25420
L28080 25700
L28390 25700
" />
</g>
<g style="fill:#840000; fill-opacity:0.0; 
stroke:#840000; stroke-width:390; stroke-opacity:1; 
stroke-linecap:round; stroke-linejoin:round;">
<path d="M36000 26000
L37500 26000
" />
</g>
<g style="fill:#008484; fill-opacity:0.0; 
stroke:#008484; stroke-width:390; stroke-opacity:1; 
stroke-linecap:round; stroke-linejoin:round;">
<text x="35800" y="26250"
textLength="600" font-size="660" lengthAdjust="spacingAndGlyphs"
text-anchor="end" opacity="0">Q</text>
</g>
<g style="fill:#008484; fill-opacity:0.0; 
stroke:#008484; stroke-width:80; stroke-opacity:1; 
stroke-linecap:round; stroke-linejoin:round;">
<path d="M35680 26270
L35640 26250
L35590 26200
L35520 26130
L35470 26100
L35420 26100
" />
<path d="M35450 26220
L35400 26200
L35350 26150
L35330 26050
L35330 25890
L35350 25790
L35400 25750
L35450 25720
L35540 25720
L35590 25750
L35640 25790
L35660 25890
L35660 26050
L35640 26150
L35590 26200
L35540 26220
L35450 26220
" />
</g>
<g style="fill:#008484; fill-opacity:0.0; 
stroke:#008484; stroke-width:390; stroke-opacity:1; 
stroke-linecap:round; stroke-linejoin:round;">
</g>
<g style="fill:#840000; fill-opacity:0.0; 
stroke:#840000; stroke-width:390; stroke-opacity:1; 
stroke-linecap:round; stroke-linejoin:round;">
<text x="36750" y="25730"
textLength="560" font-size="660" lengthAdjust="spacingAndGlyphs"
text-anchor="middle" opacity="0">3</text>
</g>
<g style="fill:#840000; fill-opacity:0.0; 
stroke:#840000; stroke-width:80; stroke-opacity:1; 
stroke-linecap:round; stroke-linejoin:round;">
<path d="M36580 25200
L36890 25200
L36720 25390
L36790 25390
L36840 25420
L36860 25440
L36890 25490
L36890 25610
L36860 25650
L36840 25680
L36790 25700
L36650 25700
L36600 25680
L36580 25650
" />
</g>
<g style="fill:#840000; fill-opacity:0.0; 
stroke:#840000; stroke-width:390; stroke-opacity:1; 
stroke-linecap:round; stroke-linejoin:round;">
<circle cx="28750" cy="30000" r="250" /> 
<path d="M28500 30000
L27500 30000
" />
</g>
<g style="fill:#008484; fill-opacity:0.0; 
stroke:#008484; stroke-width:390; stroke-opacity:1; 
stroke-linecap:round; stroke-linejoin:round;">
<text x="29200" y="30250"
textLength="580" font-size="660" lengthAdjust="spacingAndGlyphs"
text-anchor="start" opacity="0">R</text>
</g>
<g style="fill:#008484; fill-opacity:0.0; 
stroke:#008484; stroke-width:80; stroke-opacity:1; 
stroke-linecap:round; stroke-linejoin:round;">
<path d="M29640 30220
L29470 29980
" />
<path d="M29350 30220
L29350 29720
L29540 29720
L29590 29750
L29620 29770
L29640 29820
L29640 29890
L29620 29940
L29590 29960
L29540 29980
L29350 29980
" />
</g>
<g style="fill:#008484; fill-opacity:0.0; 
stroke:#008484; stroke-width:390; stroke-opacity:1; 
stroke-linecap:round; stroke-linejoin:round;">
</g>
<g style="fill:#840000; fill-opacity:0.0; 
stroke:#840000; stroke-width:390; stroke-opacity:1; 
stroke-linecap:round; stroke-linejoin:round;">
<text x="28250" y="29730"
textLength="560" font-size="660" lengthAdjust="spacingAndGlyphs"
text-anchor="middle" opacity="0">4</text>
</g>
<g style="fill:#840000; fill-opacity:0.0; 
stroke:#840000; stroke-width:80; stroke-opacity:1; 
stroke-linecap:round; stroke-linejoin:round;">
<path d="M28340 29370
L28340 29700
" />
<path d="M28220 29180
L28100 29530
L28410 29530
" />
</g>
<g style="fill:#840000; fill-opacity:0.0; 
stroke:#840000; stroke-width:390; stroke-opacity:1; 
stroke-linecap:round; stroke-linejoin:round;">
<path d="M29000 28000
L27500 28000
" />
</g>
<g style="fill:#008484; fill-opacity:0.0; 
stroke:#008484; stroke-width:390; stroke-opacity:1; 
stroke-linecap:round; stroke-linejoin:round;">
<text x="29200" y="28250"
textLength="1010" font-size="660" lengthAdjust="spacingAndGlyphs"
text-anchor="start" opacity="0">CV</text>
</g>
<g style="fill:#008484; fill-opacity:0.0; 
stroke:#008484; stroke-width:80; stroke-opacity:1; 
stroke-linecap:round; stroke-linejoin:round;">
<path d="M29640 28170
L29620 28200
L29540 28220
L29500 28220
L29430 28200
L29380 28150
L29350 28100
L29330 28010
L29330 27940
L29350 27840
L29380 27790
L29430 27750
L29500 27720
L29540 27720
L29620 27750
L29640 27770
" />
<path d="M29780 27720
L29950 28220
L30120 27720
" />
</g>
<g style="fill:#008484; fill-opacity:0.0; 
stroke:#008484; stroke-width:390; stroke-opacity:1; 
stroke-linecap:round; stroke-linejoin:round;">
</g>
<g style="fill:#840000; fill-opacity:0.0; 
stroke:#840000; stroke-width:390; stroke-opacity:1; 
stroke-linecap:round; stroke-linejoin:round;">
<text x="28250" y="27730"
textLength="560" font-size="660" lengthAdjust="spacingAndGlyphs"
text-anchor="middle" opacity="0">5</text>
</g>
<g style="fill:#840000; fill-opacity:0.0; 
stroke:#840000; stroke-width:80; stroke-opacity:1; 
stroke-linecap:round; stroke-linejoin:round;">
<path d="M28360 27200
L28130 27200
L28100 27440
L28130 27420
L28170 27390
L28290 27390
L28340 27420
L28360 27440
L28390 27490
L28390 27610
L28360 27650
L28340 27680
L28290 27700
L28170 27700
L28130 27680
L28100 27650
" />
</g>
<g style="fill:#840000; fill-opacity:0.0; 
stroke:#840000; stroke-width:390; stroke-opacity:1; 
stroke-linecap:round; stroke-linejoin:round;">
<path d="M36000 30000
L37500 30000
" />
</g>
<g style="fill:#008484; fill-opacity:0.0; 
stroke:#008484; stroke-width:390; stroke-opacity:1; 
stroke-linecap:round; stroke-linejoin:round;">
<text x="35800" y="30250"
textLength="1480" font-size="660" lengthAdjust="spacingAndGlyphs"
text-anchor="end" opacity="0">THR</text>
</g>
<g style="fill:#008484; fill-opacity:0.0; 
stroke:#008484; stroke-width:80; stroke-opacity:1; 
stroke-linecap:round; stroke-linejoin:round;">
<path d="M34400 29720
L34680 29720
" />
<path d="M34540 30220
L34540 29720
" />
<path d="M34850 30220
L34850 29720
" />
<path d="M34850 29960
L35140 29960
" />
<path d="M35140 30220
L35140 29720
" />
<path d="M35660 30220
L35490 29980
" />
<path d="M35370 30220
L35370 29720
L35560 29720
L35610 29750
L35640 29770
L35660 29820
L35660 29890
L35640 29940
L35610 29960
L35560 29980
L35370 29980
" />
</g>
<g style="fill:#008484; fill-opacity:0.0; 
stroke:#008484; stroke-width:390; stroke-opacity:1; 
stroke-linecap:round; stroke-linejoin:round;">
</g>
<g style="fill:#840000; fill-opacity:0.0; 
stroke:#840000; stroke-width:390; stroke-opacity:1; 
stroke-linecap:round; stroke-linejoin:round;">
<text x="36750" y="29730"
textLength="560" font-size="660" lengthAdjust="spacingAndGlyphs"
text-anchor="middle" opacity="0">6</text>
</g>
<g style="fill:#840000; fill-opacity:0.0; 
stroke:#840000; stroke-width:80; stroke-opacity:1; 
stroke-linecap:round; stroke-linejoin:round;">
<path d="M36840 29200
L36750 29200
L36700 29230
L36670 29250
L36630 29320
L36600 29420
L36600 29610
L36630 29650
L36650 29680
L36700 29700
L36790 29700
L36840 29680
L36860 29650
L36890 29610
L36890 29490
L36860 29440
L36840 29420
L36790 29390
L36700 29390
L36650 29420
L36630 29440
L36600 29490
" />
</g>
<g style="fill:#840000; fill-opacity:0.0; 
stroke:#840000; stroke-width:390; stroke-opacity:1; 
stroke-linecap:round; stroke-linejoin:round;">
<path d="M36000 28000
L37500 28000
" />
</g>
<g style="fill:#008484; fill-opacity:0.0; 
stroke:#008484; stroke-width:390; stroke-opacity:1; 
stroke-linecap:round; stroke-linejoin:round;">
<text x="35800" y="28250"
textLength="1290" font-size="660" lengthAdjust="spacingAndGlyphs"
text-anchor="end" opacity="0">DIS</text>
</g>
<g style="fill:#008484; fill-opacity:0.0; 
stroke:#008484; stroke-width:80; stroke-opacity:1; 
stroke-linecap:round; stroke-linejoin:round;">
<path d="M34660 28220
L34660 27720
L34780 27720
L34850 27750
L34900 27790
L34920 27840
L34950 27940
L34950 28010
L34920 28100
L34900 28150
L34850 28200
L34780 28220
L34660 28220
" />
<path d="M35160 28220
L35160 27720
" />
<path d="M35370 28200
L35450 28220
L35560 28220
L35610 28200
L35640 28170
L35660 28130
L35660 28080
L35640 28030
L35610 28010
L35560 27980
L35470 27960
L35420 27940
L35400 27910
L35370 27860
L35370 27820
L35400 27770
L35420 27750
L35470 27720
L35590 27720
L35660 27750
" />
</g>
<g style="fill:#008484; fill-opacity:0.0; 
stroke:#008484; stroke-width:390; stroke-opacity:1; 
stroke-linecap:round; stroke-linejoin:round;">
</g>
<g style="fill:#840000; fill-opacity:0.0; 
stroke:#840000; stroke-width:390; stroke-opacity:1; 
stroke-linecap:round; stroke-linejoin:round;">
<text x="36750" y="27730"
textLength="560" font-size="660" lengthAdjust="spacingAndGlyphs"
text-anchor="middle" opacity="0">7</text>
</g>
<g style="fill:#840000; fill-opacity:0.0; 
stroke:#840000; stroke-width:80; stroke-opacity:1; 
stroke-linecap:round; stroke-linejoin:round;">
<path d="M36580 27200
L36910 27200
L36700 27700
" />
</g>
<g style="fill:#840000; fill-opacity:0.0; 
stroke:#840000; stroke-width:390; stroke-opacity:1; 
stroke-linecap:round; stroke-linejoin:round;">
</g>
<g style="fill:#008484; fill-opacity:0.0; 
stroke:#008484; stroke-width:390; stroke-opacity:1; 
stroke-linecap:round; stroke-linejoin:round;">
</g>
<g style="fill:#008484; fill-opacity:0.0; 
stroke:#008484; stroke-width:80; stroke-opacity:1; 
stroke-linecap:round; stroke-linejoin:round;">
<text x="32500" y="22460"
textLength="1030" font-size="660" lengthAdjust="spacingAndGlyphs"
text-anchor="middle" opacity="0">U?</text>
<path d="M32140 21930
L32140 22340
L32160 22380
L32190 22410
L32230 22430
L32330 22430
L32380 22410
L32400 22380
L32420 22340
L32420 21930
" />
<path d="M32730 22380
L32760 22410
L32730 22430
L32710 22410
L32730 22380
L32730 22430
" />
<path d="M32640 21960
L32690 21930
L32800 21930
L32850 21960
L32880 22000
L32880 22050
L32850 22100
L32830 22120
L32780 22150
L32760 22170
L32730 22220
L32730 22240
" />
<text x="32500" y="23380"
textLength="2980" font-size="660" lengthAdjust="spacingAndGlyphs"
text-anchor="middle" opacity="0">NE555D</text>
<path d="M31160 23350
L31160 22850
L31450 23350
L31450 22850
" />
<path d="M31690 23090
L31850 23090
" />
<path d="M31920 23350
L31690 23350
L31690 22850
L31920 22850
" />
<path d="M32380 22850
L32140 22850
L32110 23090
L32140 23070
L32190 23040
L32300 23040
L32350 23070
L32380 23090
L32400 23140
L32400 23260
L32380 23300
L32350 23330
L32300 23350
L32190 23350
L32140 23330
L32110 23300
" />
<path d="M32850 22850
L32610 22850
L32590 23090
L32610 23070
L32660 23040
L32780 23040
L32830 23070
L32850 23090
L32880 23140
L32880 23260
L32850 23300
L32830 23330
L32780 23350
L32660 23350
L32610 23330
L32590 23300
" />
<path d="M33330 22850
L33090 22850
L33070 23090
L33090 23070
L33140 23040
L33260 23040
L33300 23070
L33330 23090
L33350 23140
L33350 23260
L33330 23300
L33300 23330
L33260 23350
L33140 23350
L33090 23330
L33070 23300
" />
<path d="M33570 23350
L33570 22850
L33690 22850
L33760 22880
L33800 22920
L33830 22970
L33850 23070
L33850 23140
L33830 23230
L33800 23280
L33760 23330
L33690 23350
L33570 23350
" />
</g>
</g>
<g style="fill:#008484; fill-opacity:0.0; 
stroke:#008484; stroke-width:0; stroke-opacity:1; 
stroke-linecap:round; stroke-linejoin:round;">
<g >
</g>
<g style="fill:#840000; fill-opacity:0.0; 
stroke:#840000; stroke-width:0; stroke-opacity:1; 
stroke-linecap:round; stroke-linejoin:round;">
</g>
<g style="fill:#840000; fill-opacity:0.0; 
stroke:#840000; stroke-width:100; stroke-opacity:1; 
stroke-linecap:round; stroke-linejoin:round;">
<rect x="25000" y="33100" width="2000" height="800" rx="0" />
</g>
<g style="fill:#840000; fill-opacity:0.0; 
stroke:#840000; stroke-width:390; stroke-opacity:1; 
stroke-linecap:round; stroke-linejoin:round;">
<path d="M27000 33500
L27500 33500
" />
<path d="M25000 33500
L24500 33500
" />
</g>
<g style="fill:#008484; fill-opacity:0.0; 
stroke:#008484; stroke-width:390; stroke-opacity:1; 
stroke-linecap:round; stroke-linejoin:round;">
</g>
<g style="fill:#008484; fill-opacity:0.0; 
stroke:#008484; stroke-width:80; stroke-opacity:1; 
stroke-linecap:round; stroke-linejoin:round;">
<text x="26000" y="31700"
textLength="1010" font-size="660" lengthAdjust="spacingAndGlyphs"
text-anchor="middle" opacity="0">RA</text>
<path d="M25940 31670
L25770 31430
" />
<path d="M25650 31670
L25650 31170
L25840 31170
L25890 31200
L25910 31220
L25940 31270
L25940 31340
L25910 31390
L25890 31410
L25840 31430
L25650 31430
" />
<path d="M26130 31530
L26360 31530
" />
<path d="M26080 31670
L26250 31170
L26410 31670
" />
<text x="26000" y="32620"
textLength="580" font-size="660" lengthAdjust="spacingAndGlyphs"
text-anchor="middle" opacity="0">R</text>
<path d="M26150 32590
L25980 32350
" />
<path d="M25860 32590
L25860 32090
L26050 32090
L26100 32120
L26130 32140
L26150 32190
L26150 32260
L26130 32310
L26100 32330
L26050 32350
L25860 32350
" />
</g>
</g>
<g style="fill:#008484; fill-opacity:0.0; 
stroke:#008484; stroke-width:0; stroke-opacity:1; 
stroke-linecap:round; stroke-linejoin:round;">
<g >
</g>
<g style="fill:#840000; fill-opacity:0.0; 
stroke:#840000; stroke-width:0; stroke-opacity:1; 
stroke-linecap:round; stroke-linejoin:round;">
</g>
<g style="fill:#840000; fill-opacity:0.0; 
stroke:#840000; stroke-width:100; stroke-opacity:1; 
stroke-linecap:round; stroke-linejoin:round;">
<rect x="37100" y="20500" width="800" height="2000" rx="0" />
</g>
<g style="fill:#840000; fill-opacity:0.0; 
stroke:#840000; stroke-width:390; stroke-opacity:1; 
stroke-linecap:round; stroke-linejoin:round;">
<path d="M37500 20500
L37500 20000
" />
<path d="M37500 22500
L37500 23000
" />
</g>
<g style="fill:#008484; fill-opacity:0.0; 
stroke:#008484; stroke-width:390; stroke-opacity:1; 
stroke-linecap:round; stroke-linejoin:round;">
</g>
<g style="fill:#008484; fill-opacity:0.0; 
stroke:#008484; stroke-width:80; stroke-opacity:1; 
stroke-linecap:round; stroke-linejoin:round;">
<text x="38690" y="21320"
textLength="980" font-size="660" lengthAdjust="spacingAndGlyphs"
text-anchor="middle" opacity="0">RL</text>
<path d="M38640 21290
L38470 21050
" />
<path d="M38350 21290
L38350 20790
L38540 20790
L38590 20820
L38610 20840
L38640 20890
L38640 20960
L38610 21010
L38590 21030
L38540 21050
L38350 21050
" />
<path d="M39090 21290
L38850 21290
L38850 20790
" />
<text x="38490" y="22240"
textLength="580" font-size="660" lengthAdjust="spacingAndGlyphs"
text-anchor="middle" opacity="0">R</text>
<path d="M38640 22210
L38470 21970
" />
<path d="M38350 22210
L38350 21710
L38540 21710
L38590 21740
L38620 21760
L38640 21810
L38640 21880
L38620 21930
L38590 21950
L38540 21970
L38350 21970
" />
</g>
</g>
<g style="fill:#008484; fill-opacity:0.0; 
stroke:#008484; stroke-width:0; stroke-opacity:1; 
stroke-linecap:round; stroke-linejoin:round;">
<g >
</g>
<g style="fill:#840000; fill-opacity:0.0; 
stroke:#840000; stroke-width:0; stroke-opacity:1; 
stroke-linecap:round; stroke-linejoin:round;">
</g>
<g style="fill:#840000; fill-opacity:0.0; 
stroke:#840000; stroke-width:390; stroke-opacity:1; 
stroke-linecap:round; stroke-linejoin:round;">
<path style="fill:#840000; fill-opacity:0.0; 
stroke:#840000; stroke-width:390; stroke-opacity:1; 
stroke-linecap:round; stroke-linejoin:round;fill:none"
d="M 32500,32000
32500,32500
33000,32500
32500,33000
32000,32500
32500,32500
" /> 
</g>
<g style="fill:#008484; fill-opacity:0.0; 
stroke:#008484; stroke-width:390; stroke-opacity:1; 
stroke-linecap:round; stroke-linejoin:round;">
</g>
<g style="fill:#008484; fill-opacity:0.0; 
stroke:#008484; stroke-width:80; stroke-opacity:1; 
stroke-linecap:round; stroke-linejoin:round;">
<text x="32540" y="34020"
textLength="1600" font-size="660" lengthAdjust="spacingAndGlyphs"
text-anchor="middle" opacity="0">GND</text>
<path d="M32150 33520
L32110 33490
L32040 33490
L31960 33520
L31920 33560
L31890 33610
L31870 33710
L31870 33780
L31890 33870
L31920 33920
L31960 33970
L32040 33990
L32080 33990
L32150 33970
L32180 33940
L32180 33780
L32080 33780
" />
<path d="M32390 33990
L32390 33490
L32680 33990
L32680 33490
" />
<path d="M32920 33990
L32920 33490
L33040 33490
L33110 33520
L33150 33560
L33180 33610
L33200 33710
L33200 33780
L33180 33870
L33150 33920
L33110 33970
L33040 33990
L32920 33990
" />
</g>
</g>
<g style="fill:#008484; fill-opacity:0.0; 
stroke:#008484; stroke-width:0; stroke-opacity:1; 
stroke-linecap:round; stroke-linejoin:round;">
<g >
</g>
<g style="fill:#840000; fill-opacity:0.0; 
stroke:#840000; stroke-width:0; stroke-opacity:1; 
stroke-linecap:round; stroke-linejoin:round;">
</g>
<g style="fill:#840000; fill-opacity:0.0; 
stroke:#840000; stroke-width:200; stroke-opacity:1; 
stroke-linecap:round; stroke-linejoin:round;">
<path d="M40800.3 36001 A1280 1280 0.0 0 0 39199.7 36001 " />
<path style="fill:#840000; fill-opacity:0.0; 
stroke:#840000; stroke-width:200; stroke-opacity:1; 
stroke-linecap:round; stroke-linejoin:round;fill:none"
d="M 39200,35200
40800,35200
" /> 
</g>
<g style="fill:#840000; fill-opacity:0.0; 
stroke:#840000; stroke-width:390; stroke-opacity:1; 
stroke-linecap:round; stroke-linejoin:round;">
<path style="fill:#840000; fill-opacity:0.0; 
stroke:#840000; stroke-width:390; stroke-opacity:1; 
stroke-linecap:round; stroke-linejoin:round;fill:none"
d="M 39300,34600
39700,34600
" /> 
<path style="fill:#840000; fill-opacity:0.0; 
stroke:#840000; stroke-width:390; stroke-opacity:1; 
stroke-linecap:round; stroke-linejoin:round;fill:none"
d="M 39500,34800
39500,34400
" /> 
<path d="M40000 35100
L40000 34000
" />
<path d="M40000 35700
L40000 37000
" />
</g>
<g style="fill:#008484; fill-opacity:0.0; 
stroke:#008484; stroke-width:390; stroke-opacity:1; 
stroke-linecap:round; stroke-linejoin:round;">
</g>
<g style="fill:#008484; fill-opacity:0.0; 
stroke:#008484; stroke-width:80; stroke-opacity:1; 
stroke-linecap:round; stroke-linejoin:round;">
<text x="41650" y="35320"
textLength="1010" font-size="660" lengthAdjust="spacingAndGlyphs"
text-anchor="middle" opacity="0">C?</text>
<path d="M41590 35240
L41560 35270
L41490 35290
L41440 35290
L41370 35270
L41320 35220
L41300 35170
L41280 35080
L41280 35010
L41300 34910
L41320 34860
L41370 34820
L41440 34790
L41490 34790
L41560 34820
L41590 34840
" />
<path d="M41870 35240
L41900 35270
L41870 35290
L41850 35270
L41870 35240
L41870 35290
" />
<path d="M41780 34820
L41820 34790
L41940 34790
L41990 34820
L42010 34860
L42010 34910
L41990 34960
L41970 34980
L41920 35010
L41900 35030
L41870 35080
L41870 35100
" />
<text x="41930" y="36240"
textLength="1560" font-size="660" lengthAdjust="spacingAndGlyphs"
text-anchor="middle" opacity="0">CP1</text>
<path d="M41590 36160
L41570 36190
L41500 36210
L41450 36210
L41380 36190
L41330 36140
L41310 36090
L41280 36000
L41280 35930
L41310 35830
L41330 35780
L41380 35740
L41450 35710
L41500 35710
L41570 35740
L41590 35760
" />
<path d="M41810 36210
L41810 35710
L42000 35710
L42040 35740
L42070 35760
L42090 35810
L42090 35880
L42070 35930
L42040 35950
L42000 35970
L41810 35970
" />
<path d="M42570 36210
L42280 36210
" />
<path d="M42430 36210
L42430 35710
L42380 35780
L42330 35830
L42280 35850
" />
</g>
</g>
<g style="fill:#008484; fill-opacity:0.0; 
stroke:#008484; stroke-width:0; stroke-opacity:1; 
stroke-linecap:round; stroke-linejoin:round;">
<g >
</g>
<g style="fill:#840000; fill-opacity:0.0; 
stroke:#840000; stroke-width:0; stroke-opacity:1; 
stroke-linecap:round; stroke-linejoin:round;">
</g>
<g style="fill:#840000; fill-opacity:0.0; 
stroke:#840000; stroke-width:390; stroke-opacity:1; 
stroke-linecap:round; stroke-linejoin:round;">
<path style="fill:#840000; fill-opacity:0.0; 
stroke:#840000; stroke-width:390; stroke-opacity:1; 
stroke-linecap:round; stroke-linejoin:round;fill:none"
d="M 40000,37000
40000,37500
40500,37500
40000,38000
39500,37500
40000,37500
" /> 
</g>
<g style="fill:#008484; fill-opacity:0.0; 
stroke:#008484; stroke-width:390; stroke-opacity:1; 
stroke-linecap:round; stroke-linejoin:round;">
</g>
<g style="fill:#008484; fill-opacity:0.0; 
stroke:#008484; stroke-width:80; stroke-opacity:1; 
stroke-linecap:round; stroke-linejoin:round;">
<text x="40040" y="39020"
textLength="1600" font-size="660" lengthAdjust="spacingAndGlyphs"
text-anchor="middle" opacity="0">GND</text>
<path d="M39650 38520
L39610 38490
L39540 38490
L39460 38520
L39420 38560
L39390 38610
L39370 38710
L39370 38780
L39390 38870
L39420 38920
L39460 38970
L39540 38990
L39580 38990
L39650 38970
L39680 38940
L39680 38780
L39580 38780
" />
<path d="M39890 38990
L39890 38490
L40180 38990
L40180 38490
" />
<path d="M40420 38990
L40420 38490
L40540 38490
L40610 38520
L40650 38560
L40680 38610
L40700 38710
L40700 38780
L40680 38870
L40650 38920
L40610 38970
L40540 38990
L40420 38990
" />
</g>
</g>
<g style="fill:#008484; fill-opacity:0.0; 
stroke:#008484; stroke-width:0; stroke-opacity:1; 
stroke-linecap:round; stroke-linejoin:round;">
<g >
</g>
<g style="fill:#840000; fill-opacity:0.0; 
stroke:#840000; stroke-width:0; stroke-opacity:1; 
stroke-linecap:round; stroke-linejoin:round;">
</g>
<g style="fill:#840000; fill-opacity:0.0; 
stroke:#840000; stroke-width:390; stroke-opacity:1; 
stroke-linecap:round; stroke-linejoin:round;">
<circle cx="32500" cy="16250" r="250" /> 
<path style="fill:#840000; fill-opacity:0.0; 
stroke:#840000; stroke-width:390; stroke-opacity:1; 
stroke-linecap:round; stroke-linejoin:round;fill:none"
d="M 32500,17000
32500,16500
" /> 
</g>
<g style="fill:#008484; fill-opacity:0.0; 
stroke:#008484; stroke-width:390; stroke-opacity:1; 
stroke-linecap:round; stroke-linejoin:round;">
</g>
<g style="fill:#008484; fill-opacity:0.0; 
stroke:#008484; stroke-width:80; stroke-opacity:1; 
stroke-linecap:round; stroke-linejoin:round;">
<text x="32640" y="15530"
textLength="1510" font-size="660" lengthAdjust="spacingAndGlyphs"
text-anchor="middle" opacity="0">VCC</text>
<path d="M31970 15000
L32140 15500
L32300 15000
" />
<path d="M32750 15450
L32730 15480
L32660 15500
L32610 15500
L32540 15480
L32490 15430
L32470 15380
L32440 15290
L32440 15220
L32470 15120
L32490 15070
L32540 15030
L32610 15000
L32660 15000
L32730 15030
L32750 15050
" />
<path d="M33250 15450
L33230 15480
L33160 15500
L33110 15500
L33040 15480
L32990 15430
L32970 15380
L32940 15290
L32940 15220
L32970 15120
L32990 15070
L33040 15030
L33110 15000
L33160 15000
L33230 15030
L33250 15050
" />
</g>
</g>
<g style="fill:#008484; fill-opacity:0.0; 
stroke:#008484; stroke-width:0; stroke-opacity:1; 
stroke-linecap:round; stroke-linejoin:round;">
<g >
</g>
<g style="fill:#840000; fill-opacity:0.0; 
stroke:#840000; stroke-width:0; stroke-opacity:1; 
stroke-linecap:round; stroke-linejoin:round;">
</g>
<g style="fill:#840000; fill-opacity:0.0; 
stroke:#840000; stroke-width:390; stroke-opacity:1; 
stroke-linecap:round; stroke-linejoin:round;">
<path style="fill:#840000; fill-opacity:0.0; 
stroke:#840000; stroke-width:390; stroke-opacity:1; 
stroke-linecap:round; stroke-linejoin:round;fill:none"
d="M 18000,28000
17500,28000
17500,28500
17000,28000
17500,27500
17500,28000
" /> 
</g>
<g style="fill:#008484; fill-opacity:0.0; 
stroke:#008484; stroke-width:390; stroke-opacity:1; 
stroke-linecap:round; stroke-linejoin:round;">
</g>
<g style="fill:#008484; fill-opacity:0.0; 
stroke:#008484; stroke-width:80; stroke-opacity:1; 
stroke-linecap:round; stroke-linejoin:round;">
<text x="15910" y="28320"
textLength="1600" font-size="660" lengthAdjust="spacingAndGlyphs"
text-anchor="middle" opacity="0">GND</text>
<path d="M15520 27820
L15480 27790
L15410 27790
L15330 27820
L15290 27860
L15260 27910
L15240 28010
L15240 28080
L15260 28170
L15290 28220
L15330 28270
L15410 28290
L15450 28290
L15520 28270
L15550 28240
L15550 28080
L15450 28080
" />
<path d="M15760 28290
L15760 27790
L16050 28290
L16050 27790
" />
<path d="M16290 28290
L16290 27790
L16410 27790
L16480 27820
L16520 27860
L16550 27910
L16570 28010
L16570 28080
L16550 28170
L16520 28220
L16480 28270
L16410 28290
L16290 28290
" />
</g>
</g>
<g style="fill:#008484; fill-opacity:0.0; 
stroke:#008484; stroke-width:60; stroke-opacity:1; 
stroke-linecap:round; stroke-linejoin:round;">
</g>
<g style="fill:#008400; fill-opacity:0.0; 
stroke:#008400; stroke-width:60; stroke-opacity:1; 
stroke-linecap:round; stroke-linejoin:round;">
<path d="M40000 34000
L40000 33500
" />
<path d="M40000 33500
L40000 30000
" />
<path d="M27500 33500
L40000 33500
" />
<path d="M8500 22000
L23000 22000
" />
<path d="M14000 18500
L32500 18500
" />
<path d="M14000 33500
L24500 33500
" />
<path d="M32500 17000
L32500 18500
" />
<path d="M14000 30000
L14000 33500
" />
<path d="M40000 30000
L37500 30000
" />
<path d="M40000 28000
L40000 30000
" />
<path d="M37500 28000
L40000 28000
" />
<path d="M37500 26000
L45000 26000
" />
<path d="M37500 23000
L37500 26000
" />
<path d="M27500 26000
L23000 26000
" />
<path d="M37500 18500
L37500 20000
" />
<path d="M32500 18500
L37500 18500
" />
<path d="M32500 18500
L32500 24000
" />
<path d="M14000 30000
L14000 18500
" />
<path d="M27500 30000
L14000 30000
" />
<path d="M23000 26000
L23000 22000
" />
<path d="M19500 28000
L18000 28000
" />
<path d="M27500 28000
L22500 28000
" />
</g>
<g style="fill:#008400; fill-opacity:0.0; 
stroke:#008400; stroke-width:240; stroke-opacity:1; 
stroke-linecap:round; stroke-linejoin:round;">
</g>
<g style="fill:#848400; fill-opacity:0.0; 
stroke:#848400; stroke-width:240; stroke-opacity:1; 
stroke-linecap:round; stroke-linejoin:round;">
<text x="36890" y="36590"
textLength="25870" font-size="1570" lengthAdjust="spacingAndGlyphs"
text-anchor="end" opacity="0">n555-en-mode-monostable</text>
<path d="M11220 35740
L11220 36530
" />
<path d="M11220 35850
L11270 35800
L11390 35740
L11560 35740
L11670 35800
L11720 35910
L11720 36530
" />
<path d="M12850 35350
L12290 35350
L12230 35910
L12290 35850
L12400 35800
L12680 35800
L12790 35850
L12850 35910
L12900 36020
L12900 36300
L12850 36420
L12790 36470
L12680 36530
L12400 36530
L12290 36470
L12230 36420
" />
<path d="M13970 35350
L13410 35350
L13350 35910
L13410 35850
L13520 35800
L13800 35800
L13920 35850
L13970 35910
L14030 36020
L14030 36300
L13970 36420
L13920 36470
L13800 36530
L13520 36530
L13410 36470
L13350 36420
" />
<path d="M15100 35350
L14530 35350
L14480 35910
L14530 35850
L14650 35800
L14930 35800
L15040 35850
L15100 35910
L15150 36020
L15150 36300
L15100 36420
L15040 36470
L14930 36530
L14650 36530
L14530 36470
L14480 36420
" />
<path d="M15660 36080
L16560 36080
" />
<path d="M17570 36470
L17460 36530
L17230 36530
L17120 36470
L17060 36360
L17060 35910
L17120 35800
L17230 35740
L17460 35740
L17570 35800
L17620 35910
L17620 36020
L17060 36140
" />
<path d="M18130 35740
L18130 36530
" />
<path d="M18130 35850
L18190 35800
L18300 35740
L18470 35740
L18580 35800
L18640 35910
L18640 36530
" />
<path d="M19200 36080
L20100 36080
" />
<path d="M20660 36530
L20660 35740
" />
<path d="M20660 35850
L20710 35800
L20830 35740
L21000 35740
L21110 35800
L21160 35910
L21160 36530
" />
<path d="M21160 35910
L21220 35800
L21330 35740
L21500 35740
L21610 35800
L21670 35910
L21670 36530
" />
<path d="M22400 36530
L22290 36470
L22230 36420
L22180 36300
L22180 35970
L22230 35850
L22290 35800
L22400 35740
L22570 35740
L22680 35800
L22740 35850
L22790 35970
L22790 36300
L22740 36420
L22680 36470
L22570 36530
L22400 36530
" />
<path d="M23810 36530
L23810 35350
" />
<path d="M23810 36470
L23690 36530
L23470 36530
L23360 36470
L23300 36420
L23240 36300
L23240 35970
L23300 35850
L23360 35800
L23470 35740
L23690 35740
L23810 35800
" />
<path d="M24820 36470
L24700 36530
L24480 36530
L24370 36470
L24310 36360
L24310 35910
L24370 35800
L24480 35740
L24700 35740
L24820 35800
L24870 35910
L24870 36020
L24310 36140
" />
<path d="M25380 36080
L26280 36080
" />
<path d="M26840 36530
L26840 35740
" />
<path d="M26840 35850
L26900 35800
L27010 35740
L27180 35740
L27290 35800
L27350 35910
L27350 36530
" />
<path d="M27350 35910
L27400 35800
L27510 35740
L27680 35740
L27790 35800
L27850 35910
L27850 36530
" />
<path d="M28580 36530
L28470 36470
L28410 36420
L28360 36300
L28360 35970
L28410 35850
L28470 35800
L28580 35740
L28750 35740
L28860 35800
L28920 35850
L28970 35970
L28970 36300
L28920 36420
L28860 36470
L28750 36530
L28580 36530
" />
<path d="M29480 35740
L29480 36530
" />
<path d="M29480 35850
L29540 35800
L29650 35740
L29820 35740
L29930 35800
L29990 35910
L29990 36530
" />
<path d="M30720 36530
L30600 36470
L30550 36420
L30490 36300
L30490 35970
L30550 35850
L30600 35800
L30720 35740
L30890 35740
L31000 35800
L31050 35850
L31110 35970
L31110 36300
L31050 36420
L31000 36470
L30890 36530
L30720 36530
" />
<path d="M31560 36470
L31670 36530
L31900 36530
L32010 36470
L32070 36360
L32070 36300
L32010 36190
L31900 36140
L31730 36140
L31620 36080
L31560 35970
L31560 35910
L31620 35800
L31730 35740
L31900 35740
L32010 35800
" />
<path d="M32400 35740
L32850 35740
" />
<path d="M32570 35350
L32570 36360
L32630 36470
L32740 36530
L32850 36530
" />
<path d="M33750 36530
L33750 35910
L33690 35800
L33580 35740
L33360 35740
L33250 35800
" />
<path d="M33750 36470
L33640 36530
L33360 36530
L33250 36470
L33190 36360
L33190 36250
L33250 36140
L33360 36080
L33640 36080
L33750 36020
" />
<path d="M34310 36530
L34310 35350
" />
<path d="M34310 35800
L34430 35740
L34650 35740
L34760 35800
L34820 35850
L34870 35970
L34870 36300
L34820 36420
L34760 36470
L34650 36530
L34430 36530
L34310 36470
" />
<path d="M35550 36530
L35440 36470
L35380 36360
L35380 35350
" />
<path d="M36450 36470
L36340 36530
L36110 36530
L36000 36470
L35940 36360
L35940 35910
L36000 35800
L36110 35740
L36340 35740
L36450 35800
L36500 35910
L36500 36020
L35940 36140
" />
</g>
<g style="fill:#848400; fill-opacity:0.0; 
stroke:#848400; stroke-width:100; stroke-opacity:1; 
stroke-linecap:round; stroke-linejoin:round;">
<path style="fill:#848400; fill-opacity:0.0; 
stroke:#848400; stroke-width:100; stroke-opacity:1; 
stroke-linecap:round; stroke-linejoin:round;fill:none"
d="M 37320,36000
37910,36590
38500,36590
38500,35410
37910,35410
Z" /> 
</g>
<g style="fill:#848400; fill-opacity:0.0; 
stroke:#848400; stroke-width:110; stroke-opacity:1; 
stroke-linecap:round; stroke-linejoin:round;">
</g>
<g style="fill:#000000; fill-opacity:0.0; 
stroke:#000000; stroke-width:110; stroke-opacity:1; 
stroke-linecap:round; stroke-linejoin:round;">
<text x="41500" y="25210"
textLength="3070" font-size="840" lengthAdjust="spacingAndGlyphs"
text-anchor="start" opacity="0">Sortie</text>
<path d="M41670 25150
L41760 25180
L41910 25180
L41970 25150
L42000 25120
L42030 25060
L42030 25000
L42000 24940
L41970 24910
L41910 24880
L41790 24850
L41730 24820
L41700 24790
L41670 24730
L41670 24670
L41700 24610
L41730 24580
L41790 24550
L41940 24550
L42030 24580
" />
<path d="M42390 25180
L42330 25150
L42300 25120
L42270 25060
L42270 24880
L42300 24820
L42330 24790
L42390 24760
L42480 24760
L42540 24790
L42570 24820
L42600 24880
L42600 25060
L42570 25120
L42540 25150
L42480 25180
L42390 25180
" />
<path d="M42870 25180
L42870 24760
" />
<path d="M42870 24880
L42900 24820
L42930 24790
L42990 24760
L43050 24760
" />
<path d="M43170 24760
L43410 24760
" />
<path d="M43260 24550
L43260 25090
L43290 25150
L43350 25180
L43410 25180
" />
<path d="M43620 25180
L43620 24760
" />
<path d="M43620 24550
L43590 24580
L43620 24610
L43650 24580
L43620 24550
L43620 24610
" />
<path d="M44160 25150
L44100 25180
L43980 25180
L43920 25150
L43890 25090
L43890 24850
L43920 24790
L43980 24760
L44100 24760
L44160 24790
L44190 24850
L44190 24910
L43890 24970
" />
</g>
<g style="fill:#000000; fill-opacity:0.0; 
stroke:#000000; stroke-width:130; stroke-opacity:1; 
stroke-linecap:round; stroke-linejoin:round;">
<text x="8000" y="21200"
textLength="7860" font-size="1050" lengthAdjust="spacingAndGlyphs"
text-anchor="start" opacity="0">Entrée(Input)</text>
<path d="M8250 20740
L8510 20740
" />
<path d="M8620 21160
L8250 21160
L8250 20370
L8620 20370
" />
<path d="M8960 20630
L8960 21160
" />
<path d="M8960 20710
L9000 20670
L9080 20630
L9190 20630
L9260 20670
L9300 20740
L9300 21160
" />
<path d="M9560 20630
L9870 20630
" />
<path d="M9680 20370
L9680 21040
L9720 21120
L9790 21160
L9870 21160
" />
<path d="M10130 21160
L10130 20630
" />
<path d="M10130 20780
L10170 20710
L10200 20670
L10280 20630
L10350 20630
" />
<path d="M10920 21120
L10840 21160
L10690 21160
L10620 21120
L10580 21040
L10580 20740
L10620 20670
L10690 20630
L10840 20630
L10920 20670
L10960 20740
L10960 20820
L10580 20890
" />
<path d="M10840 20330
L10730 20440
" />
<path d="M11600 21120
L11520 21160
L11370 21160
L11300 21120
L11260 21040
L11260 20740
L11300 20670
L11370 20630
L11520 20630
L11600 20670
L11630 20740
L11630 20820
L11260 20890
" />
<path d="M12200 21460
L12160 21420
L12090 21310
L12050 21230
L12010 21120
L11970 20930
L11970 20780
L12010 20590
L12050 20480
L12090 20410
L12160 20290
L12200 20250
" />
<path d="M12500 21160
L12500 20370
" />
<path d="M12880 20630
L12880 21160
" />
<path d="M12880 20710
L12910 20670
L12990 20630
L13100 20630
L13180 20670
L13210 20740
L13210 21160
" />
<path d="M13590 20630
L13590 21420
" />
<path d="M13590 20670
L13670 20630
L13820 20630
L13890 20670
L13930 20710
L13970 20780
L13970 21010
L13930 21080
L13890 21120
L13820 21160
L13670 21160
L13590 21120
" />
<path d="M14640 20630
L14640 21160
" />
<path d="M14300 20630
L14300 21040
L14340 21120
L14420 21160
L14530 21160
L14610 21120
L14640 21080
" />
<path d="M14910 20630
L15210 20630
" />
<path d="M15020 20370
L15020 21040
L15060 21120
L15130 21160
L15210 21160
" />
<path d="M15400 21460
L15430 21420
L15510 21310
L15550 21230
L15580 21120
L15620 20930
L15620 20780
L15580 20590
L15550 20480
L15510 20410
L15430 20290
L15400 20250
" />
</g>
<g style="fill:#000000; fill-opacity:0.0; 
stroke:#000000; stroke-width:0; stroke-opacity:1; 
stroke-linecap:round; stroke-linejoin:round;">
</g>
<g style="fill:#008400; fill-opacity:0.0; 
stroke:#008400; stroke-width:0; stroke-opacity:1; 
stroke-linecap:round; stroke-linejoin:round;">
</g>
<g style="fill:#008400; fill-opacity:1.0; 
stroke:#008400; stroke-width:100; stroke-opacity:1; 
stroke-linecap:round; stroke-linejoin:round;">
<circle cx="40000" cy="33500" r="200" /> 
</g>
<g style="fill:#008400; fill-opacity:1.0; 
stroke:#008400; stroke-width:0; stroke-opacity:1; 
stroke-linecap:round; stroke-linejoin:round;">
</g>
<g style="fill:#008400; fill-opacity:1.0; 
stroke:#008400; stroke-width:100; stroke-opacity:1; 
stroke-linecap:round; stroke-linejoin:round;">
<circle cx="40000" cy="30000" r="200" /> 
</g>
<g style="fill:#008400; fill-opacity:1.0; 
stroke:#008400; stroke-width:0; stroke-opacity:1; 
stroke-linecap:round; stroke-linejoin:round;">
</g>
<g style="fill:#008400; fill-opacity:1.0; 
stroke:#008400; stroke-width:100; stroke-opacity:1; 
stroke-linecap:round; stroke-linejoin:round;">
<circle cx="14000" cy="30000" r="200" /> 
</g>
<g style="fill:#008400; fill-opacity:1.0; 
stroke:#008400; stroke-width:0; stroke-opacity:1; 
stroke-linecap:round; stroke-linejoin:round;">
</g>
<g style="fill:#008400; fill-opacity:1.0; 
stroke:#008400; stroke-width:100; stroke-opacity:1; 
stroke-linecap:round; stroke-linejoin:round;">
<circle cx="32500" cy="18500" r="200" /> 
</g>
<g style="fill:#008400; fill-opacity:1.0; 
stroke:#008400; stroke-width:0; stroke-opacity:1; 
stroke-linecap:round; stroke-linejoin:round;">
</g>
<g style="fill:#008400; fill-opacity:1.0; 
stroke:#008400; stroke-width:100; stroke-opacity:1; 
stroke-linecap:round; stroke-linejoin:round;">
<circle cx="37500" cy="26000" r="200" /> 
</g> 
</svg>
