<?xml version="1.0" standalone="no"?>
 <!DOCTYPE svg PUBLIC "-//W3C//DTD SVG 1.1//EN" 
 "http://www.w3.org/Graphics/SVG/1.1/DTD/svg11.dtd"> 
<svg
  xmlns:svg="http://www.w3.org/2000/svg"
  xmlns="http://www.w3.org/2000/svg"
  xmlns:xlink="http://www.w3.org/1999/xlink"
  version="1.1"
  width="29.700220cm" height="21.000720cm" viewBox="0 0 116930 82680">
<title>SVG Picture created as calcul_resistance.svg date 2021/09/26 20:47:29 </title>
  <desc>Picture generated by Eeschema-SVG </desc>
<g style="fill:#000000; fill-opacity:1;stroke:#000000; stroke-opacity:1;
stroke-linecap:round; stroke-linejoin:round;"
 transform="translate(0 0) scale(1 1)">
</g>
<g style="fill:#000000; fill-opacity:0.0; 
stroke:#000000; stroke-width:0; stroke-opacity:1; 
stroke-linecap:round; stroke-linejoin:round;">
<g >
</g>
<g style="fill:#840000; fill-opacity:0.0; 
stroke:#840000; stroke-width:0; stroke-opacity:1; 
stroke-linecap:round; stroke-linejoin:round;">
</g>
<g style="fill:#840000; fill-opacity:0.0; 
stroke:#840000; stroke-width:60; stroke-opacity:1; 
stroke-linecap:round; stroke-linejoin:round;">
<circle cx="36000" cy="24500" r="2000" /> 
<text x="32800" y="24870"
textLength="490" font-size="660" lengthAdjust="spacingAndGlyphs"
text-anchor="middle" opacity="0">V</text>
<path d="M32630 24340
L32800 24840
L32960 24340
" />
</g>
<g style="fill:#840000; fill-opacity:1.0; 
stroke:#840000; stroke-width:60; stroke-opacity:1; 
stroke-linecap:round; stroke-linejoin:round;">
<path style="fill:#840000; fill-opacity:1.0; 
stroke:#840000; stroke-width:60; stroke-opacity:1; 
stroke-linecap:round; stroke-linejoin:round;fill-rule:evenodd;"
d="M 33500,27000
33500,23000
" /> 
<path style="fill:#840000; fill-opacity:1.0; 
stroke:#840000; stroke-width:60; stroke-opacity:1; 
stroke-linecap:round; stroke-linejoin:round;fill-rule:evenodd;"
d="M 33000,23000
33500,22000
34000,23000
" /> 
</g>
<g style="fill:#840000; fill-opacity:0.0; 
stroke:#840000; stroke-width:60; stroke-opacity:1; 
stroke-linecap:round; stroke-linejoin:round;">
<path d="M36000 22500
L36000 21500
" />
</g>
<g style="fill:#008484; fill-opacity:0.0; 
stroke:#008484; stroke-width:60; stroke-opacity:1; 
stroke-linecap:round; stroke-linejoin:round;">
<g transform="rotate(-90 36000 22900)">
<text x="36000" y="23150"
textLength="990" font-size="660" lengthAdjust="spacingAndGlyphs"
text-anchor="end" opacity="0">E1</text>
</g>
<path d="M35960 23730
L35960 23570
" />
<path d="M36220 23500
L36220 23730
L35720 23730
L35720 23500
" />
<path d="M36220 23020
L36220 23310
" />
<path d="M36220 23160
L35720 23160
L35790 23210
L35840 23260
L35860 23310
" />
</g>
<g style="fill:#840000; fill-opacity:0.0; 
stroke:#840000; stroke-width:60; stroke-opacity:1; 
stroke-linecap:round; stroke-linejoin:round;">
<g transform="rotate(-90 35900 22000)">
<text x="35900" y="22000"
textLength="540" font-size="660" lengthAdjust="spacingAndGlyphs"
text-anchor="middle" opacity="0">1</text>
</g>
<path d="M35870 21850
L35870 22140
" />
<path d="M35870 22000
L35370 22000
L35440 22040
L35490 22090
L35510 22140
" />
<path d="M36000 26500
L36000 27500
" />
</g>
<g style="fill:#008484; fill-opacity:0.0; 
stroke:#008484; stroke-width:60; stroke-opacity:1; 
stroke-linecap:round; stroke-linejoin:round;">
<g transform="rotate(-90 36000 26100)">
<text x="36000" y="26350"
textLength="990" font-size="660" lengthAdjust="spacingAndGlyphs"
text-anchor="start" opacity="0">E2</text>
</g>
<path d="M35960 25950
L35960 25780
" />
<path d="M36220 25710
L36220 25950
L35720 25950
L35720 25710
" />
<path d="M35770 25520
L35750 25490
L35720 25450
L35720 25330
L35750 25280
L35770 25260
L35820 25230
L35860 25230
L35940 25260
L36220 25540
L36220 25230
" />
</g>
<g style="fill:#840000; fill-opacity:0.0; 
stroke:#840000; stroke-width:60; stroke-opacity:1; 
stroke-linecap:round; stroke-linejoin:round;">
<g transform="rotate(-90 35900 27000)">
<text x="35900" y="27000"
textLength="540" font-size="660" lengthAdjust="spacingAndGlyphs"
text-anchor="middle" opacity="0">2</text>
</g>
<path d="M35420 27140
L35400 27110
L35370 27070
L35370 26950
L35400 26900
L35420 26880
L35470 26850
L35510 26850
L35590 26880
L35870 27160
L35870 26850
" />
</g>
<g style="fill:#008484; fill-opacity:0.0; 
stroke:#008484; stroke-width:60; stroke-opacity:1; 
stroke-linecap:round; stroke-linejoin:round;">
<text x="38760" y="24310"
textLength="960" font-size="660" lengthAdjust="spacingAndGlyphs"
text-anchor="middle" opacity="0">V1</text>
<path d="M38350 23780
L38520 24280
L38680 23780
" />
<path d="M39110 24280
L38830 24280
" />
<path d="M38970 24280
L38970 23780
L38920 23850
L38870 23900
L38830 23920
" />
<text x="40010" y="25220"
textLength="3460" font-size="660" lengthAdjust="spacingAndGlyphs"
text-anchor="middle" opacity="0">VSOURCE</text>
<path d="M38350 24690
L38520 25190
L38680 24690
" />
<path d="M38830 25170
L38900 25190
L39020 25190
L39060 25170
L39090 25140
L39110 25100
L39110 25050
L39090 25000
L39060 24980
L39020 24950
L38920 24930
L38870 24910
L38850 24880
L38830 24830
L38830 24790
L38850 24740
L38870 24720
L38920 24690
L39040 24690
L39110 24720
" />
<path d="M39420 24690
L39520 24690
L39560 24720
L39610 24760
L39640 24860
L39640 25020
L39610 25120
L39560 25170
L39520 25190
L39420 25190
L39370 25170
L39330 25120
L39300 25020
L39300 24860
L39330 24760
L39370 24720
L39420 24690
" />
<path d="M39850 24690
L39850 25100
L39870 25140
L39900 25170
L39950 25190
L40040 25190
L40090 25170
L40110 25140
L40140 25100
L40140 24690
" />
<path d="M40660 25190
L40490 24950
" />
<path d="M40370 25190
L40370 24690
L40560 24690
L40610 24720
L40640 24740
L40660 24790
L40660 24860
L40640 24910
L40610 24930
L40560 24950
L40370 24950
" />
<path d="M41160 25140
L41140 25170
L41060 25190
L41020 25190
L40950 25170
L40900 25120
L40870 25070
L40850 24980
L40850 24910
L40870 24810
L40900 24760
L40950 24720
L41020 24690
L41060 24690
L41140 24720
L41160 24740
" />
<path d="M41370 24930
L41540 24930
" />
<path d="M41610 25190
L41370 25190
L41370 24690
L41610 24690
" />
</g>
</g>
<g style="fill:#008484; fill-opacity:0.0; 
stroke:#008484; stroke-width:0; stroke-opacity:1; 
stroke-linecap:round; stroke-linejoin:round;">
<g >
</g>
<g style="fill:#840000; fill-opacity:0.0; 
stroke:#840000; stroke-width:0; stroke-opacity:1; 
stroke-linecap:round; stroke-linejoin:round;">
</g>
<g style="fill:#840000; fill-opacity:0.0; 
stroke:#840000; stroke-width:100; stroke-opacity:1; 
stroke-linecap:round; stroke-linejoin:round;">
<rect x="46500" y="16600" width="2000" height="800" rx="0" />
</g>
<g style="fill:#840000; fill-opacity:0.0; 
stroke:#840000; stroke-width:60; stroke-opacity:1; 
stroke-linecap:round; stroke-linejoin:round;">
<path d="M48500 17000
L49000 17000
" />
<path d="M46500 17000
L46000 17000
" />
</g>
<g style="fill:#008484; fill-opacity:0.0; 
stroke:#008484; stroke-width:60; stroke-opacity:1; 
stroke-linecap:round; stroke-linejoin:round;">
<text x="47500" y="15200"
textLength="1040" font-size="660" lengthAdjust="spacingAndGlyphs"
text-anchor="middle" opacity="0">R1</text>
<path d="M47410 15170
L47250 14930
" />
<path d="M47130 15170
L47130 14670
L47320 14670
L47360 14700
L47390 14720
L47410 14770
L47410 14840
L47390 14890
L47360 14910
L47320 14930
L47130 14930
" />
<path d="M47890 15170
L47600 15170
" />
<path d="M47750 15170
L47750 14670
L47700 14740
L47650 14790
L47600 14810
" />
<text x="47500" y="16110"
textLength="1990" font-size="660" lengthAdjust="spacingAndGlyphs"
text-anchor="middle" opacity="0">330R</text>
<path d="M46600 15580
L46910 15580
L46750 15770
L46820 15770
L46860 15800
L46890 15820
L46910 15870
L46910 15990
L46890 16030
L46860 16060
L46820 16080
L46670 16080
L46630 16060
L46600 16030
" />
<path d="M47080 15580
L47390 15580
L47220 15770
L47290 15770
L47340 15800
L47360 15820
L47390 15870
L47390 15990
L47360 16030
L47340 16060
L47290 16080
L47150 16080
L47100 16060
L47080 16030
" />
<path d="M47700 15580
L47750 15580
L47790 15610
L47820 15630
L47840 15680
L47860 15770
L47860 15890
L47840 15990
L47820 16030
L47790 16060
L47750 16080
L47700 16080
L47650 16060
L47630 16030
L47600 15990
L47580 15890
L47580 15770
L47600 15680
L47630 15630
L47650 15610
L47700 15580
" />
<path d="M48360 16080
L48200 15840
" />
<path d="M48080 16080
L48080 15580
L48270 15580
L48320 15610
L48340 15630
L48360 15680
L48360 15750
L48340 15800
L48320 15820
L48270 15840
L48080 15840
" />
</g>
</g>
<g style="fill:#008484; fill-opacity:0.0; 
stroke:#008484; stroke-width:0; stroke-opacity:1; 
stroke-linecap:round; stroke-linejoin:round;">
<g >
</g>
<g style="fill:#840000; fill-opacity:0.0; 
stroke:#840000; stroke-width:0; stroke-opacity:1; 
stroke-linecap:round; stroke-linejoin:round;">
</g>
<g style="fill:#840000; fill-opacity:0.0; 
stroke:#840000; stroke-width:100; stroke-opacity:1; 
stroke-linecap:round; stroke-linejoin:round;">
<rect x="51100" y="23500" width="800" height="2000" rx="0" />
</g>
<g style="fill:#840000; fill-opacity:0.0; 
stroke:#840000; stroke-width:60; stroke-opacity:1; 
stroke-linecap:round; stroke-linejoin:round;">
<path d="M51500 23500
L51500 23000
" />
<path d="M51500 25500
L51500 26000
" />
</g>
<g style="fill:#008484; fill-opacity:0.0; 
stroke:#008484; stroke-width:60; stroke-opacity:1; 
stroke-linecap:round; stroke-linejoin:round;">
<text x="52720" y="24310"
textLength="1040" font-size="660" lengthAdjust="spacingAndGlyphs"
text-anchor="middle" opacity="0">R2</text>
<path d="M52630 24280
L52470 24040
" />
<path d="M52350 24280
L52350 23780
L52540 23780
L52580 23810
L52610 23830
L52630 23880
L52630 23950
L52610 24000
L52580 24020
L52540 24040
L52350 24040
" />
<path d="M52820 23830
L52850 23810
L52890 23780
L53010 23780
L53060 23810
L53080 23830
L53110 23880
L53110 23920
L53080 24000
L52800 24280
L53110 24280
" />
<text x="52720" y="25220"
textLength="1040" font-size="660" lengthAdjust="spacingAndGlyphs"
text-anchor="middle" opacity="0">1K</text>
<path d="M52610 25190
L52320 25190
" />
<path d="M52470 25190
L52470 24690
L52420 24760
L52370 24810
L52320 24830
" />
<path d="M52820 25190
L52820 24690
" />
<path d="M53110 25190
L52890 24910
" />
<path d="M53110 24690
L52820 24980
" />
</g>
</g>
<g style="fill:#008484; fill-opacity:0.0; 
stroke:#008484; stroke-width:0; stroke-opacity:1; 
stroke-linecap:round; stroke-linejoin:round;">
<g >
</g>
<g style="fill:#840000; fill-opacity:0.0; 
stroke:#840000; stroke-width:0; stroke-opacity:1; 
stroke-linecap:round; stroke-linejoin:round;">
</g>
<g style="fill:#840000; fill-opacity:0.0; 
stroke:#840000; stroke-width:100; stroke-opacity:1; 
stroke-linecap:round; stroke-linejoin:round;">
<rect x="56100" y="23500" width="800" height="2000" rx="0" />
</g>
<g style="fill:#840000; fill-opacity:0.0; 
stroke:#840000; stroke-width:60; stroke-opacity:1; 
stroke-linecap:round; stroke-linejoin:round;">
<path d="M56500 23500
L56500 23000
" />
<path d="M56500 25500
L56500 26000
" />
</g>
<g style="fill:#008484; fill-opacity:0.0; 
stroke:#008484; stroke-width:60; stroke-opacity:1; 
stroke-linecap:round; stroke-linejoin:round;">
<text x="57720" y="24310"
textLength="1040" font-size="660" lengthAdjust="spacingAndGlyphs"
text-anchor="middle" opacity="0">R3</text>
<path d="M57630 24280
L57470 24040
" />
<path d="M57350 24280
L57350 23780
L57540 23780
L57580 23810
L57610 23830
L57630 23880
L57630 23950
L57610 24000
L57580 24020
L57540 24040
L57350 24040
" />
<path d="M57800 23780
L58110 23780
L57940 23970
L58010 23970
L58060 24000
L58080 24020
L58110 24070
L58110 24190
L58080 24230
L58060 24260
L58010 24280
L57870 24280
L57820 24260
L57800 24230
" />
<text x="57950" y="25220"
textLength="1510" font-size="660" lengthAdjust="spacingAndGlyphs"
text-anchor="middle" opacity="0">50R</text>
<path d="M57580 24690
L57340 24690
L57310 24930
L57340 24910
L57390 24880
L57500 24880
L57550 24910
L57580 24930
L57600 24980
L57600 25100
L57580 25140
L57550 25170
L57500 25190
L57390 25190
L57340 25170
L57310 25140
" />
<path d="M57910 24690
L57960 24690
L58000 24720
L58030 24740
L58050 24790
L58080 24880
L58080 25000
L58050 25100
L58030 25140
L58000 25170
L57960 25190
L57910 25190
L57860 25170
L57840 25140
L57810 25100
L57790 25000
L57790 24880
L57810 24790
L57840 24740
L57860 24720
L57910 24690
" />
<path d="M58580 25190
L58410 24950
" />
<path d="M58290 25190
L58290 24690
L58480 24690
L58530 24720
L58550 24740
L58580 24790
L58580 24860
L58550 24910
L58530 24930
L58480 24950
L58290 24950
" />
</g>
</g>
<g style="fill:#008484; fill-opacity:0.0; 
stroke:#008484; stroke-width:100; stroke-opacity:1; 
stroke-linecap:round; stroke-linejoin:round;">
</g>
<g style="fill:#008400; fill-opacity:0.0; 
stroke:#008400; stroke-width:100; stroke-opacity:1; 
stroke-linecap:round; stroke-linejoin:round;">
<path d="M51500 33000
L56500 33000
" />
<path d="M51500 26000
L51500 33000
" />
<path d="M56500 26000
L56500 33000
" />
<path d="M56500 17000
L56500 23000
" />
<path d="M51500 17000
L51500 23000
" />
<path d="M36000 33000
L51500 33000
" />
<path d="M36000 33000
L36000 27500
" />
<path d="M56500 17000
L51500 17000
" />
<path d="M49000 17000
L51500 17000
" />
<path d="M36000 17000
L46000 17000
" />
<path d="M36000 21500
L36000 17000
" />
</g>
<g style="fill:#008400; fill-opacity:0.0; 
stroke:#008400; stroke-width:0; stroke-opacity:1; 
stroke-linecap:round; stroke-linejoin:round;">
</g>
<g style="fill:#008400; fill-opacity:1.0; 
stroke:#008400; stroke-width:100; stroke-opacity:1; 
stroke-linecap:round; stroke-linejoin:round;">
<circle cx="51500" cy="17000" r="200" /> 
</g>
<g style="fill:#008400; fill-opacity:1.0; 
stroke:#008400; stroke-width:0; stroke-opacity:1; 
stroke-linecap:round; stroke-linejoin:round;">
</g>
<g style="fill:#008400; fill-opacity:1.0; 
stroke:#008400; stroke-width:100; stroke-opacity:1; 
stroke-linecap:round; stroke-linejoin:round;">
<circle cx="51500" cy="33000" r="200" /> 
</g> 
</svg>
