%TF.GenerationSoftware,KiCad,Pcbnew,(5.1.10)-1*%
%TF.CreationDate,2021-11-18T18:04:20+00:00*%
%TF.ProjectId,arduino_zero_like,61726475-696e-46f5-9f7a-65726f5f6c69,rev?*%
%TF.SameCoordinates,Original*%
%TF.FileFunction,Copper,L2,Bot*%
%TF.FilePolarity,Positive*%
%FSLAX46Y46*%
G04 Gerber Fmt 4.6, Leading zero omitted, Abs format (unit mm)*
G04 Created by KiCad (PCBNEW (5.1.10)-1) date 2021-11-18 18:04:20*
%MOMM*%
%LPD*%
G01*
G04 APERTURE LIST*
%TA.AperFunction,ComponentPad*%
%ADD10R,1.700000X1.700000*%
%TD*%
%TA.AperFunction,ComponentPad*%
%ADD11O,1.700000X1.700000*%
%TD*%
%TA.AperFunction,ComponentPad*%
%ADD12R,1.000000X1.000000*%
%TD*%
%TA.AperFunction,ComponentPad*%
%ADD13O,1.000000X1.000000*%
%TD*%
%TA.AperFunction,ComponentPad*%
%ADD14O,2.000000X1.450000*%
%TD*%
%TA.AperFunction,ComponentPad*%
%ADD15O,1.800000X1.150000*%
%TD*%
%TA.AperFunction,ViaPad*%
%ADD16C,0.800000*%
%TD*%
%TA.AperFunction,Conductor*%
%ADD17C,0.250000*%
%TD*%
G04 APERTURE END LIST*
D10*
%TO.P,J1,1*%
%TO.N,D0_RX*%
X56950000Y-80520000D03*
D11*
%TO.P,J1,2*%
%TO.N,D1_TX*%
X59490000Y-80520000D03*
%TO.P,J1,3*%
%TO.N,D2*%
X62030000Y-80520000D03*
%TO.P,J1,4*%
%TO.N,D3*%
X64570000Y-80520000D03*
%TO.P,J1,5*%
%TO.N,D4*%
X67110000Y-80520000D03*
%TO.P,J1,6*%
%TO.N,D5*%
X69650000Y-80520000D03*
%TD*%
D10*
%TO.P,J2,1*%
%TO.N,D9*%
X56900000Y-56980000D03*
D11*
%TO.P,J2,2*%
%TO.N,D8*%
X59440000Y-56980000D03*
%TO.P,J2,3*%
%TO.N,A2*%
X61980000Y-56980000D03*
%TO.P,J2,4*%
%TO.N,A1*%
X64520000Y-56980000D03*
%TO.P,J2,5*%
%TO.N,VREFA*%
X67060000Y-56980000D03*
%TO.P,J2,6*%
%TO.N,A0*%
X69600000Y-56980000D03*
%TD*%
%TO.P,J3,8*%
%TO.N,SCL*%
X91360000Y-80460000D03*
%TO.P,J3,7*%
%TO.N,SDA*%
X88820000Y-80460000D03*
%TO.P,J3,6*%
%TO.N,D13*%
X86280000Y-80460000D03*
%TO.P,J3,5*%
%TO.N,D12*%
X83740000Y-80460000D03*
%TO.P,J3,4*%
%TO.N,D11*%
X81200000Y-80460000D03*
%TO.P,J3,3*%
%TO.N,D10*%
X78660000Y-80460000D03*
%TO.P,J3,2*%
%TO.N,D7*%
X76120000Y-80460000D03*
D10*
%TO.P,J3,1*%
%TO.N,D6*%
X73580000Y-80460000D03*
%TD*%
%TO.P,J4,1*%
%TO.N,+3V3*%
X73580000Y-56940000D03*
D11*
%TO.P,J4,2*%
%TO.N,SWCLK*%
X76120000Y-56940000D03*
%TO.P,J4,3*%
%TO.N,GND*%
X78660000Y-56940000D03*
%TO.P,J4,4*%
%TO.N,SWDIO*%
X81200000Y-56940000D03*
%TO.P,J4,5*%
%TO.N,RESETN*%
X83740000Y-56940000D03*
%TO.P,J4,6*%
%TO.N,+5V*%
X86280000Y-56940000D03*
%TO.P,J4,7*%
%TO.N,GND*%
X88820000Y-56940000D03*
%TO.P,J4,8*%
%TO.N,VIN*%
X91360000Y-56940000D03*
%TD*%
D12*
%TO.P,J5,1*%
%TO.N,+3V3*%
X77470000Y-70220000D03*
D13*
%TO.P,J5,2*%
%TO.N,SWDIO*%
X77470000Y-71490000D03*
%TO.P,J5,3*%
%TO.N,GND*%
X77470000Y-72760000D03*
%TO.P,J5,4*%
%TO.N,SWCLK*%
X77470000Y-74030000D03*
%TO.P,J5,5*%
%TO.N,GND*%
X77470000Y-75300000D03*
%TD*%
D14*
%TO.P,J6,6*%
%TO.N,Net-(J6-Pad6)*%
X107320000Y-65445000D03*
X107320000Y-72895000D03*
D15*
X103520000Y-65295000D03*
X103520000Y-73045000D03*
%TD*%
D16*
%TO.N,GND*%
X74223700Y-69079000D03*
%TO.N,+3V3*%
X64207400Y-65137300D03*
X55884500Y-65366600D03*
%TO.N,Net-(C10-Pad1)*%
X67582900Y-70465000D03*
X62115800Y-65417500D03*
%TO.N,/USB_D-*%
X93150000Y-71404200D03*
X70770700Y-73853000D03*
%TO.N,/USB_D+*%
X95350000Y-71433200D03*
X69365300Y-73488400D03*
%TO.N,D0_RX*%
X58883300Y-66698700D03*
%TO.N,D4*%
X58969200Y-65204700D03*
%TO.N,D13*%
X62848200Y-69899500D03*
%TO.N,D12*%
X61698500Y-70777800D03*
%TO.N,SWCLK*%
X70397800Y-66430000D03*
%TO.N,SWDIO*%
X71281900Y-65755300D03*
%TO.N,/PB03_RX_LED*%
X74387600Y-71896400D03*
X67581700Y-64980300D03*
%TO.N,/PA27_TX_LED*%
X82287400Y-73930000D03*
X68038700Y-69430000D03*
%TD*%
D17*
%TO.N,GND*%
X77470000Y-72760000D02*
X74223700Y-69513700D01*
X74223700Y-69513700D02*
X74223700Y-69079000D01*
X78295300Y-72760000D02*
X88820000Y-62235300D01*
X88820000Y-62235300D02*
X88820000Y-56940000D01*
X77470000Y-72760000D02*
X78295300Y-72760000D01*
X77470000Y-75300000D02*
X78295300Y-74474700D01*
X78295300Y-74474700D02*
X78295300Y-72760000D01*
%TO.N,+3V3*%
X73580000Y-56940000D02*
X74755300Y-56940000D01*
X74755300Y-56940000D02*
X74755300Y-56572700D01*
X74755300Y-56572700D02*
X75610600Y-55717400D01*
X75610600Y-55717400D02*
X76564000Y-55717400D01*
X76564000Y-55717400D02*
X77470000Y-56623400D01*
X77470000Y-56623400D02*
X77470000Y-70220000D01*
X72992400Y-56940000D02*
X73580000Y-56940000D01*
X64207400Y-65137300D02*
X63549400Y-64479300D01*
X63549400Y-64479300D02*
X56771800Y-64479300D01*
X56771800Y-64479300D02*
X55884500Y-65366600D01*
X72404700Y-56940000D02*
X64207400Y-65137300D01*
X72992400Y-56940000D02*
X72404700Y-56940000D01*
%TO.N,Net-(C10-Pad1)*%
X67582900Y-70465000D02*
X67163300Y-70465000D01*
X67163300Y-70465000D02*
X62115800Y-65417500D01*
%TO.N,/USB_D-*%
X93150000Y-71404200D02*
X87912400Y-76641800D01*
X87912400Y-76641800D02*
X73559500Y-76641800D01*
X73559500Y-76641800D02*
X70770700Y-73853000D01*
%TO.N,/USB_D+*%
X95350000Y-71433200D02*
X89667300Y-77115900D01*
X89667300Y-77115900D02*
X72992800Y-77115900D01*
X72992800Y-77115900D02*
X69365300Y-73488400D01*
%TO.N,D0_RX*%
X56950000Y-80520000D02*
X56950000Y-68632000D01*
X56950000Y-68632000D02*
X58883300Y-66698700D01*
%TO.N,D4*%
X67110000Y-80520000D02*
X67110000Y-79344700D01*
X58969200Y-65204700D02*
X59616900Y-65852400D01*
X59616900Y-65852400D02*
X59616900Y-71851600D01*
X59616900Y-71851600D02*
X67110000Y-79344700D01*
%TO.N,D13*%
X85104700Y-80460000D02*
X85104700Y-80092700D01*
X85104700Y-80092700D02*
X82815600Y-77803600D01*
X82815600Y-77803600D02*
X70752300Y-77803600D01*
X70752300Y-77803600D02*
X62848200Y-69899500D01*
X86280000Y-80460000D02*
X85104700Y-80460000D01*
%TO.N,D12*%
X82564700Y-80460000D02*
X82564700Y-80092600D01*
X82564700Y-80092600D02*
X81756800Y-79284700D01*
X81756800Y-79284700D02*
X70205400Y-79284700D01*
X70205400Y-79284700D02*
X61698500Y-70777800D01*
X83740000Y-80460000D02*
X82564700Y-80460000D01*
%TO.N,SWCLK*%
X77470000Y-74030000D02*
X77470000Y-73953000D01*
X77470000Y-73953000D02*
X70556600Y-67039600D01*
X70556600Y-67039600D02*
X70556600Y-66430000D01*
X70397800Y-66430000D02*
X70556600Y-66430000D01*
X76120000Y-58115300D02*
X70556600Y-63678700D01*
X70556600Y-63678700D02*
X70556600Y-66430000D01*
X76120000Y-56940000D02*
X76120000Y-58115300D01*
%TO.N,SWDIO*%
X81200000Y-56940000D02*
X81200000Y-58115300D01*
X77470000Y-71490000D02*
X78295300Y-71490000D01*
X78295300Y-71490000D02*
X78295300Y-61020000D01*
X78295300Y-61020000D02*
X81200000Y-58115300D01*
X71281900Y-65755300D02*
X71976500Y-65755300D01*
X71976500Y-65755300D02*
X76392300Y-70171100D01*
X76392300Y-70171100D02*
X76392300Y-70649800D01*
X76392300Y-70649800D02*
X77232500Y-71490000D01*
X77232500Y-71490000D02*
X77470000Y-71490000D01*
%TO.N,Net-(J6-Pad6)*%
X107320000Y-72895000D02*
X107320000Y-65445000D01*
%TO.N,/PB03_RX_LED*%
X67581700Y-64980300D02*
X74387600Y-71786200D01*
X74387600Y-71786200D02*
X74387600Y-71896400D01*
%TO.N,/PA27_TX_LED*%
X82287400Y-73930000D02*
X80074600Y-76142800D01*
X80074600Y-76142800D02*
X74751500Y-76142800D01*
X74751500Y-76142800D02*
X68038700Y-69430000D01*
%TD*%
M02*
