%TF.GenerationSoftware,KiCad,Pcbnew,(5.1.10)-1*%
%TF.CreationDate,2021-11-18T18:04:21+00:00*%
%TF.ProjectId,arduino_zero_like,61726475-696e-46f5-9f7a-65726f5f6c69,rev?*%
%TF.SameCoordinates,Original*%
%TF.FileFunction,Soldermask,Top*%
%TF.FilePolarity,Negative*%
%FSLAX46Y46*%
G04 Gerber Fmt 4.6, Leading zero omitted, Abs format (unit mm)*
G04 Created by KiCad (PCBNEW (5.1.10)-1) date 2021-11-18 18:04:21*
%MOMM*%
%LPD*%
G01*
G04 APERTURE LIST*
%ADD10R,0.900000X1.200000*%
%ADD11R,1.400000X1.200000*%
%ADD12R,1.400000X1.000000*%
%ADD13R,1.700000X1.700000*%
%ADD14O,1.700000X1.700000*%
%ADD15R,1.000000X1.000000*%
%ADD16O,1.000000X1.000000*%
%ADD17R,1.300000X0.450000*%
%ADD18O,2.000000X1.450000*%
%ADD19O,1.800000X1.150000*%
%ADD20O,0.800000X0.800000*%
%ADD21R,0.700000X0.420000*%
%ADD22C,0.100000*%
%ADD23R,2.000000X3.800000*%
%ADD24R,2.000000X1.500000*%
%ADD25R,0.250000X1.300000*%
%ADD26R,1.300000X0.250000*%
G04 APERTURE END LIST*
%TO.C,C1*%
G36*
G01*
X91440000Y-66560000D02*
X91440000Y-66220000D01*
G75*
G02*
X91580000Y-66080000I140000J0D01*
G01*
X91860000Y-66080000D01*
G75*
G02*
X92000000Y-66220000I0J-140000D01*
G01*
X92000000Y-66560000D01*
G75*
G02*
X91860000Y-66700000I-140000J0D01*
G01*
X91580000Y-66700000D01*
G75*
G02*
X91440000Y-66560000I0J140000D01*
G01*
G37*
G36*
G01*
X90480000Y-66560000D02*
X90480000Y-66220000D01*
G75*
G02*
X90620000Y-66080000I140000J0D01*
G01*
X90900000Y-66080000D01*
G75*
G02*
X91040000Y-66220000I0J-140000D01*
G01*
X91040000Y-66560000D01*
G75*
G02*
X90900000Y-66700000I-140000J0D01*
G01*
X90620000Y-66700000D01*
G75*
G02*
X90480000Y-66560000I0J140000D01*
G01*
G37*
%TD*%
%TO.C,C2*%
G36*
G01*
X87715000Y-72320001D02*
X87715000Y-71019999D01*
G75*
G02*
X87964999Y-70770000I249999J0D01*
G01*
X88615001Y-70770000D01*
G75*
G02*
X88865000Y-71019999I0J-249999D01*
G01*
X88865000Y-72320001D01*
G75*
G02*
X88615001Y-72570000I-249999J0D01*
G01*
X87964999Y-72570000D01*
G75*
G02*
X87715000Y-72320001I0J249999D01*
G01*
G37*
G36*
G01*
X90665000Y-72320001D02*
X90665000Y-71019999D01*
G75*
G02*
X90914999Y-70770000I249999J0D01*
G01*
X91565001Y-70770000D01*
G75*
G02*
X91815000Y-71019999I0J-249999D01*
G01*
X91815000Y-72320001D01*
G75*
G02*
X91565001Y-72570000I-249999J0D01*
G01*
X90914999Y-72570000D01*
G75*
G02*
X90665000Y-72320001I0J249999D01*
G01*
G37*
%TD*%
%TO.C,C3*%
G36*
G01*
X75110000Y-61920000D02*
X75110000Y-61580000D01*
G75*
G02*
X75250000Y-61440000I140000J0D01*
G01*
X75530000Y-61440000D01*
G75*
G02*
X75670000Y-61580000I0J-140000D01*
G01*
X75670000Y-61920000D01*
G75*
G02*
X75530000Y-62060000I-140000J0D01*
G01*
X75250000Y-62060000D01*
G75*
G02*
X75110000Y-61920000I0J140000D01*
G01*
G37*
G36*
G01*
X74150000Y-61920000D02*
X74150000Y-61580000D01*
G75*
G02*
X74290000Y-61440000I140000J0D01*
G01*
X74570000Y-61440000D01*
G75*
G02*
X74710000Y-61580000I0J-140000D01*
G01*
X74710000Y-61920000D01*
G75*
G02*
X74570000Y-62060000I-140000J0D01*
G01*
X74290000Y-62060000D01*
G75*
G02*
X74150000Y-61920000I0J140000D01*
G01*
G37*
%TD*%
%TO.C,C4*%
G36*
G01*
X72890000Y-64840000D02*
X72890000Y-64500000D01*
G75*
G02*
X73030000Y-64360000I140000J0D01*
G01*
X73310000Y-64360000D01*
G75*
G02*
X73450000Y-64500000I0J-140000D01*
G01*
X73450000Y-64840000D01*
G75*
G02*
X73310000Y-64980000I-140000J0D01*
G01*
X73030000Y-64980000D01*
G75*
G02*
X72890000Y-64840000I0J140000D01*
G01*
G37*
G36*
G01*
X73850000Y-64840000D02*
X73850000Y-64500000D01*
G75*
G02*
X73990000Y-64360000I140000J0D01*
G01*
X74270000Y-64360000D01*
G75*
G02*
X74410000Y-64500000I0J-140000D01*
G01*
X74410000Y-64840000D01*
G75*
G02*
X74270000Y-64980000I-140000J0D01*
G01*
X73990000Y-64980000D01*
G75*
G02*
X73850000Y-64840000I0J140000D01*
G01*
G37*
%TD*%
%TO.C,C5*%
G36*
G01*
X53740000Y-66930000D02*
X53740000Y-66590000D01*
G75*
G02*
X53880000Y-66450000I140000J0D01*
G01*
X54160000Y-66450000D01*
G75*
G02*
X54300000Y-66590000I0J-140000D01*
G01*
X54300000Y-66930000D01*
G75*
G02*
X54160000Y-67070000I-140000J0D01*
G01*
X53880000Y-67070000D01*
G75*
G02*
X53740000Y-66930000I0J140000D01*
G01*
G37*
G36*
G01*
X54700000Y-66930000D02*
X54700000Y-66590000D01*
G75*
G02*
X54840000Y-66450000I140000J0D01*
G01*
X55120000Y-66450000D01*
G75*
G02*
X55260000Y-66590000I0J-140000D01*
G01*
X55260000Y-66930000D01*
G75*
G02*
X55120000Y-67070000I-140000J0D01*
G01*
X54840000Y-67070000D01*
G75*
G02*
X54700000Y-66930000I0J140000D01*
G01*
G37*
%TD*%
%TO.C,C6*%
G36*
G01*
X74390000Y-67750000D02*
X74390000Y-67410000D01*
G75*
G02*
X74530000Y-67270000I140000J0D01*
G01*
X74810000Y-67270000D01*
G75*
G02*
X74950000Y-67410000I0J-140000D01*
G01*
X74950000Y-67750000D01*
G75*
G02*
X74810000Y-67890000I-140000J0D01*
G01*
X74530000Y-67890000D01*
G75*
G02*
X74390000Y-67750000I0J140000D01*
G01*
G37*
G36*
G01*
X73430000Y-67750000D02*
X73430000Y-67410000D01*
G75*
G02*
X73570000Y-67270000I140000J0D01*
G01*
X73850000Y-67270000D01*
G75*
G02*
X73990000Y-67410000I0J-140000D01*
G01*
X73990000Y-67750000D01*
G75*
G02*
X73850000Y-67890000I-140000J0D01*
G01*
X73570000Y-67890000D01*
G75*
G02*
X73430000Y-67750000I0J140000D01*
G01*
G37*
%TD*%
%TO.C,C7*%
G36*
G01*
X54810000Y-64960000D02*
X54810000Y-64620000D01*
G75*
G02*
X54950000Y-64480000I140000J0D01*
G01*
X55230000Y-64480000D01*
G75*
G02*
X55370000Y-64620000I0J-140000D01*
G01*
X55370000Y-64960000D01*
G75*
G02*
X55230000Y-65100000I-140000J0D01*
G01*
X54950000Y-65100000D01*
G75*
G02*
X54810000Y-64960000I0J140000D01*
G01*
G37*
G36*
G01*
X53850000Y-64960000D02*
X53850000Y-64620000D01*
G75*
G02*
X53990000Y-64480000I140000J0D01*
G01*
X54270000Y-64480000D01*
G75*
G02*
X54410000Y-64620000I0J-140000D01*
G01*
X54410000Y-64960000D01*
G75*
G02*
X54270000Y-65100000I-140000J0D01*
G01*
X53990000Y-65100000D01*
G75*
G02*
X53850000Y-64960000I0J140000D01*
G01*
G37*
%TD*%
%TO.C,C8*%
G36*
G01*
X53910000Y-62170000D02*
X53910000Y-61830000D01*
G75*
G02*
X54050000Y-61690000I140000J0D01*
G01*
X54330000Y-61690000D01*
G75*
G02*
X54470000Y-61830000I0J-140000D01*
G01*
X54470000Y-62170000D01*
G75*
G02*
X54330000Y-62310000I-140000J0D01*
G01*
X54050000Y-62310000D01*
G75*
G02*
X53910000Y-62170000I0J140000D01*
G01*
G37*
G36*
G01*
X54870000Y-62170000D02*
X54870000Y-61830000D01*
G75*
G02*
X55010000Y-61690000I140000J0D01*
G01*
X55290000Y-61690000D01*
G75*
G02*
X55430000Y-61830000I0J-140000D01*
G01*
X55430000Y-62170000D01*
G75*
G02*
X55290000Y-62310000I-140000J0D01*
G01*
X55010000Y-62310000D01*
G75*
G02*
X54870000Y-62170000I0J140000D01*
G01*
G37*
%TD*%
%TO.C,C9*%
G36*
G01*
X68110000Y-67100000D02*
X68110000Y-66760000D01*
G75*
G02*
X68250000Y-66620000I140000J0D01*
G01*
X68530000Y-66620000D01*
G75*
G02*
X68670000Y-66760000I0J-140000D01*
G01*
X68670000Y-67100000D01*
G75*
G02*
X68530000Y-67240000I-140000J0D01*
G01*
X68250000Y-67240000D01*
G75*
G02*
X68110000Y-67100000I0J140000D01*
G01*
G37*
G36*
G01*
X69070000Y-67100000D02*
X69070000Y-66760000D01*
G75*
G02*
X69210000Y-66620000I140000J0D01*
G01*
X69490000Y-66620000D01*
G75*
G02*
X69630000Y-66760000I0J-140000D01*
G01*
X69630000Y-67100000D01*
G75*
G02*
X69490000Y-67240000I-140000J0D01*
G01*
X69210000Y-67240000D01*
G75*
G02*
X69070000Y-67100000I0J140000D01*
G01*
G37*
%TD*%
%TO.C,C10*%
G36*
G01*
X68480000Y-68570000D02*
X68480000Y-68230000D01*
G75*
G02*
X68620000Y-68090000I140000J0D01*
G01*
X68900000Y-68090000D01*
G75*
G02*
X69040000Y-68230000I0J-140000D01*
G01*
X69040000Y-68570000D01*
G75*
G02*
X68900000Y-68710000I-140000J0D01*
G01*
X68620000Y-68710000D01*
G75*
G02*
X68480000Y-68570000I0J140000D01*
G01*
G37*
G36*
G01*
X69440000Y-68570000D02*
X69440000Y-68230000D01*
G75*
G02*
X69580000Y-68090000I140000J0D01*
G01*
X69860000Y-68090000D01*
G75*
G02*
X70000000Y-68230000I0J-140000D01*
G01*
X70000000Y-68570000D01*
G75*
G02*
X69860000Y-68710000I-140000J0D01*
G01*
X69580000Y-68710000D01*
G75*
G02*
X69440000Y-68570000I0J140000D01*
G01*
G37*
%TD*%
%TO.C,C11*%
G36*
G01*
X69430000Y-70290000D02*
X69430000Y-69950000D01*
G75*
G02*
X69570000Y-69810000I140000J0D01*
G01*
X69850000Y-69810000D01*
G75*
G02*
X69990000Y-69950000I0J-140000D01*
G01*
X69990000Y-70290000D01*
G75*
G02*
X69850000Y-70430000I-140000J0D01*
G01*
X69570000Y-70430000D01*
G75*
G02*
X69430000Y-70290000I0J140000D01*
G01*
G37*
G36*
G01*
X68470000Y-70290000D02*
X68470000Y-69950000D01*
G75*
G02*
X68610000Y-69810000I140000J0D01*
G01*
X68890000Y-69810000D01*
G75*
G02*
X69030000Y-69950000I0J-140000D01*
G01*
X69030000Y-70290000D01*
G75*
G02*
X68890000Y-70430000I-140000J0D01*
G01*
X68610000Y-70430000D01*
G75*
G02*
X68470000Y-70290000I0J140000D01*
G01*
G37*
%TD*%
D10*
%TO.C,D1*%
X88500000Y-60680000D03*
X91800000Y-60680000D03*
%TD*%
%TO.C,D2*%
G36*
G01*
X88430000Y-75952500D02*
X88430000Y-76427500D01*
G75*
G02*
X88192500Y-76665000I-237500J0D01*
G01*
X87617500Y-76665000D01*
G75*
G02*
X87380000Y-76427500I0J237500D01*
G01*
X87380000Y-75952500D01*
G75*
G02*
X87617500Y-75715000I237500J0D01*
G01*
X88192500Y-75715000D01*
G75*
G02*
X88430000Y-75952500I0J-237500D01*
G01*
G37*
G36*
G01*
X86680000Y-75952500D02*
X86680000Y-76427500D01*
G75*
G02*
X86442500Y-76665000I-237500J0D01*
G01*
X85867500Y-76665000D01*
G75*
G02*
X85630000Y-76427500I0J237500D01*
G01*
X85630000Y-75952500D01*
G75*
G02*
X85867500Y-75715000I237500J0D01*
G01*
X86442500Y-75715000D01*
G75*
G02*
X86680000Y-75952500I0J-237500D01*
G01*
G37*
%TD*%
%TO.C,D3*%
G36*
G01*
X97615000Y-75957500D02*
X97615000Y-75482500D01*
G75*
G02*
X97852500Y-75245000I237500J0D01*
G01*
X98427500Y-75245000D01*
G75*
G02*
X98665000Y-75482500I0J-237500D01*
G01*
X98665000Y-75957500D01*
G75*
G02*
X98427500Y-76195000I-237500J0D01*
G01*
X97852500Y-76195000D01*
G75*
G02*
X97615000Y-75957500I0J237500D01*
G01*
G37*
G36*
G01*
X95865000Y-75957500D02*
X95865000Y-75482500D01*
G75*
G02*
X96102500Y-75245000I237500J0D01*
G01*
X96677500Y-75245000D01*
G75*
G02*
X96915000Y-75482500I0J-237500D01*
G01*
X96915000Y-75957500D01*
G75*
G02*
X96677500Y-76195000I-237500J0D01*
G01*
X96102500Y-76195000D01*
G75*
G02*
X95865000Y-75957500I0J237500D01*
G01*
G37*
%TD*%
%TO.C,D4*%
G36*
G01*
X90560000Y-76127500D02*
X90560000Y-75652500D01*
G75*
G02*
X90797500Y-75415000I237500J0D01*
G01*
X91372500Y-75415000D01*
G75*
G02*
X91610000Y-75652500I0J-237500D01*
G01*
X91610000Y-76127500D01*
G75*
G02*
X91372500Y-76365000I-237500J0D01*
G01*
X90797500Y-76365000D01*
G75*
G02*
X90560000Y-76127500I0J237500D01*
G01*
G37*
G36*
G01*
X92310000Y-76127500D02*
X92310000Y-75652500D01*
G75*
G02*
X92547500Y-75415000I237500J0D01*
G01*
X93122500Y-75415000D01*
G75*
G02*
X93360000Y-75652500I0J-237500D01*
G01*
X93360000Y-76127500D01*
G75*
G02*
X93122500Y-76365000I-237500J0D01*
G01*
X92547500Y-76365000D01*
G75*
G02*
X92310000Y-76127500I0J237500D01*
G01*
G37*
%TD*%
D11*
%TO.C,D5*%
X93150000Y-68580000D03*
D12*
X93150000Y-70300000D03*
X95350000Y-70300000D03*
X95350000Y-68400000D03*
%TD*%
D13*
%TO.C,J1*%
X56950000Y-80520000D03*
D14*
X59490000Y-80520000D03*
X62030000Y-80520000D03*
X64570000Y-80520000D03*
X67110000Y-80520000D03*
X69650000Y-80520000D03*
%TD*%
D13*
%TO.C,J2*%
X56900000Y-56980000D03*
D14*
X59440000Y-56980000D03*
X61980000Y-56980000D03*
X64520000Y-56980000D03*
X67060000Y-56980000D03*
X69600000Y-56980000D03*
%TD*%
%TO.C,J3*%
X91360000Y-80460000D03*
X88820000Y-80460000D03*
X86280000Y-80460000D03*
X83740000Y-80460000D03*
X81200000Y-80460000D03*
X78660000Y-80460000D03*
X76120000Y-80460000D03*
D13*
X73580000Y-80460000D03*
%TD*%
%TO.C,J4*%
X73580000Y-56940000D03*
D14*
X76120000Y-56940000D03*
X78660000Y-56940000D03*
X81200000Y-56940000D03*
X83740000Y-56940000D03*
X86280000Y-56940000D03*
X88820000Y-56940000D03*
X91360000Y-56940000D03*
%TD*%
D15*
%TO.C,J5*%
X77470000Y-70220000D03*
D16*
X77470000Y-71490000D03*
X77470000Y-72760000D03*
X77470000Y-74030000D03*
X77470000Y-75300000D03*
%TD*%
D17*
%TO.C,J6*%
X107370000Y-67870000D03*
X107370000Y-68520000D03*
X107370000Y-69170000D03*
X107370000Y-69820000D03*
X107370000Y-70470000D03*
D18*
X107320000Y-65445000D03*
X107320000Y-72895000D03*
D19*
X103520000Y-65295000D03*
X103520000Y-73045000D03*
D20*
X106270000Y-66670000D03*
X106270000Y-71670000D03*
%TD*%
%TO.C,L1*%
G36*
G01*
X68140000Y-72187500D02*
X68140000Y-71712500D01*
G75*
G02*
X68377500Y-71475000I237500J0D01*
G01*
X68952500Y-71475000D01*
G75*
G02*
X69190000Y-71712500I0J-237500D01*
G01*
X69190000Y-72187500D01*
G75*
G02*
X68952500Y-72425000I-237500J0D01*
G01*
X68377500Y-72425000D01*
G75*
G02*
X68140000Y-72187500I0J237500D01*
G01*
G37*
G36*
G01*
X69890000Y-72187500D02*
X69890000Y-71712500D01*
G75*
G02*
X70127500Y-71475000I237500J0D01*
G01*
X70702500Y-71475000D01*
G75*
G02*
X70940000Y-71712500I0J-237500D01*
G01*
X70940000Y-72187500D01*
G75*
G02*
X70702500Y-72425000I-237500J0D01*
G01*
X70127500Y-72425000D01*
G75*
G02*
X69890000Y-72187500I0J237500D01*
G01*
G37*
%TD*%
D21*
%TO.C,Q1*%
X92570000Y-62855000D03*
X92570000Y-64155000D03*
X92570000Y-63505000D03*
X92570000Y-64805000D03*
D22*
G36*
X95920000Y-63065000D02*
G01*
X95380000Y-63065000D01*
X95380000Y-63295000D01*
X95920000Y-63295000D01*
X95920000Y-63715000D01*
X95380000Y-63715000D01*
X95380000Y-63945000D01*
X95920000Y-63945000D01*
X95920000Y-64365000D01*
X95380000Y-64365000D01*
X95380000Y-64595000D01*
X95920000Y-64595000D01*
X95920000Y-65015000D01*
X93670000Y-65015000D01*
X93670000Y-62645000D01*
X95920000Y-62645000D01*
X95920000Y-63065000D01*
G37*
%TD*%
%TO.C,R1*%
G36*
G01*
X93530000Y-66650000D02*
X93530000Y-66450000D01*
G75*
G02*
X93630000Y-66350000I100000J0D01*
G01*
X93890000Y-66350000D01*
G75*
G02*
X93990000Y-66450000I0J-100000D01*
G01*
X93990000Y-66650000D01*
G75*
G02*
X93890000Y-66750000I-100000J0D01*
G01*
X93630000Y-66750000D01*
G75*
G02*
X93530000Y-66650000I0J100000D01*
G01*
G37*
G36*
G01*
X94170000Y-66650000D02*
X94170000Y-66450000D01*
G75*
G02*
X94270000Y-66350000I100000J0D01*
G01*
X94530000Y-66350000D01*
G75*
G02*
X94630000Y-66450000I0J-100000D01*
G01*
X94630000Y-66650000D01*
G75*
G02*
X94530000Y-66750000I-100000J0D01*
G01*
X94270000Y-66750000D01*
G75*
G02*
X94170000Y-66650000I0J100000D01*
G01*
G37*
%TD*%
%TO.C,R2*%
G36*
G01*
X73580000Y-66490000D02*
X73580000Y-66290000D01*
G75*
G02*
X73680000Y-66190000I100000J0D01*
G01*
X73940000Y-66190000D01*
G75*
G02*
X74040000Y-66290000I0J-100000D01*
G01*
X74040000Y-66490000D01*
G75*
G02*
X73940000Y-66590000I-100000J0D01*
G01*
X73680000Y-66590000D01*
G75*
G02*
X73580000Y-66490000I0J100000D01*
G01*
G37*
G36*
G01*
X74220000Y-66490000D02*
X74220000Y-66290000D01*
G75*
G02*
X74320000Y-66190000I100000J0D01*
G01*
X74580000Y-66190000D01*
G75*
G02*
X74680000Y-66290000I0J-100000D01*
G01*
X74680000Y-66490000D01*
G75*
G02*
X74580000Y-66590000I-100000J0D01*
G01*
X74320000Y-66590000D01*
G75*
G02*
X74220000Y-66490000I0J100000D01*
G01*
G37*
%TD*%
%TO.C,R3*%
G36*
G01*
X84040000Y-76230000D02*
X84040000Y-76030000D01*
G75*
G02*
X84140000Y-75930000I100000J0D01*
G01*
X84400000Y-75930000D01*
G75*
G02*
X84500000Y-76030000I0J-100000D01*
G01*
X84500000Y-76230000D01*
G75*
G02*
X84400000Y-76330000I-100000J0D01*
G01*
X84140000Y-76330000D01*
G75*
G02*
X84040000Y-76230000I0J100000D01*
G01*
G37*
G36*
G01*
X83400000Y-76230000D02*
X83400000Y-76030000D01*
G75*
G02*
X83500000Y-75930000I100000J0D01*
G01*
X83760000Y-75930000D01*
G75*
G02*
X83860000Y-76030000I0J-100000D01*
G01*
X83860000Y-76230000D01*
G75*
G02*
X83760000Y-76330000I-100000J0D01*
G01*
X83500000Y-76330000D01*
G75*
G02*
X83400000Y-76230000I0J100000D01*
G01*
G37*
%TD*%
%TO.C,R4*%
G36*
G01*
X97450000Y-77680000D02*
X97450000Y-77480000D01*
G75*
G02*
X97550000Y-77380000I100000J0D01*
G01*
X97810000Y-77380000D01*
G75*
G02*
X97910000Y-77480000I0J-100000D01*
G01*
X97910000Y-77680000D01*
G75*
G02*
X97810000Y-77780000I-100000J0D01*
G01*
X97550000Y-77780000D01*
G75*
G02*
X97450000Y-77680000I0J100000D01*
G01*
G37*
G36*
G01*
X98090000Y-77680000D02*
X98090000Y-77480000D01*
G75*
G02*
X98190000Y-77380000I100000J0D01*
G01*
X98450000Y-77380000D01*
G75*
G02*
X98550000Y-77480000I0J-100000D01*
G01*
X98550000Y-77680000D01*
G75*
G02*
X98450000Y-77780000I-100000J0D01*
G01*
X98190000Y-77780000D01*
G75*
G02*
X98090000Y-77680000I0J100000D01*
G01*
G37*
%TD*%
%TO.C,R5*%
G36*
G01*
X93100000Y-74030000D02*
X93100000Y-73830000D01*
G75*
G02*
X93200000Y-73730000I100000J0D01*
G01*
X93460000Y-73730000D01*
G75*
G02*
X93560000Y-73830000I0J-100000D01*
G01*
X93560000Y-74030000D01*
G75*
G02*
X93460000Y-74130000I-100000J0D01*
G01*
X93200000Y-74130000D01*
G75*
G02*
X93100000Y-74030000I0J100000D01*
G01*
G37*
G36*
G01*
X92460000Y-74030000D02*
X92460000Y-73830000D01*
G75*
G02*
X92560000Y-73730000I100000J0D01*
G01*
X92820000Y-73730000D01*
G75*
G02*
X92920000Y-73830000I0J-100000D01*
G01*
X92920000Y-74030000D01*
G75*
G02*
X92820000Y-74130000I-100000J0D01*
G01*
X92560000Y-74130000D01*
G75*
G02*
X92460000Y-74030000I0J100000D01*
G01*
G37*
%TD*%
%TO.C,R6*%
G36*
G01*
X72880000Y-72270000D02*
X72880000Y-72470000D01*
G75*
G02*
X72780000Y-72570000I-100000J0D01*
G01*
X72520000Y-72570000D01*
G75*
G02*
X72420000Y-72470000I0J100000D01*
G01*
X72420000Y-72270000D01*
G75*
G02*
X72520000Y-72170000I100000J0D01*
G01*
X72780000Y-72170000D01*
G75*
G02*
X72880000Y-72270000I0J-100000D01*
G01*
G37*
G36*
G01*
X73520000Y-72270000D02*
X73520000Y-72470000D01*
G75*
G02*
X73420000Y-72570000I-100000J0D01*
G01*
X73160000Y-72570000D01*
G75*
G02*
X73060000Y-72470000I0J100000D01*
G01*
X73060000Y-72270000D01*
G75*
G02*
X73160000Y-72170000I100000J0D01*
G01*
X73420000Y-72170000D01*
G75*
G02*
X73520000Y-72270000I0J-100000D01*
G01*
G37*
%TD*%
%TO.C,R7*%
G36*
G01*
X72750000Y-73990000D02*
X72750000Y-74190000D01*
G75*
G02*
X72650000Y-74290000I-100000J0D01*
G01*
X72390000Y-74290000D01*
G75*
G02*
X72290000Y-74190000I0J100000D01*
G01*
X72290000Y-73990000D01*
G75*
G02*
X72390000Y-73890000I100000J0D01*
G01*
X72650000Y-73890000D01*
G75*
G02*
X72750000Y-73990000I0J-100000D01*
G01*
G37*
G36*
G01*
X72110000Y-73990000D02*
X72110000Y-74190000D01*
G75*
G02*
X72010000Y-74290000I-100000J0D01*
G01*
X71750000Y-74290000D01*
G75*
G02*
X71650000Y-74190000I0J100000D01*
G01*
X71650000Y-73990000D01*
G75*
G02*
X71750000Y-73890000I100000J0D01*
G01*
X72010000Y-73890000D01*
G75*
G02*
X72110000Y-73990000I0J-100000D01*
G01*
G37*
%TD*%
D23*
%TO.C,U1*%
X88730000Y-66050000D03*
D24*
X82430000Y-66050000D03*
X82430000Y-68350000D03*
X82430000Y-63750000D03*
%TD*%
D25*
%TO.C,U2*%
X64700000Y-63330000D03*
X64200000Y-63330000D03*
X63700000Y-63330000D03*
X63200000Y-63330000D03*
X62700000Y-63330000D03*
X62200000Y-63330000D03*
X61700000Y-63330000D03*
X61200000Y-63330000D03*
X60700000Y-63330000D03*
X60200000Y-63330000D03*
X59700000Y-63330000D03*
X59200000Y-63330000D03*
D26*
X57600000Y-64930000D03*
X57600000Y-65430000D03*
X57600000Y-65930000D03*
X57600000Y-66430000D03*
X57600000Y-66930000D03*
X57600000Y-67430000D03*
X57600000Y-67930000D03*
X57600000Y-68430000D03*
X57600000Y-68930000D03*
X57600000Y-69430000D03*
X57600000Y-69930000D03*
X57600000Y-70430000D03*
D25*
X59200000Y-72030000D03*
X59700000Y-72030000D03*
X60200000Y-72030000D03*
X60700000Y-72030000D03*
X61200000Y-72030000D03*
X61700000Y-72030000D03*
X62200000Y-72030000D03*
X62700000Y-72030000D03*
X63200000Y-72030000D03*
X63700000Y-72030000D03*
X64200000Y-72030000D03*
X64700000Y-72030000D03*
D26*
X66300000Y-70430000D03*
X66300000Y-69930000D03*
X66300000Y-69430000D03*
X66300000Y-68930000D03*
X66300000Y-68430000D03*
X66300000Y-67930000D03*
X66300000Y-67430000D03*
X66300000Y-66930000D03*
X66300000Y-66430000D03*
X66300000Y-65930000D03*
X66300000Y-65430000D03*
X66300000Y-64930000D03*
%TD*%
D11*
%TO.C,Y1*%
X70320000Y-63430000D03*
X72520000Y-63430000D03*
X72520000Y-61730000D03*
X70320000Y-61730000D03*
%TD*%
M02*
