<?xml version="1.0" standalone="no"?>
 <!DOCTYPE svg PUBLIC "-//W3C//DTD SVG 1.1//EN" 
 "http://www.w3.org/Graphics/SVG/1.1/DTD/svg11.dtd"> 
<svg xmlns="http://www.w3.org/2000/svg" version="1.1" 
    width="29.7002cm" height="21.0007cm" viewBox="0 0 116930 82680 ">
<title>SVG Picture created as ne55-missing-pulse-detector.svg date 2021/10/02 22:57:18 </title>
  <desc>Picture generated by Eeschema-SVG </desc>
<g style="fill:#000000; fill-opacity:1;stroke:#000000; stroke-opacity:1;
stroke-linecap:round; stroke-linejoin:round; "
 transform="translate(0 0) scale(1 1)">
</g>
<g style="fill:#000000; fill-opacity:0.0; 
stroke:#000000; stroke-width:0; stroke-opacity:1; 
stroke-linecap:round; stroke-linejoin:round;">
<g >
</g>
<g style="fill:#840000; fill-opacity:0.0; 
stroke:#840000; stroke-width:0; stroke-opacity:1; 
stroke-linecap:round; stroke-linejoin:round;">
</g>
<g style="fill:#840000; fill-opacity:0.0; 
stroke:#840000; stroke-width:100; stroke-opacity:1; 
stroke-linecap:round; stroke-linejoin:round;">
<rect x="33600" y="13000" width="800" height="2000" rx="0" />
</g>
<g style="fill:#840000; fill-opacity:0.0; 
stroke:#840000; stroke-width:60; stroke-opacity:1; 
stroke-linecap:round; stroke-linejoin:round;">
<path d="M34000 13000
L34000 12500
" />
<path d="M34000 15000
L34000 15500
" />
</g>
<g style="fill:#008484; fill-opacity:0.0; 
stroke:#008484; stroke-width:60; stroke-opacity:1; 
stroke-linecap:round; stroke-linejoin:round;">
<text x="35190" y="13810"
textLength="990" font-size="660" lengthAdjust="spacingAndGlyphs"
text-anchor="middle" opacity="0">RA</text>
<path d="M35130 13780
L34960 13540
" />
<path d="M34840 13780
L34840 13280
L35030 13280
L35080 13310
L35100 13330
L35130 13380
L35130 13450
L35100 13500
L35080 13520
L35030 13540
L34840 13540
" />
<path d="M35320 13640
L35550 13640
" />
<path d="M35270 13780
L35440 13280
L35600 13780
" />
<text x="34980" y="14720"
textLength="560" font-size="660" lengthAdjust="spacingAndGlyphs"
text-anchor="middle" opacity="0">R</text>
<path d="M35130 14690
L34960 14450
" />
<path d="M34840 14690
L34840 14190
L35030 14190
L35080 14220
L35110 14240
L35130 14290
L35130 14360
L35110 14410
L35080 14430
L35030 14450
L34840 14450
" />
</g>
</g>
<g style="fill:#008484; fill-opacity:0.0; 
stroke:#008484; stroke-width:0; stroke-opacity:1; 
stroke-linecap:round; stroke-linejoin:round;">
<g >
</g>
<g style="fill:#840000; fill-opacity:0.0; 
stroke:#840000; stroke-width:0; stroke-opacity:1; 
stroke-linecap:round; stroke-linejoin:round;">
</g>
<g style="fill:#840000; fill-opacity:0.0; 
stroke:#840000; stroke-width:60; stroke-opacity:1; 
stroke-linecap:round; stroke-linejoin:round;">
<circle cx="23500" cy="9750" r="250" /> 
<path style="fill:#840000; fill-opacity:0.0; 
stroke:#840000; stroke-width:60; stroke-opacity:1; 
stroke-linecap:round; stroke-linejoin:round;fill:none"
d="M 23500,10500
23500,10000
" /> 
</g>
<g style="fill:#008484; fill-opacity:0.0; 
stroke:#008484; stroke-width:60; stroke-opacity:1; 
stroke-linecap:round; stroke-linejoin:round;">
<text x="23670" y="9040"
textLength="1490" font-size="660" lengthAdjust="spacingAndGlyphs"
text-anchor="middle" opacity="0">VCC</text>
<path d="M23000 8510
L23170 9010
L23330 8510
" />
<path d="M23780 8960
L23760 8990
L23690 9010
L23640 9010
L23570 8990
L23520 8940
L23500 8890
L23470 8800
L23470 8730
L23500 8630
L23520 8580
L23570 8540
L23640 8510
L23690 8510
L23760 8540
L23780 8560
" />
<path d="M24280 8960
L24260 8990
L24190 9010
L24140 9010
L24070 8990
L24020 8940
L24000 8890
L23970 8800
L23970 8730
L24000 8630
L24020 8580
L24070 8540
L24140 8510
L24190 8510
L24260 8540
L24280 8560
" />
</g>
</g>
<g style="fill:#008484; fill-opacity:0.0; 
stroke:#008484; stroke-width:0; stroke-opacity:1; 
stroke-linecap:round; stroke-linejoin:round;">
<g >
</g>
<g style="fill:#840000; fill-opacity:0.0; 
stroke:#840000; stroke-width:0; stroke-opacity:1; 
stroke-linecap:round; stroke-linejoin:round;">
</g>
<g style="fill:#840000; fill-opacity:0.0; 
stroke:#840000; stroke-width:60; stroke-opacity:1; 
stroke-linecap:round; stroke-linejoin:round;">
<path style="fill:#840000; fill-opacity:0.0; 
stroke:#840000; stroke-width:60; stroke-opacity:1; 
stroke-linecap:round; stroke-linejoin:round;fill:none"
d="M 33750,25750
34250,25750
" /> 
<path style="fill:#840000; fill-opacity:0.0; 
stroke:#840000; stroke-width:60; stroke-opacity:1; 
stroke-linecap:round; stroke-linejoin:round;fill:none"
d="M 33950,26000
34050,26000
" /> 
<path style="fill:#840000; fill-opacity:0.0; 
stroke:#840000; stroke-width:60; stroke-opacity:1; 
stroke-linecap:round; stroke-linejoin:round;fill:none"
d="M 34000,25500
34000,25000
" /> 
<path style="fill:#840000; fill-opacity:0.0; 
stroke:#840000; stroke-width:60; stroke-opacity:1; 
stroke-linecap:round; stroke-linejoin:round;fill:none"
d="M 34500,25500
33500,25500
" /> 
</g>
<g style="fill:#008484; fill-opacity:0.0; 
stroke:#008484; stroke-width:60; stroke-opacity:1; 
stroke-linecap:round; stroke-linejoin:round;">
<text x="34050" y="27000"
textLength="2960" font-size="660" lengthAdjust="spacingAndGlyphs"
text-anchor="middle" opacity="0">GNDREF</text>
<path d="M32970 26500
L32930 26470
L32850 26470
L32780 26500
L32740 26540
L32710 26590
L32690 26690
L32690 26760
L32710 26850
L32740 26900
L32780 26950
L32850 26970
L32900 26970
L32970 26950
L33000 26920
L33000 26760
L32900 26760
" />
<path d="M33210 26970
L33210 26470
L33500 26970
L33500 26470
" />
<path d="M33740 26970
L33740 26470
L33850 26470
L33930 26500
L33970 26540
L34000 26590
L34020 26690
L34020 26760
L34000 26850
L33970 26900
L33930 26950
L33850 26970
L33740 26970
" />
<path d="M34520 26970
L34350 26730
" />
<path d="M34240 26970
L34240 26470
L34430 26470
L34470 26500
L34500 26520
L34520 26570
L34520 26640
L34500 26690
L34470 26710
L34430 26730
L34240 26730
" />
<path d="M34740 26710
L34900 26710
" />
<path d="M34970 26970
L34740 26970
L34740 26470
L34970 26470
" />
<path d="M35350 26710
L35190 26710
" />
<path d="M35190 26970
L35190 26470
L35430 26470
" />
</g>
</g>
<g style="fill:#008484; fill-opacity:0.0; 
stroke:#008484; stroke-width:0; stroke-opacity:1; 
stroke-linecap:round; stroke-linejoin:round;">
<g >
</g>
<g style="fill:#840000; fill-opacity:0.0; 
stroke:#840000; stroke-width:0; stroke-opacity:1; 
stroke-linecap:round; stroke-linejoin:round;">
</g>
<g style="fill:#840000; fill-opacity:0.0; 
stroke:#840000; stroke-width:200; stroke-opacity:1; 
stroke-linecap:round; stroke-linejoin:round;">
<path d="M34800.3 23001 A1280 1280 0.0 0 0 33199.7 23001 " />
<path style="fill:#840000; fill-opacity:0.0; 
stroke:#840000; stroke-width:200; stroke-opacity:1; 
stroke-linecap:round; stroke-linejoin:round;fill:none"
d="M 33200,22200
34800,22200
" /> 
</g>
<g style="fill:#840000; fill-opacity:0.0; 
stroke:#840000; stroke-width:60; stroke-opacity:1; 
stroke-linecap:round; stroke-linejoin:round;">
<path style="fill:#840000; fill-opacity:0.0; 
stroke:#840000; stroke-width:60; stroke-opacity:1; 
stroke-linecap:round; stroke-linejoin:round;fill:none"
d="M 33300,21600
33700,21600
" /> 
<path style="fill:#840000; fill-opacity:0.0; 
stroke:#840000; stroke-width:60; stroke-opacity:1; 
stroke-linecap:round; stroke-linejoin:round;fill:none"
d="M 33500,21800
33500,21400
" /> 
<path d="M34000 22100
L34000 21000
" />
<path d="M34000 22700
L34000 24000
" />
</g>
<g style="fill:#008484; fill-opacity:0.0; 
stroke:#008484; stroke-width:60; stroke-opacity:1; 
stroke-linecap:round; stroke-linejoin:round;">
<text x="35430" y="22310"
textLength="560" font-size="660" lengthAdjust="spacingAndGlyphs"
text-anchor="middle" opacity="0">C</text>
<path d="M35580 22230
L35560 22260
L35480 22280
L35440 22280
L35370 22260
L35320 22210
L35290 22160
L35270 22070
L35270 22000
L35290 21900
L35320 21850
L35370 21810
L35440 21780
L35480 21780
L35560 21810
L35580 21830
" />
<text x="35920" y="23220"
textLength="1540" font-size="660" lengthAdjust="spacingAndGlyphs"
text-anchor="middle" opacity="0">CP1</text>
<path d="M35580 23140
L35560 23170
L35490 23190
L35440 23190
L35370 23170
L35320 23120
L35300 23070
L35270 22980
L35270 22910
L35300 22810
L35320 22760
L35370 22720
L35440 22690
L35490 22690
L35560 22720
L35580 22740
" />
<path d="M35800 23190
L35800 22690
L35990 22690
L36030 22720
L36060 22740
L36080 22790
L36080 22860
L36060 22910
L36030 22930
L35990 22950
L35800 22950
" />
<path d="M36560 23190
L36270 23190
" />
<path d="M36420 23190
L36420 22690
L36370 22760
L36320 22810
L36270 22830
" />
</g>
</g>
<g style="fill:#008484; fill-opacity:0.0; 
stroke:#008484; stroke-width:0; stroke-opacity:1; 
stroke-linecap:round; stroke-linejoin:round;">
<g >
</g>
<g style="fill:#840000; fill-opacity:0.0; 
stroke:#840000; stroke-width:0; stroke-opacity:1; 
stroke-linecap:round; stroke-linejoin:round;">
</g>
<g style="fill:#840000; fill-opacity:0.0; 
stroke:#840000; stroke-width:60; stroke-opacity:1; 
stroke-linecap:round; stroke-linejoin:round;">
<path style="fill:#840000; fill-opacity:0.0; 
stroke:#840000; stroke-width:60; stroke-opacity:1; 
stroke-linecap:round; stroke-linejoin:round;fill:none"
d="M 28000,27500
28000,28000
28500,28000
28000,28500
27500,28000
28000,28000
" /> 
</g>
<g style="fill:#008484; fill-opacity:0.0; 
stroke:#008484; stroke-width:60; stroke-opacity:1; 
stroke-linecap:round; stroke-linejoin:round;">
<text x="28050" y="29500"
textLength="1580" font-size="660" lengthAdjust="spacingAndGlyphs"
text-anchor="middle" opacity="0">GND</text>
<path d="M27660 29000
L27620 28970
L27550 28970
L27470 29000
L27430 29040
L27400 29090
L27380 29190
L27380 29260
L27400 29350
L27430 29400
L27470 29450
L27550 29470
L27590 29470
L27660 29450
L27690 29420
L27690 29260
L27590 29260
" />
<path d="M27900 29470
L27900 28970
L28190 29470
L28190 28970
" />
<path d="M28430 29470
L28430 28970
L28550 28970
L28620 29000
L28660 29040
L28690 29090
L28710 29190
L28710 29260
L28690 29350
L28660 29400
L28620 29450
L28550 29470
L28430 29470
" />
</g>
</g>
<g style="fill:#008484; fill-opacity:0.0; 
stroke:#008484; stroke-width:0; stroke-opacity:1; 
stroke-linecap:round; stroke-linejoin:round;">
<g >
</g>
<g style="fill:#840000; fill-opacity:0.0; 
stroke:#840000; stroke-width:0; stroke-opacity:1; 
stroke-linecap:round; stroke-linejoin:round;">
</g>
<g style="fill:#840000; fill-opacity:0.0; 
stroke:#840000; stroke-width:200; stroke-opacity:1; 
stroke-linecap:round; stroke-linejoin:round;">
<path d="M15800.3 20001 A1280 1280 0.0 0 0 14199.7 20001 " />
<path style="fill:#840000; fill-opacity:0.0; 
stroke:#840000; stroke-width:200; stroke-opacity:1; 
stroke-linecap:round; stroke-linejoin:round;fill:none"
d="M 14200,19200
15800,19200
" /> 
</g>
<g style="fill:#840000; fill-opacity:0.0; 
stroke:#840000; stroke-width:60; stroke-opacity:1; 
stroke-linecap:round; stroke-linejoin:round;">
<path style="fill:#840000; fill-opacity:0.0; 
stroke:#840000; stroke-width:60; stroke-opacity:1; 
stroke-linecap:round; stroke-linejoin:round;fill:none"
d="M 14300,18600
14700,18600
" /> 
<path style="fill:#840000; fill-opacity:0.0; 
stroke:#840000; stroke-width:60; stroke-opacity:1; 
stroke-linecap:round; stroke-linejoin:round;fill:none"
d="M 14500,18800
14500,18400
" /> 
<path d="M15000 19100
L15000 18000
" />
<path d="M15000 19700
L15000 21000
" />
</g>
<g style="fill:#008484; fill-opacity:0.0; 
stroke:#008484; stroke-width:60; stroke-opacity:1; 
stroke-linecap:round; stroke-linejoin:round;">
<text x="17530" y="19310"
textLength="2770" font-size="660" lengthAdjust="spacingAndGlyphs"
text-anchor="middle" opacity="0">O.O1µF</text>
<path d="M16380 18780
L16480 18780
L16530 18810
L16570 18850
L16600 18950
L16600 19110
L16570 19210
L16530 19260
L16480 19280
L16380 19280
L16330 19260
L16290 19210
L16260 19110
L16260 18950
L16290 18850
L16330 18810
L16380 18780
" />
<path d="M16810 19230
L16830 19260
L16810 19280
L16790 19260
L16810 19230
L16810 19280
" />
<path d="M17140 18780
L17240 18780
L17290 18810
L17330 18850
L17360 18950
L17360 19110
L17330 19210
L17290 19260
L17240 19280
L17140 19280
L17100 19260
L17050 19210
L17030 19110
L17030 18950
L17050 18850
L17100 18810
L17140 18780
" />
<path d="M17830 19280
L17550 19280
" />
<path d="M17690 19280
L17690 18780
L17640 18850
L17600 18900
L17550 18920
" />
<path d="M18050 18950
L18050 19450
" />
<path d="M18290 19210
L18310 19260
L18360 19280
" />
<path d="M18050 19210
L18070 19260
L18120 19280
L18220 19280
L18260 19260
L18290 19210
L18290 18950
" />
<path d="M18740 19020
L18570 19020
" />
<path d="M18570 19280
L18570 18780
L18810 18780
" />
<text x="16920" y="20220"
textLength="1540" font-size="660" lengthAdjust="spacingAndGlyphs"
text-anchor="middle" opacity="0">CP1</text>
<path d="M16580 20140
L16560 20170
L16490 20190
L16440 20190
L16370 20170
L16320 20120
L16300 20070
L16270 19980
L16270 19910
L16300 19810
L16320 19760
L16370 19720
L16440 19690
L16490 19690
L16560 19720
L16580 19740
" />
<path d="M16800 20190
L16800 19690
L16990 19690
L17030 19720
L17060 19740
L17080 19790
L17080 19860
L17060 19910
L17030 19930
L16990 19950
L16800 19950
" />
<path d="M17560 20190
L17270 20190
" />
<path d="M17420 20190
L17420 19690
L17370 19760
L17320 19810
L17270 19830
" />
</g>
</g>
<g style="fill:#008484; fill-opacity:0.0; 
stroke:#008484; stroke-width:0; stroke-opacity:1; 
stroke-linecap:round; stroke-linejoin:round;">
<g >
</g>
<g style="fill:#840000; fill-opacity:0.0; 
stroke:#840000; stroke-width:0; stroke-opacity:1; 
stroke-linecap:round; stroke-linejoin:round;">
</g>
<g style="fill:#840000; fill-opacity:0.0; 
stroke:#840000; stroke-width:100; stroke-opacity:1; 
stroke-linecap:round; stroke-linejoin:round;">
<rect x="31100" y="13000" width="800" height="2000" rx="0" />
</g>
<g style="fill:#840000; fill-opacity:0.0; 
stroke:#840000; stroke-width:60; stroke-opacity:1; 
stroke-linecap:round; stroke-linejoin:round;">
<path d="M31500 13000
L31500 12500
" />
<path d="M31500 15000
L31500 15500
" />
</g>
<g style="fill:#008484; fill-opacity:0.0; 
stroke:#008484; stroke-width:60; stroke-opacity:1; 
stroke-linecap:round; stroke-linejoin:round;">
<text x="32680" y="13810"
textLength="960" font-size="660" lengthAdjust="spacingAndGlyphs"
text-anchor="middle" opacity="0">RL</text>
<path d="M32630 13780
L32460 13540
" />
<path d="M32340 13780
L32340 13280
L32530 13280
L32580 13310
L32600 13330
L32630 13380
L32630 13450
L32600 13500
L32580 13520
L32530 13540
L32340 13540
" />
<path d="M33080 13780
L32840 13780
L32840 13280
" />
<text x="32480" y="14720"
textLength="560" font-size="660" lengthAdjust="spacingAndGlyphs"
text-anchor="middle" opacity="0">R</text>
<path d="M32630 14690
L32460 14450
" />
<path d="M32340 14690
L32340 14190
L32530 14190
L32580 14220
L32610 14240
L32630 14290
L32630 14360
L32610 14410
L32580 14430
L32530 14450
L32340 14450
" />
</g>
</g>
<g style="fill:#008484; fill-opacity:0.0; 
stroke:#008484; stroke-width:0; stroke-opacity:1; 
stroke-linecap:round; stroke-linejoin:round;">
<g >
</g>
<g style="fill:#840000; fill-opacity:0.0; 
stroke:#840000; stroke-width:0; stroke-opacity:1; 
stroke-linecap:round; stroke-linejoin:round;">
</g>
<g style="fill:#840000; fill-opacity:0.0; 
stroke:#840000; stroke-width:100; stroke-opacity:1; 
stroke-linecap:round; stroke-linejoin:round;">
<circle cx="27500" cy="25500" r="1110" /> 
</g>
<g style="fill:#840000; fill-opacity:0.0; 
stroke:#840000; stroke-width:60; stroke-opacity:1; 
stroke-linecap:round; stroke-linejoin:round;">
<path style="fill:#840000; fill-opacity:0.0; 
stroke:#840000; stroke-width:60; stroke-opacity:1; 
stroke-linecap:round; stroke-linejoin:round;fill:none"
d="M 27250,25750
28000,26500
" /> 
<path style="fill:#840000; fill-opacity:0.0; 
stroke:#840000; stroke-width:60; stroke-opacity:1; 
stroke-linecap:round; stroke-linejoin:round;fill:none"
d="M 27250,25250
28000,24500
28000,24500
" /> 
</g>
<g style="fill:#840000; fill-opacity:0.0; 
stroke:#840000; stroke-width:200; stroke-opacity:1; 
stroke-linecap:round; stroke-linejoin:round;">
<path style="fill:#840000; fill-opacity:0.0; 
stroke:#840000; stroke-width:200; stroke-opacity:1; 
stroke-linecap:round; stroke-linejoin:round;fill:none"
d="M 27250,26250
27250,24750
27250,24750
" /> 
</g>
<g style="fill:#840000; fill-opacity:1.0; 
stroke:#840000; stroke-width:60; stroke-opacity:1; 
stroke-linecap:round; stroke-linejoin:round;">
<path style="fill:#840000; fill-opacity:1.0; 
stroke:#840000; stroke-width:60; stroke-opacity:1; 
stroke-linecap:round; stroke-linejoin:round;fill-rule:evenodd;"
d="M 27900,24800
27700,24600
27500,25000
27900,24800
Z" /> 
</g>
<g style="fill:#840000; fill-opacity:0.0; 
stroke:#840000; stroke-width:60; stroke-opacity:1; 
stroke-linecap:round; stroke-linejoin:round;">
<path d="M27250 25500
L25000 25500
" />
<text x="26120" y="26100"
textLength="540" font-size="660" lengthAdjust="spacingAndGlyphs"
text-anchor="middle" opacity="0">1</text>
<path d="M26260 26070
L25970 26070
" />
<path d="M26120 26070
L26120 25570
L26070 25640
L26020 25690
L25970 25710
" />
<path d="M28000 26500
L28000 27500
" />
<g transform="rotate(-90 28100 27000)">
<text x="28100" y="27500"
textLength="540" font-size="660" lengthAdjust="spacingAndGlyphs"
text-anchor="middle" opacity="0">2</text>
</g>
<path d="M28120 27140
L28100 27110
L28070 27070
L28070 26950
L28100 26900
L28120 26880
L28170 26850
L28210 26850
L28290 26880
L28570 27160
L28570 26850
" />
<path d="M28000 24500
L28000 23500
" />
<g transform="rotate(-90 28100 24000)">
<text x="28100" y="24500"
textLength="540" font-size="660" lengthAdjust="spacingAndGlyphs"
text-anchor="middle" opacity="0">3</text>
</g>
<path d="M28070 24160
L28070 23850
L28260 24020
L28260 23950
L28290 23900
L28310 23880
L28360 23850
L28480 23850
L28520 23880
L28550 23900
L28570 23950
L28570 24090
L28550 24140
L28520 24160
" />
</g>
<g style="fill:#008484; fill-opacity:0.0; 
stroke:#008484; stroke-width:60; stroke-opacity:1; 
stroke-linecap:round; stroke-linejoin:round;">
<text x="29400" y="26180"
textLength="1010" font-size="660" lengthAdjust="spacingAndGlyphs"
text-anchor="middle" opacity="0">Q?</text>
<path d="M29370 26200
L29320 26180
L29280 26130
L29200 26060
L29160 26030
L29110 26030
" />
<path d="M29130 26150
L29090 26130
L29040 26080
L29010 25980
L29010 25820
L29040 25720
L29090 25680
L29130 25650
L29230 25650
L29280 25680
L29320 25720
L29350 25820
L29350 25980
L29320 26080
L29280 26130
L29230 26150
L29130 26150
" />
<path d="M29630 26100
L29660 26130
L29630 26150
L29610 26130
L29630 26100
L29630 26150
" />
<path d="M29540 25680
L29590 25650
L29700 25650
L29750 25680
L29780 25720
L29780 25770
L29750 25820
L29730 25840
L29680 25870
L29660 25890
L29630 25940
L29630 25960
" />
<text x="31060" y="25270"
textLength="4320" font-size="660" lengthAdjust="spacingAndGlyphs"
text-anchor="middle" opacity="0">Q_PNP_BCE</text>
<path d="M29380 25290
L29330 25270
L29280 25220
L29210 25150
L29160 25120
L29110 25120
" />
<path d="M29140 25240
L29090 25220
L29040 25170
L29020 25070
L29020 24910
L29040 24810
L29090 24770
L29140 24740
L29230 24740
L29280 24770
L29330 24810
L29350 24910
L29350 25070
L29330 25170
L29280 25220
L29230 25240
L29140 25240
" />
<path d="M29450 25290
L29830 25290
" />
<path d="M29950 25240
L29950 24740
L30140 24740
L30190 24770
L30210 24790
L30230 24840
L30230 24910
L30210 24960
L30190 24980
L30140 25000
L29950 25000
" />
<path d="M30450 25240
L30450 24740
L30730 25240
L30730 24740
" />
<path d="M30970 25240
L30970 24740
L31160 24740
L31210 24770
L31230 24790
L31260 24840
L31260 24910
L31230 24960
L31210 24980
L31160 25000
L30970 25000
" />
<path d="M31350 25290
L31730 25290
" />
<path d="M32020 24980
L32090 25000
L32110 25030
L32140 25070
L32140 25150
L32110 25190
L32090 25220
L32040 25240
L31850 25240
L31850 24740
L32020 24740
L32070 24770
L32090 24790
L32110 24840
L32110 24880
L32090 24930
L32070 24960
L32020 24980
L31850 24980
" />
<path d="M32640 25190
L32610 25220
L32540 25240
L32500 25240
L32420 25220
L32380 25170
L32350 25120
L32330 25030
L32330 24960
L32350 24860
L32380 24810
L32420 24770
L32500 24740
L32540 24740
L32610 24770
L32640 24790
" />
<path d="M32850 24980
L33020 24980
" />
<path d="M33090 25240
L32850 25240
L32850 24740
L33090 24740
" />
</g>
</g>
<g style="fill:#008484; fill-opacity:0.0; 
stroke:#008484; stroke-width:0; stroke-opacity:1; 
stroke-linecap:round; stroke-linejoin:round;">
<g >
</g>
<g style="fill:#840000; fill-opacity:0.0; 
stroke:#840000; stroke-width:0; stroke-opacity:1; 
stroke-linecap:round; stroke-linejoin:round;">
</g>
<g style="fill:#840000; fill-opacity:0.0; 
stroke:#840000; stroke-width:60; stroke-opacity:1; 
stroke-linecap:round; stroke-linejoin:round;">
<path style="fill:#840000; fill-opacity:0.0; 
stroke:#840000; stroke-width:60; stroke-opacity:1; 
stroke-linecap:round; stroke-linejoin:round;fill:none"
d="M 23250,23750
23750,23750
" /> 
<path style="fill:#840000; fill-opacity:0.0; 
stroke:#840000; stroke-width:60; stroke-opacity:1; 
stroke-linecap:round; stroke-linejoin:round;fill:none"
d="M 23450,24000
23550,24000
" /> 
<path style="fill:#840000; fill-opacity:0.0; 
stroke:#840000; stroke-width:60; stroke-opacity:1; 
stroke-linecap:round; stroke-linejoin:round;fill:none"
d="M 23500,23500
23500,23000
" /> 
<path style="fill:#840000; fill-opacity:0.0; 
stroke:#840000; stroke-width:60; stroke-opacity:1; 
stroke-linecap:round; stroke-linejoin:round;fill:none"
d="M 24000,23500
23000,23500
" /> 
</g>
<g style="fill:#008484; fill-opacity:0.0; 
stroke:#008484; stroke-width:60; stroke-opacity:1; 
stroke-linecap:round; stroke-linejoin:round;">
<text x="23550" y="25000"
textLength="2960" font-size="660" lengthAdjust="spacingAndGlyphs"
text-anchor="middle" opacity="0">GNDREF</text>
<path d="M22470 24500
L22430 24470
L22350 24470
L22280 24500
L22240 24540
L22210 24590
L22190 24690
L22190 24760
L22210 24850
L22240 24900
L22280 24950
L22350 24970
L22400 24970
L22470 24950
L22500 24920
L22500 24760
L22400 24760
" />
<path d="M22710 24970
L22710 24470
L23000 24970
L23000 24470
" />
<path d="M23240 24970
L23240 24470
L23350 24470
L23430 24500
L23470 24540
L23500 24590
L23520 24690
L23520 24760
L23500 24850
L23470 24900
L23430 24950
L23350 24970
L23240 24970
" />
<path d="M24020 24970
L23850 24730
" />
<path d="M23740 24970
L23740 24470
L23930 24470
L23970 24500
L24000 24520
L24020 24570
L24020 24640
L24000 24690
L23970 24710
L23930 24730
L23740 24730
" />
<path d="M24240 24710
L24400 24710
" />
<path d="M24470 24970
L24240 24970
L24240 24470
L24470 24470
" />
<path d="M24850 24710
L24690 24710
" />
<path d="M24690 24970
L24690 24470
L24930 24470
" />
</g>
</g>
<g style="fill:#008484; fill-opacity:0.0; 
stroke:#008484; stroke-width:0; stroke-opacity:1; 
stroke-linecap:round; stroke-linejoin:round;">
<g >
</g>
<g style="fill:#840000; fill-opacity:0.0; 
stroke:#840000; stroke-width:0; stroke-opacity:1; 
stroke-linecap:round; stroke-linejoin:round;">
</g>
<g style="fill:#FFFFC2; fill-opacity:0.0; 
stroke:#FFFFC2; stroke-width:0; stroke-opacity:1; 
stroke-linecap:round; stroke-linejoin:round;">
</g>
<g style="fill:#FFFFC2; fill-opacity:0.6; 
stroke:#FFFFC2; stroke-width:0; stroke-opacity:1; 
stroke-linecap:round; stroke-linejoin:round;">
<rect x="20000" y="15000" width="7000" height="6000" rx="0" />
</g>
<g style="fill:#840000; fill-opacity:0.6; 
stroke:#840000; stroke-width:0; stroke-opacity:1; 
stroke-linecap:round; stroke-linejoin:round;">
</g>
<g style="fill:#840000; fill-opacity:0.0; 
stroke:#840000; stroke-width:100; stroke-opacity:1; 
stroke-linecap:round; stroke-linejoin:round;">
<rect x="20000" y="15000" width="7000" height="6000" rx="0" />
</g>
<g style="fill:#FFFFC2; fill-opacity:0.0; 
stroke:#FFFFC2; stroke-width:100; stroke-opacity:1; 
stroke-linecap:round; stroke-linejoin:round;">
</g>
<g style="fill:#FFFFC2; fill-opacity:0.6; 
stroke:#FFFFC2; stroke-width:0; stroke-opacity:1; 
stroke-linecap:round; stroke-linejoin:round;">
<rect x="20000" y="15000" width="7000" height="6000" rx="0" />
</g>
<g style="fill:#840000; fill-opacity:0.6; 
stroke:#840000; stroke-width:0; stroke-opacity:1; 
stroke-linecap:round; stroke-linejoin:round;">
</g>
<g style="fill:#840000; fill-opacity:0.0; 
stroke:#840000; stroke-width:100; stroke-opacity:1; 
stroke-linecap:round; stroke-linejoin:round;">
<rect x="20000" y="15000" width="7000" height="6000" rx="0" />
<rect x="20000" y="15000" width="7000" height="6000" rx="0" />
<rect x="20000" y="15000" width="7000" height="6000" rx="0" />
</g>
<g style="fill:#840000; fill-opacity:0.0; 
stroke:#840000; stroke-width:60; stroke-opacity:1; 
stroke-linecap:round; stroke-linejoin:round;">
<path d="M23500 21000
L23500 22000
" />
</g>
<g style="fill:#008484; fill-opacity:0.0; 
stroke:#008484; stroke-width:60; stroke-opacity:1; 
stroke-linecap:round; stroke-linejoin:round;">
<g transform="rotate(-90 23500 20800)">
<text x="23500" y="21050"
textLength="1580" font-size="660" lengthAdjust="spacingAndGlyphs"
text-anchor="start" opacity="0">GND</text>
</g>
<path d="M23250 20380
L23220 20430
L23220 20500
L23250 20570
L23290 20620
L23340 20650
L23440 20670
L23510 20670
L23600 20650
L23650 20620
L23700 20570
L23720 20500
L23720 20460
L23700 20380
L23670 20360
L23510 20360
L23510 20460
" />
<path d="M23720 20150
L23220 20150
L23720 19860
L23220 19860
" />
<path d="M23720 19620
L23220 19620
L23220 19500
L23250 19430
L23290 19380
L23340 19360
L23440 19340
L23510 19340
L23600 19360
L23650 19380
L23700 19430
L23720 19500
L23720 19620
" />
</g>
<g style="fill:#840000; fill-opacity:0.0; 
stroke:#840000; stroke-width:60; stroke-opacity:1; 
stroke-linecap:round; stroke-linejoin:round;">
<g transform="rotate(-90 23400 21500)">
<text x="23400" y="21500"
textLength="540" font-size="660" lengthAdjust="spacingAndGlyphs"
text-anchor="middle" opacity="0">1</text>
</g>
<path d="M23370 21350
L23370 21640
" />
<path d="M23370 21500
L22870 21500
L22940 21540
L22990 21590
L23010 21640
" />
<path d="M23500 15000
L23500 14000
" />
</g>
<g style="fill:#008484; fill-opacity:0.0; 
stroke:#008484; stroke-width:60; stroke-opacity:1; 
stroke-linecap:round; stroke-linejoin:round;">
<g transform="rotate(-90 23500 15200)">
<text x="23500" y="15450"
textLength="1490" font-size="660" lengthAdjust="spacingAndGlyphs"
text-anchor="end" opacity="0">VCC</text>
</g>
<path d="M23220 16610
L23720 16440
L23220 16270
" />
<path d="M23670 15820
L23700 15840
L23720 15920
L23720 15960
L23700 16030
L23650 16080
L23600 16110
L23510 16130
L23440 16130
L23340 16110
L23290 16080
L23250 16030
L23220 15960
L23220 15920
L23250 15840
L23270 15820
" />
<path d="M23670 15320
L23700 15340
L23720 15420
L23720 15460
L23700 15530
L23650 15580
L23600 15610
L23510 15630
L23440 15630
L23340 15610
L23290 15580
L23250 15530
L23220 15460
L23220 15420
L23250 15340
L23270 15320
" />
</g>
<g style="fill:#840000; fill-opacity:0.0; 
stroke:#840000; stroke-width:60; stroke-opacity:1; 
stroke-linecap:round; stroke-linejoin:round;">
<g transform="rotate(-90 23400 14500)">
<text x="23400" y="14500"
textLength="540" font-size="660" lengthAdjust="spacingAndGlyphs"
text-anchor="middle" opacity="0">8</text>
</g>
<path d="M23090 14540
L23060 14590
L23040 14610
L22990 14640
L22970 14640
L22920 14610
L22900 14590
L22870 14540
L22870 14450
L22900 14400
L22920 14380
L22970 14350
L22990 14350
L23040 14380
L23060 14400
L23090 14450
L23090 14540
L23110 14590
L23130 14610
L23180 14640
L23280 14640
L23320 14610
L23350 14590
L23370 14540
L23370 14450
L23350 14400
L23320 14380
L23280 14350
L23180 14350
L23130 14380
L23110 14400
L23090 14450
" />
<path d="M20000 16000
L18500 16000
" />
</g>
<g style="fill:#008484; fill-opacity:0.0; 
stroke:#008484; stroke-width:60; stroke-opacity:1; 
stroke-linecap:round; stroke-linejoin:round;">
<text x="20200" y="16250"
textLength="940" font-size="660" lengthAdjust="spacingAndGlyphs"
text-anchor="start" opacity="0">TR</text>
<path d="M20270 15720
L20560 15720
" />
<path d="M20420 16220
L20420 15720
" />
<path d="M21010 16220
L20840 15980
" />
<path d="M20730 16220
L20730 15720
L20920 15720
L20960 15750
L20990 15770
L21010 15820
L21010 15890
L20990 15940
L20960 15960
L20920 15980
L20730 15980
" />
</g>
<g style="fill:#840000; fill-opacity:0.0; 
stroke:#840000; stroke-width:60; stroke-opacity:1; 
stroke-linecap:round; stroke-linejoin:round;">
<text x="19250" y="15900"
textLength="540" font-size="660" lengthAdjust="spacingAndGlyphs"
text-anchor="middle" opacity="0">2</text>
<path d="M19100 15420
L19130 15400
L19170 15370
L19290 15370
L19340 15400
L19360 15420
L19390 15470
L19390 15510
L19360 15590
L19080 15870
L19390 15870
" />
<path d="M27000 16000
L28500 16000
" />
</g>
<g style="fill:#008484; fill-opacity:0.0; 
stroke:#008484; stroke-width:60; stroke-opacity:1; 
stroke-linecap:round; stroke-linejoin:round;">
<text x="26800" y="16250"
textLength="580" font-size="660" lengthAdjust="spacingAndGlyphs"
text-anchor="end" opacity="0">Q</text>
<path d="M26690 16270
L26650 16250
L26600 16200
L26530 16130
L26480 16100
L26430 16100
" />
<path d="M26460 16220
L26410 16200
L26360 16150
L26340 16050
L26340 15890
L26360 15790
L26410 15750
L26460 15720
L26550 15720
L26600 15750
L26650 15790
L26670 15890
L26670 16050
L26650 16150
L26600 16200
L26550 16220
L26460 16220
" />
</g>
<g style="fill:#840000; fill-opacity:0.0; 
stroke:#840000; stroke-width:60; stroke-opacity:1; 
stroke-linecap:round; stroke-linejoin:round;">
<text x="27750" y="15900"
textLength="540" font-size="660" lengthAdjust="spacingAndGlyphs"
text-anchor="middle" opacity="0">3</text>
<path d="M27580 15370
L27890 15370
L27720 15560
L27790 15560
L27840 15590
L27860 15610
L27890 15660
L27890 15780
L27860 15820
L27840 15850
L27790 15870
L27650 15870
L27600 15850
L27580 15820
" />
<circle cx="19750" cy="20000" r="250" /> 
<path d="M19500 20000
L18500 20000
" />
</g>
<g style="fill:#008484; fill-opacity:0.0; 
stroke:#008484; stroke-width:60; stroke-opacity:1; 
stroke-linecap:round; stroke-linejoin:round;">
<text x="20200" y="20250"
textLength="560" font-size="660" lengthAdjust="spacingAndGlyphs"
text-anchor="start" opacity="0">R</text>
<path d="M20630 20220
L20460 19980
" />
<path d="M20340 20220
L20340 19720
L20530 19720
L20580 19750
L20610 19770
L20630 19820
L20630 19890
L20610 19940
L20580 19960
L20530 19980
L20340 19980
" />
</g>
<g style="fill:#840000; fill-opacity:0.0; 
stroke:#840000; stroke-width:60; stroke-opacity:1; 
stroke-linecap:round; stroke-linejoin:round;">
<text x="19250" y="19900"
textLength="540" font-size="660" lengthAdjust="spacingAndGlyphs"
text-anchor="middle" opacity="0">4</text>
<path d="M19340 19540
L19340 19870
" />
<path d="M19220 19350
L19100 19700
L19410 19700
" />
<path d="M20000 18000
L18500 18000
" />
</g>
<g style="fill:#008484; fill-opacity:0.0; 
stroke:#008484; stroke-width:60; stroke-opacity:1; 
stroke-linecap:round; stroke-linejoin:round;">
<text x="20200" y="18250"
textLength="990" font-size="660" lengthAdjust="spacingAndGlyphs"
text-anchor="start" opacity="0">CV</text>
<path d="M20630 18170
L20610 18200
L20530 18220
L20490 18220
L20420 18200
L20370 18150
L20340 18100
L20320 18010
L20320 17940
L20340 17840
L20370 17790
L20420 17750
L20490 17720
L20530 17720
L20610 17750
L20630 17770
" />
<path d="M20770 17720
L20940 18220
L21110 17720
" />
</g>
<g style="fill:#840000; fill-opacity:0.0; 
stroke:#840000; stroke-width:60; stroke-opacity:1; 
stroke-linecap:round; stroke-linejoin:round;">
<text x="19250" y="17900"
textLength="540" font-size="660" lengthAdjust="spacingAndGlyphs"
text-anchor="middle" opacity="0">5</text>
<path d="M19360 17370
L19130 17370
L19100 17610
L19130 17590
L19170 17560
L19290 17560
L19340 17590
L19360 17610
L19390 17660
L19390 17780
L19360 17820
L19340 17850
L19290 17870
L19170 17870
L19130 17850
L19100 17820
" />
<path d="M27000 20000
L28500 20000
" />
</g>
<g style="fill:#008484; fill-opacity:0.0; 
stroke:#008484; stroke-width:60; stroke-opacity:1; 
stroke-linecap:round; stroke-linejoin:round;">
<text x="26800" y="20250"
textLength="1460" font-size="660" lengthAdjust="spacingAndGlyphs"
text-anchor="end" opacity="0">THR</text>
<path d="M25410 19720
L25690 19720
" />
<path d="M25550 20220
L25550 19720
" />
<path d="M25860 20220
L25860 19720
" />
<path d="M25860 19960
L26150 19960
" />
<path d="M26150 20220
L26150 19720
" />
<path d="M26670 20220
L26500 19980
" />
<path d="M26380 20220
L26380 19720
L26570 19720
L26620 19750
L26650 19770
L26670 19820
L26670 19890
L26650 19940
L26620 19960
L26570 19980
L26380 19980
" />
</g>
<g style="fill:#840000; fill-opacity:0.0; 
stroke:#840000; stroke-width:60; stroke-opacity:1; 
stroke-linecap:round; stroke-linejoin:round;">
<text x="27750" y="19900"
textLength="540" font-size="660" lengthAdjust="spacingAndGlyphs"
text-anchor="middle" opacity="0">6</text>
<path d="M27840 19370
L27750 19370
L27700 19400
L27670 19420
L27630 19490
L27600 19590
L27600 19780
L27630 19820
L27650 19850
L27700 19870
L27790 19870
L27840 19850
L27860 19820
L27890 19780
L27890 19660
L27860 19610
L27840 19590
L27790 19560
L27700 19560
L27650 19590
L27630 19610
L27600 19660
" />
<path d="M27000 18000
L28500 18000
" />
</g>
<g style="fill:#008484; fill-opacity:0.0; 
stroke:#008484; stroke-width:60; stroke-opacity:1; 
stroke-linecap:round; stroke-linejoin:round;">
<text x="26800" y="18250"
textLength="1270" font-size="660" lengthAdjust="spacingAndGlyphs"
text-anchor="end" opacity="0">DIS</text>
<path d="M25670 18220
L25670 17720
L25790 17720
L25860 17750
L25910 17790
L25930 17840
L25960 17940
L25960 18010
L25930 18100
L25910 18150
L25860 18200
L25790 18220
L25670 18220
" />
<path d="M26170 18220
L26170 17720
" />
<path d="M26380 18200
L26460 18220
L26570 18220
L26620 18200
L26650 18170
L26670 18130
L26670 18080
L26650 18030
L26620 18010
L26570 17980
L26480 17960
L26430 17940
L26410 17910
L26380 17860
L26380 17820
L26410 17770
L26430 17750
L26480 17720
L26600 17720
L26670 17750
" />
</g>
<g style="fill:#840000; fill-opacity:0.0; 
stroke:#840000; stroke-width:60; stroke-opacity:1; 
stroke-linecap:round; stroke-linejoin:round;">
<text x="27750" y="17900"
textLength="540" font-size="660" lengthAdjust="spacingAndGlyphs"
text-anchor="middle" opacity="0">7</text>
<path d="M27580 17370
L27910 17370
L27700 17870
" />
</g>
<g style="fill:#008484; fill-opacity:0.0; 
stroke:#008484; stroke-width:60; stroke-opacity:1; 
stroke-linecap:round; stroke-linejoin:round;">
<text x="23500" y="12460"
textLength="1010" font-size="660" lengthAdjust="spacingAndGlyphs"
text-anchor="middle" opacity="0">U?</text>
<path d="M23140 11930
L23140 12340
L23160 12380
L23190 12410
L23230 12430
L23330 12430
L23380 12410
L23400 12380
L23420 12340
L23420 11930
" />
<path d="M23730 12380
L23760 12410
L23730 12430
L23710 12410
L23730 12380
L23730 12430
" />
<path d="M23640 11960
L23690 11930
L23800 11930
L23850 11960
L23880 12000
L23880 12050
L23850 12100
L23830 12120
L23780 12150
L23760 12170
L23730 12220
L23730 12240
" />
<text x="23500" y="13370"
textLength="2460" font-size="660" lengthAdjust="spacingAndGlyphs"
text-anchor="middle" opacity="0">NE555</text>
<path d="M22410 13340
L22410 12840
L22700 13340
L22700 12840
" />
<path d="M22940 13080
L23100 13080
" />
<path d="M23170 13340
L22940 13340
L22940 12840
L23170 12840
" />
<path d="M23630 12840
L23390 12840
L23360 13080
L23390 13060
L23440 13030
L23550 13030
L23600 13060
L23630 13080
L23650 13130
L23650 13250
L23630 13290
L23600 13320
L23550 13340
L23440 13340
L23390 13320
L23360 13290
" />
<path d="M24100 12840
L23860 12840
L23840 13080
L23860 13060
L23910 13030
L24030 13030
L24080 13060
L24100 13080
L24130 13130
L24130 13250
L24100 13290
L24080 13320
L24030 13340
L23910 13340
L23860 13320
L23840 13290
" />
<path d="M24580 12840
L24340 12840
L24320 13080
L24340 13060
L24390 13030
L24510 13030
L24550 13060
L24580 13080
L24600 13130
L24600 13250
L24580 13290
L24550 13320
L24510 13340
L24390 13340
L24340 13320
L24320 13290
" />
</g>
</g>
<g style="fill:#008484; fill-opacity:0.0; 
stroke:#008484; stroke-width:0; stroke-opacity:1; 
stroke-linecap:round; stroke-linejoin:round;">
<g >
</g>
<g style="fill:#840000; fill-opacity:0.0; 
stroke:#840000; stroke-width:0; stroke-opacity:1; 
stroke-linecap:round; stroke-linejoin:round;">
</g>
<g style="fill:#840000; fill-opacity:0.0; 
stroke:#840000; stroke-width:60; stroke-opacity:1; 
stroke-linecap:round; stroke-linejoin:round;">
<path style="fill:#840000; fill-opacity:0.0; 
stroke:#840000; stroke-width:60; stroke-opacity:1; 
stroke-linecap:round; stroke-linejoin:round;fill:none"
d="M 14750,21750
15250,21750
" /> 
<path style="fill:#840000; fill-opacity:0.0; 
stroke:#840000; stroke-width:60; stroke-opacity:1; 
stroke-linecap:round; stroke-linejoin:round;fill:none"
d="M 14950,22000
15050,22000
" /> 
<path style="fill:#840000; fill-opacity:0.0; 
stroke:#840000; stroke-width:60; stroke-opacity:1; 
stroke-linecap:round; stroke-linejoin:round;fill:none"
d="M 15000,21500
15000,21000
" /> 
<path style="fill:#840000; fill-opacity:0.0; 
stroke:#840000; stroke-width:60; stroke-opacity:1; 
stroke-linecap:round; stroke-linejoin:round;fill:none"
d="M 15500,21500
14500,21500
" /> 
</g>
<g style="fill:#008484; fill-opacity:0.0; 
stroke:#008484; stroke-width:60; stroke-opacity:1; 
stroke-linecap:round; stroke-linejoin:round;">
<text x="15050" y="23000"
textLength="2960" font-size="660" lengthAdjust="spacingAndGlyphs"
text-anchor="middle" opacity="0">GNDREF</text>
<path d="M13970 22500
L13930 22470
L13850 22470
L13780 22500
L13740 22540
L13710 22590
L13690 22690
L13690 22760
L13710 22850
L13740 22900
L13780 22950
L13850 22970
L13900 22970
L13970 22950
L14000 22920
L14000 22760
L13900 22760
" />
<path d="M14210 22970
L14210 22470
L14500 22970
L14500 22470
" />
<path d="M14740 22970
L14740 22470
L14850 22470
L14930 22500
L14970 22540
L15000 22590
L15020 22690
L15020 22760
L15000 22850
L14970 22900
L14930 22950
L14850 22970
L14740 22970
" />
<path d="M15520 22970
L15350 22730
" />
<path d="M15240 22970
L15240 22470
L15430 22470
L15470 22500
L15500 22520
L15520 22570
L15520 22640
L15500 22690
L15470 22710
L15430 22730
L15240 22730
" />
<path d="M15740 22710
L15900 22710
" />
<path d="M15970 22970
L15740 22970
L15740 22470
L15970 22470
" />
<path d="M16350 22710
L16190 22710
" />
<path d="M16190 22970
L16190 22470
L16430 22470
" />
</g>
</g>
<g style="fill:#008484; fill-opacity:0.0; 
stroke:#008484; stroke-width:60; stroke-opacity:1; 
stroke-linecap:round; stroke-linejoin:round;">
</g>
<g style="fill:#008400; fill-opacity:0.0; 
stroke:#008400; stroke-width:60; stroke-opacity:1; 
stroke-linecap:round; stroke-linejoin:round;">
<path d="M31500 15500
L31500 16000
" />
<path d="M28500 23500
L28000 23500
" />
<path d="M34000 23500
L34000 24000
" />
<path d="M28500 20000
L28500 23500
" />
<path d="M28500 20000
L31500 20000
" />
<path d="M34000 18000
L34000 21000
" />
<path d="M31500 18000
L34000 18000
" />
<path d="M34000 15500
L34000 18000
" />
<path d="M31500 16000
L39500 16000
" />
<path d="M28000 20000
L28500 20000
" />
<path d="M28500 16000
L31500 16000
" />
<path d="M34000 24000
L34000 25000
" />
<path d="M23500 22000
L23500 23000
" />
<path d="M31500 18000
L31500 20000
" />
<path d="M28500 18000
L31500 18000
" />
<path d="M31500 11500
L31500 12500
" />
<path d="M13500 11000
L23500 11000
" />
<path d="M13500 23500
L13500 11000
" />
<path d="M18500 23500
L13500 23500
" />
<path d="M18500 20000
L18500 23500
" />
<path d="M11500 25500
L11500 16000
" />
<path d="M23500 11500
L31500 11500
" />
<path d="M25000 25500
L11500 25500
" />
<path d="M11500 16000
L11500 14500
" />
<path d="M23500 11500
L23500 11000
" />
<path d="M31500 11500
L34000 11500
" />
<path d="M18500 16000
L11500 16000
" />
<path d="M11500 14500
L8000 14500
" />
<path d="M23500 11000
L23500 10500
" />
<path d="M34000 11500
L34000 12500
" />
<path d="M15000 18000
L18500 18000
" />
<path d="M23500 14000
L23500 11500
" />
</g>
<g style="fill:#840000; fill-opacity:0.0; 
stroke:#840000; stroke-width:60; stroke-opacity:1; 
stroke-linecap:round; stroke-linejoin:round;">
<text x="35570" y="30870"
textLength="24200" font-size="1000" lengthAdjust="spacingAndGlyphs"
text-anchor="end" opacity="0">ne555-detecteur-de-signaux-manquants</text>
<path d="M11570 30330
L11570 30830
" />
<path d="M11570 30410
L11610 30370
L11680 30330
L11780 30330
L11860 30370
L11890 30440
L11890 30830
" />
<path d="M12530 30800
L12460 30830
L12320 30830
L12250 30800
L12210 30730
L12210 30440
L12250 30370
L12320 30330
L12460 30330
L12530 30370
L12570 30440
L12570 30510
L12210 30580
" />
<path d="M13250 30080
L12890 30080
L12860 30440
L12890 30410
L12960 30370
L13140 30370
L13210 30410
L13250 30440
L13280 30510
L13280 30690
L13250 30760
L13210 30800
L13140 30830
L12960 30830
L12890 30800
L12860 30760
" />
<path d="M13960 30080
L13610 30080
L13570 30440
L13610 30410
L13680 30370
L13860 30370
L13930 30410
L13960 30440
L14000 30510
L14000 30690
L13960 30760
L13930 30800
L13860 30830
L13680 30830
L13610 30800
L13570 30760
" />
<path d="M14680 30080
L14320 30080
L14280 30440
L14320 30410
L14390 30370
L14570 30370
L14640 30410
L14680 30440
L14710 30510
L14710 30690
L14680 30760
L14640 30800
L14570 30830
L14390 30830
L14320 30800
L14280 30760
" />
<path d="M15030 30550
L15610 30550
" />
<path d="M16280 30830
L16280 30080
" />
<path d="M16280 30800
L16210 30830
L16070 30830
L16000 30800
L15960 30760
L15930 30690
L15930 30480
L15960 30410
L16000 30370
L16070 30330
L16210 30330
L16280 30370
" />
<path d="M16930 30800
L16860 30830
L16710 30830
L16640 30800
L16610 30730
L16610 30440
L16640 30370
L16710 30330
L16860 30330
L16930 30370
L16960 30440
L16960 30510
L16610 30580
" />
<path d="M17180 30330
L17460 30330
" />
<path d="M17280 30080
L17280 30730
L17320 30800
L17390 30830
L17460 30830
" />
<path d="M18000 30800
L17930 30830
L17780 30830
L17710 30800
L17680 30730
L17680 30440
L17710 30370
L17780 30330
L17930 30330
L18000 30370
L18030 30440
L18030 30510
L17680 30580
" />
<path d="M18680 30800
L18610 30830
L18460 30830
L18390 30800
L18360 30760
L18320 30690
L18320 30480
L18360 30410
L18390 30370
L18460 30330
L18610 30330
L18680 30370
" />
<path d="M18890 30330
L19180 30330
" />
<path d="M19000 30080
L19000 30730
L19030 30800
L19110 30830
L19180 30830
" />
<path d="M19710 30800
L19640 30830
L19500 30830
L19430 30800
L19390 30730
L19390 30440
L19430 30370
L19500 30330
L19640 30330
L19710 30370
L19750 30440
L19750 30510
L19390 30580
" />
<path d="M20390 30330
L20390 30830
" />
<path d="M20070 30330
L20070 30730
L20110 30800
L20180 30830
L20280 30830
L20360 30800
L20390 30760
" />
<path d="M20750 30830
L20750 30330
" />
<path d="M20750 30480
L20780 30410
L20820 30370
L20890 30330
L20960 30330
" />
<path d="M21210 30550
L21780 30550
" />
<path d="M22460 30830
L22460 30080
" />
<path d="M22460 30800
L22390 30830
L22250 30830
L22180 30800
L22140 30760
L22110 30690
L22110 30480
L22140 30410
L22180 30370
L22250 30330
L22390 30330
L22460 30370
" />
<path d="M23110 30800
L23030 30830
L22890 30830
L22820 30800
L22780 30730
L22780 30440
L22820 30370
L22890 30330
L23030 30330
L23110 30370
L23140 30440
L23140 30510
L22780 30580
" />
<path d="M23460 30550
L24030 30550
" />
<path d="M24360 30800
L24430 30830
L24570 30830
L24640 30800
L24680 30730
L24680 30690
L24640 30620
L24570 30580
L24460 30580
L24390 30550
L24360 30480
L24360 30440
L24390 30370
L24460 30330
L24570 30330
L24640 30370
" />
<path d="M25000 30830
L25000 30330
" />
<path d="M25000 30080
L24960 30120
L25000 30160
L25030 30120
L25000 30080
L25000 30160
" />
<path d="M25680 30330
L25680 30940
L25640 31010
L25610 31050
L25540 31080
L25430 31080
L25360 31050
" />
<path d="M25680 30800
L25610 30830
L25460 30830
L25390 30800
L25360 30760
L25320 30690
L25320 30480
L25360 30410
L25390 30370
L25460 30330
L25610 30330
L25680 30370
" />
<path d="M26040 30330
L26040 30830
" />
<path d="M26040 30410
L26070 30370
L26140 30330
L26250 30330
L26320 30370
L26360 30440
L26360 30830
" />
<path d="M27040 30830
L27040 30440
L27000 30370
L26930 30330
L26790 30330
L26710 30370
" />
<path d="M27040 30800
L26960 30830
L26790 30830
L26710 30800
L26680 30730
L26680 30660
L26710 30580
L26790 30550
L26960 30550
L27040 30510
" />
<path d="M27710 30330
L27710 30830
" />
<path d="M27390 30330
L27390 30730
L27430 30800
L27500 30830
L27610 30830
L27680 30800
L27710 30760
" />
<path d="M28000 30830
L28390 30330
" />
<path d="M28000 30330
L28390 30830
" />
<path d="M28680 30550
L29250 30550
" />
<path d="M29610 30830
L29610 30330
" />
<path d="M29610 30410
L29640 30370
L29710 30330
L29820 30330
L29890 30370
L29930 30440
L29930 30830
" />
<path d="M29930 30440
L29960 30370
L30040 30330
L30140 30330
L30210 30370
L30250 30440
L30250 30830
" />
<path d="M30930 30830
L30930 30440
L30890 30370
L30820 30330
L30680 30330
L30610 30370
" />
<path d="M30930 30800
L30860 30830
L30680 30830
L30610 30800
L30570 30730
L30570 30660
L30610 30580
L30680 30550
L30860 30550
L30930 30510
" />
<path d="M31290 30330
L31290 30830
" />
<path d="M31290 30410
L31320 30370
L31390 30330
L31500 30330
L31570 30370
L31610 30440
L31610 30830
" />
<path d="M32290 30330
L32290 31080
" />
<path d="M32290 30800
L32210 30830
L32070 30830
L32000 30800
L31960 30760
L31930 30690
L31930 30480
L31960 30410
L32000 30370
L32070 30330
L32210 30330
L32290 30370
" />
<path d="M32960 30330
L32960 30830
" />
<path d="M32640 30330
L32640 30730
L32680 30800
L32750 30830
L32860 30830
L32930 30800
L32960 30760
" />
<path d="M33640 30830
L33640 30440
L33610 30370
L33530 30330
L33390 30330
L33320 30370
" />
<path d="M33640 30800
L33570 30830
L33390 30830
L33320 30800
L33280 30730
L33280 30660
L33320 30580
L33390 30550
L33570 30550
L33640 30510
" />
<path d="M34000 30330
L34000 30830
" />
<path d="M34000 30410
L34030 30370
L34110 30330
L34210 30330
L34280 30370
L34320 30440
L34320 30830
" />
<path d="M34570 30330
L34860 30330
" />
<path d="M34680 30080
L34680 30730
L34710 30800
L34780 30830
L34860 30830
" />
<path d="M35070 30800
L35140 30830
L35280 30830
L35360 30800
L35390 30730
L35390 30690
L35360 30620
L35280 30580
L35180 30580
L35110 30550
L35070 30480
L35070 30440
L35110 30370
L35180 30330
L35280 30330
L35360 30370
" />
</g>
<g style="fill:#840000; fill-opacity:0.0; 
stroke:#840000; stroke-width:100; stroke-opacity:1; 
stroke-linecap:round; stroke-linejoin:round;">
<path style="fill:#840000; fill-opacity:0.0; 
stroke:#840000; stroke-width:100; stroke-opacity:1; 
stroke-linecap:round; stroke-linejoin:round;fill:none"
d="M 36000,30500
35630,29890
11260,29890
11260,30500
11260,31110
35630,31110
Z" /> 
</g>
<g style="fill:#840000; fill-opacity:0.0; 
stroke:#840000; stroke-width:60; stroke-opacity:1; 
stroke-linecap:round; stroke-linejoin:round;">
</g>
<g style="fill:#000000; fill-opacity:0.0; 
stroke:#000000; stroke-width:60; stroke-opacity:1; 
stroke-linecap:round; stroke-linejoin:round;">
<text x="8000" y="13900"
textLength="6240" font-size="840" lengthAdjust="spacingAndGlyphs"
text-anchor="start" opacity="0">Entree(Input)</text>
<path d="M8180 13540
L8390 13540
" />
<path d="M8480 13870
L8180 13870
L8180 13240
L8480 13240
" />
<path d="M8750 13450
L8750 13870
" />
<path d="M8750 13510
L8780 13480
L8840 13450
L8930 13450
L8990 13480
L9020 13540
L9020 13870
" />
<path d="M9230 13450
L9470 13450
" />
<path d="M9320 13240
L9320 13780
L9350 13840
L9410 13870
L9470 13870
" />
<path d="M9680 13870
L9680 13450
" />
<path d="M9680 13570
L9710 13510
L9740 13480
L9800 13450
L9860 13450
" />
<path d="M10310 13840
L10250 13870
L10130 13870
L10070 13840
L10040 13780
L10040 13540
L10070 13480
L10130 13450
L10250 13450
L10310 13480
L10340 13540
L10340 13600
L10040 13660
" />
<path d="M10850 13840
L10790 13870
L10670 13870
L10610 13840
L10580 13780
L10580 13540
L10610 13480
L10670 13450
L10790 13450
L10850 13480
L10880 13540
L10880 13600
L10580 13660
" />
<path d="M11330 14110
L11300 14080
L11240 13990
L11210 13930
L11180 13840
L11150 13690
L11150 13570
L11180 13420
L11210 13330
L11240 13270
L11300 13180
L11330 13150
" />
<path d="M11570 13870
L11570 13240
" />
<path d="M11870 13450
L11870 13870
" />
<path d="M11870 13510
L11900 13480
L11960 13450
L12050 13450
L12110 13480
L12140 13540
L12140 13870
" />
<path d="M12440 13450
L12440 14080
" />
<path d="M12440 13480
L12500 13450
L12620 13450
L12680 13480
L12710 13510
L12740 13570
L12740 13750
L12710 13810
L12680 13840
L12620 13870
L12500 13870
L12440 13840
" />
<path d="M13280 13450
L13280 13870
" />
<path d="M13010 13450
L13010 13780
L13040 13840
L13100 13870
L13190 13870
L13250 13840
L13280 13810
" />
<path d="M13490 13450
L13730 13450
" />
<path d="M13580 13240
L13580 13780
L13610 13840
L13670 13870
L13730 13870
" />
<path d="M13880 14110
L13910 14080
L13970 13990
L14000 13930
L14030 13840
L14060 13690
L14060 13570
L14030 13420
L14000 13330
L13970 13270
L13910 13180
L13880 13150
" />
<text x="35000" y="15400"
textLength="6750" font-size="840" lengthAdjust="spacingAndGlyphs"
text-anchor="start" opacity="0">Sortie(Output)</text>
<path d="M35150 15340
L35240 15370
L35390 15370
L35450 15340
L35480 15310
L35510 15250
L35510 15190
L35480 15130
L35450 15100
L35390 15070
L35270 15040
L35210 15010
L35180 14980
L35150 14920
L35150 14860
L35180 14800
L35210 14770
L35270 14740
L35420 14740
L35510 14770
" />
<path d="M35870 15370
L35810 15340
L35780 15310
L35750 15250
L35750 15070
L35780 15010
L35810 14980
L35870 14950
L35960 14950
L36020 14980
L36050 15010
L36080 15070
L36080 15250
L36050 15310
L36020 15340
L35960 15370
L35870 15370
" />
<path d="M36350 15370
L36350 14950
" />
<path d="M36350 15070
L36380 15010
L36410 14980
L36470 14950
L36530 14950
" />
<path d="M36650 14950
L36890 14950
" />
<path d="M36740 14740
L36740 15280
L36770 15340
L36830 15370
L36890 15370
" />
<path d="M37100 15370
L37100 14950
" />
<path d="M37100 14740
L37070 14770
L37100 14800
L37130 14770
L37100 14740
L37100 14800
" />
<path d="M37640 15340
L37580 15370
L37460 15370
L37400 15340
L37370 15280
L37370 15040
L37400 14980
L37460 14950
L37580 14950
L37640 14980
L37670 15040
L37670 15100
L37370 15160
" />
<path d="M38120 15610
L38090 15580
L38030 15490
L38000 15430
L37970 15340
L37940 15190
L37940 15070
L37970 14920
L38000 14830
L38030 14770
L38090 14680
L38120 14650
" />
<path d="M38480 14740
L38600 14740
L38660 14770
L38720 14830
L38750 14950
L38750 15160
L38720 15280
L38660 15340
L38600 15370
L38480 15370
L38420 15340
L38360 15280
L38330 15160
L38330 14950
L38360 14830
L38420 14770
L38480 14740
" />
<path d="M39290 14950
L39290 15370
" />
<path d="M39020 14950
L39020 15280
L39050 15340
L39110 15370
L39200 15370
L39260 15340
L39290 15310
" />
<path d="M39500 14950
L39740 14950
" />
<path d="M39590 14740
L39590 15280
L39620 15340
L39680 15370
L39740 15370
" />
<path d="M39950 14950
L39950 15580
" />
<path d="M39950 14980
L40010 14950
L40130 14950
L40190 14980
L40220 15010
L40250 15070
L40250 15250
L40220 15310
L40190 15340
L40130 15370
L40010 15370
L39950 15340
" />
<path d="M40790 14950
L40790 15370
" />
<path d="M40520 14950
L40520 15280
L40550 15340
L40610 15370
L40700 15370
L40760 15340
L40790 15310
" />
<path d="M41000 14950
L41240 14950
" />
<path d="M41090 14740
L41090 15280
L41120 15340
L41180 15370
L41240 15370
" />
<path d="M41390 15610
L41420 15580
L41480 15490
L41510 15430
L41540 15340
L41570 15190
L41570 15070
L41540 14920
L41510 14830
L41480 14770
L41420 14680
L41390 14650
" />
</g>
<g style="fill:#000000; fill-opacity:0.0; 
stroke:#000000; stroke-width:0; stroke-opacity:1; 
stroke-linecap:round; stroke-linejoin:round;">
</g>
<g style="fill:#008400; fill-opacity:0.0; 
stroke:#008400; stroke-width:0; stroke-opacity:1; 
stroke-linecap:round; stroke-linejoin:round;">
</g>
<g style="fill:#008400; fill-opacity:1.0; 
stroke:#008400; stroke-width:100; stroke-opacity:1; 
stroke-linecap:round; stroke-linejoin:round;">
<circle cx="31500" cy="16000" r="200" /> 
</g>
<g style="fill:#008400; fill-opacity:1.0; 
stroke:#008400; stroke-width:0; stroke-opacity:1; 
stroke-linecap:round; stroke-linejoin:round;">
</g>
<g style="fill:#008400; fill-opacity:1.0; 
stroke:#008400; stroke-width:100; stroke-opacity:1; 
stroke-linecap:round; stroke-linejoin:round;">
<circle cx="11500" cy="16000" r="200" /> 
</g>
<g style="fill:#008400; fill-opacity:1.0; 
stroke:#008400; stroke-width:0; stroke-opacity:1; 
stroke-linecap:round; stroke-linejoin:round;">
</g>
<g style="fill:#008400; fill-opacity:1.0; 
stroke:#008400; stroke-width:100; stroke-opacity:1; 
stroke-linecap:round; stroke-linejoin:round;">
<circle cx="23500" cy="11500" r="200" /> 
</g>
<g style="fill:#008400; fill-opacity:1.0; 
stroke:#008400; stroke-width:0; stroke-opacity:1; 
stroke-linecap:round; stroke-linejoin:round;">
</g>
<g style="fill:#008400; fill-opacity:1.0; 
stroke:#008400; stroke-width:100; stroke-opacity:1; 
stroke-linecap:round; stroke-linejoin:round;">
<circle cx="31500" cy="18000" r="200" /> 
</g>
<g style="fill:#008400; fill-opacity:1.0; 
stroke:#008400; stroke-width:0; stroke-opacity:1; 
stroke-linecap:round; stroke-linejoin:round;">
</g>
<g style="fill:#008400; fill-opacity:1.0; 
stroke:#008400; stroke-width:100; stroke-opacity:1; 
stroke-linecap:round; stroke-linejoin:round;">
<circle cx="34000" cy="18000" r="200" /> 
</g>
<g style="fill:#008400; fill-opacity:1.0; 
stroke:#008400; stroke-width:0; stroke-opacity:1; 
stroke-linecap:round; stroke-linejoin:round;">
</g>
<g style="fill:#008400; fill-opacity:1.0; 
stroke:#008400; stroke-width:100; stroke-opacity:1; 
stroke-linecap:round; stroke-linejoin:round;">
<circle cx="23500" cy="11000" r="200" /> 
</g>
<g style="fill:#008400; fill-opacity:1.0; 
stroke:#008400; stroke-width:0; stroke-opacity:1; 
stroke-linecap:round; stroke-linejoin:round;">
</g>
<g style="fill:#008400; fill-opacity:1.0; 
stroke:#008400; stroke-width:100; stroke-opacity:1; 
stroke-linecap:round; stroke-linejoin:round;">
<circle cx="31500" cy="11500" r="200" /> 
</g>
<g style="fill:#008400; fill-opacity:1.0; 
stroke:#008400; stroke-width:0; stroke-opacity:1; 
stroke-linecap:round; stroke-linejoin:round;">
</g>
<g style="fill:#008400; fill-opacity:1.0; 
stroke:#008400; stroke-width:100; stroke-opacity:1; 
stroke-linecap:round; stroke-linejoin:round;">
<circle cx="28500" cy="20000" r="200" /> 
</g>
<g style="fill:#008400; fill-opacity:1.0; 
stroke:#008400; stroke-width:0; stroke-opacity:1; 
stroke-linecap:round; stroke-linejoin:round;">
</g>
<g style="fill:#008400; fill-opacity:1.0; 
stroke:#008400; stroke-width:100; stroke-opacity:1; 
stroke-linecap:round; stroke-linejoin:round;">
<circle cx="34000" cy="24000" r="200" /> 
</g> 
</svg>
