%TF.GenerationSoftware,KiCad,Pcbnew,(5.1.9)-1*%
%TF.CreationDate,2021-09-10T18:26:04+00:00*%
%TF.ProjectId,interrupteur_crepusculaire_led,696e7465-7272-4757-9074-6575725f6372,rev?*%
%TF.SameCoordinates,Original*%
%TF.FileFunction,Copper,L2,Bot*%
%TF.FilePolarity,Positive*%
%FSLAX46Y46*%
G04 Gerber Fmt 4.6, Leading zero omitted, Abs format (unit mm)*
G04 Created by KiCad (PCBNEW (5.1.9)-1) date 2021-09-10 18:26:04*
%MOMM*%
%LPD*%
G01*
G04 APERTURE LIST*
%TA.AperFunction,ComponentPad*%
%ADD10C,1.600000*%
%TD*%
%TA.AperFunction,ComponentPad*%
%ADD11O,1.600000X1.600000*%
%TD*%
%TA.AperFunction,ComponentPad*%
%ADD12C,1.800000*%
%TD*%
%TA.AperFunction,ComponentPad*%
%ADD13R,1.800000X1.800000*%
%TD*%
%TA.AperFunction,ComponentPad*%
%ADD14C,3.000000*%
%TD*%
%TA.AperFunction,ComponentPad*%
%ADD15O,1.600000X1.200000*%
%TD*%
%TA.AperFunction,ComponentPad*%
%ADD16O,1.200000X1.200000*%
%TD*%
%TA.AperFunction,ComponentPad*%
%ADD17C,2.340000*%
%TD*%
%TA.AperFunction,ComponentPad*%
%ADD18R,2.400000X1.600000*%
%TD*%
%TA.AperFunction,ComponentPad*%
%ADD19O,2.400000X2.000000*%
%TD*%
%TA.AperFunction,ComponentPad*%
%ADD20O,2.400000X1.600000*%
%TD*%
%TA.AperFunction,Conductor*%
%ADD21C,0.250000*%
%TD*%
G04 APERTURE END LIST*
D10*
%TO.P,R5,1*%
%TO.N,Net-(R5-Pad1)*%
X140200000Y-120700000D03*
D11*
%TO.P,R5,2*%
%TO.N,Net-(R1-Pad2)*%
X124960000Y-120700000D03*
%TD*%
D10*
%TO.P,C1,1*%
%TO.N,VCC*%
X137700000Y-115100000D03*
D11*
%TO.P,C1,2*%
%TO.N,GND*%
X145200000Y-115100000D03*
%TD*%
D12*
%TO.P,D1,2*%
%TO.N,Net-(D1-Pad2)*%
X144800000Y-119160000D03*
D13*
%TO.P,D1,1*%
%TO.N,GND*%
X144800000Y-121700000D03*
%TD*%
D14*
%TO.P,J1,1*%
%TO.N,VCC*%
X104700000Y-105900000D03*
%TO.P,J1,2*%
%TO.N,GND*%
X104700000Y-110900000D03*
%TD*%
D15*
%TO.P,Q1,1*%
%TO.N,Net-(D1-Pad2)*%
X134500000Y-107700000D03*
D16*
%TO.P,Q1,2*%
%TO.N,Net-(Q1-Pad2)*%
X137040000Y-110240000D03*
%TO.P,Q1,3*%
%TO.N,Net-(Q1-Pad3)*%
X139580000Y-107700000D03*
%TD*%
D10*
%TO.P,R1,1*%
%TO.N,VCC*%
X101600000Y-92200000D03*
D11*
%TO.P,R1,2*%
%TO.N,Net-(R1-Pad2)*%
X116840000Y-92200000D03*
%TD*%
D13*
%TO.P,R2,1*%
%TO.N,Net-(R1-Pad2)*%
X103100000Y-123140000D03*
D12*
%TO.P,R2,2*%
%TO.N,GND*%
X103100000Y-120600000D03*
%TD*%
D10*
%TO.P,R3,1*%
%TO.N,VCC*%
X101800000Y-96800000D03*
D11*
%TO.P,R3,2*%
%TO.N,Net-(R3-Pad2)*%
X117040000Y-96800000D03*
%TD*%
%TO.P,R4,2*%
%TO.N,GND*%
X131340000Y-116200000D03*
D10*
%TO.P,R4,1*%
%TO.N,Net-(R4-Pad1)*%
X116100000Y-116200000D03*
%TD*%
D11*
%TO.P,R6,2*%
%TO.N,Net-(R5-Pad1)*%
X136340000Y-92300000D03*
D10*
%TO.P,R6,1*%
%TO.N,Net-(Q1-Pad2)*%
X121100000Y-92300000D03*
%TD*%
D11*
%TO.P,R7,2*%
%TO.N,GND*%
X119360000Y-96000000D03*
D10*
%TO.P,R7,1*%
%TO.N,Net-(Q1-Pad2)*%
X134600000Y-96000000D03*
%TD*%
%TO.P,R8,1*%
%TO.N,VCC*%
X128800000Y-99900000D03*
D11*
%TO.P,R8,2*%
%TO.N,Net-(Q1-Pad3)*%
X144040000Y-99900000D03*
%TD*%
D17*
%TO.P,RV1,3*%
%TO.N,Net-(R4-Pad1)*%
X111700000Y-110600000D03*
%TO.P,RV1,2*%
%TO.N,Net-(RV1-Pad2)*%
X116700000Y-108100000D03*
%TO.P,RV1,1*%
%TO.N,Net-(R3-Pad2)*%
X111700000Y-105600000D03*
%TD*%
D18*
%TO.P,U1,1*%
%TO.N,Net-(U1-Pad1)*%
X121700000Y-103800000D03*
D19*
%TO.P,U1,5*%
%TO.N,Net-(U1-Pad5)*%
X129320000Y-111420000D03*
%TO.P,U1,2*%
%TO.N,Net-(RV1-Pad2)*%
X121700000Y-106340000D03*
%TO.P,U1,6*%
%TO.N,Net-(R5-Pad1)*%
X129320000Y-108880000D03*
%TO.P,U1,3*%
%TO.N,Net-(R1-Pad2)*%
X121700000Y-108880000D03*
%TO.P,U1,7*%
%TO.N,VCC*%
X129320000Y-106340000D03*
%TO.P,U1,4*%
%TO.N,GND*%
X121700000Y-111420000D03*
D20*
%TO.P,U1,8*%
%TO.N,Net-(U1-Pad8)*%
X129320000Y-103800000D03*
%TD*%
D21*
%TO.N,*%
X151800000Y-121900000D02*
X152200000Y-121900000D01*
%TO.N,VCC*%
X104700000Y-99700000D02*
X101800000Y-96800000D01*
X104700000Y-105900000D02*
X104700000Y-99700000D01*
X101800000Y-92400000D02*
X101600000Y-92200000D01*
X101800000Y-96800000D02*
X101800000Y-92400000D01*
X129320000Y-106340000D02*
X126340000Y-106340000D01*
X126340000Y-106340000D02*
X126200000Y-106200000D01*
X126200000Y-102500000D02*
X128800000Y-99900000D01*
X126200000Y-106200000D02*
X126200000Y-102500000D01*
X129320000Y-106340000D02*
X129320000Y-106520000D01*
X137700000Y-114900000D02*
X137700000Y-115100000D01*
X129320000Y-106520000D02*
X137700000Y-114900000D01*
%TO.N,GND*%
X103100000Y-112500000D02*
X104700000Y-110900000D01*
X119360000Y-96000000D02*
X124000000Y-100640000D01*
X121700000Y-111420000D02*
X122620000Y-111420000D01*
X133340000Y-122600000D02*
X135000000Y-122600000D01*
X135000000Y-122600000D02*
X135200000Y-122800000D01*
X121700000Y-111420000D02*
X121700000Y-119200000D01*
X120100000Y-117600000D02*
X103100000Y-117600000D01*
X121700000Y-119200000D02*
X120100000Y-117600000D01*
X103100000Y-117600000D02*
X103100000Y-112500000D01*
X103100000Y-120600000D02*
X103100000Y-117600000D01*
X121700000Y-111420000D02*
X121700000Y-111200000D01*
X121700000Y-111200000D02*
X122200000Y-111700000D01*
X122200000Y-111700000D02*
X124100000Y-111700000D01*
X124700000Y-111100000D02*
X124700000Y-109900000D01*
X124000000Y-108900000D02*
X124000000Y-109200000D01*
X124000000Y-100640000D02*
X124000000Y-108900000D01*
X124000000Y-109200000D02*
X124700000Y-109900000D01*
X124000000Y-108900000D02*
X124000000Y-109120000D01*
X124550000Y-111250000D02*
X124550000Y-113650000D01*
X124100000Y-111700000D02*
X124550000Y-111250000D01*
X124550000Y-111250000D02*
X124700000Y-111100000D01*
X127100000Y-116200000D02*
X131340000Y-116200000D01*
X124550000Y-113650000D02*
X127100000Y-116200000D01*
X131340000Y-120360000D02*
X133340000Y-122360000D01*
X131340000Y-116200000D02*
X131340000Y-120360000D01*
X133340000Y-122360000D02*
X133340000Y-122600000D01*
X133340000Y-122140000D02*
X133340000Y-122360000D01*
X145200000Y-115100000D02*
X146500000Y-115100000D01*
X147400000Y-116000000D02*
X147400000Y-120900000D01*
X146500000Y-115100000D02*
X147400000Y-116000000D01*
X135200000Y-122800000D02*
X136000000Y-123600000D01*
X136000000Y-123600000D02*
X136100000Y-123700000D01*
X149200000Y-124300000D02*
X149200000Y-93000000D01*
X146960000Y-90760000D02*
X119360000Y-90760000D01*
X148100000Y-125400000D02*
X149200000Y-124300000D01*
X137500000Y-125400000D02*
X148100000Y-125400000D01*
X119360000Y-90760000D02*
X119360000Y-96000000D01*
X136000000Y-123900000D02*
X137500000Y-125400000D01*
X149200000Y-93000000D02*
X146960000Y-90760000D01*
X136000000Y-123600000D02*
X136000000Y-123900000D01*
%TO.N,Net-(D1-Pad2)*%
X134500000Y-107700000D02*
X134500000Y-110500000D01*
X134500000Y-110500000D02*
X134600000Y-110600000D01*
X141200000Y-116160000D02*
X141200000Y-112800000D01*
X141200000Y-112800000D02*
X140900000Y-112500000D01*
X136500000Y-112500000D02*
X134500000Y-110500000D01*
X140900000Y-112500000D02*
X136500000Y-112500000D01*
%TO.N,Net-(Q1-Pad2)*%
X121100000Y-92300000D02*
X128100000Y-92300000D01*
X131800000Y-96000000D02*
X134600000Y-96000000D01*
X128100000Y-92300000D02*
X131800000Y-96000000D01*
X134600000Y-96000000D02*
X137200000Y-96000000D01*
X137040000Y-96160000D02*
X137040000Y-110240000D01*
X137200000Y-96000000D02*
X137040000Y-96160000D01*
%TO.N,Net-(Q1-Pad3)*%
X144040000Y-103240000D02*
X139580000Y-107700000D01*
X144040000Y-99900000D02*
X144040000Y-103240000D01*
%TO.N,Net-(R1-Pad2)*%
X116840000Y-92200000D02*
X114100000Y-94940000D01*
X114100000Y-94940000D02*
X114100000Y-98200000D01*
X114100000Y-98200000D02*
X109000000Y-103300000D01*
X109000000Y-103300000D02*
X109000000Y-107800000D01*
X109000000Y-107800000D02*
X109400000Y-108200000D01*
X109400000Y-108200000D02*
X112500000Y-108200000D01*
X112500000Y-108200000D02*
X115200000Y-110900000D01*
X119680000Y-110900000D02*
X121700000Y-108880000D01*
X115200000Y-110900000D02*
X119680000Y-110900000D01*
X109400000Y-108200000D02*
X102600000Y-108200000D01*
X102600000Y-108200000D02*
X100900000Y-109900000D01*
X100900000Y-109900000D02*
X100900000Y-124900000D01*
X100900000Y-124900000D02*
X101000000Y-125000000D01*
X101240000Y-125000000D02*
X103100000Y-123140000D01*
X101000000Y-125000000D02*
X101240000Y-125000000D01*
X120660000Y-125000000D02*
X124960000Y-120700000D01*
X101240000Y-125000000D02*
X120660000Y-125000000D01*
%TO.N,Net-(R3-Pad2)*%
X117040000Y-100260000D02*
X111700000Y-105600000D01*
X117040000Y-96800000D02*
X117040000Y-100260000D01*
%TO.N,Net-(R4-Pad1)*%
X116100000Y-115000000D02*
X116100000Y-116200000D01*
X111700000Y-110600000D02*
X116100000Y-115000000D01*
%TO.N,Net-(R5-Pad1)*%
X140200000Y-120700000D02*
X140200000Y-123600000D01*
X133500000Y-113060000D02*
X133500000Y-117100000D01*
X129320000Y-108880000D02*
X133500000Y-113060000D01*
X133500000Y-117100000D02*
X140700000Y-124300000D01*
X148400000Y-123000000D02*
X147100000Y-124300000D01*
X145849989Y-111649989D02*
X148400000Y-114200000D01*
X145849989Y-95186400D02*
X145849989Y-111649989D01*
X142963589Y-92300000D02*
X145849989Y-95186400D01*
X147100000Y-124300000D02*
X141000000Y-124300000D01*
X136340000Y-92300000D02*
X142963589Y-92300000D01*
X148400000Y-114200000D02*
X148400000Y-123000000D01*
X141000000Y-124300000D02*
X141200000Y-124300000D01*
X140700000Y-124300000D02*
X141000000Y-124300000D01*
%TO.N,Net-(RV1-Pad2)*%
X116700000Y-108100000D02*
X118600000Y-106200000D01*
X121560000Y-106200000D02*
X121700000Y-106340000D01*
X118600000Y-106200000D02*
X121560000Y-106200000D01*
%TD*%
M02*
