<?xml version="1.0" standalone="no"?>
 <!DOCTYPE svg PUBLIC "-//W3C//DTD SVG 1.1//EN" 
 "http://www.w3.org/Graphics/SVG/1.1/DTD/svg11.dtd"> 
<svg xmlns="http://www.w3.org/2000/svg" version="1.1" 
    width="29.7002cm" height="21.0007cm" viewBox="0 0 116930 82680 ">
<title>SVG Picture created as ne555-pulse-width-modulation.svg date 2021/10/02 22:26:07 </title>
  <desc>Picture generated by Eeschema-SVG </desc>
<g style="fill:#000000; fill-opacity:1;stroke:#000000; stroke-opacity:1;
stroke-linecap:round; stroke-linejoin:round; "
 transform="translate(0 0) scale(1 1)">
</g>
<g style="fill:#000000; fill-opacity:0.0; 
stroke:#000000; stroke-width:0; stroke-opacity:1; 
stroke-linecap:round; stroke-linejoin:round;">
<g >
</g>
<g style="fill:#840000; fill-opacity:0.0; 
stroke:#840000; stroke-width:0; stroke-opacity:1; 
stroke-linecap:round; stroke-linejoin:round;">
</g>
<g style="fill:#840000; fill-opacity:0.0; 
stroke:#840000; stroke-width:200; stroke-opacity:1; 
stroke-linecap:round; stroke-linejoin:round;">
<path d="M75300.3 26001 A1280 1280 0.0 0 0 73699.7 26001 " />
<path style="fill:#840000; fill-opacity:0.0; 
stroke:#840000; stroke-width:200; stroke-opacity:1; 
stroke-linecap:round; stroke-linejoin:round;fill:none"
d="M 73700,25200
75300,25200
" /> 
</g>
<g style="fill:#840000; fill-opacity:0.0; 
stroke:#840000; stroke-width:60; stroke-opacity:1; 
stroke-linecap:round; stroke-linejoin:round;">
<path style="fill:#840000; fill-opacity:0.0; 
stroke:#840000; stroke-width:60; stroke-opacity:1; 
stroke-linecap:round; stroke-linejoin:round;fill:none"
d="M 73800,24600
74200,24600
" /> 
<path style="fill:#840000; fill-opacity:0.0; 
stroke:#840000; stroke-width:60; stroke-opacity:1; 
stroke-linecap:round; stroke-linejoin:round;fill:none"
d="M 74000,24800
74000,24400
" /> 
<path d="M74500 25100
L74500 24000
" />
<path d="M74500 25700
L74500 27000
" />
</g>
<g style="fill:#008484; fill-opacity:0.0; 
stroke:#008484; stroke-width:60; stroke-opacity:1; 
stroke-linecap:round; stroke-linejoin:round;">
<text x="76140" y="25310"
textLength="990" font-size="660" lengthAdjust="spacingAndGlyphs"
text-anchor="middle" opacity="0">C?</text>
<path d="M76080 25230
L76050 25260
L75980 25280
L75930 25280
L75860 25260
L75810 25210
L75790 25160
L75770 25070
L75770 25000
L75790 24900
L75810 24850
L75860 24810
L75930 24780
L75980 24780
L76050 24810
L76080 24830
" />
<path d="M76360 25230
L76390 25260
L76360 25280
L76340 25260
L76360 25230
L76360 25280
" />
<path d="M76270 24810
L76310 24780
L76430 24780
L76480 24810
L76500 24850
L76500 24900
L76480 24950
L76460 24970
L76410 25000
L76390 25020
L76360 25070
L76360 25090
" />
<text x="76420" y="26230"
textLength="1540" font-size="660" lengthAdjust="spacingAndGlyphs"
text-anchor="middle" opacity="0">CP1</text>
<path d="M76080 26150
L76060 26180
L75990 26200
L75940 26200
L75870 26180
L75820 26130
L75800 26080
L75770 25990
L75770 25920
L75800 25820
L75820 25770
L75870 25730
L75940 25700
L75990 25700
L76060 25730
L76080 25750
" />
<path d="M76300 26200
L76300 25700
L76490 25700
L76530 25730
L76560 25750
L76580 25800
L76580 25870
L76560 25920
L76530 25940
L76490 25960
L76300 25960
" />
<path d="M77060 26200
L76770 26200
" />
<path d="M76920 26200
L76920 25700
L76870 25770
L76820 25820
L76770 25840
" />
</g>
</g>
<g style="fill:#008484; fill-opacity:0.0; 
stroke:#008484; stroke-width:0; stroke-opacity:1; 
stroke-linecap:round; stroke-linejoin:round;">
<g >
</g>
<g style="fill:#840000; fill-opacity:0.0; 
stroke:#840000; stroke-width:0; stroke-opacity:1; 
stroke-linecap:round; stroke-linejoin:round;">
</g>
<g style="fill:#840000; fill-opacity:0.0; 
stroke:#840000; stroke-width:60; stroke-opacity:1; 
stroke-linecap:round; stroke-linejoin:round;">
<circle cx="65500" cy="8250" r="250" /> 
<path style="fill:#840000; fill-opacity:0.0; 
stroke:#840000; stroke-width:60; stroke-opacity:1; 
stroke-linecap:round; stroke-linejoin:round;fill:none"
d="M 65500,9000
65500,8500
" /> 
</g>
<g style="fill:#008484; fill-opacity:0.0; 
stroke:#008484; stroke-width:60; stroke-opacity:1; 
stroke-linecap:round; stroke-linejoin:round;">
<text x="65640" y="7520"
textLength="1490" font-size="660" lengthAdjust="spacingAndGlyphs"
text-anchor="middle" opacity="0">VCC</text>
<path d="M64970 6990
L65140 7490
L65300 6990
" />
<path d="M65750 7440
L65730 7470
L65660 7490
L65610 7490
L65540 7470
L65490 7420
L65470 7370
L65440 7280
L65440 7210
L65470 7110
L65490 7060
L65540 7020
L65610 6990
L65660 6990
L65730 7020
L65750 7040
" />
<path d="M66250 7440
L66230 7470
L66160 7490
L66110 7490
L66040 7470
L65990 7420
L65970 7370
L65940 7280
L65940 7210
L65970 7110
L65990 7060
L66040 7020
L66110 6990
L66160 6990
L66230 7020
L66250 7040
" />
</g>
</g>
<g style="fill:#008484; fill-opacity:0.0; 
stroke:#008484; stroke-width:0; stroke-opacity:1; 
stroke-linecap:round; stroke-linejoin:round;">
<g >
</g>
<g style="fill:#840000; fill-opacity:0.0; 
stroke:#840000; stroke-width:0; stroke-opacity:1; 
stroke-linecap:round; stroke-linejoin:round;">
</g>
<g style="fill:#840000; fill-opacity:0.0; 
stroke:#840000; stroke-width:100; stroke-opacity:1; 
stroke-linecap:round; stroke-linejoin:round;">
<rect x="74100" y="14500" width="800" height="2000" rx="0" />
</g>
<g style="fill:#840000; fill-opacity:0.0; 
stroke:#840000; stroke-width:60; stroke-opacity:1; 
stroke-linecap:round; stroke-linejoin:round;">
<path d="M74500 14500
L74500 14000
" />
<path d="M74500 16500
L74500 17000
" />
</g>
<g style="fill:#008484; fill-opacity:0.0; 
stroke:#008484; stroke-width:60; stroke-opacity:1; 
stroke-linecap:round; stroke-linejoin:round;">
<text x="75690" y="15310"
textLength="990" font-size="660" lengthAdjust="spacingAndGlyphs"
text-anchor="middle" opacity="0">RA</text>
<path d="M75630 15280
L75460 15040
" />
<path d="M75340 15280
L75340 14780
L75530 14780
L75580 14810
L75600 14830
L75630 14880
L75630 14950
L75600 15000
L75580 15020
L75530 15040
L75340 15040
" />
<path d="M75820 15140
L76050 15140
" />
<path d="M75770 15280
L75940 14780
L76100 15280
" />
<text x="75480" y="16230"
textLength="560" font-size="660" lengthAdjust="spacingAndGlyphs"
text-anchor="middle" opacity="0">R</text>
<path d="M75630 16200
L75460 15960
" />
<path d="M75340 16200
L75340 15700
L75530 15700
L75580 15730
L75610 15750
L75630 15800
L75630 15870
L75610 15920
L75580 15940
L75530 15960
L75340 15960
" />
</g>
</g>
<g style="fill:#008484; fill-opacity:0.0; 
stroke:#008484; stroke-width:0; stroke-opacity:1; 
stroke-linecap:round; stroke-linejoin:round;">
<g >
</g>
<g style="fill:#840000; fill-opacity:0.0; 
stroke:#840000; stroke-width:0; stroke-opacity:1; 
stroke-linecap:round; stroke-linejoin:round;">
</g>
<g style="fill:#840000; fill-opacity:0.0; 
stroke:#840000; stroke-width:100; stroke-opacity:1; 
stroke-linecap:round; stroke-linejoin:round;">
<rect x="71600" y="14500" width="800" height="2000" rx="0" />
</g>
<g style="fill:#840000; fill-opacity:0.0; 
stroke:#840000; stroke-width:60; stroke-opacity:1; 
stroke-linecap:round; stroke-linejoin:round;">
<path d="M72000 14500
L72000 14000
" />
<path d="M72000 16500
L72000 17000
" />
</g>
<g style="fill:#008484; fill-opacity:0.0; 
stroke:#008484; stroke-width:60; stroke-opacity:1; 
stroke-linecap:round; stroke-linejoin:round;">
<text x="73180" y="15310"
textLength="960" font-size="660" lengthAdjust="spacingAndGlyphs"
text-anchor="middle" opacity="0">RL</text>
<path d="M73130 15280
L72960 15040
" />
<path d="M72840 15280
L72840 14780
L73030 14780
L73080 14810
L73100 14830
L73130 14880
L73130 14950
L73100 15000
L73080 15020
L73030 15040
L72840 15040
" />
<path d="M73580 15280
L73340 15280
L73340 14780
" />
<text x="72980" y="16230"
textLength="560" font-size="660" lengthAdjust="spacingAndGlyphs"
text-anchor="middle" opacity="0">R</text>
<path d="M73130 16200
L72960 15960
" />
<path d="M72840 16200
L72840 15700
L73030 15700
L73080 15730
L73110 15750
L73130 15800
L73130 15870
L73110 15920
L73080 15940
L73030 15960
L72840 15960
" />
</g>
</g>
<g style="fill:#008484; fill-opacity:0.0; 
stroke:#008484; stroke-width:0; stroke-opacity:1; 
stroke-linecap:round; stroke-linejoin:round;">
<g >
</g>
<g style="fill:#840000; fill-opacity:0.0; 
stroke:#840000; stroke-width:0; stroke-opacity:1; 
stroke-linecap:round; stroke-linejoin:round;">
</g>
<g style="fill:#840000; fill-opacity:0.0; 
stroke:#840000; stroke-width:60; stroke-opacity:1; 
stroke-linecap:round; stroke-linejoin:round;">
<path style="fill:#840000; fill-opacity:0.0; 
stroke:#840000; stroke-width:60; stroke-opacity:1; 
stroke-linecap:round; stroke-linejoin:round;fill:none"
d="M 74500,27000
74500,27500
75000,27500
74500,28000
74000,27500
74500,27500
" /> 
</g>
<g style="fill:#008484; fill-opacity:0.0; 
stroke:#008484; stroke-width:60; stroke-opacity:1; 
stroke-linecap:round; stroke-linejoin:round;">
<text x="74540" y="29010"
textLength="1580" font-size="660" lengthAdjust="spacingAndGlyphs"
text-anchor="middle" opacity="0">GND</text>
<path d="M74150 28510
L74110 28480
L74040 28480
L73960 28510
L73920 28550
L73890 28600
L73870 28700
L73870 28770
L73890 28860
L73920 28910
L73960 28960
L74040 28980
L74080 28980
L74150 28960
L74180 28930
L74180 28770
L74080 28770
" />
<path d="M74390 28980
L74390 28480
L74680 28980
L74680 28480
" />
<path d="M74920 28980
L74920 28480
L75040 28480
L75110 28510
L75150 28550
L75180 28600
L75200 28700
L75200 28770
L75180 28860
L75150 28910
L75110 28960
L75040 28980
L74920 28980
" />
</g>
</g>
<g style="fill:#008484; fill-opacity:0.0; 
stroke:#008484; stroke-width:0; stroke-opacity:1; 
stroke-linecap:round; stroke-linejoin:round;">
<g >
</g>
<g style="fill:#840000; fill-opacity:0.0; 
stroke:#840000; stroke-width:0; stroke-opacity:1; 
stroke-linecap:round; stroke-linejoin:round;">
</g>
<g style="fill:#840000; fill-opacity:0.0; 
stroke:#840000; stroke-width:60; stroke-opacity:1; 
stroke-linecap:round; stroke-linejoin:round;">
<path style="fill:#840000; fill-opacity:0.0; 
stroke:#840000; stroke-width:60; stroke-opacity:1; 
stroke-linecap:round; stroke-linejoin:round;fill:none"
d="M 65500,26000
65500,26500
66000,26500
65500,27000
65000,26500
65500,26500
" /> 
</g>
<g style="fill:#008484; fill-opacity:0.0; 
stroke:#008484; stroke-width:60; stroke-opacity:1; 
stroke-linecap:round; stroke-linejoin:round;">
<text x="65540" y="28010"
textLength="1580" font-size="660" lengthAdjust="spacingAndGlyphs"
text-anchor="middle" opacity="0">GND</text>
<path d="M65150 27510
L65110 27480
L65040 27480
L64960 27510
L64920 27550
L64890 27600
L64870 27700
L64870 27770
L64890 27860
L64920 27910
L64960 27960
L65040 27980
L65080 27980
L65150 27960
L65180 27930
L65180 27770
L65080 27770
" />
<path d="M65390 27980
L65390 27480
L65680 27980
L65680 27480
" />
<path d="M65920 27980
L65920 27480
L66040 27480
L66110 27510
L66150 27550
L66180 27600
L66200 27700
L66200 27770
L66180 27860
L66150 27910
L66110 27960
L66040 27980
L65920 27980
" />
</g>
</g>
<g style="fill:#008484; fill-opacity:0.0; 
stroke:#008484; stroke-width:0; stroke-opacity:1; 
stroke-linecap:round; stroke-linejoin:round;">
<g >
</g>
<g style="fill:#840000; fill-opacity:0.0; 
stroke:#840000; stroke-width:0; stroke-opacity:1; 
stroke-linecap:round; stroke-linejoin:round;">
</g>
<g style="fill:#FFFFC2; fill-opacity:0.0; 
stroke:#FFFFC2; stroke-width:0; stroke-opacity:1; 
stroke-linecap:round; stroke-linejoin:round;">
</g>
<g style="fill:#FFFFC2; fill-opacity:0.6; 
stroke:#FFFFC2; stroke-width:0; stroke-opacity:1; 
stroke-linecap:round; stroke-linejoin:round;">
<rect x="62000" y="19000" width="7000" height="6000" rx="0" />
</g>
<g style="fill:#840000; fill-opacity:0.6; 
stroke:#840000; stroke-width:0; stroke-opacity:1; 
stroke-linecap:round; stroke-linejoin:round;">
</g>
<g style="fill:#840000; fill-opacity:0.0; 
stroke:#840000; stroke-width:100; stroke-opacity:1; 
stroke-linecap:round; stroke-linejoin:round;">
<rect x="62000" y="19000" width="7000" height="6000" rx="0" />
</g>
<g style="fill:#FFFFC2; fill-opacity:0.0; 
stroke:#FFFFC2; stroke-width:100; stroke-opacity:1; 
stroke-linecap:round; stroke-linejoin:round;">
</g>
<g style="fill:#FFFFC2; fill-opacity:0.6; 
stroke:#FFFFC2; stroke-width:0; stroke-opacity:1; 
stroke-linecap:round; stroke-linejoin:round;">
<rect x="62000" y="19000" width="7000" height="6000" rx="0" />
</g>
<g style="fill:#840000; fill-opacity:0.6; 
stroke:#840000; stroke-width:0; stroke-opacity:1; 
stroke-linecap:round; stroke-linejoin:round;">
</g>
<g style="fill:#840000; fill-opacity:0.0; 
stroke:#840000; stroke-width:100; stroke-opacity:1; 
stroke-linecap:round; stroke-linejoin:round;">
<rect x="62000" y="19000" width="7000" height="6000" rx="0" />
<rect x="62000" y="19000" width="7000" height="6000" rx="0" />
<rect x="62000" y="19000" width="7000" height="6000" rx="0" />
</g>
<g style="fill:#840000; fill-opacity:0.0; 
stroke:#840000; stroke-width:60; stroke-opacity:1; 
stroke-linecap:round; stroke-linejoin:round;">
<path d="M65500 25000
L65500 26000
" />
</g>
<g style="fill:#008484; fill-opacity:0.0; 
stroke:#008484; stroke-width:60; stroke-opacity:1; 
stroke-linecap:round; stroke-linejoin:round;">
<g transform="rotate(-90 65500 24800)">
<text x="65500" y="25050"
textLength="1580" font-size="660" lengthAdjust="spacingAndGlyphs"
text-anchor="start" opacity="0">GND</text>
</g>
<path d="M65250 24380
L65220 24430
L65220 24500
L65250 24570
L65290 24620
L65340 24650
L65440 24670
L65510 24670
L65600 24650
L65650 24620
L65700 24570
L65720 24500
L65720 24460
L65700 24380
L65670 24360
L65510 24360
L65510 24460
" />
<path d="M65720 24150
L65220 24150
L65720 23860
L65220 23860
" />
<path d="M65720 23620
L65220 23620
L65220 23500
L65250 23430
L65290 23380
L65340 23360
L65440 23340
L65510 23340
L65600 23360
L65650 23380
L65700 23430
L65720 23500
L65720 23620
" />
</g>
<g style="fill:#840000; fill-opacity:0.0; 
stroke:#840000; stroke-width:60; stroke-opacity:1; 
stroke-linecap:round; stroke-linejoin:round;">
<g transform="rotate(-90 65400 25500)">
<text x="65400" y="25500"
textLength="540" font-size="660" lengthAdjust="spacingAndGlyphs"
text-anchor="middle" opacity="0">1</text>
</g>
<path d="M65370 25350
L65370 25640
" />
<path d="M65370 25500
L64870 25500
L64940 25540
L64990 25590
L65010 25640
" />
<path d="M65500 19000
L65500 18000
" />
</g>
<g style="fill:#008484; fill-opacity:0.0; 
stroke:#008484; stroke-width:60; stroke-opacity:1; 
stroke-linecap:round; stroke-linejoin:round;">
<g transform="rotate(-90 65500 19200)">
<text x="65500" y="19450"
textLength="1490" font-size="660" lengthAdjust="spacingAndGlyphs"
text-anchor="end" opacity="0">VCC</text>
</g>
<path d="M65220 20610
L65720 20440
L65220 20270
" />
<path d="M65670 19820
L65700 19840
L65720 19920
L65720 19960
L65700 20030
L65650 20080
L65600 20110
L65510 20130
L65440 20130
L65340 20110
L65290 20080
L65250 20030
L65220 19960
L65220 19920
L65250 19840
L65270 19820
" />
<path d="M65670 19320
L65700 19340
L65720 19420
L65720 19460
L65700 19530
L65650 19580
L65600 19610
L65510 19630
L65440 19630
L65340 19610
L65290 19580
L65250 19530
L65220 19460
L65220 19420
L65250 19340
L65270 19320
" />
</g>
<g style="fill:#840000; fill-opacity:0.0; 
stroke:#840000; stroke-width:60; stroke-opacity:1; 
stroke-linecap:round; stroke-linejoin:round;">
<g transform="rotate(-90 65400 18500)">
<text x="65400" y="18500"
textLength="540" font-size="660" lengthAdjust="spacingAndGlyphs"
text-anchor="middle" opacity="0">8</text>
</g>
<path d="M65090 18540
L65060 18590
L65040 18610
L64990 18640
L64970 18640
L64920 18610
L64900 18590
L64870 18540
L64870 18450
L64900 18400
L64920 18380
L64970 18350
L64990 18350
L65040 18380
L65060 18400
L65090 18450
L65090 18540
L65110 18590
L65130 18610
L65180 18640
L65280 18640
L65320 18610
L65350 18590
L65370 18540
L65370 18450
L65350 18400
L65320 18380
L65280 18350
L65180 18350
L65130 18380
L65110 18400
L65090 18450
" />
<path d="M62000 20000
L60500 20000
" />
</g>
<g style="fill:#008484; fill-opacity:0.0; 
stroke:#008484; stroke-width:60; stroke-opacity:1; 
stroke-linecap:round; stroke-linejoin:round;">
<text x="62200" y="20250"
textLength="940" font-size="660" lengthAdjust="spacingAndGlyphs"
text-anchor="start" opacity="0">TR</text>
<path d="M62270 19720
L62560 19720
" />
<path d="M62420 20220
L62420 19720
" />
<path d="M63010 20220
L62840 19980
" />
<path d="M62730 20220
L62730 19720
L62920 19720
L62960 19750
L62990 19770
L63010 19820
L63010 19890
L62990 19940
L62960 19960
L62920 19980
L62730 19980
" />
</g>
<g style="fill:#840000; fill-opacity:0.0; 
stroke:#840000; stroke-width:60; stroke-opacity:1; 
stroke-linecap:round; stroke-linejoin:round;">
<text x="61250" y="19900"
textLength="540" font-size="660" lengthAdjust="spacingAndGlyphs"
text-anchor="middle" opacity="0">2</text>
<path d="M61100 19420
L61130 19400
L61170 19370
L61290 19370
L61340 19400
L61360 19420
L61390 19470
L61390 19510
L61360 19590
L61080 19870
L61390 19870
" />
<path d="M69000 20000
L70500 20000
" />
</g>
<g style="fill:#008484; fill-opacity:0.0; 
stroke:#008484; stroke-width:60; stroke-opacity:1; 
stroke-linecap:round; stroke-linejoin:round;">
<text x="68800" y="20250"
textLength="580" font-size="660" lengthAdjust="spacingAndGlyphs"
text-anchor="end" opacity="0">Q</text>
<path d="M68690 20270
L68650 20250
L68600 20200
L68530 20130
L68480 20100
L68430 20100
" />
<path d="M68460 20220
L68410 20200
L68360 20150
L68340 20050
L68340 19890
L68360 19790
L68410 19750
L68460 19720
L68550 19720
L68600 19750
L68650 19790
L68670 19890
L68670 20050
L68650 20150
L68600 20200
L68550 20220
L68460 20220
" />
</g>
<g style="fill:#840000; fill-opacity:0.0; 
stroke:#840000; stroke-width:60; stroke-opacity:1; 
stroke-linecap:round; stroke-linejoin:round;">
<text x="69750" y="19900"
textLength="540" font-size="660" lengthAdjust="spacingAndGlyphs"
text-anchor="middle" opacity="0">3</text>
<path d="M69580 19370
L69890 19370
L69720 19560
L69790 19560
L69840 19590
L69860 19610
L69890 19660
L69890 19780
L69860 19820
L69840 19850
L69790 19870
L69650 19870
L69600 19850
L69580 19820
" />
<circle cx="61750" cy="24000" r="250" /> 
<path d="M61500 24000
L60500 24000
" />
</g>
<g style="fill:#008484; fill-opacity:0.0; 
stroke:#008484; stroke-width:60; stroke-opacity:1; 
stroke-linecap:round; stroke-linejoin:round;">
<text x="62200" y="24250"
textLength="560" font-size="660" lengthAdjust="spacingAndGlyphs"
text-anchor="start" opacity="0">R</text>
<path d="M62630 24220
L62460 23980
" />
<path d="M62340 24220
L62340 23720
L62530 23720
L62580 23750
L62610 23770
L62630 23820
L62630 23890
L62610 23940
L62580 23960
L62530 23980
L62340 23980
" />
</g>
<g style="fill:#840000; fill-opacity:0.0; 
stroke:#840000; stroke-width:60; stroke-opacity:1; 
stroke-linecap:round; stroke-linejoin:round;">
<text x="61250" y="23900"
textLength="540" font-size="660" lengthAdjust="spacingAndGlyphs"
text-anchor="middle" opacity="0">4</text>
<path d="M61340 23540
L61340 23870
" />
<path d="M61220 23350
L61100 23700
L61410 23700
" />
<path d="M62000 22000
L60500 22000
" />
</g>
<g style="fill:#008484; fill-opacity:0.0; 
stroke:#008484; stroke-width:60; stroke-opacity:1; 
stroke-linecap:round; stroke-linejoin:round;">
<text x="62200" y="22250"
textLength="990" font-size="660" lengthAdjust="spacingAndGlyphs"
text-anchor="start" opacity="0">CV</text>
<path d="M62630 22170
L62610 22200
L62530 22220
L62490 22220
L62420 22200
L62370 22150
L62340 22100
L62320 22010
L62320 21940
L62340 21840
L62370 21790
L62420 21750
L62490 21720
L62530 21720
L62610 21750
L62630 21770
" />
<path d="M62770 21720
L62940 22220
L63110 21720
" />
</g>
<g style="fill:#840000; fill-opacity:0.0; 
stroke:#840000; stroke-width:60; stroke-opacity:1; 
stroke-linecap:round; stroke-linejoin:round;">
<text x="61250" y="21900"
textLength="540" font-size="660" lengthAdjust="spacingAndGlyphs"
text-anchor="middle" opacity="0">5</text>
<path d="M61360 21370
L61130 21370
L61100 21610
L61130 21590
L61170 21560
L61290 21560
L61340 21590
L61360 21610
L61390 21660
L61390 21780
L61360 21820
L61340 21850
L61290 21870
L61170 21870
L61130 21850
L61100 21820
" />
<path d="M69000 24000
L70500 24000
" />
</g>
<g style="fill:#008484; fill-opacity:0.0; 
stroke:#008484; stroke-width:60; stroke-opacity:1; 
stroke-linecap:round; stroke-linejoin:round;">
<text x="68800" y="24250"
textLength="1460" font-size="660" lengthAdjust="spacingAndGlyphs"
text-anchor="end" opacity="0">THR</text>
<path d="M67410 23720
L67690 23720
" />
<path d="M67550 24220
L67550 23720
" />
<path d="M67860 24220
L67860 23720
" />
<path d="M67860 23960
L68150 23960
" />
<path d="M68150 24220
L68150 23720
" />
<path d="M68670 24220
L68500 23980
" />
<path d="M68380 24220
L68380 23720
L68570 23720
L68620 23750
L68650 23770
L68670 23820
L68670 23890
L68650 23940
L68620 23960
L68570 23980
L68380 23980
" />
</g>
<g style="fill:#840000; fill-opacity:0.0; 
stroke:#840000; stroke-width:60; stroke-opacity:1; 
stroke-linecap:round; stroke-linejoin:round;">
<text x="69750" y="23900"
textLength="540" font-size="660" lengthAdjust="spacingAndGlyphs"
text-anchor="middle" opacity="0">6</text>
<path d="M69840 23370
L69750 23370
L69700 23400
L69670 23420
L69630 23490
L69600 23590
L69600 23780
L69630 23820
L69650 23850
L69700 23870
L69790 23870
L69840 23850
L69860 23820
L69890 23780
L69890 23660
L69860 23610
L69840 23590
L69790 23560
L69700 23560
L69650 23590
L69630 23610
L69600 23660
" />
<path d="M69000 22000
L70500 22000
" />
</g>
<g style="fill:#008484; fill-opacity:0.0; 
stroke:#008484; stroke-width:60; stroke-opacity:1; 
stroke-linecap:round; stroke-linejoin:round;">
<text x="68800" y="22250"
textLength="1270" font-size="660" lengthAdjust="spacingAndGlyphs"
text-anchor="end" opacity="0">DIS</text>
<path d="M67670 22220
L67670 21720
L67790 21720
L67860 21750
L67910 21790
L67930 21840
L67960 21940
L67960 22010
L67930 22100
L67910 22150
L67860 22200
L67790 22220
L67670 22220
" />
<path d="M68170 22220
L68170 21720
" />
<path d="M68380 22200
L68460 22220
L68570 22220
L68620 22200
L68650 22170
L68670 22130
L68670 22080
L68650 22030
L68620 22010
L68570 21980
L68480 21960
L68430 21940
L68410 21910
L68380 21860
L68380 21820
L68410 21770
L68430 21750
L68480 21720
L68600 21720
L68670 21750
" />
</g>
<g style="fill:#840000; fill-opacity:0.0; 
stroke:#840000; stroke-width:60; stroke-opacity:1; 
stroke-linecap:round; stroke-linejoin:round;">
<text x="69750" y="21900"
textLength="540" font-size="660" lengthAdjust="spacingAndGlyphs"
text-anchor="middle" opacity="0">7</text>
<path d="M69580 21370
L69910 21370
L69700 21870
" />
</g>
<g style="fill:#008484; fill-opacity:0.0; 
stroke:#008484; stroke-width:60; stroke-opacity:1; 
stroke-linecap:round; stroke-linejoin:round;">
<text x="65500" y="16450"
textLength="1010" font-size="660" lengthAdjust="spacingAndGlyphs"
text-anchor="middle" opacity="0">U?</text>
<path d="M65140 15920
L65140 16330
L65160 16370
L65190 16400
L65230 16420
L65330 16420
L65380 16400
L65400 16370
L65420 16330
L65420 15920
" />
<path d="M65730 16370
L65760 16400
L65730 16420
L65710 16400
L65730 16370
L65730 16420
" />
<path d="M65640 15950
L65690 15920
L65800 15920
L65850 15950
L65880 15990
L65880 16040
L65850 16090
L65830 16110
L65780 16140
L65760 16160
L65730 16210
L65730 16230
" />
<text x="65500" y="17370"
textLength="2960" font-size="660" lengthAdjust="spacingAndGlyphs"
text-anchor="middle" opacity="0">NE555P</text>
<path d="M64160 17340
L64160 16840
L64450 17340
L64450 16840
" />
<path d="M64690 17080
L64850 17080
" />
<path d="M64920 17340
L64690 17340
L64690 16840
L64920 16840
" />
<path d="M65380 16840
L65140 16840
L65110 17080
L65140 17060
L65190 17030
L65300 17030
L65350 17060
L65380 17080
L65400 17130
L65400 17250
L65380 17290
L65350 17320
L65300 17340
L65190 17340
L65140 17320
L65110 17290
" />
<path d="M65850 16840
L65610 16840
L65590 17080
L65610 17060
L65660 17030
L65780 17030
L65830 17060
L65850 17080
L65880 17130
L65880 17250
L65850 17290
L65830 17320
L65780 17340
L65660 17340
L65610 17320
L65590 17290
" />
<path d="M66330 16840
L66090 16840
L66070 17080
L66090 17060
L66140 17030
L66260 17030
L66300 17060
L66330 17080
L66350 17130
L66350 17250
L66330 17290
L66300 17320
L66260 17340
L66140 17340
L66090 17320
L66070 17290
" />
<path d="M66570 17340
L66570 16840
L66760 16840
L66800 16870
L66830 16890
L66850 16940
L66850 17010
L66830 17060
L66800 17080
L66760 17100
L66570 17100
" />
</g>
</g>
<g style="fill:#008484; fill-opacity:0.0; 
stroke:#008484; stroke-width:60; stroke-opacity:1; 
stroke-linecap:round; stroke-linejoin:round;">
</g>
<g style="fill:#008400; fill-opacity:0.0; 
stroke:#008400; stroke-width:60; stroke-opacity:1; 
stroke-linecap:round; stroke-linejoin:round;">
<path d="M72000 20000
L72000 17000
" />
<path d="M72000 14000
L72000 12000
" />
<path d="M72000 12000
L74500 12000
" />
<path d="M70500 20000
L72000 20000
" />
<path d="M65500 12000
L72000 12000
" />
<path d="M72000 20000
L84500 20000
" />
<path d="M84500 20000
L84500 19500
" />
<path d="M74500 17000
L74500 22000
" />
<path d="M74500 24000
L70500 24000
" />
<path d="M70500 22000
L74500 22000
" />
<path d="M74500 22000
L74500 24000
" />
<path d="M65500 9000
L65500 12000
" />
<path d="M74500 12000
L74500 14000
" />
<path d="M65500 15000
L65500 18000
" />
<path d="M58500 15000
L58500 24000
" />
<path d="M65500 15000
L65500 12000
" />
<path d="M58500 15000
L65500 15000
" />
<path d="M60500 24000
L58500 24000
" />
<path d="M56500 27500
L50500 27500
" />
<path d="M56500 22000
L56500 27500
" />
<path d="M60500 22000
L56500 22000
" />
<path d="M56500 20000
L60500 20000
" />
<path d="M56500 15000
L56500 20000
" />
<path d="M50000 15000
L56500 15000
" />
</g>
<g style="fill:#848400; fill-opacity:0.0; 
stroke:#848400; stroke-width:60; stroke-opacity:1; 
stroke-linecap:round; stroke-linejoin:round;">
<text x="72150" y="28870"
textLength="18490" font-size="1000" lengthAdjust="spacingAndGlyphs"
text-anchor="end" opacity="0">ne555-pulse-width-modulation</text>
<path d="M53870 28330
L53870 28830
" />
<path d="M53870 28410
L53900 28370
L53970 28330
L54080 28330
L54150 28370
L54190 28440
L54190 28830
" />
<path d="M54830 28800
L54760 28830
L54620 28830
L54540 28800
L54510 28730
L54510 28440
L54540 28370
L54620 28330
L54760 28330
L54830 28370
L54870 28440
L54870 28510
L54510 28580
" />
<path d="M55540 28080
L55190 28080
L55150 28440
L55190 28410
L55260 28370
L55440 28370
L55510 28410
L55540 28440
L55580 28510
L55580 28690
L55540 28760
L55510 28800
L55440 28830
L55260 28830
L55190 28800
L55150 28760
" />
<path d="M56260 28080
L55900 28080
L55870 28440
L55900 28410
L55970 28370
L56150 28370
L56220 28410
L56260 28440
L56290 28510
L56290 28690
L56260 28760
L56220 28800
L56150 28830
L55970 28830
L55900 28800
L55870 28760
" />
<path d="M56970 28080
L56620 28080
L56580 28440
L56620 28410
L56690 28370
L56870 28370
L56940 28410
L56970 28440
L57010 28510
L57010 28690
L56970 28760
L56940 28800
L56870 28830
L56690 28830
L56620 28800
L56580 28760
" />
<path d="M57330 28550
L57900 28550
" />
<path d="M58260 28330
L58260 29080
" />
<path d="M58260 28370
L58330 28330
L58470 28330
L58540 28370
L58580 28410
L58620 28480
L58620 28690
L58580 28760
L58540 28800
L58470 28830
L58330 28830
L58260 28800
" />
<path d="M59260 28330
L59260 28830
" />
<path d="M58940 28330
L58940 28730
L58970 28800
L59040 28830
L59150 28830
L59220 28800
L59260 28760
" />
<path d="M59720 28830
L59650 28800
L59620 28730
L59620 28080
" />
<path d="M59970 28800
L60040 28830
L60190 28830
L60260 28800
L60290 28730
L60290 28690
L60260 28620
L60190 28580
L60080 28580
L60010 28550
L59970 28480
L59970 28440
L60010 28370
L60080 28330
L60190 28330
L60260 28370
" />
<path d="M60900 28800
L60830 28830
L60690 28830
L60620 28800
L60580 28730
L60580 28440
L60620 28370
L60690 28330
L60830 28330
L60900 28370
L60940 28440
L60940 28510
L60580 28580
" />
<path d="M61260 28550
L61830 28550
" />
<path d="M62120 28330
L62260 28830
L62400 28480
L62540 28830
L62690 28330
" />
<path d="M62970 28830
L62970 28330
" />
<path d="M62970 28080
L62940 28120
L62970 28160
L63010 28120
L62970 28080
L62970 28160
" />
<path d="M63650 28830
L63650 28080
" />
<path d="M63650 28800
L63580 28830
L63440 28830
L63370 28800
L63330 28760
L63290 28690
L63290 28480
L63330 28410
L63370 28370
L63440 28330
L63580 28330
L63650 28370
" />
<path d="M63900 28330
L64190 28330
" />
<path d="M64010 28080
L64010 28730
L64040 28800
L64120 28830
L64190 28830
" />
<path d="M64440 28830
L64440 28080
" />
<path d="M64760 28830
L64760 28440
L64720 28370
L64650 28330
L64540 28330
L64470 28370
L64440 28410
" />
<path d="M65120 28550
L65690 28550
" />
<path d="M66040 28830
L66040 28330
" />
<path d="M66040 28410
L66080 28370
L66150 28330
L66260 28330
L66330 28370
L66370 28440
L66370 28830
" />
<path d="M66370 28440
L66400 28370
L66470 28330
L66580 28330
L66650 28370
L66690 28440
L66690 28830
" />
<path d="M67150 28830
L67080 28800
L67040 28760
L67010 28690
L67010 28480
L67040 28410
L67080 28370
L67150 28330
L67260 28330
L67330 28370
L67370 28410
L67400 28480
L67400 28690
L67370 28760
L67330 28800
L67260 28830
L67150 28830
" />
<path d="M68040 28830
L68040 28080
" />
<path d="M68040 28800
L67970 28830
L67830 28830
L67760 28800
L67720 28760
L67690 28690
L67690 28480
L67720 28410
L67760 28370
L67830 28330
L67970 28330
L68040 28370
" />
<path d="M68720 28330
L68720 28830
" />
<path d="M68400 28330
L68400 28730
L68440 28800
L68510 28830
L68620 28830
L68690 28800
L68720 28760
" />
<path d="M69190 28830
L69120 28800
L69080 28730
L69080 28080
" />
<path d="M69790 28830
L69790 28440
L69760 28370
L69690 28330
L69540 28330
L69470 28370
" />
<path d="M69790 28800
L69720 28830
L69540 28830
L69470 28800
L69440 28730
L69440 28660
L69470 28580
L69540 28550
L69720 28550
L69790 28510
" />
<path d="M70040 28330
L70330 28330
" />
<path d="M70150 28080
L70150 28730
L70190 28800
L70260 28830
L70330 28830
" />
<path d="M70580 28830
L70580 28330
" />
<path d="M70580 28080
L70540 28120
L70580 28160
L70620 28120
L70580 28080
L70580 28160
" />
<path d="M71040 28830
L70970 28800
L70940 28760
L70900 28690
L70900 28480
L70940 28410
L70970 28370
L71040 28330
L71150 28330
L71220 28370
L71260 28410
L71290 28480
L71290 28690
L71260 28760
L71220 28800
L71150 28830
L71040 28830
" />
<path d="M71620 28330
L71620 28830
" />
<path d="M71620 28410
L71650 28370
L71720 28330
L71830 28330
L71900 28370
L71940 28440
L71940 28830
" />
</g>
<g style="fill:#848400; fill-opacity:0.0; 
stroke:#848400; stroke-width:100; stroke-opacity:1; 
stroke-linecap:round; stroke-linejoin:round;">
<path style="fill:#848400; fill-opacity:0.0; 
stroke:#848400; stroke-width:100; stroke-opacity:1; 
stroke-linecap:round; stroke-linejoin:round;fill:none"
d="M 73000,28500
72630,28130
72260,28130
72260,28870
72630,28870
Z" /> 
</g>
<g style="fill:#848400; fill-opacity:0.0; 
stroke:#848400; stroke-width:60; stroke-opacity:1; 
stroke-linecap:round; stroke-linejoin:round;">
</g>
<g style="fill:#000000; fill-opacity:0.0; 
stroke:#000000; stroke-width:60; stroke-opacity:1; 
stroke-linecap:round; stroke-linejoin:round;">
<text x="81500" y="19400"
textLength="2250" font-size="660" lengthAdjust="spacingAndGlyphs"
text-anchor="start" opacity="0">Sortie</text>
<path d="M81620 19350
L81690 19370
L81810 19370
L81860 19350
L81880 19320
L81910 19280
L81910 19230
L81880 19180
L81860 19160
L81810 19130
L81720 19110
L81670 19090
L81640 19060
L81620 19010
L81620 18970
L81640 18920
L81670 18900
L81720 18870
L81830 18870
L81910 18900
" />
<path d="M82190 19370
L82140 19350
L82120 19320
L82100 19280
L82100 19130
L82120 19090
L82140 19060
L82190 19040
L82260 19040
L82310 19060
L82330 19090
L82360 19130
L82360 19280
L82330 19320
L82310 19350
L82260 19370
L82190 19370
" />
<path d="M82570 19370
L82570 19040
" />
<path d="M82570 19130
L82600 19090
L82620 19060
L82670 19040
L82720 19040
" />
<path d="M82810 19040
L83000 19040
" />
<path d="M82880 18870
L82880 19300
L82910 19350
L82950 19370
L83000 19370
" />
<path d="M83170 19370
L83170 19040
" />
<path d="M83170 18870
L83140 18900
L83170 18920
L83190 18900
L83170 18870
L83170 18920
" />
<path d="M83600 19350
L83550 19370
L83450 19370
L83410 19350
L83380 19300
L83380 19110
L83410 19060
L83450 19040
L83550 19040
L83600 19060
L83620 19110
L83620 19160
L83380 19200
" />
<text x="50000" y="14400"
textLength="5660" font-size="660" lengthAdjust="spacingAndGlyphs"
text-anchor="start" opacity="0">Horloge(Clock)</text>
<path d="M50140 14370
L50140 13870
" />
<path d="M50140 14110
L50430 14110
" />
<path d="M50430 14370
L50430 13870
" />
<path d="M50740 14370
L50690 14350
L50670 14320
L50640 14280
L50640 14130
L50670 14090
L50690 14060
L50740 14040
L50810 14040
L50860 14060
L50880 14090
L50910 14130
L50910 14280
L50880 14320
L50860 14350
L50810 14370
L50740 14370
" />
<path d="M51120 14370
L51120 14040
" />
<path d="M51120 14130
L51140 14090
L51170 14060
L51220 14040
L51260 14040
" />
<path d="M51500 14370
L51450 14350
L51430 14300
L51430 13870
" />
<path d="M51760 14370
L51720 14350
L51690 14320
L51670 14280
L51670 14130
L51690 14090
L51720 14060
L51760 14040
L51830 14040
L51880 14060
L51910 14090
L51930 14130
L51930 14280
L51910 14320
L51880 14350
L51830 14370
L51760 14370
" />
<path d="M52360 14040
L52360 14440
L52330 14490
L52310 14510
L52260 14540
L52190 14540
L52140 14510
" />
<path d="M52360 14350
L52310 14370
L52220 14370
L52170 14350
L52140 14320
L52120 14280
L52120 14130
L52140 14090
L52170 14060
L52220 14040
L52310 14040
L52360 14060
" />
<path d="M52790 14350
L52740 14370
L52640 14370
L52600 14350
L52570 14300
L52570 14110
L52600 14060
L52640 14040
L52740 14040
L52790 14060
L52810 14110
L52810 14160
L52570 14200
" />
<path d="M53170 14560
L53140 14540
L53100 14470
L53070 14420
L53050 14350
L53030 14230
L53030 14130
L53050 14010
L53070 13940
L53100 13900
L53140 13820
L53170 13800
" />
<path d="M53640 14320
L53620 14350
L53550 14370
L53500 14370
L53430 14350
L53380 14300
L53360 14250
L53330 14160
L53330 14090
L53360 13990
L53380 13940
L53430 13900
L53500 13870
L53550 13870
L53620 13900
L53640 13920
" />
<path d="M53930 14370
L53880 14350
L53860 14300
L53860 13870
" />
<path d="M54190 14370
L54140 14350
L54120 14320
L54100 14280
L54100 14130
L54120 14090
L54140 14060
L54190 14040
L54260 14040
L54310 14060
L54330 14090
L54360 14130
L54360 14280
L54330 14320
L54310 14350
L54260 14370
L54190 14370
" />
<path d="M54790 14350
L54740 14370
L54640 14370
L54600 14350
L54570 14320
L54550 14280
L54550 14130
L54570 14090
L54600 14060
L54640 14040
L54740 14040
L54790 14060
" />
<path d="M55000 14370
L55000 13870
" />
<path d="M55050 14180
L55190 14370
" />
<path d="M55190 14040
L55000 14230
" />
<path d="M55360 14560
L55380 14540
L55430 14470
L55450 14420
L55480 14350
L55500 14230
L55500 14130
L55480 14010
L55450 13940
L55430 13900
L55380 13820
L55360 13800
" />
<text x="50500" y="26900"
textLength="4960" font-size="660" lengthAdjust="spacingAndGlyphs"
text-anchor="start" opacity="0">Entrée(Input)</text>
<path d="M50640 26610
L50810 26610
" />
<path d="M50880 26870
L50640 26870
L50640 26370
L50880 26370
" />
<path d="M51100 26540
L51100 26870
" />
<path d="M51100 26590
L51120 26560
L51170 26540
L51240 26540
L51290 26560
L51310 26610
L51310 26870
" />
<path d="M51480 26540
L51670 26540
" />
<path d="M51550 26370
L51550 26800
L51570 26850
L51620 26870
L51670 26870
" />
<path d="M51830 26870
L51830 26540
" />
<path d="M51830 26630
L51860 26590
L51880 26560
L51930 26540
L51980 26540
" />
<path d="M52330 26850
L52290 26870
L52190 26870
L52140 26850
L52120 26800
L52120 26610
L52140 26560
L52190 26540
L52290 26540
L52330 26560
L52360 26610
L52360 26660
L52120 26700
" />
<path d="M52290 26350
L52220 26420
" />
<path d="M52760 26850
L52720 26870
L52620 26870
L52570 26850
L52550 26800
L52550 26610
L52570 26560
L52620 26540
L52720 26540
L52760 26560
L52790 26610
L52790 26660
L52550 26700
" />
<path d="M53140 27060
L53120 27040
L53070 26970
L53050 26920
L53030 26850
L53000 26730
L53000 26630
L53030 26510
L53050 26440
L53070 26400
L53120 26320
L53140 26300
" />
<path d="M53330 26870
L53330 26370
" />
<path d="M53570 26540
L53570 26870
" />
<path d="M53570 26590
L53600 26560
L53640 26540
L53720 26540
L53760 26560
L53790 26610
L53790 26870
" />
<path d="M54030 26540
L54030 27040
" />
<path d="M54030 26560
L54070 26540
L54170 26540
L54220 26560
L54240 26590
L54260 26630
L54260 26780
L54240 26820
L54220 26850
L54170 26870
L54070 26870
L54030 26850
" />
<path d="M54690 26540
L54690 26870
" />
<path d="M54480 26540
L54480 26800
L54500 26850
L54550 26870
L54620 26870
L54670 26850
L54690 26820
" />
<path d="M54860 26540
L55050 26540
" />
<path d="M54930 26370
L54930 26800
L54950 26850
L55000 26870
L55050 26870
" />
<path d="M55170 27060
L55190 27040
L55240 26970
L55260 26920
L55290 26850
L55310 26730
L55310 26630
L55290 26510
L55260 26440
L55240 26400
L55190 26320
L55170 26300
" />
</g>
<g style="fill:#000000; fill-opacity:0.0; 
stroke:#000000; stroke-width:0; stroke-opacity:1; 
stroke-linecap:round; stroke-linejoin:round;">
</g>
<g style="fill:#008400; fill-opacity:0.0; 
stroke:#008400; stroke-width:0; stroke-opacity:1; 
stroke-linecap:round; stroke-linejoin:round;">
</g>
<g style="fill:#008400; fill-opacity:1.0; 
stroke:#008400; stroke-width:100; stroke-opacity:1; 
stroke-linecap:round; stroke-linejoin:round;">
<circle cx="74500" cy="22000" r="30" /> 
</g>
<g style="fill:#008400; fill-opacity:1.0; 
stroke:#008400; stroke-width:0; stroke-opacity:1; 
stroke-linecap:round; stroke-linejoin:round;">
</g>
<g style="fill:#008400; fill-opacity:1.0; 
stroke:#008400; stroke-width:100; stroke-opacity:1; 
stroke-linecap:round; stroke-linejoin:round;">
<circle cx="74500" cy="24000" r="30" /> 
</g>
<g style="fill:#008400; fill-opacity:1.0; 
stroke:#008400; stroke-width:0; stroke-opacity:1; 
stroke-linecap:round; stroke-linejoin:round;">
</g>
<g style="fill:#008400; fill-opacity:1.0; 
stroke:#008400; stroke-width:100; stroke-opacity:1; 
stroke-linecap:round; stroke-linejoin:round;">
<circle cx="72000" cy="20000" r="30" /> 
</g>
<g style="fill:#008400; fill-opacity:1.0; 
stroke:#008400; stroke-width:0; stroke-opacity:1; 
stroke-linecap:round; stroke-linejoin:round;">
</g>
<g style="fill:#008400; fill-opacity:1.0; 
stroke:#008400; stroke-width:100; stroke-opacity:1; 
stroke-linecap:round; stroke-linejoin:round;">
<circle cx="72000" cy="12000" r="30" /> 
</g>
<g style="fill:#008400; fill-opacity:1.0; 
stroke:#008400; stroke-width:0; stroke-opacity:1; 
stroke-linecap:round; stroke-linejoin:round;">
</g>
<g style="fill:#008400; fill-opacity:1.0; 
stroke:#008400; stroke-width:100; stroke-opacity:1; 
stroke-linecap:round; stroke-linejoin:round;">
<circle cx="65500" cy="12000" r="30" /> 
</g>
<g style="fill:#008400; fill-opacity:1.0; 
stroke:#008400; stroke-width:0; stroke-opacity:1; 
stroke-linecap:round; stroke-linejoin:round;">
</g>
<g style="fill:#008400; fill-opacity:1.0; 
stroke:#008400; stroke-width:100; stroke-opacity:1; 
stroke-linecap:round; stroke-linejoin:round;">
<circle cx="65500" cy="15000" r="30" /> 
</g> 
</svg>
