%TF.GenerationSoftware,KiCad,Pcbnew,(5.1.9)-1*%
%TF.CreationDate,2021-09-03T17:13:07+00:00*%
%TF.ProjectId,step_down_converter,73746570-5f64-46f7-976e-5f636f6e7665,rev?*%
%TF.SameCoordinates,Original*%
%TF.FileFunction,Legend,Top*%
%TF.FilePolarity,Positive*%
%FSLAX46Y46*%
G04 Gerber Fmt 4.6, Leading zero omitted, Abs format (unit mm)*
G04 Created by KiCad (PCBNEW (5.1.9)-1) date 2021-09-03 17:13:07*
%MOMM*%
%LPD*%
G01*
G04 APERTURE LIST*
%ADD10C,0.120000*%
%ADD11C,0.150000*%
G04 APERTURE END LIST*
D10*
%TO.C,U1*%
X106490000Y-72240000D02*
X105240000Y-72240000D01*
X105240000Y-72240000D02*
X105240000Y-82520000D01*
X105240000Y-82520000D02*
X109740000Y-82520000D01*
X109740000Y-82520000D02*
X109740000Y-72240000D01*
X109740000Y-72240000D02*
X108490000Y-72240000D01*
X108490000Y-72240000D02*
G75*
G02*
X106490000Y-72240000I-1000000J0D01*
G01*
%TO.C,C1*%
X126370000Y-77750000D02*
G75*
G03*
X126370000Y-77750000I-4120000J0D01*
G01*
X118170000Y-77750000D02*
X126330000Y-77750000D01*
X118170000Y-77710000D02*
X126330000Y-77710000D01*
X118170000Y-77670000D02*
X126330000Y-77670000D01*
X118171000Y-77630000D02*
X126329000Y-77630000D01*
X118173000Y-77590000D02*
X126327000Y-77590000D01*
X118174000Y-77550000D02*
X126326000Y-77550000D01*
X118176000Y-77510000D02*
X126324000Y-77510000D01*
X118179000Y-77470000D02*
X126321000Y-77470000D01*
X118182000Y-77430000D02*
X126318000Y-77430000D01*
X118185000Y-77390000D02*
X126315000Y-77390000D01*
X118189000Y-77350000D02*
X126311000Y-77350000D01*
X118193000Y-77310000D02*
X126307000Y-77310000D01*
X118198000Y-77270000D02*
X126302000Y-77270000D01*
X118202000Y-77230000D02*
X126298000Y-77230000D01*
X118208000Y-77190000D02*
X126292000Y-77190000D01*
X118213000Y-77150000D02*
X126287000Y-77150000D01*
X118220000Y-77110000D02*
X126280000Y-77110000D01*
X118226000Y-77070000D02*
X126274000Y-77070000D01*
X118233000Y-77029000D02*
X126267000Y-77029000D01*
X118240000Y-76989000D02*
X126260000Y-76989000D01*
X118248000Y-76949000D02*
X126252000Y-76949000D01*
X118256000Y-76909000D02*
X126244000Y-76909000D01*
X118265000Y-76869000D02*
X126235000Y-76869000D01*
X118274000Y-76829000D02*
X126226000Y-76829000D01*
X118283000Y-76789000D02*
X126217000Y-76789000D01*
X118293000Y-76749000D02*
X126207000Y-76749000D01*
X118303000Y-76709000D02*
X126197000Y-76709000D01*
X118314000Y-76669000D02*
X126186000Y-76669000D01*
X118325000Y-76629000D02*
X126175000Y-76629000D01*
X118336000Y-76589000D02*
X126164000Y-76589000D01*
X118348000Y-76549000D02*
X126152000Y-76549000D01*
X118361000Y-76509000D02*
X126139000Y-76509000D01*
X118373000Y-76469000D02*
X126127000Y-76469000D01*
X118387000Y-76429000D02*
X126113000Y-76429000D01*
X118400000Y-76389000D02*
X126100000Y-76389000D01*
X118415000Y-76349000D02*
X126085000Y-76349000D01*
X118429000Y-76309000D02*
X126071000Y-76309000D01*
X118445000Y-76269000D02*
X121210000Y-76269000D01*
X123290000Y-76269000D02*
X126055000Y-76269000D01*
X118460000Y-76229000D02*
X121210000Y-76229000D01*
X123290000Y-76229000D02*
X126040000Y-76229000D01*
X118476000Y-76189000D02*
X121210000Y-76189000D01*
X123290000Y-76189000D02*
X126024000Y-76189000D01*
X118493000Y-76149000D02*
X121210000Y-76149000D01*
X123290000Y-76149000D02*
X126007000Y-76149000D01*
X118510000Y-76109000D02*
X121210000Y-76109000D01*
X123290000Y-76109000D02*
X125990000Y-76109000D01*
X118528000Y-76069000D02*
X121210000Y-76069000D01*
X123290000Y-76069000D02*
X125972000Y-76069000D01*
X118546000Y-76029000D02*
X121210000Y-76029000D01*
X123290000Y-76029000D02*
X125954000Y-76029000D01*
X118564000Y-75989000D02*
X121210000Y-75989000D01*
X123290000Y-75989000D02*
X125936000Y-75989000D01*
X118584000Y-75949000D02*
X121210000Y-75949000D01*
X123290000Y-75949000D02*
X125916000Y-75949000D01*
X118603000Y-75909000D02*
X121210000Y-75909000D01*
X123290000Y-75909000D02*
X125897000Y-75909000D01*
X118623000Y-75869000D02*
X121210000Y-75869000D01*
X123290000Y-75869000D02*
X125877000Y-75869000D01*
X118644000Y-75829000D02*
X121210000Y-75829000D01*
X123290000Y-75829000D02*
X125856000Y-75829000D01*
X118666000Y-75789000D02*
X121210000Y-75789000D01*
X123290000Y-75789000D02*
X125834000Y-75789000D01*
X118688000Y-75749000D02*
X121210000Y-75749000D01*
X123290000Y-75749000D02*
X125812000Y-75749000D01*
X118710000Y-75709000D02*
X121210000Y-75709000D01*
X123290000Y-75709000D02*
X125790000Y-75709000D01*
X118733000Y-75669000D02*
X121210000Y-75669000D01*
X123290000Y-75669000D02*
X125767000Y-75669000D01*
X118757000Y-75629000D02*
X121210000Y-75629000D01*
X123290000Y-75629000D02*
X125743000Y-75629000D01*
X118781000Y-75589000D02*
X121210000Y-75589000D01*
X123290000Y-75589000D02*
X125719000Y-75589000D01*
X118806000Y-75549000D02*
X121210000Y-75549000D01*
X123290000Y-75549000D02*
X125694000Y-75549000D01*
X118832000Y-75509000D02*
X121210000Y-75509000D01*
X123290000Y-75509000D02*
X125668000Y-75509000D01*
X118858000Y-75469000D02*
X121210000Y-75469000D01*
X123290000Y-75469000D02*
X125642000Y-75469000D01*
X118885000Y-75429000D02*
X121210000Y-75429000D01*
X123290000Y-75429000D02*
X125615000Y-75429000D01*
X118912000Y-75389000D02*
X121210000Y-75389000D01*
X123290000Y-75389000D02*
X125588000Y-75389000D01*
X118941000Y-75349000D02*
X121210000Y-75349000D01*
X123290000Y-75349000D02*
X125559000Y-75349000D01*
X118970000Y-75309000D02*
X121210000Y-75309000D01*
X123290000Y-75309000D02*
X125530000Y-75309000D01*
X119000000Y-75269000D02*
X121210000Y-75269000D01*
X123290000Y-75269000D02*
X125500000Y-75269000D01*
X119030000Y-75229000D02*
X121210000Y-75229000D01*
X123290000Y-75229000D02*
X125470000Y-75229000D01*
X119061000Y-75189000D02*
X121210000Y-75189000D01*
X123290000Y-75189000D02*
X125439000Y-75189000D01*
X119094000Y-75149000D02*
X121210000Y-75149000D01*
X123290000Y-75149000D02*
X125406000Y-75149000D01*
X119126000Y-75109000D02*
X121210000Y-75109000D01*
X123290000Y-75109000D02*
X125374000Y-75109000D01*
X119160000Y-75069000D02*
X121210000Y-75069000D01*
X123290000Y-75069000D02*
X125340000Y-75069000D01*
X119195000Y-75029000D02*
X121210000Y-75029000D01*
X123290000Y-75029000D02*
X125305000Y-75029000D01*
X119231000Y-74989000D02*
X121210000Y-74989000D01*
X123290000Y-74989000D02*
X125269000Y-74989000D01*
X119267000Y-74949000D02*
X121210000Y-74949000D01*
X123290000Y-74949000D02*
X125233000Y-74949000D01*
X119305000Y-74909000D02*
X121210000Y-74909000D01*
X123290000Y-74909000D02*
X125195000Y-74909000D01*
X119343000Y-74869000D02*
X121210000Y-74869000D01*
X123290000Y-74869000D02*
X125157000Y-74869000D01*
X119383000Y-74829000D02*
X121210000Y-74829000D01*
X123290000Y-74829000D02*
X125117000Y-74829000D01*
X119424000Y-74789000D02*
X121210000Y-74789000D01*
X123290000Y-74789000D02*
X125076000Y-74789000D01*
X119466000Y-74749000D02*
X121210000Y-74749000D01*
X123290000Y-74749000D02*
X125034000Y-74749000D01*
X119509000Y-74709000D02*
X121210000Y-74709000D01*
X123290000Y-74709000D02*
X124991000Y-74709000D01*
X119553000Y-74669000D02*
X121210000Y-74669000D01*
X123290000Y-74669000D02*
X124947000Y-74669000D01*
X119599000Y-74629000D02*
X121210000Y-74629000D01*
X123290000Y-74629000D02*
X124901000Y-74629000D01*
X119646000Y-74589000D02*
X121210000Y-74589000D01*
X123290000Y-74589000D02*
X124854000Y-74589000D01*
X119694000Y-74549000D02*
X121210000Y-74549000D01*
X123290000Y-74549000D02*
X124806000Y-74549000D01*
X119745000Y-74509000D02*
X121210000Y-74509000D01*
X123290000Y-74509000D02*
X124755000Y-74509000D01*
X119796000Y-74469000D02*
X121210000Y-74469000D01*
X123290000Y-74469000D02*
X124704000Y-74469000D01*
X119850000Y-74429000D02*
X121210000Y-74429000D01*
X123290000Y-74429000D02*
X124650000Y-74429000D01*
X119905000Y-74389000D02*
X121210000Y-74389000D01*
X123290000Y-74389000D02*
X124595000Y-74389000D01*
X119963000Y-74349000D02*
X121210000Y-74349000D01*
X123290000Y-74349000D02*
X124537000Y-74349000D01*
X120022000Y-74309000D02*
X121210000Y-74309000D01*
X123290000Y-74309000D02*
X124478000Y-74309000D01*
X120084000Y-74269000D02*
X121210000Y-74269000D01*
X123290000Y-74269000D02*
X124416000Y-74269000D01*
X120148000Y-74229000D02*
X121210000Y-74229000D01*
X123290000Y-74229000D02*
X124352000Y-74229000D01*
X120216000Y-74189000D02*
X124284000Y-74189000D01*
X120286000Y-74149000D02*
X124214000Y-74149000D01*
X120360000Y-74109000D02*
X124140000Y-74109000D01*
X120437000Y-74069000D02*
X124063000Y-74069000D01*
X120519000Y-74029000D02*
X123981000Y-74029000D01*
X120605000Y-73989000D02*
X123895000Y-73989000D01*
X120698000Y-73949000D02*
X123802000Y-73949000D01*
X120797000Y-73909000D02*
X123703000Y-73909000D01*
X120904000Y-73869000D02*
X123596000Y-73869000D01*
X121021000Y-73829000D02*
X123479000Y-73829000D01*
X121152000Y-73789000D02*
X123348000Y-73789000D01*
X121302000Y-73749000D02*
X123198000Y-73749000D01*
X121482000Y-73709000D02*
X123018000Y-73709000D01*
X121717000Y-73669000D02*
X122783000Y-73669000D01*
X119935000Y-82159698D02*
X119935000Y-81359698D01*
X119535000Y-81759698D02*
X120335000Y-81759698D01*
%TO.C,C2*%
X86315000Y-79289698D02*
X87115000Y-79289698D01*
X86715000Y-79689698D02*
X86715000Y-78889698D01*
X88497000Y-71199000D02*
X89563000Y-71199000D01*
X88262000Y-71239000D02*
X89798000Y-71239000D01*
X88082000Y-71279000D02*
X89978000Y-71279000D01*
X87932000Y-71319000D02*
X90128000Y-71319000D01*
X87801000Y-71359000D02*
X90259000Y-71359000D01*
X87684000Y-71399000D02*
X90376000Y-71399000D01*
X87577000Y-71439000D02*
X90483000Y-71439000D01*
X87478000Y-71479000D02*
X90582000Y-71479000D01*
X87385000Y-71519000D02*
X90675000Y-71519000D01*
X87299000Y-71559000D02*
X90761000Y-71559000D01*
X87217000Y-71599000D02*
X90843000Y-71599000D01*
X87140000Y-71639000D02*
X90920000Y-71639000D01*
X87066000Y-71679000D02*
X90994000Y-71679000D01*
X86996000Y-71719000D02*
X91064000Y-71719000D01*
X90070000Y-71759000D02*
X91132000Y-71759000D01*
X86928000Y-71759000D02*
X87990000Y-71759000D01*
X90070000Y-71799000D02*
X91196000Y-71799000D01*
X86864000Y-71799000D02*
X87990000Y-71799000D01*
X90070000Y-71839000D02*
X91258000Y-71839000D01*
X86802000Y-71839000D02*
X87990000Y-71839000D01*
X90070000Y-71879000D02*
X91317000Y-71879000D01*
X86743000Y-71879000D02*
X87990000Y-71879000D01*
X90070000Y-71919000D02*
X91375000Y-71919000D01*
X86685000Y-71919000D02*
X87990000Y-71919000D01*
X90070000Y-71959000D02*
X91430000Y-71959000D01*
X86630000Y-71959000D02*
X87990000Y-71959000D01*
X90070000Y-71999000D02*
X91484000Y-71999000D01*
X86576000Y-71999000D02*
X87990000Y-71999000D01*
X90070000Y-72039000D02*
X91535000Y-72039000D01*
X86525000Y-72039000D02*
X87990000Y-72039000D01*
X90070000Y-72079000D02*
X91586000Y-72079000D01*
X86474000Y-72079000D02*
X87990000Y-72079000D01*
X90070000Y-72119000D02*
X91634000Y-72119000D01*
X86426000Y-72119000D02*
X87990000Y-72119000D01*
X90070000Y-72159000D02*
X91681000Y-72159000D01*
X86379000Y-72159000D02*
X87990000Y-72159000D01*
X90070000Y-72199000D02*
X91727000Y-72199000D01*
X86333000Y-72199000D02*
X87990000Y-72199000D01*
X90070000Y-72239000D02*
X91771000Y-72239000D01*
X86289000Y-72239000D02*
X87990000Y-72239000D01*
X90070000Y-72279000D02*
X91814000Y-72279000D01*
X86246000Y-72279000D02*
X87990000Y-72279000D01*
X90070000Y-72319000D02*
X91856000Y-72319000D01*
X86204000Y-72319000D02*
X87990000Y-72319000D01*
X90070000Y-72359000D02*
X91897000Y-72359000D01*
X86163000Y-72359000D02*
X87990000Y-72359000D01*
X90070000Y-72399000D02*
X91937000Y-72399000D01*
X86123000Y-72399000D02*
X87990000Y-72399000D01*
X90070000Y-72439000D02*
X91975000Y-72439000D01*
X86085000Y-72439000D02*
X87990000Y-72439000D01*
X90070000Y-72479000D02*
X92013000Y-72479000D01*
X86047000Y-72479000D02*
X87990000Y-72479000D01*
X90070000Y-72519000D02*
X92049000Y-72519000D01*
X86011000Y-72519000D02*
X87990000Y-72519000D01*
X90070000Y-72559000D02*
X92085000Y-72559000D01*
X85975000Y-72559000D02*
X87990000Y-72559000D01*
X90070000Y-72599000D02*
X92120000Y-72599000D01*
X85940000Y-72599000D02*
X87990000Y-72599000D01*
X90070000Y-72639000D02*
X92154000Y-72639000D01*
X85906000Y-72639000D02*
X87990000Y-72639000D01*
X90070000Y-72679000D02*
X92186000Y-72679000D01*
X85874000Y-72679000D02*
X87990000Y-72679000D01*
X90070000Y-72719000D02*
X92219000Y-72719000D01*
X85841000Y-72719000D02*
X87990000Y-72719000D01*
X90070000Y-72759000D02*
X92250000Y-72759000D01*
X85810000Y-72759000D02*
X87990000Y-72759000D01*
X90070000Y-72799000D02*
X92280000Y-72799000D01*
X85780000Y-72799000D02*
X87990000Y-72799000D01*
X90070000Y-72839000D02*
X92310000Y-72839000D01*
X85750000Y-72839000D02*
X87990000Y-72839000D01*
X90070000Y-72879000D02*
X92339000Y-72879000D01*
X85721000Y-72879000D02*
X87990000Y-72879000D01*
X90070000Y-72919000D02*
X92368000Y-72919000D01*
X85692000Y-72919000D02*
X87990000Y-72919000D01*
X90070000Y-72959000D02*
X92395000Y-72959000D01*
X85665000Y-72959000D02*
X87990000Y-72959000D01*
X90070000Y-72999000D02*
X92422000Y-72999000D01*
X85638000Y-72999000D02*
X87990000Y-72999000D01*
X90070000Y-73039000D02*
X92448000Y-73039000D01*
X85612000Y-73039000D02*
X87990000Y-73039000D01*
X90070000Y-73079000D02*
X92474000Y-73079000D01*
X85586000Y-73079000D02*
X87990000Y-73079000D01*
X90070000Y-73119000D02*
X92499000Y-73119000D01*
X85561000Y-73119000D02*
X87990000Y-73119000D01*
X90070000Y-73159000D02*
X92523000Y-73159000D01*
X85537000Y-73159000D02*
X87990000Y-73159000D01*
X90070000Y-73199000D02*
X92547000Y-73199000D01*
X85513000Y-73199000D02*
X87990000Y-73199000D01*
X90070000Y-73239000D02*
X92570000Y-73239000D01*
X85490000Y-73239000D02*
X87990000Y-73239000D01*
X90070000Y-73279000D02*
X92592000Y-73279000D01*
X85468000Y-73279000D02*
X87990000Y-73279000D01*
X90070000Y-73319000D02*
X92614000Y-73319000D01*
X85446000Y-73319000D02*
X87990000Y-73319000D01*
X90070000Y-73359000D02*
X92636000Y-73359000D01*
X85424000Y-73359000D02*
X87990000Y-73359000D01*
X90070000Y-73399000D02*
X92657000Y-73399000D01*
X85403000Y-73399000D02*
X87990000Y-73399000D01*
X90070000Y-73439000D02*
X92677000Y-73439000D01*
X85383000Y-73439000D02*
X87990000Y-73439000D01*
X90070000Y-73479000D02*
X92696000Y-73479000D01*
X85364000Y-73479000D02*
X87990000Y-73479000D01*
X90070000Y-73519000D02*
X92716000Y-73519000D01*
X85344000Y-73519000D02*
X87990000Y-73519000D01*
X90070000Y-73559000D02*
X92734000Y-73559000D01*
X85326000Y-73559000D02*
X87990000Y-73559000D01*
X90070000Y-73599000D02*
X92752000Y-73599000D01*
X85308000Y-73599000D02*
X87990000Y-73599000D01*
X90070000Y-73639000D02*
X92770000Y-73639000D01*
X85290000Y-73639000D02*
X87990000Y-73639000D01*
X90070000Y-73679000D02*
X92787000Y-73679000D01*
X85273000Y-73679000D02*
X87990000Y-73679000D01*
X90070000Y-73719000D02*
X92804000Y-73719000D01*
X85256000Y-73719000D02*
X87990000Y-73719000D01*
X90070000Y-73759000D02*
X92820000Y-73759000D01*
X85240000Y-73759000D02*
X87990000Y-73759000D01*
X90070000Y-73799000D02*
X92835000Y-73799000D01*
X85225000Y-73799000D02*
X87990000Y-73799000D01*
X85209000Y-73839000D02*
X92851000Y-73839000D01*
X85195000Y-73879000D02*
X92865000Y-73879000D01*
X85180000Y-73919000D02*
X92880000Y-73919000D01*
X85167000Y-73959000D02*
X92893000Y-73959000D01*
X85153000Y-73999000D02*
X92907000Y-73999000D01*
X85141000Y-74039000D02*
X92919000Y-74039000D01*
X85128000Y-74079000D02*
X92932000Y-74079000D01*
X85116000Y-74119000D02*
X92944000Y-74119000D01*
X85105000Y-74159000D02*
X92955000Y-74159000D01*
X85094000Y-74199000D02*
X92966000Y-74199000D01*
X85083000Y-74239000D02*
X92977000Y-74239000D01*
X85073000Y-74279000D02*
X92987000Y-74279000D01*
X85063000Y-74319000D02*
X92997000Y-74319000D01*
X85054000Y-74359000D02*
X93006000Y-74359000D01*
X85045000Y-74399000D02*
X93015000Y-74399000D01*
X85036000Y-74439000D02*
X93024000Y-74439000D01*
X85028000Y-74479000D02*
X93032000Y-74479000D01*
X85020000Y-74519000D02*
X93040000Y-74519000D01*
X85013000Y-74559000D02*
X93047000Y-74559000D01*
X85006000Y-74600000D02*
X93054000Y-74600000D01*
X85000000Y-74640000D02*
X93060000Y-74640000D01*
X84993000Y-74680000D02*
X93067000Y-74680000D01*
X84988000Y-74720000D02*
X93072000Y-74720000D01*
X84982000Y-74760000D02*
X93078000Y-74760000D01*
X84978000Y-74800000D02*
X93082000Y-74800000D01*
X84973000Y-74840000D02*
X93087000Y-74840000D01*
X84969000Y-74880000D02*
X93091000Y-74880000D01*
X84965000Y-74920000D02*
X93095000Y-74920000D01*
X84962000Y-74960000D02*
X93098000Y-74960000D01*
X84959000Y-75000000D02*
X93101000Y-75000000D01*
X84956000Y-75040000D02*
X93104000Y-75040000D01*
X84954000Y-75080000D02*
X93106000Y-75080000D01*
X84953000Y-75120000D02*
X93107000Y-75120000D01*
X84951000Y-75160000D02*
X93109000Y-75160000D01*
X84950000Y-75200000D02*
X93110000Y-75200000D01*
X84950000Y-75240000D02*
X93110000Y-75240000D01*
X84950000Y-75280000D02*
X93110000Y-75280000D01*
X93150000Y-75280000D02*
G75*
G03*
X93150000Y-75280000I-4120000J0D01*
G01*
%TO.C,C3*%
X112610000Y-65450000D02*
G75*
G03*
X112610000Y-65450000I-4120000J0D01*
G01*
X108490000Y-61370000D02*
X108490000Y-69530000D01*
X108530000Y-61370000D02*
X108530000Y-69530000D01*
X108570000Y-61370000D02*
X108570000Y-69530000D01*
X108610000Y-61371000D02*
X108610000Y-69529000D01*
X108650000Y-61373000D02*
X108650000Y-69527000D01*
X108690000Y-61374000D02*
X108690000Y-69526000D01*
X108730000Y-61376000D02*
X108730000Y-69524000D01*
X108770000Y-61379000D02*
X108770000Y-69521000D01*
X108810000Y-61382000D02*
X108810000Y-69518000D01*
X108850000Y-61385000D02*
X108850000Y-69515000D01*
X108890000Y-61389000D02*
X108890000Y-69511000D01*
X108930000Y-61393000D02*
X108930000Y-69507000D01*
X108970000Y-61398000D02*
X108970000Y-69502000D01*
X109010000Y-61402000D02*
X109010000Y-69498000D01*
X109050000Y-61408000D02*
X109050000Y-69492000D01*
X109090000Y-61413000D02*
X109090000Y-69487000D01*
X109130000Y-61420000D02*
X109130000Y-69480000D01*
X109170000Y-61426000D02*
X109170000Y-69474000D01*
X109211000Y-61433000D02*
X109211000Y-69467000D01*
X109251000Y-61440000D02*
X109251000Y-69460000D01*
X109291000Y-61448000D02*
X109291000Y-69452000D01*
X109331000Y-61456000D02*
X109331000Y-69444000D01*
X109371000Y-61465000D02*
X109371000Y-69435000D01*
X109411000Y-61474000D02*
X109411000Y-69426000D01*
X109451000Y-61483000D02*
X109451000Y-69417000D01*
X109491000Y-61493000D02*
X109491000Y-69407000D01*
X109531000Y-61503000D02*
X109531000Y-69397000D01*
X109571000Y-61514000D02*
X109571000Y-69386000D01*
X109611000Y-61525000D02*
X109611000Y-69375000D01*
X109651000Y-61536000D02*
X109651000Y-69364000D01*
X109691000Y-61548000D02*
X109691000Y-69352000D01*
X109731000Y-61561000D02*
X109731000Y-69339000D01*
X109771000Y-61573000D02*
X109771000Y-69327000D01*
X109811000Y-61587000D02*
X109811000Y-69313000D01*
X109851000Y-61600000D02*
X109851000Y-69300000D01*
X109891000Y-61615000D02*
X109891000Y-69285000D01*
X109931000Y-61629000D02*
X109931000Y-69271000D01*
X109971000Y-61645000D02*
X109971000Y-64410000D01*
X109971000Y-66490000D02*
X109971000Y-69255000D01*
X110011000Y-61660000D02*
X110011000Y-64410000D01*
X110011000Y-66490000D02*
X110011000Y-69240000D01*
X110051000Y-61676000D02*
X110051000Y-64410000D01*
X110051000Y-66490000D02*
X110051000Y-69224000D01*
X110091000Y-61693000D02*
X110091000Y-64410000D01*
X110091000Y-66490000D02*
X110091000Y-69207000D01*
X110131000Y-61710000D02*
X110131000Y-64410000D01*
X110131000Y-66490000D02*
X110131000Y-69190000D01*
X110171000Y-61728000D02*
X110171000Y-64410000D01*
X110171000Y-66490000D02*
X110171000Y-69172000D01*
X110211000Y-61746000D02*
X110211000Y-64410000D01*
X110211000Y-66490000D02*
X110211000Y-69154000D01*
X110251000Y-61764000D02*
X110251000Y-64410000D01*
X110251000Y-66490000D02*
X110251000Y-69136000D01*
X110291000Y-61784000D02*
X110291000Y-64410000D01*
X110291000Y-66490000D02*
X110291000Y-69116000D01*
X110331000Y-61803000D02*
X110331000Y-64410000D01*
X110331000Y-66490000D02*
X110331000Y-69097000D01*
X110371000Y-61823000D02*
X110371000Y-64410000D01*
X110371000Y-66490000D02*
X110371000Y-69077000D01*
X110411000Y-61844000D02*
X110411000Y-64410000D01*
X110411000Y-66490000D02*
X110411000Y-69056000D01*
X110451000Y-61866000D02*
X110451000Y-64410000D01*
X110451000Y-66490000D02*
X110451000Y-69034000D01*
X110491000Y-61888000D02*
X110491000Y-64410000D01*
X110491000Y-66490000D02*
X110491000Y-69012000D01*
X110531000Y-61910000D02*
X110531000Y-64410000D01*
X110531000Y-66490000D02*
X110531000Y-68990000D01*
X110571000Y-61933000D02*
X110571000Y-64410000D01*
X110571000Y-66490000D02*
X110571000Y-68967000D01*
X110611000Y-61957000D02*
X110611000Y-64410000D01*
X110611000Y-66490000D02*
X110611000Y-68943000D01*
X110651000Y-61981000D02*
X110651000Y-64410000D01*
X110651000Y-66490000D02*
X110651000Y-68919000D01*
X110691000Y-62006000D02*
X110691000Y-64410000D01*
X110691000Y-66490000D02*
X110691000Y-68894000D01*
X110731000Y-62032000D02*
X110731000Y-64410000D01*
X110731000Y-66490000D02*
X110731000Y-68868000D01*
X110771000Y-62058000D02*
X110771000Y-64410000D01*
X110771000Y-66490000D02*
X110771000Y-68842000D01*
X110811000Y-62085000D02*
X110811000Y-64410000D01*
X110811000Y-66490000D02*
X110811000Y-68815000D01*
X110851000Y-62112000D02*
X110851000Y-64410000D01*
X110851000Y-66490000D02*
X110851000Y-68788000D01*
X110891000Y-62141000D02*
X110891000Y-64410000D01*
X110891000Y-66490000D02*
X110891000Y-68759000D01*
X110931000Y-62170000D02*
X110931000Y-64410000D01*
X110931000Y-66490000D02*
X110931000Y-68730000D01*
X110971000Y-62200000D02*
X110971000Y-64410000D01*
X110971000Y-66490000D02*
X110971000Y-68700000D01*
X111011000Y-62230000D02*
X111011000Y-64410000D01*
X111011000Y-66490000D02*
X111011000Y-68670000D01*
X111051000Y-62261000D02*
X111051000Y-64410000D01*
X111051000Y-66490000D02*
X111051000Y-68639000D01*
X111091000Y-62294000D02*
X111091000Y-64410000D01*
X111091000Y-66490000D02*
X111091000Y-68606000D01*
X111131000Y-62326000D02*
X111131000Y-64410000D01*
X111131000Y-66490000D02*
X111131000Y-68574000D01*
X111171000Y-62360000D02*
X111171000Y-64410000D01*
X111171000Y-66490000D02*
X111171000Y-68540000D01*
X111211000Y-62395000D02*
X111211000Y-64410000D01*
X111211000Y-66490000D02*
X111211000Y-68505000D01*
X111251000Y-62431000D02*
X111251000Y-64410000D01*
X111251000Y-66490000D02*
X111251000Y-68469000D01*
X111291000Y-62467000D02*
X111291000Y-64410000D01*
X111291000Y-66490000D02*
X111291000Y-68433000D01*
X111331000Y-62505000D02*
X111331000Y-64410000D01*
X111331000Y-66490000D02*
X111331000Y-68395000D01*
X111371000Y-62543000D02*
X111371000Y-64410000D01*
X111371000Y-66490000D02*
X111371000Y-68357000D01*
X111411000Y-62583000D02*
X111411000Y-64410000D01*
X111411000Y-66490000D02*
X111411000Y-68317000D01*
X111451000Y-62624000D02*
X111451000Y-64410000D01*
X111451000Y-66490000D02*
X111451000Y-68276000D01*
X111491000Y-62666000D02*
X111491000Y-64410000D01*
X111491000Y-66490000D02*
X111491000Y-68234000D01*
X111531000Y-62709000D02*
X111531000Y-64410000D01*
X111531000Y-66490000D02*
X111531000Y-68191000D01*
X111571000Y-62753000D02*
X111571000Y-64410000D01*
X111571000Y-66490000D02*
X111571000Y-68147000D01*
X111611000Y-62799000D02*
X111611000Y-64410000D01*
X111611000Y-66490000D02*
X111611000Y-68101000D01*
X111651000Y-62846000D02*
X111651000Y-64410000D01*
X111651000Y-66490000D02*
X111651000Y-68054000D01*
X111691000Y-62894000D02*
X111691000Y-64410000D01*
X111691000Y-66490000D02*
X111691000Y-68006000D01*
X111731000Y-62945000D02*
X111731000Y-64410000D01*
X111731000Y-66490000D02*
X111731000Y-67955000D01*
X111771000Y-62996000D02*
X111771000Y-64410000D01*
X111771000Y-66490000D02*
X111771000Y-67904000D01*
X111811000Y-63050000D02*
X111811000Y-64410000D01*
X111811000Y-66490000D02*
X111811000Y-67850000D01*
X111851000Y-63105000D02*
X111851000Y-64410000D01*
X111851000Y-66490000D02*
X111851000Y-67795000D01*
X111891000Y-63163000D02*
X111891000Y-64410000D01*
X111891000Y-66490000D02*
X111891000Y-67737000D01*
X111931000Y-63222000D02*
X111931000Y-64410000D01*
X111931000Y-66490000D02*
X111931000Y-67678000D01*
X111971000Y-63284000D02*
X111971000Y-64410000D01*
X111971000Y-66490000D02*
X111971000Y-67616000D01*
X112011000Y-63348000D02*
X112011000Y-64410000D01*
X112011000Y-66490000D02*
X112011000Y-67552000D01*
X112051000Y-63416000D02*
X112051000Y-67484000D01*
X112091000Y-63486000D02*
X112091000Y-67414000D01*
X112131000Y-63560000D02*
X112131000Y-67340000D01*
X112171000Y-63637000D02*
X112171000Y-67263000D01*
X112211000Y-63719000D02*
X112211000Y-67181000D01*
X112251000Y-63805000D02*
X112251000Y-67095000D01*
X112291000Y-63898000D02*
X112291000Y-67002000D01*
X112331000Y-63997000D02*
X112331000Y-66903000D01*
X112371000Y-64104000D02*
X112371000Y-66796000D01*
X112411000Y-64221000D02*
X112411000Y-66679000D01*
X112451000Y-64352000D02*
X112451000Y-66548000D01*
X112491000Y-64502000D02*
X112491000Y-66398000D01*
X112531000Y-64682000D02*
X112531000Y-66218000D01*
X112571000Y-64917000D02*
X112571000Y-65983000D01*
X104080302Y-63135000D02*
X104880302Y-63135000D01*
X104480302Y-62735000D02*
X104480302Y-63535000D01*
%TO.C,C4*%
X121850000Y-65980000D02*
G75*
G03*
X121850000Y-65980000I-4120000J0D01*
G01*
X117730000Y-61900000D02*
X117730000Y-70060000D01*
X117770000Y-61900000D02*
X117770000Y-70060000D01*
X117810000Y-61900000D02*
X117810000Y-70060000D01*
X117850000Y-61901000D02*
X117850000Y-70059000D01*
X117890000Y-61903000D02*
X117890000Y-70057000D01*
X117930000Y-61904000D02*
X117930000Y-70056000D01*
X117970000Y-61906000D02*
X117970000Y-70054000D01*
X118010000Y-61909000D02*
X118010000Y-70051000D01*
X118050000Y-61912000D02*
X118050000Y-70048000D01*
X118090000Y-61915000D02*
X118090000Y-70045000D01*
X118130000Y-61919000D02*
X118130000Y-70041000D01*
X118170000Y-61923000D02*
X118170000Y-70037000D01*
X118210000Y-61928000D02*
X118210000Y-70032000D01*
X118250000Y-61932000D02*
X118250000Y-70028000D01*
X118290000Y-61938000D02*
X118290000Y-70022000D01*
X118330000Y-61943000D02*
X118330000Y-70017000D01*
X118370000Y-61950000D02*
X118370000Y-70010000D01*
X118410000Y-61956000D02*
X118410000Y-70004000D01*
X118451000Y-61963000D02*
X118451000Y-69997000D01*
X118491000Y-61970000D02*
X118491000Y-69990000D01*
X118531000Y-61978000D02*
X118531000Y-69982000D01*
X118571000Y-61986000D02*
X118571000Y-69974000D01*
X118611000Y-61995000D02*
X118611000Y-69965000D01*
X118651000Y-62004000D02*
X118651000Y-69956000D01*
X118691000Y-62013000D02*
X118691000Y-69947000D01*
X118731000Y-62023000D02*
X118731000Y-69937000D01*
X118771000Y-62033000D02*
X118771000Y-69927000D01*
X118811000Y-62044000D02*
X118811000Y-69916000D01*
X118851000Y-62055000D02*
X118851000Y-69905000D01*
X118891000Y-62066000D02*
X118891000Y-69894000D01*
X118931000Y-62078000D02*
X118931000Y-69882000D01*
X118971000Y-62091000D02*
X118971000Y-69869000D01*
X119011000Y-62103000D02*
X119011000Y-69857000D01*
X119051000Y-62117000D02*
X119051000Y-69843000D01*
X119091000Y-62130000D02*
X119091000Y-69830000D01*
X119131000Y-62145000D02*
X119131000Y-69815000D01*
X119171000Y-62159000D02*
X119171000Y-69801000D01*
X119211000Y-62175000D02*
X119211000Y-64940000D01*
X119211000Y-67020000D02*
X119211000Y-69785000D01*
X119251000Y-62190000D02*
X119251000Y-64940000D01*
X119251000Y-67020000D02*
X119251000Y-69770000D01*
X119291000Y-62206000D02*
X119291000Y-64940000D01*
X119291000Y-67020000D02*
X119291000Y-69754000D01*
X119331000Y-62223000D02*
X119331000Y-64940000D01*
X119331000Y-67020000D02*
X119331000Y-69737000D01*
X119371000Y-62240000D02*
X119371000Y-64940000D01*
X119371000Y-67020000D02*
X119371000Y-69720000D01*
X119411000Y-62258000D02*
X119411000Y-64940000D01*
X119411000Y-67020000D02*
X119411000Y-69702000D01*
X119451000Y-62276000D02*
X119451000Y-64940000D01*
X119451000Y-67020000D02*
X119451000Y-69684000D01*
X119491000Y-62294000D02*
X119491000Y-64940000D01*
X119491000Y-67020000D02*
X119491000Y-69666000D01*
X119531000Y-62314000D02*
X119531000Y-64940000D01*
X119531000Y-67020000D02*
X119531000Y-69646000D01*
X119571000Y-62333000D02*
X119571000Y-64940000D01*
X119571000Y-67020000D02*
X119571000Y-69627000D01*
X119611000Y-62353000D02*
X119611000Y-64940000D01*
X119611000Y-67020000D02*
X119611000Y-69607000D01*
X119651000Y-62374000D02*
X119651000Y-64940000D01*
X119651000Y-67020000D02*
X119651000Y-69586000D01*
X119691000Y-62396000D02*
X119691000Y-64940000D01*
X119691000Y-67020000D02*
X119691000Y-69564000D01*
X119731000Y-62418000D02*
X119731000Y-64940000D01*
X119731000Y-67020000D02*
X119731000Y-69542000D01*
X119771000Y-62440000D02*
X119771000Y-64940000D01*
X119771000Y-67020000D02*
X119771000Y-69520000D01*
X119811000Y-62463000D02*
X119811000Y-64940000D01*
X119811000Y-67020000D02*
X119811000Y-69497000D01*
X119851000Y-62487000D02*
X119851000Y-64940000D01*
X119851000Y-67020000D02*
X119851000Y-69473000D01*
X119891000Y-62511000D02*
X119891000Y-64940000D01*
X119891000Y-67020000D02*
X119891000Y-69449000D01*
X119931000Y-62536000D02*
X119931000Y-64940000D01*
X119931000Y-67020000D02*
X119931000Y-69424000D01*
X119971000Y-62562000D02*
X119971000Y-64940000D01*
X119971000Y-67020000D02*
X119971000Y-69398000D01*
X120011000Y-62588000D02*
X120011000Y-64940000D01*
X120011000Y-67020000D02*
X120011000Y-69372000D01*
X120051000Y-62615000D02*
X120051000Y-64940000D01*
X120051000Y-67020000D02*
X120051000Y-69345000D01*
X120091000Y-62642000D02*
X120091000Y-64940000D01*
X120091000Y-67020000D02*
X120091000Y-69318000D01*
X120131000Y-62671000D02*
X120131000Y-64940000D01*
X120131000Y-67020000D02*
X120131000Y-69289000D01*
X120171000Y-62700000D02*
X120171000Y-64940000D01*
X120171000Y-67020000D02*
X120171000Y-69260000D01*
X120211000Y-62730000D02*
X120211000Y-64940000D01*
X120211000Y-67020000D02*
X120211000Y-69230000D01*
X120251000Y-62760000D02*
X120251000Y-64940000D01*
X120251000Y-67020000D02*
X120251000Y-69200000D01*
X120291000Y-62791000D02*
X120291000Y-64940000D01*
X120291000Y-67020000D02*
X120291000Y-69169000D01*
X120331000Y-62824000D02*
X120331000Y-64940000D01*
X120331000Y-67020000D02*
X120331000Y-69136000D01*
X120371000Y-62856000D02*
X120371000Y-64940000D01*
X120371000Y-67020000D02*
X120371000Y-69104000D01*
X120411000Y-62890000D02*
X120411000Y-64940000D01*
X120411000Y-67020000D02*
X120411000Y-69070000D01*
X120451000Y-62925000D02*
X120451000Y-64940000D01*
X120451000Y-67020000D02*
X120451000Y-69035000D01*
X120491000Y-62961000D02*
X120491000Y-64940000D01*
X120491000Y-67020000D02*
X120491000Y-68999000D01*
X120531000Y-62997000D02*
X120531000Y-64940000D01*
X120531000Y-67020000D02*
X120531000Y-68963000D01*
X120571000Y-63035000D02*
X120571000Y-64940000D01*
X120571000Y-67020000D02*
X120571000Y-68925000D01*
X120611000Y-63073000D02*
X120611000Y-64940000D01*
X120611000Y-67020000D02*
X120611000Y-68887000D01*
X120651000Y-63113000D02*
X120651000Y-64940000D01*
X120651000Y-67020000D02*
X120651000Y-68847000D01*
X120691000Y-63154000D02*
X120691000Y-64940000D01*
X120691000Y-67020000D02*
X120691000Y-68806000D01*
X120731000Y-63196000D02*
X120731000Y-64940000D01*
X120731000Y-67020000D02*
X120731000Y-68764000D01*
X120771000Y-63239000D02*
X120771000Y-64940000D01*
X120771000Y-67020000D02*
X120771000Y-68721000D01*
X120811000Y-63283000D02*
X120811000Y-64940000D01*
X120811000Y-67020000D02*
X120811000Y-68677000D01*
X120851000Y-63329000D02*
X120851000Y-64940000D01*
X120851000Y-67020000D02*
X120851000Y-68631000D01*
X120891000Y-63376000D02*
X120891000Y-64940000D01*
X120891000Y-67020000D02*
X120891000Y-68584000D01*
X120931000Y-63424000D02*
X120931000Y-64940000D01*
X120931000Y-67020000D02*
X120931000Y-68536000D01*
X120971000Y-63475000D02*
X120971000Y-64940000D01*
X120971000Y-67020000D02*
X120971000Y-68485000D01*
X121011000Y-63526000D02*
X121011000Y-64940000D01*
X121011000Y-67020000D02*
X121011000Y-68434000D01*
X121051000Y-63580000D02*
X121051000Y-64940000D01*
X121051000Y-67020000D02*
X121051000Y-68380000D01*
X121091000Y-63635000D02*
X121091000Y-64940000D01*
X121091000Y-67020000D02*
X121091000Y-68325000D01*
X121131000Y-63693000D02*
X121131000Y-64940000D01*
X121131000Y-67020000D02*
X121131000Y-68267000D01*
X121171000Y-63752000D02*
X121171000Y-64940000D01*
X121171000Y-67020000D02*
X121171000Y-68208000D01*
X121211000Y-63814000D02*
X121211000Y-64940000D01*
X121211000Y-67020000D02*
X121211000Y-68146000D01*
X121251000Y-63878000D02*
X121251000Y-64940000D01*
X121251000Y-67020000D02*
X121251000Y-68082000D01*
X121291000Y-63946000D02*
X121291000Y-68014000D01*
X121331000Y-64016000D02*
X121331000Y-67944000D01*
X121371000Y-64090000D02*
X121371000Y-67870000D01*
X121411000Y-64167000D02*
X121411000Y-67793000D01*
X121451000Y-64249000D02*
X121451000Y-67711000D01*
X121491000Y-64335000D02*
X121491000Y-67625000D01*
X121531000Y-64428000D02*
X121531000Y-67532000D01*
X121571000Y-64527000D02*
X121571000Y-67433000D01*
X121611000Y-64634000D02*
X121611000Y-67326000D01*
X121651000Y-64751000D02*
X121651000Y-67209000D01*
X121691000Y-64882000D02*
X121691000Y-67078000D01*
X121731000Y-65032000D02*
X121731000Y-66928000D01*
X121771000Y-65212000D02*
X121771000Y-66748000D01*
X121811000Y-65447000D02*
X121811000Y-66513000D01*
X113320302Y-63665000D02*
X114120302Y-63665000D01*
X113720302Y-63265000D02*
X113720302Y-64065000D01*
%TO.C,C5*%
X103689698Y-67705000D02*
X103689698Y-66905000D01*
X104089698Y-67305000D02*
X103289698Y-67305000D01*
X95599000Y-65523000D02*
X95599000Y-64457000D01*
X95639000Y-65758000D02*
X95639000Y-64222000D01*
X95679000Y-65938000D02*
X95679000Y-64042000D01*
X95719000Y-66088000D02*
X95719000Y-63892000D01*
X95759000Y-66219000D02*
X95759000Y-63761000D01*
X95799000Y-66336000D02*
X95799000Y-63644000D01*
X95839000Y-66443000D02*
X95839000Y-63537000D01*
X95879000Y-66542000D02*
X95879000Y-63438000D01*
X95919000Y-66635000D02*
X95919000Y-63345000D01*
X95959000Y-66721000D02*
X95959000Y-63259000D01*
X95999000Y-66803000D02*
X95999000Y-63177000D01*
X96039000Y-66880000D02*
X96039000Y-63100000D01*
X96079000Y-66954000D02*
X96079000Y-63026000D01*
X96119000Y-67024000D02*
X96119000Y-62956000D01*
X96159000Y-63950000D02*
X96159000Y-62888000D01*
X96159000Y-67092000D02*
X96159000Y-66030000D01*
X96199000Y-63950000D02*
X96199000Y-62824000D01*
X96199000Y-67156000D02*
X96199000Y-66030000D01*
X96239000Y-63950000D02*
X96239000Y-62762000D01*
X96239000Y-67218000D02*
X96239000Y-66030000D01*
X96279000Y-63950000D02*
X96279000Y-62703000D01*
X96279000Y-67277000D02*
X96279000Y-66030000D01*
X96319000Y-63950000D02*
X96319000Y-62645000D01*
X96319000Y-67335000D02*
X96319000Y-66030000D01*
X96359000Y-63950000D02*
X96359000Y-62590000D01*
X96359000Y-67390000D02*
X96359000Y-66030000D01*
X96399000Y-63950000D02*
X96399000Y-62536000D01*
X96399000Y-67444000D02*
X96399000Y-66030000D01*
X96439000Y-63950000D02*
X96439000Y-62485000D01*
X96439000Y-67495000D02*
X96439000Y-66030000D01*
X96479000Y-63950000D02*
X96479000Y-62434000D01*
X96479000Y-67546000D02*
X96479000Y-66030000D01*
X96519000Y-63950000D02*
X96519000Y-62386000D01*
X96519000Y-67594000D02*
X96519000Y-66030000D01*
X96559000Y-63950000D02*
X96559000Y-62339000D01*
X96559000Y-67641000D02*
X96559000Y-66030000D01*
X96599000Y-63950000D02*
X96599000Y-62293000D01*
X96599000Y-67687000D02*
X96599000Y-66030000D01*
X96639000Y-63950000D02*
X96639000Y-62249000D01*
X96639000Y-67731000D02*
X96639000Y-66030000D01*
X96679000Y-63950000D02*
X96679000Y-62206000D01*
X96679000Y-67774000D02*
X96679000Y-66030000D01*
X96719000Y-63950000D02*
X96719000Y-62164000D01*
X96719000Y-67816000D02*
X96719000Y-66030000D01*
X96759000Y-63950000D02*
X96759000Y-62123000D01*
X96759000Y-67857000D02*
X96759000Y-66030000D01*
X96799000Y-63950000D02*
X96799000Y-62083000D01*
X96799000Y-67897000D02*
X96799000Y-66030000D01*
X96839000Y-63950000D02*
X96839000Y-62045000D01*
X96839000Y-67935000D02*
X96839000Y-66030000D01*
X96879000Y-63950000D02*
X96879000Y-62007000D01*
X96879000Y-67973000D02*
X96879000Y-66030000D01*
X96919000Y-63950000D02*
X96919000Y-61971000D01*
X96919000Y-68009000D02*
X96919000Y-66030000D01*
X96959000Y-63950000D02*
X96959000Y-61935000D01*
X96959000Y-68045000D02*
X96959000Y-66030000D01*
X96999000Y-63950000D02*
X96999000Y-61900000D01*
X96999000Y-68080000D02*
X96999000Y-66030000D01*
X97039000Y-63950000D02*
X97039000Y-61866000D01*
X97039000Y-68114000D02*
X97039000Y-66030000D01*
X97079000Y-63950000D02*
X97079000Y-61834000D01*
X97079000Y-68146000D02*
X97079000Y-66030000D01*
X97119000Y-63950000D02*
X97119000Y-61801000D01*
X97119000Y-68179000D02*
X97119000Y-66030000D01*
X97159000Y-63950000D02*
X97159000Y-61770000D01*
X97159000Y-68210000D02*
X97159000Y-66030000D01*
X97199000Y-63950000D02*
X97199000Y-61740000D01*
X97199000Y-68240000D02*
X97199000Y-66030000D01*
X97239000Y-63950000D02*
X97239000Y-61710000D01*
X97239000Y-68270000D02*
X97239000Y-66030000D01*
X97279000Y-63950000D02*
X97279000Y-61681000D01*
X97279000Y-68299000D02*
X97279000Y-66030000D01*
X97319000Y-63950000D02*
X97319000Y-61652000D01*
X97319000Y-68328000D02*
X97319000Y-66030000D01*
X97359000Y-63950000D02*
X97359000Y-61625000D01*
X97359000Y-68355000D02*
X97359000Y-66030000D01*
X97399000Y-63950000D02*
X97399000Y-61598000D01*
X97399000Y-68382000D02*
X97399000Y-66030000D01*
X97439000Y-63950000D02*
X97439000Y-61572000D01*
X97439000Y-68408000D02*
X97439000Y-66030000D01*
X97479000Y-63950000D02*
X97479000Y-61546000D01*
X97479000Y-68434000D02*
X97479000Y-66030000D01*
X97519000Y-63950000D02*
X97519000Y-61521000D01*
X97519000Y-68459000D02*
X97519000Y-66030000D01*
X97559000Y-63950000D02*
X97559000Y-61497000D01*
X97559000Y-68483000D02*
X97559000Y-66030000D01*
X97599000Y-63950000D02*
X97599000Y-61473000D01*
X97599000Y-68507000D02*
X97599000Y-66030000D01*
X97639000Y-63950000D02*
X97639000Y-61450000D01*
X97639000Y-68530000D02*
X97639000Y-66030000D01*
X97679000Y-63950000D02*
X97679000Y-61428000D01*
X97679000Y-68552000D02*
X97679000Y-66030000D01*
X97719000Y-63950000D02*
X97719000Y-61406000D01*
X97719000Y-68574000D02*
X97719000Y-66030000D01*
X97759000Y-63950000D02*
X97759000Y-61384000D01*
X97759000Y-68596000D02*
X97759000Y-66030000D01*
X97799000Y-63950000D02*
X97799000Y-61363000D01*
X97799000Y-68617000D02*
X97799000Y-66030000D01*
X97839000Y-63950000D02*
X97839000Y-61343000D01*
X97839000Y-68637000D02*
X97839000Y-66030000D01*
X97879000Y-63950000D02*
X97879000Y-61324000D01*
X97879000Y-68656000D02*
X97879000Y-66030000D01*
X97919000Y-63950000D02*
X97919000Y-61304000D01*
X97919000Y-68676000D02*
X97919000Y-66030000D01*
X97959000Y-63950000D02*
X97959000Y-61286000D01*
X97959000Y-68694000D02*
X97959000Y-66030000D01*
X97999000Y-63950000D02*
X97999000Y-61268000D01*
X97999000Y-68712000D02*
X97999000Y-66030000D01*
X98039000Y-63950000D02*
X98039000Y-61250000D01*
X98039000Y-68730000D02*
X98039000Y-66030000D01*
X98079000Y-63950000D02*
X98079000Y-61233000D01*
X98079000Y-68747000D02*
X98079000Y-66030000D01*
X98119000Y-63950000D02*
X98119000Y-61216000D01*
X98119000Y-68764000D02*
X98119000Y-66030000D01*
X98159000Y-63950000D02*
X98159000Y-61200000D01*
X98159000Y-68780000D02*
X98159000Y-66030000D01*
X98199000Y-63950000D02*
X98199000Y-61185000D01*
X98199000Y-68795000D02*
X98199000Y-66030000D01*
X98239000Y-68811000D02*
X98239000Y-61169000D01*
X98279000Y-68825000D02*
X98279000Y-61155000D01*
X98319000Y-68840000D02*
X98319000Y-61140000D01*
X98359000Y-68853000D02*
X98359000Y-61127000D01*
X98399000Y-68867000D02*
X98399000Y-61113000D01*
X98439000Y-68879000D02*
X98439000Y-61101000D01*
X98479000Y-68892000D02*
X98479000Y-61088000D01*
X98519000Y-68904000D02*
X98519000Y-61076000D01*
X98559000Y-68915000D02*
X98559000Y-61065000D01*
X98599000Y-68926000D02*
X98599000Y-61054000D01*
X98639000Y-68937000D02*
X98639000Y-61043000D01*
X98679000Y-68947000D02*
X98679000Y-61033000D01*
X98719000Y-68957000D02*
X98719000Y-61023000D01*
X98759000Y-68966000D02*
X98759000Y-61014000D01*
X98799000Y-68975000D02*
X98799000Y-61005000D01*
X98839000Y-68984000D02*
X98839000Y-60996000D01*
X98879000Y-68992000D02*
X98879000Y-60988000D01*
X98919000Y-69000000D02*
X98919000Y-60980000D01*
X98959000Y-69007000D02*
X98959000Y-60973000D01*
X99000000Y-69014000D02*
X99000000Y-60966000D01*
X99040000Y-69020000D02*
X99040000Y-60960000D01*
X99080000Y-69027000D02*
X99080000Y-60953000D01*
X99120000Y-69032000D02*
X99120000Y-60948000D01*
X99160000Y-69038000D02*
X99160000Y-60942000D01*
X99200000Y-69042000D02*
X99200000Y-60938000D01*
X99240000Y-69047000D02*
X99240000Y-60933000D01*
X99280000Y-69051000D02*
X99280000Y-60929000D01*
X99320000Y-69055000D02*
X99320000Y-60925000D01*
X99360000Y-69058000D02*
X99360000Y-60922000D01*
X99400000Y-69061000D02*
X99400000Y-60919000D01*
X99440000Y-69064000D02*
X99440000Y-60916000D01*
X99480000Y-69066000D02*
X99480000Y-60914000D01*
X99520000Y-69067000D02*
X99520000Y-60913000D01*
X99560000Y-69069000D02*
X99560000Y-60911000D01*
X99600000Y-69070000D02*
X99600000Y-60910000D01*
X99640000Y-69070000D02*
X99640000Y-60910000D01*
X99680000Y-69070000D02*
X99680000Y-60910000D01*
X103800000Y-64990000D02*
G75*
G03*
X103800000Y-64990000I-4120000J0D01*
G01*
%TO.C,J1*%
X122080000Y-98750000D02*
X112080000Y-98750000D01*
X112080000Y-98750000D02*
X112080000Y-91250000D01*
X112080000Y-91250000D02*
X122080000Y-91250000D01*
X122080000Y-91250000D02*
X122080000Y-98750000D01*
X121382776Y-96250000D02*
G75*
G03*
X121382776Y-96250000I-1802776J0D01*
G01*
X116382776Y-96250000D02*
G75*
G03*
X116382776Y-96250000I-1802776J0D01*
G01*
X120080000Y-98000000D02*
X120080000Y-94500000D01*
X120080000Y-94500000D02*
X120330000Y-94500000D01*
X119080000Y-98000000D02*
X119080000Y-94500000D01*
X115080000Y-98000000D02*
X115080000Y-94500000D01*
X114080000Y-98000000D02*
X114080000Y-94500000D01*
X112080000Y-98000000D02*
X111580000Y-98000000D01*
X111580000Y-98000000D02*
X111580000Y-97500000D01*
X111580000Y-97500000D02*
X112080000Y-97500000D01*
X122080000Y-98250000D02*
X121580000Y-98250000D01*
X121580000Y-98250000D02*
X121580000Y-97750000D01*
X121580000Y-97750000D02*
X122080000Y-97750000D01*
X122080000Y-93500000D02*
X112080000Y-93500000D01*
%TO.C,J2*%
X125340000Y-96510000D02*
X135340000Y-96510000D01*
X125840000Y-92260000D02*
X125340000Y-92260000D01*
X125840000Y-91760000D02*
X125840000Y-92260000D01*
X125340000Y-91760000D02*
X125840000Y-91760000D01*
X135840000Y-92510000D02*
X135340000Y-92510000D01*
X135840000Y-92010000D02*
X135840000Y-92510000D01*
X135340000Y-92010000D02*
X135840000Y-92010000D01*
X133340000Y-92010000D02*
X133340000Y-95510000D01*
X132340000Y-92010000D02*
X132340000Y-95510000D01*
X128340000Y-92010000D02*
X128340000Y-95510000D01*
X127340000Y-95510000D02*
X127090000Y-95510000D01*
X127340000Y-92010000D02*
X127340000Y-95510000D01*
X134642776Y-93760000D02*
G75*
G03*
X134642776Y-93760000I-1802776J0D01*
G01*
X129642776Y-93760000D02*
G75*
G03*
X129642776Y-93760000I-1802776J0D01*
G01*
X125340000Y-98760000D02*
X125340000Y-91260000D01*
X135340000Y-98760000D02*
X125340000Y-98760000D01*
X135340000Y-91260000D02*
X135340000Y-98760000D01*
X125340000Y-91260000D02*
X135340000Y-91260000D01*
%TO.C,L1*%
X95740000Y-87110000D02*
X100980000Y-87110000D01*
X100980000Y-87110000D02*
X100980000Y-74870000D01*
X100980000Y-74870000D02*
X95740000Y-74870000D01*
X95740000Y-74870000D02*
X95740000Y-87110000D01*
X98360000Y-87170000D02*
X98360000Y-87110000D01*
X98360000Y-74810000D02*
X98360000Y-74870000D01*
%TO.C,R1*%
X115710000Y-75660000D02*
X113870000Y-75660000D01*
X113870000Y-75660000D02*
X113870000Y-79500000D01*
X113870000Y-79500000D02*
X115710000Y-79500000D01*
X115710000Y-79500000D02*
X115710000Y-75660000D01*
X114790000Y-74710000D02*
X114790000Y-75660000D01*
X114790000Y-80450000D02*
X114790000Y-79500000D01*
%TO.C,R2*%
X104020000Y-91300000D02*
X104970000Y-91300000D01*
X109760000Y-91300000D02*
X108810000Y-91300000D01*
X104970000Y-92220000D02*
X108810000Y-92220000D01*
X104970000Y-90380000D02*
X104970000Y-92220000D01*
X108810000Y-90380000D02*
X104970000Y-90380000D01*
X108810000Y-92220000D02*
X108810000Y-90380000D01*
%TO.C,U1*%
D11*
X106728095Y-70692380D02*
X106728095Y-71501904D01*
X106775714Y-71597142D01*
X106823333Y-71644761D01*
X106918571Y-71692380D01*
X107109047Y-71692380D01*
X107204285Y-71644761D01*
X107251904Y-71597142D01*
X107299523Y-71501904D01*
X107299523Y-70692380D01*
X108299523Y-71692380D02*
X107728095Y-71692380D01*
X108013809Y-71692380D02*
X108013809Y-70692380D01*
X107918571Y-70835238D01*
X107823333Y-70930476D01*
X107728095Y-70978095D01*
%TO.C,C1*%
X117357142Y-77916666D02*
X117404761Y-77964285D01*
X117452380Y-78107142D01*
X117452380Y-78202380D01*
X117404761Y-78345238D01*
X117309523Y-78440476D01*
X117214285Y-78488095D01*
X117023809Y-78535714D01*
X116880952Y-78535714D01*
X116690476Y-78488095D01*
X116595238Y-78440476D01*
X116500000Y-78345238D01*
X116452380Y-78202380D01*
X116452380Y-78107142D01*
X116500000Y-77964285D01*
X116547619Y-77916666D01*
X117452380Y-76964285D02*
X117452380Y-77535714D01*
X117452380Y-77250000D02*
X116452380Y-77250000D01*
X116595238Y-77345238D01*
X116690476Y-77440476D01*
X116738095Y-77535714D01*
%TO.C,C2*%
X84137142Y-75446666D02*
X84184761Y-75494285D01*
X84232380Y-75637142D01*
X84232380Y-75732380D01*
X84184761Y-75875238D01*
X84089523Y-75970476D01*
X83994285Y-76018095D01*
X83803809Y-76065714D01*
X83660952Y-76065714D01*
X83470476Y-76018095D01*
X83375238Y-75970476D01*
X83280000Y-75875238D01*
X83232380Y-75732380D01*
X83232380Y-75637142D01*
X83280000Y-75494285D01*
X83327619Y-75446666D01*
X83327619Y-75065714D02*
X83280000Y-75018095D01*
X83232380Y-74922857D01*
X83232380Y-74684761D01*
X83280000Y-74589523D01*
X83327619Y-74541904D01*
X83422857Y-74494285D01*
X83518095Y-74494285D01*
X83660952Y-74541904D01*
X84232380Y-75113333D01*
X84232380Y-74494285D01*
%TO.C,C3*%
X108323333Y-60557142D02*
X108275714Y-60604761D01*
X108132857Y-60652380D01*
X108037619Y-60652380D01*
X107894761Y-60604761D01*
X107799523Y-60509523D01*
X107751904Y-60414285D01*
X107704285Y-60223809D01*
X107704285Y-60080952D01*
X107751904Y-59890476D01*
X107799523Y-59795238D01*
X107894761Y-59700000D01*
X108037619Y-59652380D01*
X108132857Y-59652380D01*
X108275714Y-59700000D01*
X108323333Y-59747619D01*
X108656666Y-59652380D02*
X109275714Y-59652380D01*
X108942380Y-60033333D01*
X109085238Y-60033333D01*
X109180476Y-60080952D01*
X109228095Y-60128571D01*
X109275714Y-60223809D01*
X109275714Y-60461904D01*
X109228095Y-60557142D01*
X109180476Y-60604761D01*
X109085238Y-60652380D01*
X108799523Y-60652380D01*
X108704285Y-60604761D01*
X108656666Y-60557142D01*
%TO.C,C4*%
X117563333Y-61087142D02*
X117515714Y-61134761D01*
X117372857Y-61182380D01*
X117277619Y-61182380D01*
X117134761Y-61134761D01*
X117039523Y-61039523D01*
X116991904Y-60944285D01*
X116944285Y-60753809D01*
X116944285Y-60610952D01*
X116991904Y-60420476D01*
X117039523Y-60325238D01*
X117134761Y-60230000D01*
X117277619Y-60182380D01*
X117372857Y-60182380D01*
X117515714Y-60230000D01*
X117563333Y-60277619D01*
X118420476Y-60515714D02*
X118420476Y-61182380D01*
X118182380Y-60134761D02*
X117944285Y-60849047D01*
X118563333Y-60849047D01*
%TO.C,C5*%
X99513333Y-70597142D02*
X99465714Y-70644761D01*
X99322857Y-70692380D01*
X99227619Y-70692380D01*
X99084761Y-70644761D01*
X98989523Y-70549523D01*
X98941904Y-70454285D01*
X98894285Y-70263809D01*
X98894285Y-70120952D01*
X98941904Y-69930476D01*
X98989523Y-69835238D01*
X99084761Y-69740000D01*
X99227619Y-69692380D01*
X99322857Y-69692380D01*
X99465714Y-69740000D01*
X99513333Y-69787619D01*
X100418095Y-69692380D02*
X99941904Y-69692380D01*
X99894285Y-70168571D01*
X99941904Y-70120952D01*
X100037142Y-70073333D01*
X100275238Y-70073333D01*
X100370476Y-70120952D01*
X100418095Y-70168571D01*
X100465714Y-70263809D01*
X100465714Y-70501904D01*
X100418095Y-70597142D01*
X100370476Y-70644761D01*
X100275238Y-70692380D01*
X100037142Y-70692380D01*
X99941904Y-70644761D01*
X99894285Y-70597142D01*
%TO.C,J1*%
X119246666Y-101202380D02*
X119246666Y-101916666D01*
X119199047Y-102059523D01*
X119103809Y-102154761D01*
X118960952Y-102202380D01*
X118865714Y-102202380D01*
X120246666Y-102202380D02*
X119675238Y-102202380D01*
X119960952Y-102202380D02*
X119960952Y-101202380D01*
X119865714Y-101345238D01*
X119770476Y-101440476D01*
X119675238Y-101488095D01*
%TO.C,J2*%
X127506666Y-87712380D02*
X127506666Y-88426666D01*
X127459047Y-88569523D01*
X127363809Y-88664761D01*
X127220952Y-88712380D01*
X127125714Y-88712380D01*
X127935238Y-87807619D02*
X127982857Y-87760000D01*
X128078095Y-87712380D01*
X128316190Y-87712380D01*
X128411428Y-87760000D01*
X128459047Y-87807619D01*
X128506666Y-87902857D01*
X128506666Y-87998095D01*
X128459047Y-88140952D01*
X127887619Y-88712380D01*
X128506666Y-88712380D01*
%TO.C,L1*%
X95192380Y-81156666D02*
X95192380Y-81632857D01*
X94192380Y-81632857D01*
X95192380Y-80299523D02*
X95192380Y-80870952D01*
X95192380Y-80585238D02*
X94192380Y-80585238D01*
X94335238Y-80680476D01*
X94430476Y-80775714D01*
X94478095Y-80870952D01*
%TO.C,R1*%
X117162380Y-77746666D02*
X116686190Y-78080000D01*
X117162380Y-78318095D02*
X116162380Y-78318095D01*
X116162380Y-77937142D01*
X116210000Y-77841904D01*
X116257619Y-77794285D01*
X116352857Y-77746666D01*
X116495714Y-77746666D01*
X116590952Y-77794285D01*
X116638571Y-77841904D01*
X116686190Y-77937142D01*
X116686190Y-78318095D01*
X117162380Y-76794285D02*
X117162380Y-77365714D01*
X117162380Y-77080000D02*
X116162380Y-77080000D01*
X116305238Y-77175238D01*
X116400476Y-77270476D01*
X116448095Y-77365714D01*
%TO.C,R2*%
X106723333Y-93672380D02*
X106390000Y-93196190D01*
X106151904Y-93672380D02*
X106151904Y-92672380D01*
X106532857Y-92672380D01*
X106628095Y-92720000D01*
X106675714Y-92767619D01*
X106723333Y-92862857D01*
X106723333Y-93005714D01*
X106675714Y-93100952D01*
X106628095Y-93148571D01*
X106532857Y-93196190D01*
X106151904Y-93196190D01*
X107104285Y-92767619D02*
X107151904Y-92720000D01*
X107247142Y-92672380D01*
X107485238Y-92672380D01*
X107580476Y-92720000D01*
X107628095Y-92767619D01*
X107675714Y-92862857D01*
X107675714Y-92958095D01*
X107628095Y-93100952D01*
X107056666Y-93672380D01*
X107675714Y-93672380D01*
%TD*%
M02*
