%TF.GenerationSoftware,KiCad,Pcbnew,(5.1.9)-1*%
%TF.CreationDate,2021-09-03T17:13:07+00:00*%
%TF.ProjectId,step_down_converter,73746570-5f64-46f7-976e-5f636f6e7665,rev?*%
%TF.SameCoordinates,Original*%
%TF.FileFunction,Copper,L2,Bot*%
%TF.FilePolarity,Positive*%
%FSLAX46Y46*%
G04 Gerber Fmt 4.6, Leading zero omitted, Abs format (unit mm)*
G04 Created by KiCad (PCBNEW (5.1.9)-1) date 2021-09-03 17:13:07*
%MOMM*%
%LPD*%
G01*
G04 APERTURE LIST*
%TA.AperFunction,ComponentPad*%
%ADD10O,2.400000X1.600000*%
%TD*%
%TA.AperFunction,ComponentPad*%
%ADD11O,2.400000X2.000000*%
%TD*%
%TA.AperFunction,ComponentPad*%
%ADD12R,2.400000X1.600000*%
%TD*%
%TA.AperFunction,ComponentPad*%
%ADD13R,1.600000X1.600000*%
%TD*%
%TA.AperFunction,ComponentPad*%
%ADD14C,1.600000*%
%TD*%
%TA.AperFunction,ComponentPad*%
%ADD15C,3.000000*%
%TD*%
%TA.AperFunction,ComponentPad*%
%ADD16C,2.400000*%
%TD*%
%TA.AperFunction,ComponentPad*%
%ADD17O,2.400000X2.400000*%
%TD*%
%TA.AperFunction,ComponentPad*%
%ADD18C,1.400000*%
%TD*%
%TA.AperFunction,ComponentPad*%
%ADD19O,1.400000X1.400000*%
%TD*%
%TA.AperFunction,Conductor*%
%ADD20C,0.250000*%
%TD*%
G04 APERTURE END LIST*
D10*
%TO.P,U1,8*%
%TO.N,N/C*%
X111300000Y-73570000D03*
D11*
%TO.P,U1,4*%
%TO.N,Net-(R1-Pad2)*%
X103680000Y-81190000D03*
%TO.P,U1,7*%
%TO.N,N/C*%
X111300000Y-76110000D03*
%TO.P,U1,3*%
%TO.N,VCC*%
X103680000Y-78650000D03*
%TO.P,U1,6*%
%TO.N,Net-(C3-Pad2)*%
X111300000Y-78650000D03*
%TO.P,U1,2*%
%TO.N,Net-(C3-Pad1)*%
X103680000Y-76110000D03*
%TO.P,U1,5*%
%TO.N,VCC*%
X111300000Y-81190000D03*
D12*
%TO.P,U1,1*%
%TO.N,GND*%
X103680000Y-73570000D03*
%TD*%
D13*
%TO.P,C1,1*%
%TO.N,VCC*%
X122250000Y-80250000D03*
D14*
%TO.P,C1,2*%
%TO.N,GND*%
X122250000Y-75250000D03*
%TD*%
%TO.P,C2,2*%
%TO.N,GND*%
X89030000Y-72780000D03*
D13*
%TO.P,C2,1*%
%TO.N,VCC*%
X89030000Y-77780000D03*
%TD*%
%TO.P,C3,1*%
%TO.N,Net-(C3-Pad1)*%
X105990000Y-65450000D03*
D14*
%TO.P,C3,2*%
%TO.N,Net-(C3-Pad2)*%
X110990000Y-65450000D03*
%TD*%
D13*
%TO.P,C4,1*%
%TO.N,Net-(C4-Pad1)*%
X115230000Y-65980000D03*
D14*
%TO.P,C4,2*%
%TO.N,GND*%
X120230000Y-65980000D03*
%TD*%
%TO.P,C5,2*%
%TO.N,GND*%
X97180000Y-64990000D03*
D13*
%TO.P,C5,1*%
%TO.N,Net-(C4-Pad1)*%
X102180000Y-64990000D03*
%TD*%
D15*
%TO.P,J1,1*%
%TO.N,VCC*%
X119580000Y-96250000D03*
%TO.P,J1,2*%
%TO.N,GND*%
X114580000Y-96250000D03*
%TD*%
%TO.P,J2,2*%
%TO.N,Net-(C4-Pad1)*%
X132840000Y-93760000D03*
%TO.P,J2,1*%
%TO.N,GND*%
X127840000Y-93760000D03*
%TD*%
D16*
%TO.P,L1,1*%
%TO.N,Net-(C3-Pad1)*%
X98360000Y-88610000D03*
D17*
%TO.P,L1,2*%
%TO.N,Net-(C4-Pad1)*%
X98360000Y-73370000D03*
%TD*%
D18*
%TO.P,R1,1*%
%TO.N,Net-(C4-Pad1)*%
X114790000Y-73770000D03*
D19*
%TO.P,R1,2*%
%TO.N,Net-(R1-Pad2)*%
X114790000Y-81390000D03*
%TD*%
%TO.P,R2,2*%
%TO.N,GND*%
X103080000Y-91300000D03*
D18*
%TO.P,R2,1*%
%TO.N,Net-(R1-Pad2)*%
X110700000Y-91300000D03*
%TD*%
D20*
%TO.N,VCC*%
X108760000Y-78650000D02*
X111300000Y-81190000D01*
X103680000Y-78650000D02*
X108760000Y-78650000D01*
X111300000Y-81190000D02*
X112320000Y-81190000D01*
X112320000Y-81190000D02*
X114520000Y-78990000D01*
X114520000Y-78990000D02*
X119230000Y-78990000D01*
X120490000Y-80250000D02*
X122250000Y-80250000D01*
X119230000Y-78990000D02*
X120490000Y-80250000D01*
X122250000Y-80250000D02*
X122250000Y-82160000D01*
X119580000Y-84830000D02*
X119580000Y-96250000D01*
X122250000Y-82160000D02*
X119580000Y-84830000D01*
X89030000Y-77780000D02*
X89030000Y-78830000D01*
X100980000Y-79900000D02*
X102230000Y-78650000D01*
X89030000Y-78830000D02*
X90100000Y-79900000D01*
X90100000Y-79900000D02*
X100980000Y-79900000D01*
X102230000Y-78650000D02*
X103680000Y-78650000D01*
%TO.N,GND*%
X103080000Y-91300000D02*
X103080000Y-94390000D01*
X104940000Y-96250000D02*
X114580000Y-96250000D01*
X103080000Y-94390000D02*
X104940000Y-96250000D01*
X114580000Y-96250000D02*
X118310000Y-99980000D01*
X121620000Y-99980000D02*
X127840000Y-93760000D01*
X118310000Y-99980000D02*
X121620000Y-99980000D01*
X120230000Y-65980000D02*
X120230000Y-67590000D01*
X122250000Y-69610000D02*
X122250000Y-75250000D01*
X89390000Y-72780000D02*
X89030000Y-72780000D01*
X97180000Y-64990000D02*
X89390000Y-72780000D01*
X97180000Y-64990000D02*
X97180000Y-68670000D01*
X97180000Y-68670000D02*
X95600000Y-70250000D01*
X95600000Y-70250000D02*
X95600000Y-75220000D01*
X95600000Y-75220000D02*
X96050000Y-75670000D01*
X101580000Y-75670000D02*
X103680000Y-73570000D01*
X96050000Y-75670000D02*
X101580000Y-75670000D01*
X103080000Y-91300000D02*
X93490000Y-91300000D01*
X93490000Y-91300000D02*
X84060000Y-81870000D01*
X84060000Y-81870000D02*
X84060000Y-73550000D01*
X84830000Y-72780000D02*
X89030000Y-72780000D01*
X84060000Y-73550000D02*
X84830000Y-72780000D01*
X121660000Y-69020000D02*
X125860000Y-69020000D01*
X120230000Y-67590000D02*
X121660000Y-69020000D01*
X121660000Y-69020000D02*
X122250000Y-69610000D01*
X125860000Y-69020000D02*
X139030000Y-82190000D01*
X139030000Y-82190000D02*
X139030000Y-94120000D01*
X139030000Y-94120000D02*
X133980000Y-99170000D01*
X133250000Y-99170000D02*
X127840000Y-93760000D01*
X133980000Y-99170000D02*
X133250000Y-99170000D01*
%TO.N,Net-(C3-Pad1)*%
X103680000Y-76110000D02*
X106030000Y-76110000D01*
X105990000Y-76070000D02*
X105990000Y-65450000D01*
X106030000Y-76110000D02*
X105990000Y-76070000D01*
X98360000Y-88610000D02*
X98230000Y-88610000D01*
X98360000Y-88610000D02*
X94630000Y-88610000D01*
X94630000Y-88610000D02*
X86630000Y-80610000D01*
X86630000Y-77994998D02*
X88544998Y-76080000D01*
X86630000Y-80610000D02*
X86630000Y-77994998D01*
X88544998Y-76080000D02*
X95510000Y-76080000D01*
X95510000Y-76080000D02*
X97290000Y-77860000D01*
X101930000Y-77860000D02*
X103680000Y-76110000D01*
X97290000Y-77860000D02*
X101930000Y-77860000D01*
%TO.N,Net-(C3-Pad2)*%
X110990000Y-65450000D02*
X110990000Y-67160000D01*
X110990000Y-67160000D02*
X113280000Y-69450000D01*
X113280000Y-69450000D02*
X113280000Y-77720000D01*
X112350000Y-78650000D02*
X111300000Y-78650000D01*
X113280000Y-77720000D02*
X112350000Y-78650000D01*
%TO.N,Net-(C4-Pad1)*%
X115230000Y-73330000D02*
X114790000Y-73770000D01*
X115230000Y-65980000D02*
X115230000Y-73330000D01*
X102180000Y-69550000D02*
X98360000Y-73370000D01*
X102180000Y-64990000D02*
X102180000Y-69550000D01*
X116490000Y-73770000D02*
X117560000Y-73770000D01*
X114790000Y-73770000D02*
X116490000Y-73770000D01*
X116490000Y-73770000D02*
X116850000Y-73770000D01*
X117560000Y-73770000D02*
X121190000Y-77400000D01*
X121190000Y-77400000D02*
X125800000Y-77400000D01*
X132840000Y-84440000D02*
X132840000Y-93760000D01*
X125800000Y-77400000D02*
X132840000Y-84440000D01*
X102180000Y-64990000D02*
X102180000Y-60920000D01*
X102180000Y-60920000D02*
X103330000Y-59770000D01*
X103330000Y-59770000D02*
X112030000Y-59770000D01*
X115230000Y-62970000D02*
X115230000Y-65980000D01*
X112030000Y-59770000D02*
X115230000Y-62970000D01*
%TO.N,Net-(R1-Pad2)*%
X103680000Y-84280000D02*
X110700000Y-91300000D01*
X103680000Y-81190000D02*
X103680000Y-84280000D01*
X110700000Y-91300000D02*
X110700000Y-87080000D01*
X114790000Y-82990000D02*
X114790000Y-81390000D01*
X110700000Y-87080000D02*
X114790000Y-82990000D01*
%TD*%
M02*
